<?xml version="1.0" standalone="no"?>
<!DOCTYPE svg PUBLIC "-//W3C//DTD SVG 20010904//EN"
 "http://www.w3.org/TR/2001/REC-SVG-20010904/DTD/svg10.dtd">
<svg version="1.0" xmlns="http://www.w3.org/2000/svg"
 width="528.000000pt" height="528.000000pt" viewBox="0 0 528.000000 528.000000"
 preserveAspectRatio="xMidYMid meet">
<metadata>
Created by potrace 1.14, written by Peter Selinger 2001-2017
</metadata>
<g transform="translate(0.000000,528.000000) scale(0.100000,-0.100000)"
fill="#000000" stroke="none">
<path d="M209 5233 c0 -21 -2 -65 -4 -98 -1 -33 -6 -141 -9 -240 -9 -209 -12
-305 -21 -505 -4 -80 -8 -194 -10 -255 -2 -60 -6 -164 -9 -230 -3 -66 -8 -185
-11 -265 -6 -168 -13 -349 -20 -505 -3 -60 -7 -173 -10 -250 -3 -77 -7 -185
-10 -240 -3 -55 -7 -170 -10 -255 -8 -210 -13 -339 -20 -500 -3 -74 -7 -191
-10 -260 -2 -69 -7 -183 -10 -255 -3 -71 -7 -184 -10 -250 -3 -66 -7 -172 -10
-235 -2 -63 -7 -182 -10 -265 -3 -82 -7 -197 -10 -255 -3 -58 -7 -165 -10
-238 l-5 -132 2568 2 2567 3 1 60 c0 33 4 184 9 335 4 151 9 316 10 365 1 50
6 203 9 340 4 138 9 311 11 385 10 330 23 807 30 1080 3 113 7 273 10 355 2
83 7 247 10 365 3 118 8 285 10 370 3 85 7 243 10 350 3 107 7 276 10 375 3
99 8 261 10 360 3 99 7 258 10 353 l5 172 -2535 0 -2535 0 -1 -37z"/>
</g>
</svg>
