<?xml version="1.0" standalone="no"?>
<!DOCTYPE svg PUBLIC "-//W3C//DTD SVG 20010904//EN"
 "http://www.w3.org/TR/2001/REC-SVG-20010904/DTD/svg10.dtd">
<svg version="1.0" xmlns="http://www.w3.org/2000/svg"
 width="167.000000pt" height="167.000000pt" viewBox="0 0 167.000000 167.000000"
 preserveAspectRatio="xMidYMid meet">
<metadata>
Created by potrace 1.11, written by Peter Selinger 2001-2013
</metadata>
<g transform="translate(0.000000,167.000000) scale(0.100000,-0.100000)"
fill="#000000" stroke="none">
<path d="M727 1624 c-2 -1 -62 -7 -202 -20 -88 -8 -149 -13 -210 -20 -33 -4
-70 -8 -82 -8 -12 -1 -25 -4 -28 -8 -4 -4 -55 -260 -100 -507 -2 -14 -9 -47
-14 -75 -6 -28 -13 -64 -16 -81 -2 -16 -10 -57 -16 -90 -6 -33 -13 -71 -15
-85 -3 -14 -13 -68 -24 -120 -48 -247 -7 -377 154 -487 73 -50 163 -75 274
-75 186 -1 339 47 429 134 l41 40 17 -36 c28 -59 98 -108 181 -126 126 -29
249 -7 356 62 43 27 108 105 108 129 0 4 -12 10 -27 14 -67 16 -104 70 -105
155 -1 49 1 63 33 225 11 61 23 121 26 134 2 14 20 108 39 210 19 103 39 206
44 231 5 25 12 56 14 70 3 22 12 69 31 170 2 14 11 58 18 98 l14 73 -56 -6
c-31 -3 -72 -8 -91 -10 -19 -2 -64 -7 -100 -10 -36 -4 -81 -8 -100 -10 -129
-14 -178 -18 -197 -19 -13 0 -23 -2 -23 -4 0 -2 -9 -47 -20 -100 -10 -54 -22
-113 -25 -132 -3 -19 -28 -150 -56 -290 -28 -140 -56 -289 -64 -330 -8 -41
-16 -85 -19 -96 -2 -12 -7 -39 -10 -60 -29 -183 -131 -315 -243 -314 -90 1
-118 113 -78 320 9 47 22 117 30 155 7 39 23 122 35 185 12 63 28 150 36 193
9 42 18 90 20 105 3 15 20 107 39 206 43 218 42 216 9 214 -14 -2 -26 -3 -27
-4z"/>
</g>
</svg>
