<?xml version="1.0" encoding="iso-8859-1"?>
<!-- Generator: Adobe Illustrator 19.0.0, SVG Export Plug-In . SVG Version: 6.00 Build 0)  -->
<svg version="1.1" id="Capa_1" xmlns="http://www.w3.org/2000/svg" xmlns:xlink="http://www.w3.org/1999/xlink" x="0px" y="0px"
	 viewBox="0 0 512.002 512.002" style="enable-background:new 0 0 512.002 512.002;" xml:space="preserve">
<path style="fill:#2DADE3;" d="M332.99,315.269l30,75c21.217,0,30,0,30,0v-45L332.99,315.269z"/>
<path style="fill:#7DD9FF;" d="M302.99,345.269c0,24.853,20.147,45,45,45h15v-75L302.99,345.269z"/>
<polygon style="fill:#A45E43;" points="362.99,345.269 392.99,345.269 392.99,285.269 347.99,270.269 "/>
<polygon style="fill:#C27749;" points="362.99,345.269 302.99,345.269 302.99,285.269 362.99,270.269 "/>
<path style="fill:#2DADE3;" d="M372.99,225.269h-30l20,60h30v-40C392.99,234.223,384.036,225.269,372.99,225.269z"/>
<path style="fill:#7DD9FF;" d="M362.99,245.269c0-11.046-8.954-20-20-20h-20c-11.046,0-20,8.954-20,20v40h60V245.269z"/>
<circle style="fill:#60312C;" cx="347.99" cy="82.77" r="22.5"/>
<path style="fill:#A45E43;" d="M382.245,121.104c0.01-0.01-34.255-0.005-34.255-0.005v74.17c24.85,0,45-20.15,45-45
	C392.99,139.149,388.945,128.954,382.245,121.104z"/>
<path style="fill:#C27749;" d="M361.88,133.279l-48.145-12.175c-6.7,7.85-10.745,18.045-10.745,29.165c0,24.85,20.15,45,45,45
	c8.28,0,15-20.15,15-45C362.99,144.259,362.6,138.519,361.88,133.279z"/>
<path style="fill:#40211D;" d="M347.99,105.269l13.89,28.01c7.45-2.23,14.475-6.295,20.365-12.175
	C373.995,111.414,361.71,105.269,347.99,105.269z"/>
<g>
	<path style="fill:#60312C;" d="M347.99,105.269c-13.72,0-26.005,6.145-34.255,15.835c13.04,13.04,31.645,17.105,48.145,12.175
		C359.65,116.849,354.27,105.269,347.99,105.269z"/>
	<circle style="fill:#60312C;" cx="119.49" cy="30" r="22.5"/>
</g>
<path style="fill:#A45E43;" d="M153.749,68.335c0.01-0.01-34.255-0.005-34.255-0.005v74.17c24.85,0,45-20.15,45-45
	C164.494,86.38,160.449,76.185,153.749,68.335z"/>
<path style="fill:#C27749;" d="M133.384,80.51L85.239,68.335c-6.7,7.85-10.745,18.045-10.745,29.165c0,24.85,20.15,45,45,45
	c8.28,0,15-20.15,15-45C134.494,91.49,134.104,85.75,133.384,80.51z"/>
<path style="fill:#40211D;" d="M119.494,52.5l13.89,28.01c7.45-2.23,14.475-6.295,20.365-12.175
	C145.499,58.645,133.214,52.5,119.494,52.5z"/>
<path style="fill:#60312C;" d="M119.494,52.5c-13.72,0-26.005,6.145-34.255,15.835c13.04,13.04,31.645,17.105,48.145,12.175
	C131.154,64.08,125.774,52.5,119.494,52.5z"/>
<polygon style="fill:#A45E43;" points="119.494,307.5 164.494,292.5 164.494,232.5 119.494,217.5 "/>
<polygon style="fill:#C27749;" points="134.494,307.5 74.494,292.5 74.494,232.5 134.494,217.5 "/>
<g>
	<path style="fill:#2DADE3;" d="M119.494,337.5c24.853,0,45-20.147,45-45h-30L119.494,337.5z"/>
	<path style="fill:#2DADE3;" d="M144.494,172.5h-30l20,60h30v-40C164.494,181.454,155.54,172.5,144.494,172.5z"/>
</g>
<g>
	<path style="fill:#7DD9FF;" d="M74.494,292.5c0,24.853,20.147,45,45,45c8.284,0,15-20.147,15-45H74.494z"/>
	<path style="fill:#7DD9FF;" d="M134.494,192.5c0-11.046-8.954-20-20-20h-20c-11.046,0-20,8.954-20,20v40h60V192.5z"/>
</g>
<path d="M347.99,202.77c28.948,0,52.5-23.552,52.5-52.5c0-20.964-12.356-39.09-30.165-47.498c4.762-5.312,7.665-12.323,7.665-20.002
	c0-16.542-13.458-30-30-30s-30,13.458-30,30c0,7.678,2.903,14.69,7.665,20.002c-17.808,8.408-30.165,26.534-30.165,47.498
	C295.49,179.218,319.042,202.77,347.99,202.77z M371.022,120.708c-6.742,4.611-14.697,7.098-23.032,7.098
	c-8.335,0-16.29-2.487-23.032-7.098c6.361-4.967,14.354-7.938,23.032-7.938S364.66,115.741,371.022,120.708z M332.99,82.77
	c0-8.271,6.729-15,15-15s15,6.729,15,15s-6.729,15-15,15S332.99,91.041,332.99,82.77z M315.168,132.157
	c9.491,6.909,20.87,10.648,32.822,10.648c11.953,0,23.332-3.739,32.822-10.648c2.977,5.373,4.678,11.547,4.678,18.112
	c0,20.678-16.822,37.5-37.5,37.5s-37.5-16.822-37.5-37.5C310.49,143.704,312.191,137.531,315.168,132.157z"/>
<path d="M489.878,497.385l-24.872-8.29V390.27c0-4.143-3.357-7.5-7.5-7.5H400.49v-137.5c0-15.163-12.337-27.5-27.5-27.5h-50
	c-12.703,0-23.418,8.66-26.562,20.385c-28.626,3.268-50.938,27.628-50.938,57.115c0,29.331,22.08,53.585,50.488,57.057
	c3.128,23.164,21.409,41.578,44.512,44.899V467h-75.996c-3.229,0-6.095,2.065-7.115,5.128l-10,30
	c-1.31,3.93,0.814,8.178,4.744,9.487c0.787,0.263,1.586,0.387,2.373,0.387c3.14,0,6.067-1.987,7.114-5.13L269.9,482h78.09
	c4.143,0,7.5-3.357,7.5-7.5v-76.73h94.516v96.73c0,3.229,2.065,6.095,5.128,7.115l30,10c0.787,0.262,1.587,0.387,2.373,0.387
	c3.14,0,6.066-1.987,7.114-5.13C495.93,502.942,493.807,498.694,489.878,497.385z M310.49,292.77h75v45h-75V292.77z M322.99,232.77
	h50c6.893,0,12.5,5.607,12.5,12.5v32.5h-75v-32.5C310.49,238.377,316.097,232.77,322.99,232.77z M260.49,295.27
	c0-20.875,15.132-38.27,35-41.824v83.648C275.622,333.539,260.49,316.144,260.49,295.27z M347.99,382.77
	c-18.11,0-33.261-12.904-36.745-30h74.245v30H347.99z"/>
<path d="M119.494,150c28.949,0,52.5-23.552,52.5-52.5c0-20.964-12.356-39.09-30.165-47.499c4.762-5.312,7.665-12.323,7.665-20.001
	c0-16.542-13.458-30-30-30s-30,13.458-30,30c0,7.678,2.903,14.69,7.665,20.001C79.351,58.41,66.994,76.536,66.994,97.5
	C66.994,126.448,90.546,150,119.494,150z M142.517,67.931c-13.839,9.419-32.206,9.42-46.045,0C102.832,62.968,110.82,60,119.494,60
	S136.157,62.968,142.517,67.931z M104.494,30c0-8.271,6.729-15,15-15s15,6.729,15,15s-6.729,15-15,15S104.494,38.271,104.494,30z
	 M86.674,79.384c9.75,7.073,21.282,10.615,32.82,10.615c11.535,0,23.069-3.543,32.82-10.615c2.978,5.374,4.68,11.549,4.68,18.116
	c0,20.678-16.822,37.5-37.5,37.5s-37.5-16.822-37.5-37.5C81.994,90.933,83.696,84.758,86.674,79.384z"/>
<path d="M181.866,497.385l-24.872-8.29V329.192c9.27-9.472,15-22.423,15-36.692v-100c0-15.163-12.336-27.5-27.5-27.5h-50
	c-12.703,0-23.418,8.661-26.562,20.385c-28.625,3.268-50.938,27.628-50.938,57.115c0,29.331,22.08,53.585,50.488,57.057
	c1.547,11.458,6.797,21.752,14.512,29.635V494.5c0,3.229,2.066,6.095,5.128,7.115l30,10c0.787,0.262,1.586,0.387,2.373,0.387
	c3.14,0,6.066-1.987,7.114-5.13c1.31-3.93-0.814-8.178-4.744-9.487l-24.872-8.29V339.924c6.824,3.251,14.452,5.076,22.5,5.076
	s15.676-1.826,22.5-5.076V494.5c0,3.229,2.066,6.095,5.128,7.115l30,10c0.787,0.262,1.586,0.387,2.373,0.387
	c3.14,0,6.066-1.987,7.114-5.13C187.919,502.942,185.796,498.694,181.866,497.385z M81.994,240h75v45h-75V240z M94.494,180h50
	c6.893,0,12.5,5.607,12.5,12.5V225h-75v-32.5C81.994,185.607,87.602,180,94.494,180z M31.994,242.5c0-20.875,15.132-38.27,35-41.824
	v83.648C47.126,280.77,31.994,263.375,31.994,242.5z M82.749,300h73.491c-3.484,17.096-18.635,30-36.745,30
	S86.233,317.096,82.749,300z"/>
<g>
</g>
<g>
</g>
<g>
</g>
<g>
</g>
<g>
</g>
<g>
</g>
<g>
</g>
<g>
</g>
<g>
</g>
<g>
</g>
<g>
</g>
<g>
</g>
<g>
</g>
<g>
</g>
<g>
</g>
</svg>
