<svg id="Capa_1" enable-background="new 0 0 512 512" height="512" viewBox="0 0 512 512" width="512" xmlns="http://www.w3.org/2000/svg"><g><g><g><path d="m475.491 99.623h-418.793v361.643h418.793c5.523 0 10-4.477 10-10v-341.643c0-5.523-4.477-10-10-10z" fill="#86e8d0"/><path d="m494.491 99.623h-30c5.523 0 10 4.477 10 10v341.643c0 5.523-4.477 10-10 10h30c5.523 0 10-4.477 10-10v-80.414l-10-102.913 10-77.902v-80.414c0-5.523-4.477-10-10-10z" fill="#0ed2b3"/><path d="m474.491 370.852h-417.793v-180.815h417.793l15 90.408z" fill="#fea3c6"/><path d="m474.491 190.037h30v180.815h-30z" fill="#fe76a8"/><path d="m95.905 412.06h-88.414v-74.219l1-96.469-1-51.153v-90.596c0-20.382 12.392-37.87 30.053-45.34 5.887-2.49 12.359-2.867 19.153-2.867 27.176 0 39.207 21.03 39.207 48.207v312.437z" fill="#ffe177"/><path d="m56.698 50.416c-5.232 0-10.27.824-15 2.337 19.839 6.344 34.207 24.926 34.207 46.87v312.437h30v-74.219l-2.952-106.103 2.952-48.585v-83.53c0-27.176-22.031-49.207-49.207-49.207z" fill="#ffc344"/><path d="m75.852 292.501c-5.887-2.49-12.359-3.867-19.153-3.867-27.176 0-49.207 22.031-49.207 49.207v-147.623c0-27.176 22.03-49.207 49.207-49.207 6.815 0 13.306 1.385 19.207 3.89 17.632 7.483 19.999 44.956 19.999 65.317z" fill="#eef5f6"/><path d="m105.905 337.841v-147.623c0-20.361-12.368-37.833-30-45.316v147.623c17.632 7.483 30 24.954 30 45.316z" fill="#deecf1"/><path d="m95.905 412.06c0 27.176-12.031 48.207-39.207 48.207-3.397 0-6.714.656-9.917 0-22.423-4.588-39.29-24.428-39.29-48.207 0-23.749 16.825-43.569 39.206-48.19 3.229-.667 6.574-.017 10-.017 27.177 0 39.208 21.031 39.208 48.207z" fill="#eef5f6"/><path d="m56.698 362.853c-3.427 0-6.771.352-10 1.019 22.381 4.621 39.207 24.438 39.207 48.188 0 23.749-16.826 43.567-39.207 48.188 3.229.667 6.573 1.019 10 1.019 27.176 0 49.207-22.031 49.207-49.207s-22.031-49.207-49.207-49.207z" fill="#deecf1"/><circle cx="56.698" cy="412.06" fill="#86e8d0" r="17.111"/></g></g><g><path d="m81.318 412.218c0-13.571-11.041-24.611-24.611-24.611-13.571 0-24.612 11.041-24.612 24.611s11.041 24.611 24.612 24.611c13.57.001 24.611-11.04 24.611-24.611zm-34.223 0c0-5.3 4.313-9.611 9.612-9.611s9.611 4.312 9.611 9.611-4.311 9.611-9.611 9.611-9.612-4.311-9.612-9.611z"/><path d="m0 412.218c0 31.268 25.438 56.707 56.707 56.707h437.793c9.649 0 17.5-7.851 17.5-17.5v-341.643c0-9.649-7.851-17.5-17.5-17.5h-287.168c-4.143 0-7.5 3.358-7.5 7.5s3.357 7.5 7.5 7.5h287.168c1.379 0 2.5 1.122 2.5 2.5v72.914h-383.587v-75.414h61.232c4.143 0 7.5-3.358 7.5-7.5s-3.357-7.5-7.5-7.5h-61.744c-3.683-27.734-27.471-49.207-56.195-49.207-31.268 0-56.706 25.439-56.706 56.707v123.46c0 4.142 3.357 7.5 7.5 7.5s7.5-3.358 7.5-7.5v-32.865c0-22.997 18.71-41.707 41.707-41.707s41.706 18.71 41.706 41.707v109.24c-10.37-11.259-25.229-18.324-41.707-18.324s-31.336 7.064-41.706 18.324v-43.689c0-4.142-3.357-7.5-7.5-7.5s-7.5 3.358-7.5 7.5v156.29zm56.706-278.548c-16.48 0-31.336 7.072-41.706 18.335v-52.223c0-22.997 18.71-41.707 41.707-41.707s41.706 18.709 41.706 41.707v52.224c-10.37-11.264-25.226-18.336-41.707-18.336zm-41.706 204.33c0-22.997 18.71-41.707 41.707-41.707s41.706 18.709 41.706 41.707v35.847c-10.37-11.263-25.226-18.335-41.706-18.335-16.481 0-31.337 7.072-41.707 18.335zm0 74.218c0-22.997 18.71-41.707 41.707-41.707s41.706 18.71 41.706 41.707-18.709 41.707-41.706 41.707-41.707-18.71-41.707-41.707zm98.413-214.522h383.587v165.815h-77.32c-4.143 0-7.5 3.358-7.5 7.5s3.357 7.5 7.5 7.5h77.32v72.914c0 1.378-1.121 2.5-2.5 2.5h-399.422c11.262-10.37 18.335-25.226 18.335-41.707v-33.707h273.58c4.143 0 7.5-3.358 7.5-7.5s-3.357-7.5-7.5-7.5h-273.58z"/></g></g></svg>