<svg height="512pt" viewBox="-91 0 512 512" width="512pt" xmlns="http://www.w3.org/2000/svg"><path d="m127.5 232.5 30 105h30v-75zm0 0" fill="#ff1b7c"/><path d="m97.5 292.5c0 24.851562 20.148438 45 45 45h15v-105l-60 30zm0 0" fill="#ff4996"/><path d="m157.5 172.5h-20l20 90h30v-40zm0 0" fill="#ff6b8a"/><path d="m167.5 172.5h-10l-20 20h20c0 16.566406 13.429688 30 30 30v-30c0-11.046875-8.953125-20-20-20zm0 0" fill="#ffd9d4"/><path d="m157.5 172.5h-30l-30 50v40h60zm0 0" fill="#ff8d7e"/><path d="m127.5 192.5v-20h-10c-11.046875 0-20 8.953125-20 20v30c16.570312 0 30-13.433594 30-30zm0 0" fill="#fff0d3"/><path d="m158.292969 17.5c-2.8125-5.90625-8.816407-10-15.792969-10s-12.984375 4.09375-15.792969 10c-9.664062 0-17.5 7.835938-17.5 17.5s7.835938 17.5 17.5 17.5h31.585938c9.664062 0 17.5-7.835938 17.5-17.5s-7.835938-17.5-17.5-17.5zm0 0" fill="#ff6337"/><path d="m142.5 52.5v90c24.851562 0 45-20.148438 45-45s-20.148438-45-45-45zm0 0" fill="#ffd9d4"/><path d="m157.5 97.5c0-24.851562-6.714844-45-15-45-24.851562 0-45 20.148438-45 45s20.148438 45 45 45c8.285156 0 15-20.148438 15-45zm0 0" fill="#fff0d3"/><path d="m292.5 459.5-30 15 30 15h30v-30zm0 0" fill="#4f4f4f"/><path d="m202.5 459.5h90v30h-90zm0 0" fill="#696969"/><path d="m174.871094 497.382812-24.871094-8.289062v-144.09375h97.5c4.136719 0 7.5 3.363281 7.5 7.5 0 3.261719-2.089844 6.128906-5.199219 7.132812l-79.609375 25.730469c-3.09375 1-5.191406 3.882813-5.191406 7.136719v30c0 4.140625 3.355469 7.5 7.5 7.5 4.140625 0 7.5-3.359375 7.5-7.5v-24.542969l74.410156-24.046875c9.324219-3.011718 15.589844-11.613281 15.589844-21.410156 0-12.40625-10.09375-22.5-22.5-22.5h-52.5v-130.285156c50.269531-3.84375 90-45.976563 90-97.214844 0-4.144531-3.359375-7.5-7.5-7.5-4.144531 0-7.5 3.355469-7.5 7.5 0 43.34375-33.605469 78.960938-76.125 82.226562-3.363281-11.386718-13.910156-19.726562-26.375-19.726562h-50c-12.464844 0-23.011719 8.339844-26.375 19.726562-42.519531-3.265624-76.125-38.882812-76.125-82.226562 0-4.144531-3.359375-7.5-7.5-7.5s-7.5 3.355469-7.5 7.5c0 51.238281 39.730469 93.371094 90 97.214844v92.785156c0 26.398438 19.59375 48.300781 45 51.953125v150.046875c0 3.226562 2.066406 6.09375 5.128906 7.113281l30 10c.785156.261719 1.585938.386719 2.371094.386719 3.140625 0 6.066406-1.988281 7.113281-5.128906 1.3125-3.929688-.8125-8.179688-4.742187-9.488282zm-69.871094-268.140624c17.09375-3.480469 30-18.632813 30-36.742188v-12.5h15v12.5c0 18.109375 12.902344 33.261719 30 36.742188v25.757812h-75zm75-36.742188v21.210938c-8.730469-3.097657-15-11.433594-15-21.210938v-12.5h2.5c6.890625 0 12.5 5.605469 12.5 12.5zm-62.5-12.5h2.5v12.5c0 9.777344-6.269531 18.113281-15 21.210938v-21.210938c0-6.894531 5.605469-12.5 12.5-12.5zm-12.5 112.5v-22.5h75v60h-37.5c-20.679688 0-37.5-16.824219-37.5-37.5zm0 0"/><path d="m90 97.5c0 28.949219 23.550781 52.5 52.5 52.5s52.5-23.550781 52.5-52.5c0-17.460938-8.578125-32.945312-21.730469-42.496094 6.082031-4.566406 10.023438-11.832031 10.023438-20.003906 0-12.257812-8.871094-22.484375-20.527344-24.597656-4.648437-6.429688-12.203125-10.402344-20.265625-10.402344-8.066406 0-15.617188 3.972656-20.265625 10.402344-11.660156 2.113281-20.527344 12.339844-20.527344 24.597656 0 8.171875 3.941407 15.4375 10.019531 20.003906-13.152343 9.550782-21.726562 25.035156-21.726562 42.496094zm52.5 37.5c-20.679688 0-37.5-16.824219-37.5-37.5 0-2.570312.261719-5.078125.753906-7.5h73.492188c.492187 2.421875.753906 4.929688.753906 7.5 0 20.675781-16.824219 37.5-37.5 37.5zm-29.980469-60c6.847657-9.101562 17.738281-15 29.980469-15s23.128906 5.898438 29.980469 15zm14.1875-30c-5.515625 0-10-4.484375-10-10s4.484375-10 10-10c2.894531 0 5.527344-1.664062 6.769531-4.277344 1.683594-3.53125 5.136719-5.722656 9.023438-5.722656 3.882812 0 7.339844 2.191406 9.019531 5.722656 1.242188 2.613282 3.878907 4.277344 6.773438 4.277344 5.511719 0 10 4.484375 10 10s-4.488281 10-10 10zm0 0"/><path d="m322.5 452h-120c-4.144531 0-7.5 3.355469-7.5 7.5v44.996094c0 4.144531 3.355469 7.5 7.5 7.5 4.140625 0 7.5-3.355469 7.5-7.5v-7.496094h105v7.496094c0 4.144531 3.355469 7.5 7.5 7.5 4.140625 0 7.5-3.355469 7.5-7.5v-44.996094c0-4.144531-3.359375-7.5-7.5-7.5zm-112.5 30v-15h105v15zm0 0"/></svg>