<svg height="512pt" viewBox="-13 0 512 512" width="512pt" xmlns="http://www.w3.org/2000/svg"><path d="m383.355469 227.5h-30v94.988281h50v-74.988281c0-11.046875-8.957031-20-20-20zm0 0" fill="#ffa754"/><path d="m353.355469 227.5h-20c-11.046875 0-20 8.953125-20 20v74.988281h60v-74.988281c0-11.046875-8.957031-20-20-20zm0 0" fill="#ffcb63"/><path d="m403.699219 349.488281-30.34375-41.988281h-60c-7.941407 9.003906-13.230469 20.40625-14.625 32.988281l-4.1875 39h45.273437l3.191406-30zm0 0" fill="#999"/><path d="m417.976562 340.488281c-1.390624-12.582031-6.683593-23.980469-14.621093-32.988281h-30l.34375 41.988281 3.195312 30h45.273438zm0 0" fill="#808080"/><path d="m412.800781 176.351562-9.445312-23.851562h25.652343c3.421876-.023438 6.886719.953125 9.933594 3.023438 7.992188 5.429687 10.070313 16.316406 4.636719 24.308593-5.429687 7.996094-16.316406 10.070313-24.308594 4.640625-3.046875-2.070312-5.226562-4.929687-6.46875-8.121094zm0 0" fill="#85453d"/><path d="m303.90625 176.351562 9.449219-23.851562h-25.65625c-3.421875-.023438-6.886719.953125-9.933594 3.023438-7.992187 5.429687-10.070313 16.316406-4.636719 24.308593 5.429688 7.996094 16.316406 10.070313 24.308594 4.640625 3.046875-2.070312 5.230469-4.929687 6.46875-8.121094zm0 0" fill="#a45e43"/><path d="m358.355469 107.5v90c24.851562 0 45-20.148438 45-45zm0 0" fill="#ffb4a9"/><path d="m358.355469 107.5-45 45c0 24.851562 20.144531 45 45 45 8.28125 0 15-20.148438 15-45 0-24.855469-6.71875-45-15-45zm0 0" fill="#ffd9d4"/><path d="m358.355469 107.5c-24.855469 0-45 20.144531-45 45 24.851562 0 45-20.148438 45-45zm0 0" fill="#a45e43"/><path d="m403.355469 152.5c0-24.855469-20.148438-45-45-45 0 24.851562 20.144531 45 45 45zm0 0" fill="#85453d"/><path d="m187.5 292.5h-60v-75.011719l60 30zm0 0" fill="#c27749"/><path d="m157.5 292.5h-60v-45.011719l60-30zm0 0" fill="#e18f4e"/><path d="m167.5 172.5h-30l20 74.988281h30v-54.988281c0-11.046875-8.953125-20-20-20zm0 0" fill="#9db55f"/><path d="m137.5 172.5h-20c-11.046875 0-20 8.953125-20 20v54.988281h60v-54.988281c0-11.046875-8.953125-20-20-20zm0 0" fill="#b9d171"/><path d="m187.84375 319.488281-30.34375-41.988281h-60c-7.941406 9.003906-13.230469 20.40625-14.621094 32.988281l-4.191406 39h45.273438l3.195312-30zm0 0" fill="#4f4f4f"/><path d="m202.121094 310.488281c-1.390625-12.582031-6.679688-23.980469-14.621094-32.988281h-30l.34375 41.988281 3.195312 30h45.273438zm0 0" fill="#353535"/><path d="m176.753906 68.335938c.011719-.011719-34.253906-.007813-34.253906-.007813v74.171875c24.851562 0 45-20.152344 45-45 0-11.121094-4.046875-21.316406-10.746094-29.164062zm0 0" fill="#c27749"/><path d="m156.390625 80.507812-48.144531-12.171874c-6.699219 7.847656-10.746094 18.042968-10.746094 29.164062 0 24.847656 20.148438 45 45 45 8.28125 0 15-20.152344 15-45 0-6.011719-.390625-11.75-1.109375-16.992188zm0 0" fill="#e18f4e"/><path d="m142.5 52.5 13.890625 28.007812c7.449219-2.226562 14.472656-6.292968 20.363281-12.171874-8.25-9.691407-20.535156-15.835938-34.253906-15.835938zm0 0" fill="#40211d"/><g fill="#60312c"><path d="m142.5 52.5c-13.71875 0-26.003906 6.144531-34.253906 15.835938 13.039062 13.039062 31.644531 17.105468 48.144531 12.171874-2.230469-16.429687-7.609375-28.007812-13.890625-28.007812zm0 0"/><path d="m142.5 52.5c-13.71875 0-26.003906 6.144531-34.253906 15.835938 13.039062 13.039062 31.644531 17.105468 48.144531 12.171874-2.230469-16.429687-7.609375-28.007812-13.890625-28.007812zm0 0"/><path d="m165 30c0 12.425781-10.074219 22.5-22.5 22.5s-22.5-10.074219-22.5-22.5 10.074219-22.5 22.5-22.5 22.5 10.074219 22.5 22.5zm0 0"/></g><path d="m485.851562 172.5c0-4.144531-3.355468-7.5-7.5-7.5-4.140624 0-7.5 3.355469-7.5 7.5 0 35.070312-26.890624 63.96875-61.132812 67.191406-3.375-11.371094-13.914062-19.691406-26.363281-19.691406h-50c-12.453125 0-22.992188 8.320312-26.367188 19.691406-34.242187-3.222656-61.132812-32.121094-61.132812-67.191406 0-4.144531-3.359375-7.5-7.5-7.5-4.144531 0-7.5 3.355469-7.5 7.5 0 42.960938 33.011719 78.339844 75 82.140625v50.117187c-8.132813 10.046876-13.15625 22.054688-14.582031 34.929688l-4.1875 39c-.230469 2.117188.453124 4.230469 1.875 5.8125 1.421874 1.582031 3.453124 2.488281 5.582031 2.488281h6.640625l-11.066406 101.917969-25.433594 8.476562c-3.929688 1.308594-6.054688 5.558594-4.742188 9.488282 1.046875 3.140625 3.972656 5.128906 7.113282 5.128906.785156 0 1.585937-.125 2.371093-.386719l30-10c2.78125-.925781 4.769531-3.390625 5.085938-6.304687l11.757812-108.320313h23.546875c3.832032 0 7.050782-2.890625 7.457032-6.707031l2.480468-23.292969h17.199219l2.480469 23.292969c.40625 3.816406 3.625 6.707031 7.460937 6.707031h23.542969l11.761719 108.320313c.3125 2.914062 2.300781 5.375 5.082031 6.304687l30 10c.789062.261719 1.585938.386719 2.375.386719 3.136719 0 6.0625-1.988281 7.113281-5.128906 1.308594-3.929688-.816406-8.179688-4.746093-9.488282l-25.433594-8.476562-11.066406-101.917969h6.644531c2.125 0 4.15625-.902343 5.578125-2.488281 1.421875-1.582031 2.105468-3.695312 1.878906-5.8125l-4.195312-39.023438c-1.421876-12.851562-6.445313-24.859374-14.574219-34.90625v-50.117187c41.984375-3.800781 74.996093-39.179687 74.996093-82.140625zm-152.496093 62.5h50c6.890625 0 12.5 5.605469 12.5 12.5v52.488281h-75v-52.488281c0-6.894531 5.605469-12.5 12.5-12.5zm80.460937 136.988281h-30.179687l-1.597657-15h1.316407c4.140625 0 7.5-3.355469 7.5-7.5 0-4.140625-3.359375-7.5-7.5-7.5h-40.296875c-.046875 0-9.703125 0-9.703125 0-4.144531 0-7.5 3.359375-7.5 7.5 0 4.144531 3.355469 7.5 7.5 7.5h1.3125l-1.597657 15h-30.179687l3.296875-30.675781c1.066406-9.644531 4.753906-18.675781 10.707031-26.324219h82.917969c5.953125 7.648438 9.640625 16.679688 10.707031 26.300781zm0 0"/><path d="m287.617188 195c5.019531 0 9.875-1.496094 14.035156-4.324219 4.207031-2.859375 7.40625-6.871093 9.226562-11.5625l.9375-2.359375c8.773438 16.769532 26.335938 28.246094 46.539063 28.246094s37.761719-11.476562 46.539062-28.246094l.917969 2.3125c1.839844 4.734375 5.035156 8.75 9.242188 11.609375 4.164062 2.828125 9.015624 4.320313 14.035156 4.320313 8.296875 0 16.035156-4.09375 20.691406-10.949219 3.753906-5.523437 5.132812-12.175781 3.878906-18.738281-1.25-6.558594-4.980468-12.238282-10.503906-15.992188-4.160156-2.824218-9.015625-4.316406-14.035156-4.316406h-18.8125c-3.652344-25.410156-25.554688-45-51.957032-45-26.402343 0-48.300781 19.589844-51.953124 45h-18.8125c-5.023438 0-9.875 1.492188-14.035157 4.320312-5.523437 3.75-9.253906 9.429688-10.503906 15.988282-1.253906 6.5625.125 13.214844 3.878906 18.738281 4.660157 6.855469 12.394531 10.953125 20.691407 10.953125zm70.738281-5c-18.335938 0-33.625-13.226562-36.859375-30.636719 15.628906-2.445312 28.996094-11.804687 36.859375-24.84375 7.859375 13.039063 21.226562 22.398438 36.855469 24.84375-3.230469 17.410157-18.523438 30.636719-36.855469 30.636719zm70.652343-30h.113282c2.003906 0 3.941406.597656 5.605468 1.726562 2.207032 1.5 3.699219 3.773438 4.203126 6.394532.5 2.625-.050782 5.285156-1.554688 7.496094-1.863281 2.742187-4.960938 4.382812-8.285156 4.382812-2 0-3.9375-.597656-5.605469-1.730469-1.679687-1.144531-2.957031-2.746093-3.710937-4.679687l-5.382813-13.589844zm-34.132812-15.980469c-13.878906-3.21875-24.820312-14.164062-28.042969-28.042969 13.878907 3.222657 24.820313 14.164063 28.042969 28.042969zm-45-28.042969c-3.21875 13.878907-14.164062 24.824219-28.042969 28.042969 3.222657-13.878906 14.164063-24.820312 28.042969-28.042969zm-72.09375 52.144532c.5-2.621094 1.992188-4.894532 4.199219-6.394532 1.664062-1.128906 3.601562-1.726562 5.605469-1.726562h14.730468l-5.398437 13.632812c-.734375 1.890626-2.015625 3.492188-3.695313 4.636719-1.667968 1.128907-3.601562 1.726563-5.601562 1.726563-3.328125 0-6.425782-1.636719-8.289063-4.378906-1.5-2.210938-2.050781-4.871094-1.550781-7.496094zm0 0"/><path d="m239.425781 497.382812-25.433593-8.476562-14.324219-131.917969h6.644531c2.128906 0 4.15625-.902343 5.578125-2.488281 1.421875-1.582031 2.105469-3.695312 1.878906-5.8125l-4.195312-39.023438c-1.417969-12.851562-6.445313-24.859374-14.574219-34.90625v-82.257812c0-15.164062-12.335938-27.5-27.5-27.5h-50c-12.464844 0-23.011719 8.339844-26.375 19.726562-42.519531-3.265624-76.125-38.882812-76.125-82.226562 0-4.140625-3.359375-7.5-7.5-7.5s-7.5 3.359375-7.5 7.5c0 51.238281 39.730469 93.371094 90 97.210938v75.046874c-8.132812 10.046876-13.15625 22.054688-14.582031 34.925782l-4.1875 39.003906c-.230469 2.117188.453125 4.230469 1.875 5.8125 1.425781 1.582031 3.453125 2.488281 5.582031 2.488281h6.640625l-14.320313 131.914063-25.433593 8.480468c-3.929688 1.308594-6.054688 5.558594-4.746094 9.484376 1.046875 3.144531 3.976563 5.132812 7.113281 5.132812.789063 0 1.585938-.125 2.375-.386719l30-10c2.78125-.929687 4.765625-3.390625 5.082032-6.308593l15.019531-138.316407h23.542969c3.835937 0 7.050781-2.894531 7.457031-6.707031l2.480469-23.292969h17.203124l2.480469 23.292969c.402344 3.8125 3.621094 6.707031 7.457031 6.707031h23.542969l15.019531 138.320313c.3125 2.914062 2.300782 5.375 5.082032 6.304687l30 10c.785156.261719 1.585937.386719 2.371094.386719 3.140624 0 6.066406-1.988281 7.117187-5.128906 1.308594-3.929688-.816406-8.179688-4.746094-9.488282zm-134.425781-227.394531v-15h75v15zm12.5-89.988281h50c6.894531 0 12.5 5.605469 12.5 12.5v47.488281h-75v-47.488281c0-6.894531 5.605469-12.5 12.5-12.5zm48.683594 146.988281h1.316406c4.140625 0 7.5-3.355469 7.5-7.5 0-4.140625-3.359375-7.5-7.5-7.5h-40.289062c-.019532 0-.039063 0-.058594 0h-9.652344c-4.140625 0-7.5 3.359375-7.5 7.5 0 4.144531 3.359375 7.5 7.5 7.5h1.316406l-1.597656 15h-30.183594l3.296875-30.675781c1.066407-9.644531 4.757813-18.675781 10.707031-26.324219h82.921876c5.949218 7.648438 9.640624 16.679688 10.703124 26.300781l3.300782 30.699219h-30.183594zm0 0"/><path d="m142.5 150c28.949219 0 52.5-23.550781 52.5-52.5 0-20.964844-12.355469-39.089844-30.164062-47.5 4.761718-5.3125 7.664062-12.320312 7.664062-20 0-16.542969-13.457031-30-30-30s-30 13.457031-30 30c0 7.679688 2.902344 14.6875 7.664062 20-17.808593 8.410156-30.164062 26.535156-30.164062 47.5 0 28.949219 23.550781 52.5 52.5 52.5zm23.023438-82.070312c-13.839844 9.421874-32.207032 9.421874-46.046876 0 6.359376-4.960938 14.351563-7.929688 23.023438-7.929688 8.675781 0 16.664062 2.96875 23.023438 7.929688zm-38.023438-37.929688c0-8.269531 6.730469-15 15-15s15 6.730469 15 15-6.730469 15-15 15-15-6.730469-15-15zm-17.820312 49.382812c9.75 7.074219 21.285156 10.617188 32.820312 10.617188s23.070312-3.542969 32.820312-10.617188c2.976563 5.375 4.679688 11.550782 4.679688 18.117188 0 20.675781-16.820312 37.5-37.5 37.5-20.675781 0-37.5-16.824219-37.5-37.5 0-6.566406 1.703125-12.742188 4.679688-18.117188zm0 0"/></svg>