<svg height="512pt" viewBox="-70 0 512 512" width="512pt" xmlns="http://www.w3.org/2000/svg"><path d="m124.5 322.5h-30l-57-75 57-75h30zm0 0" fill="#a8e5ff"/><path d="m94.5 322.5h-87v-150h30l57 30zm0 0" fill="#dbf4ff"/><path d="m66 142.5c-10.21875 0-18.5 8.28125-18.5 18.5v26.5h37v-26.5c0-10.21875-8.285156-18.5-18.5-18.5zm0 0" fill="#ccc"/><path d="m37.5 172.5h57v30h-57zm0 0" fill="#999"/><path d="m237 7.5c-9.808594 0-18.144531 6.277344-21.226562 15.03125-.425782-.011719-.847657-.03125-1.273438-.03125-24.855469 0-45 20.148438-45 45v30h90v-67.5c0-12.425781-10.074219-22.5-22.5-22.5zm0 0" fill="#ffe2a8"/><path d="m214.5 52.5v90c24.851562 0 45-20.148438 45-45s-20.148438-45-45-45zm0 0" fill="#ff8d7e"/><path d="m229.5 97.5c0-24.851562-6.71875-45-15-45-24.855469 0-45 20.148438-45 45s20.144531 45 45 45c8.28125 0 15-20.148438 15-45zm0 0" fill="#ffb4a9"/><path d="m199.5 262.5 30 72.425781v114.574219c0 8.28125 6.714844 15 15 15 8.28125 0 15-6.71875 15-15v-157zm0 0" fill="#116f97"/><path d="m169.5 292.5v157c0 8.28125 6.714844 15 15 15s15-6.71875 15-15v-114.574219c4.691406 1.660157 9.738281 2.574219 15 2.574219s10.304688-.914062 15-2.574219v-72.425781zm0 0" fill="#1990c2"/><path d="m254.5 172.5h-25l-30 60 30 60h30v-45c8.027344-6.03125 13.609375-15.140625 15-25.570312v-29.429688c0-11.046875-8.957031-20-20-20zm0 0" fill="#a8e5ff"/><path d="m174.5 172.5c-11.046875 0-20 8.953125-20 20v29.429688c1.390625 10.429687 6.972656 19.539062 15 25.570312v45h60v-120zm0 0" fill="#dbf4ff"/><path d="m309.5 117.5v25c0 11.046875 8.953125 20 20 20 11.042969 0 20-8.953125 20-20v-25zm0 0" fill="#808080"/><path d="m124.5 165h-32.5v-4c0-14.335938-11.664062-26-26-26s-26 11.664062-26 26v4h-32.5c-4.140625 0-7.5 3.355469-7.5 7.5v150c0 4.140625 3.359375 7.5 7.5 7.5h117c4.140625 0 7.5-3.359375 7.5-7.5v-150c0-4.144531-3.359375-7.5-7.5-7.5zm-79.5 15h42v15h-42zm10-19c0-6.066406 4.933594-11 11-11s11 4.933594 11 11v4h-22zm62 154h-102v-135h15v22.5c0 4.140625 3.359375 7.5 7.5 7.5h57c4.140625 0 7.5-3.359375 7.5-7.5v-22.5h15zm0 0"/><path d="m214.5 150c28.949219 0 52.5-23.550781 52.5-52.5v-67.5c0-16.542969-13.460938-30-30-30-10.878906 0-20.777344 5.898438-26.050781 15.117188-27.300781 1.832031-48.949219 24.625-48.949219 52.382812v30c0 28.949219 23.550781 52.5 52.5 52.5zm0-120c.214844 0 .425781.007812.636719.015625l.429687.015625c3.277344.089844 6.199219-1.933594 7.28125-5.007812 2.109375-5.996094 7.796875-10.023438 14.152344-10.023438 8.269531 0 15 6.730469 15 15v30.808594c-9.539062-9.746094-22.820312-15.808594-37.5-15.808594-14.300781 0-27.28125 5.753906-36.757812 15.0625 3.460937-17.128906 18.625-30.0625 36.757812-30.0625zm0 30c20.675781 0 37.5 16.820312 37.5 37.5 0 20.675781-16.824219 37.5-37.5 37.5-20.679688 0-37.5-16.824219-37.5-37.5 0-20.679688 16.820312-37.5 37.5-37.5zm0 0"/><path d="m353.769531 155.410156c2.058594-3.851562 3.230469-8.246094 3.230469-12.910156v-35.3125c0-4.140625-3.359375-7.5-7.5-7.5-4.144531 0-7.5 3.359375-7.5 7.5v2.8125h-25v-2.8125c0-4.140625-3.359375-7.5-7.5-7.5-4.144531 0-7.5 3.359375-7.5 7.5v35.3125c0 12.5625 8.472656 23.175781 20 26.453125v16.046875h-41.050781c-3.273438-11.527344-13.886719-20-26.449219-20h-80c-15.164062 0-27.5 12.335938-27.5 27.5v29.429688c0 .328124.019531.660156.066406.988281 1.4375 10.804687 6.816406 20.859375 14.933594 28.121093v198.460938c0 9.773438 6.269531 18.113281 15 21.207031v18.386719l-24.871094 8.289062c-3.929687 1.308594-6.054687 5.558594-4.746094 9.488282 1.046876 3.140625 3.972657 5.128906 7.113282 5.128906.789062 0 1.585937-.125 2.375-.386719l30-10c3.0625-1.019531 5.128906-3.886719 5.128906-7.113281v-23.792969c8.726562-3.09375 15-11.433593 15-21.207031v-105.039062c4.949219.714843 10.046875.714843 15 0v105.039062c0 9.773438 6.269531 18.113281 15 21.207031v23.792969c0 3.226562 2.0625 6.09375 5.125 7.113281l30 10c.789062.261719 1.585938.386719 2.375.386719 3.140625 0 6.066406-1.988281 7.113281-5.128906 1.308594-3.929688-.8125-8.179688-4.746093-9.488282l-24.871094-8.289062v-18.386719c8.730468-3.09375 15-11.433593 15-21.207031v-198.460938c8.117187-7.261718 13.496094-17.316406 14.933594-28.121093.046874-.328125.066406-.660157.066406-.988281v-21.929688h40v62.5c0 4.140625 3.359375 7.5 7.5 7.5 4.144531 0 7.5-3.359375 7.5-7.5v-62.5h12.5c12.40625 0 22.5-10.09375 22.5-22.5.003906-10.945312-7.855469-20.085938-18.226563-22.089844zm-139.269531 84.589844c-4.136719 0-7.5-3.363281-7.5-7.5v-52.5h15v52.5c0 4.136719-3.363281 7.5-7.5 7.5zm30 217c-4.136719 0-7.5-3.367188-7.5-7.5v-114.574219c0-2.433593-1.183594-4.714843-3.171875-6.121093-1.28125-.90625-2.796875-1.378907-4.328125-1.378907-.84375 0-1.6875.144531-2.5.429688-8.042969 2.84375-16.960938 2.84375-25 0-2.296875-.808594-4.84375-.457031-6.832031.949219s-3.167969 3.6875-3.167969 6.121093v114.574219c0 4.132812-3.367188 7.5-7.5 7.5-4.136719 0-7.5-3.367188-7.5-7.5v-149.5h74.996094v149.5c.003906 4.132812-3.359375 7.5-7.496094 7.5zm22.5-235.597656c-1.1875 7.941406-5.542969 15.246094-12.003906 20.101562-1.886719 1.414063-2.996094 3.636719-2.996094 5.996094v37.5h-75v-37.5c0-2.359375-1.109375-4.582031-2.996094-5.996094-6.460937-4.855468-10.820312-12.160156-12.003906-20.101562v-28.902344c0-6.894531 5.605469-12.5 12.5-12.5h17.5v52.5c0 9.777344 6.269531 18.113281 15 21.210938v8.789062c0 4.140625 3.355469 7.5 7.5 7.5 4.140625 0 7.5-3.359375 7.5-7.5v-8.789062c8.726562-3.097657 15-11.433594 15-21.210938v-52.5h17.5c6.890625 0 12.5 5.605469 12.5 12.5zm50-78.902344v-17.5h25v17.5c0 6.890625-5.609375 12.5-12.5 12.5-6.894531 0-12.5-5.609375-12.5-12.5zm32.5 42.5h-12.5v-15h12.5c4.132812 0 7.5 3.363281 7.5 7.5s-3.367188 7.5-7.5 7.5zm0 0"/></svg>