<svg id="Capa_1" enable-background="new 0 0 505 505" height="512" viewBox="0 0 505 505" width="512" xmlns="http://www.w3.org/2000/svg"><g><g><path d="m-5.502 193.157h389.736v26.95h-389.736z" fill="#f5dc60" transform="matrix(0 1 -1 0 395.998 17.266)"/><path d="m342.945 98.733h-121.18c-28.277 0-51.2 22.923-51.2 51.2v155.005.005c0 61.74 50.05 111.79 111.79 111.79s111.79-50.05 111.79-111.79v-155.01c-.001-28.277-22.924-51.2-51.2-51.2zm-121.181 45h121.181c3.419 0 6.2 2.781 6.2 6.2v65.359c-18.635-13.906-41.751-22.139-66.79-22.139-25.04 0-48.155 8.233-66.79 22.139v-65.359c-.001-3.419 2.781-6.2 6.199-6.2z" fill="#526071"/><path d="m302.353 414.943c-6.49 1.18-13.17 1.79-20 1.79-61.74 0-111.79-50.05-111.79-111.79s50.05-111.79 111.79-111.79c6.83 0 13.51.61 20 1.79-52.2 9.42-91.79 55.09-91.79 110s39.59 100.58 91.79 110z" fill="#3e4a56"/><path d="m260.48 193.157h389.736v26.95h-389.736z" fill="#f5dc60" transform="matrix(0 1 -1 0 661.979 -248.716)"/><path d="m155.986 196.266c-82.01 0-148.483 66.483-148.483 148.483 0 82.01 66.473 148.483 148.483 148.483 82 0 148.483-66.473 148.483-148.483 0-82-66.483-148.483-148.483-148.483zm0 174.49c-14.366 0-26.007-11.64-26.007-26.007 0-14.356 11.64-26.007 26.007-26.007 14.356 0 26.007 11.651 26.007 26.007 0 14.367-11.651 26.007-26.007 26.007z" fill="#de5866"/><path d="m435.308 368.853c-26.639 0-49.356 16.754-58.216 40.296-11.387-6.704-27.915-10.925-46.317-10.925s-34.931 4.221-46.317 10.925c-8.859-23.542-31.577-40.296-58.216-40.296-34.348 0-62.192 27.844-62.192 62.192s27.844 62.192 62.192 62.192c26.639 0 49.357-16.754 58.216-40.296 11.387 6.704 27.915 10.925 46.317 10.925s34.931-4.221 46.317-10.925c8.859 23.542 31.577 40.296 58.216 40.296 34.348 0 62.192-27.844 62.192-62.192s-27.844-62.192-62.192-62.192z" fill="#7da2dc"/><g fill="#6d94c5"><path d="m404.212 431.045c0-28.979 19.82-53.328 46.644-60.232-4.969-1.279-10.179-1.96-15.548-1.96-34.348 0-62.192 27.844-62.192 62.192s27.844 62.192 62.192 62.192c5.369 0 10.579-.68 15.548-1.96-26.824-6.904-46.644-31.254-46.644-60.232z"/><path d="m195.145 431.045c0-28.979 19.82-53.328 46.644-60.232-4.969-1.279-10.179-1.96-15.548-1.96-34.348 0-62.192 27.844-62.192 62.192s27.844 62.192 62.192 62.192c5.369 0 10.579-.68 15.548-1.96-26.824-6.904-46.644-31.254-46.644-60.232z"/></g></g><g><path d="m175.891 99.233c4.143 0 7.5-3.358 7.5-7.5v-72.469h11.95v60.469c0 4.142 3.357 7.5 7.5 7.5s7.5-3.358 7.5-7.5v-31.447h224.032v299.314c0 4.142 3.357 7.5 7.5 7.5s7.5-3.358 7.5-7.5v-328.336h11.949v333.519c0 4.142 3.357 7.5 7.5 7.5s7.5-3.358 7.5-7.5v-341.019c0-4.142-3.357-7.5-7.5-7.5h-26.949c-4.143 0-7.5 3.358-7.5 7.5v21.522h-224.032v-21.522c0-4.142-3.357-7.5-7.5-7.5h-26.95c-4.143 0-7.5 3.358-7.5 7.5v79.969c0 4.142 3.357 7.5 7.5 7.5z"/><path d="m394.145 175.233c-4.143 0-7.5 3.358-7.5 7.5v122.21c0 25.781-9.481 50.528-26.697 69.685-2.769 3.081-2.516 7.823.564 10.592 1.434 1.288 3.226 1.922 5.011 1.922 2.055 0 4.101-.839 5.581-2.487 19.694-21.914 30.541-50.222 30.541-79.711v-122.21c0-4.143-3.358-7.501-7.5-7.501z"/><path d="m170.564 183.233c4.143 0 7.5-3.358 7.5-7.5v-25.8c0-24.096 19.604-43.7 43.7-43.7h121.18c24.097 0 43.7 19.604 43.7 43.7v7.799c0 4.142 3.357 7.5 7.5 7.5s7.5-3.358 7.5-7.5v-7.799c0-32.367-26.333-58.7-58.7-58.7h-121.18c-32.367 0-58.7 26.333-58.7 58.7v25.8c0 4.142 3.358 7.5 7.5 7.5z"/><path d="m282.354 185.653c-15.309 0-30.217 2.861-44.312 8.504-3.845 1.54-5.714 5.905-4.175 9.75s5.907 5.714 9.75 4.175c12.314-4.93 25.347-7.429 38.736-7.429 22.656 0 44.201 7.141 62.305 20.65 1.32.985 2.898 1.489 4.486 1.489 1.146 0 2.298-.262 3.361-.796 2.536-1.272 4.138-3.867 4.138-6.704v-65.359c0-7.554-6.146-13.7-13.7-13.7h-121.179c-7.554 0-13.699 6.146-13.699 13.7v36.8c0 4.142 3.357 7.5 7.5 7.5s7.5-3.358 7.5-7.5v-35.5h118.58v50.164c-17.969-10.338-38.209-15.744-59.291-15.744z"/><path d="m167.161 485.3c-3.69.29-7.452.436-11.179.436-77.738 0-140.982-63.244-140.982-140.983s63.244-140.983 140.982-140.983 140.983 63.245 140.983 140.983c0 10.398-1.136 20.768-3.377 30.821-.901 4.043 1.646 8.051 5.688 8.952 4.047.901 8.051-1.646 8.952-5.689 2.479-11.123 3.736-22.591 3.736-34.084 0-86.009-69.974-155.983-155.983-155.983-86.007 0-155.981 69.974-155.981 155.983s69.974 155.983 155.982 155.983c4.116 0 8.272-.162 12.352-.482 4.13-.324 7.215-3.934 6.891-8.063s-3.917-7.216-8.064-6.891z"/><path d="m53.993 305.244c-3.956-1.227-8.157.987-9.384 4.942-3.459 11.153-5.212 22.783-5.212 34.567 0 29.062 10.757 56.901 30.288 78.391 19.396 21.341 45.813 34.691 74.386 37.593.258.026.514.039.767.039 3.802 0 7.061-2.879 7.453-6.743.418-4.121-2.583-7.801-6.704-8.219-24.885-2.527-47.898-14.161-64.801-32.758-17.018-18.723-26.389-42.98-26.389-68.302 0-10.277 1.527-20.412 4.538-30.125 1.228-3.956-.985-8.158-4.942-9.385z"/><path d="m264.549 357.855c.129.007.257.01.384.01 3.969 0 7.282-3.114 7.484-7.122.101-1.988.151-4.003.151-5.989 0-64.286-52.3-116.586-116.586-116.586-42.686 0-81.92 23.295-102.393 60.795-1.984 3.636-.646 8.192 2.989 10.177 3.634 1.985 8.19.647 10.177-2.989 17.842-32.681 52.031-52.983 89.227-52.983 56.015 0 101.586 45.571 101.586 101.586 0 1.735-.044 3.496-.132 5.233-.208 4.137 2.976 7.659 7.113 7.868z"/><path d="m435.308 361.353c-26.055 0-49.957 14.793-61.834 37.548-12.06-5.306-26.899-8.177-42.699-8.177s-30.64 2.871-42.699 8.177c-11.877-22.755-35.779-37.548-61.834-37.548-38.429 0-69.692 31.263-69.692 69.692s31.264 69.692 69.692 69.692c26.056 0 49.957-14.793 61.834-37.548 12.06 5.306 26.899 8.177 42.699 8.177s30.64-2.871 42.699-8.177c11.877 22.755 35.778 37.548 61.834 37.548 8.121 0 16.08-1.386 23.656-4.119 3.896-1.406 5.916-5.704 4.51-9.6s-5.707-5.916-9.6-4.51c-5.939 2.143-12.187 3.229-18.566 3.229-22.646 0-43.22-14.241-51.196-35.437-.78-2.072-2.436-3.694-4.522-4.431-2.087-.736-4.394-.514-6.302.609-10.674 6.284-26.169 9.888-42.513 9.888s-31.839-3.604-42.513-9.888c-1.908-1.124-4.215-1.346-6.302-.609s-3.742 2.359-4.522 4.431c-7.977 21.196-28.551 35.437-51.196 35.437-30.157 0-54.692-24.535-54.692-54.692s24.535-54.692 54.692-54.692c22.646 0 43.22 14.241 51.196 35.437.78 2.072 2.436 3.694 4.522 4.431 2.087.737 4.395.514 6.302-.609 10.674-6.284 26.169-9.888 42.513-9.888s31.839 3.604 42.513 9.888c1.908 1.124 4.214 1.345 6.302.609 2.087-.737 3.742-2.359 4.522-4.431 7.977-21.196 28.551-35.437 51.196-35.437 30.157 0 54.692 24.535 54.692 54.692 0 16.577-7.396 32.076-20.294 42.523-3.219 2.607-3.714 7.33-1.107 10.549 2.608 3.218 7.331 3.714 10.549 1.107 16.429-13.309 25.852-33.057 25.852-54.18 0-38.428-31.264-69.691-69.692-69.691z"/><path d="m189.49 344.753c0-18.476-15.031-33.507-33.508-33.507-18.476 0-33.507 15.031-33.507 33.507s15.031 33.507 33.507 33.507c18.477.001 33.508-15.031 33.508-33.507zm-52.014 0c0-10.205 8.302-18.507 18.507-18.507s18.508 8.302 18.508 18.507-8.303 18.507-18.508 18.507-18.507-8.302-18.507-18.507z"/></g></g></svg>