<svg id="Capa_1" enable-background="new 0 0 504.999 504.999" height="512" viewBox="0 0 504.999 504.999" width="512" xmlns="http://www.w3.org/2000/svg"><g><g><path d="m334.698 90.209h16.106c18.512 0 33.518 15.007 33.518 33.518v340.253c0 18.512-15.007 33.518-33.518 33.518h-308.207c-18.512 0-33.518-15.007-33.518-33.518v-340.253c0-18.512 15.007-33.518 33.518-33.518h16.101" fill="#eab74d"/><path d="m334.698 136.77v319.999h-276v-319.999" fill="#e7e8ed"/><path d="m273.771 58.819h-.18c-13.02 0-24.54-7.99-29.61-19.98-7.79-18.42-26.03-31.34-47.28-31.34-21.26 0-39.5 12.92-47.29 31.34-5.07 11.99-16.59 19.98-29.61 19.98h-.17c-17.64 0-31.93 14.29-31.93 31.93v28.09c0 17.63 14.29 31.93 31.93 31.93h154.14c17.63 0 31.93-14.3 31.93-31.93v-28.09c0-17.64-14.299-31.93-31.93-31.93zm-77.07 24.81c-13.71 0-24.82-11.11-24.82-24.81 0-13.71 11.11-24.82 24.82-24.82 13.7 0 24.81 11.11 24.81 24.82 0 13.7-11.109 24.81-24.81 24.81z" fill="#f5dc60"/><path d="m149.412 38.839c-5.07 11.99-16.59 19.98-29.61 19.98h-.17c-17.64 0-31.93 14.29-31.93 31.93v28.09c0 17.63 14.29 31.93 31.93 31.93h19.71c-13.13 0-23.77-14.3-23.77-31.93v-28.09c0-17.64 10.64-31.93 23.77-31.93h.12c9.69 0 18.27-7.99 22.04-19.98 5.8-18.42 19.37-31.34 35.2-31.34-21.261 0-39.501 12.92-47.29 31.34z" fill="#ddc448"/><g><path d="m433.729 370.921c-26.639 0-49.356 16.754-58.216 40.296-11.387-6.704-27.915-10.925-46.317-10.925s-34.931 4.221-46.317 10.925c-8.859-23.542-31.577-40.296-58.216-40.296-34.348 0-62.192 27.844-62.192 62.192s27.844 62.192 62.192 62.192c26.639 0 49.357-16.754 58.216-40.296 11.387 6.704 27.915 10.925 46.317 10.925s34.931-4.221 46.317-10.925c8.859 23.542 31.577 40.296 58.216 40.296 34.348 0 62.192-27.844 62.192-62.192s-27.844-62.192-62.192-62.192z" fill="#526071"/><g fill="#3e4a56"><path d="m402.633 433.113c0-28.979 19.82-53.328 46.644-60.232-4.969-1.279-10.179-1.96-15.548-1.96-34.348 0-62.192 27.844-62.192 62.192s27.844 62.192 62.192 62.192c5.369 0 10.579-.68 15.548-1.96-26.824-6.904-46.644-31.253-46.644-60.232z"/><path d="m193.566 433.113c0-28.979 19.82-53.328 46.644-60.232-4.969-1.279-10.179-1.96-15.548-1.96-34.348 0-62.192 27.844-62.192 62.192s27.844 62.192 62.192 62.192c5.369 0 10.579-.68 15.548-1.96-26.824-6.904-46.644-31.253-46.644-60.232z"/></g></g></g><g><path d="m196.698 91.131c17.818 0 32.313-14.496 32.313-32.313s-14.496-32.313-32.313-32.313-32.314 14.495-32.314 32.312 14.496 32.314 32.314 32.314zm0-49.627c9.547 0 17.313 7.767 17.313 17.313s-7.767 17.313-17.313 17.313-17.313-7.767-17.313-17.313 7.766-17.313 17.313-17.313z"/><path d="m384.321 240.271c-4.143 0-7.5 3.358-7.5 7.5v115.999c0 4.142 3.357 7.5 7.5 7.5s7.5-3.358 7.5-7.5v-115.999c0-4.143-3.357-7.5-7.5-7.5z"/><path d="m325.825 97.709h24.979c14.346 0 26.018 11.672 26.018 26.019v99.042c0 4.142 3.357 7.5 7.5 7.5s7.5-3.358 7.5-7.5v-99.042c0-22.618-18.4-41.019-41.018-41.019h-24.979c-4.143 0-7.5 3.358-7.5 7.5s3.357 7.5 7.5 7.5z"/><path d="m119.628 158.269h154.139c21.742 0 39.431-17.688 39.431-39.431v-28.09c0-21.742-17.688-39.431-39.431-39.431h-.178c-9.834 0-18.744-6.043-22.7-15.397-9.229-21.82-30.501-35.92-54.191-35.92s-44.962 14.1-54.192 35.921c-3.956 9.353-12.866 15.396-22.7 15.396h-.177c-21.742 0-39.431 17.688-39.431 39.431v28.09c0 21.743 17.688 39.431 39.43 39.431zm-24.43-67.521c0-13.471 10.959-24.431 24.431-24.431h.177c15.874 0 30.207-9.638 36.516-24.553 6.876-16.259 22.724-26.764 40.376-26.764s33.5 10.505 40.377 26.764c6.309 14.916 20.642 24.554 36.515 24.554h.178c13.471 0 24.431 10.959 24.431 24.431v28.09c0 13.471-10.96 24.431-24.431 24.431h-154.14c-13.471 0-24.431-10.959-24.431-24.431v-28.091z"/><path d="m58.698 305.268c4.142 0 7.5-3.358 7.5-7.5v-153.497h.626c4.142 0 7.5-3.358 7.5-7.5s-3.358-7.5-7.5-7.5h-8.126c-4.142 0-7.5 3.358-7.5 7.5v160.997c0 4.142 3.357 7.5 7.5 7.5z"/><path d="m51.198 456.769c0 4.142 3.358 7.5 7.5 7.5h84.127c4.142 0 7.5-3.358 7.5-7.5s-3.358-7.5-7.5-7.5h-76.627v-126.5c0-4.142-3.358-7.5-7.5-7.5s-7.5 3.358-7.5 7.5z"/><path d="m325.825 144.271h1.373v236.499c0 4.142 3.357 7.5 7.5 7.5s7.5-3.358 7.5-7.5v-243.999c0-4.142-3.357-7.5-7.5-7.5h-8.873c-4.143 0-7.5 3.358-7.5 7.5s3.357 7.5 7.5 7.5z"/><path d="m114.321 258.269c.052 0 .104 0 .155-.001 2.954-.061 5.596-1.85 6.75-4.569l28-66c1.618-3.813-.162-8.216-3.975-9.833-3.813-1.619-8.217.162-9.833 3.975l-21.473 50.614-10.845-22.895c-1.772-3.744-6.245-5.34-9.988-3.567-3.744 1.773-5.341 6.245-3.567 9.988l18 38c1.241 2.622 3.882 4.288 6.776 4.288z"/><path d="m89.544 291.936 18 38c1.242 2.623 3.884 4.29 6.777 4.29.052 0 .104 0 .155-.001 2.954-.061 5.596-1.85 6.75-4.569l28-66c1.618-3.813-.162-8.216-3.975-9.833-3.813-1.619-8.217.162-9.833 3.975l-21.473 50.614-10.845-22.895c-1.772-3.743-6.245-5.34-9.988-3.567-3.745 1.771-5.342 6.243-3.568 9.986z"/><path d="m90.018 412.072c1.464 1.464 3.384 2.197 5.303 2.197s3.839-.732 5.303-2.197l16.197-16.197 16.197 16.197c1.464 1.464 3.384 2.197 5.303 2.197s3.839-.732 5.303-2.197c2.929-2.929 2.929-7.678 0-10.606l-16.197-16.197 16.197-16.197c2.929-2.929 2.929-7.678 0-10.606-2.929-2.929-7.678-2.929-10.606 0l-16.197 16.197-16.197-16.197c-2.929-2.929-7.678-2.929-10.606 0-2.929 2.929-2.929 7.678 0 10.606l16.197 16.197-16.197 16.197c-2.929 2.929-2.929 7.678 0 10.606z"/><path d="m278.321 215.269h-66c-4.142 0-7.5 3.358-7.5 7.5s3.358 7.5 7.5 7.5h66c4.143 0 7.5-3.358 7.5-7.5s-3.357-7.5-7.5-7.5z"/><path d="m278.321 296.519h-66c-4.142 0-7.5 3.358-7.5 7.5s3.358 7.5 7.5 7.5h66c4.143 0 7.5-3.358 7.5-7.5s-3.357-7.5-7.5-7.5z"/><path d="m433.729 363.421c-26.055 0-49.957 14.793-61.834 37.548-12.061-5.306-26.901-8.177-42.699-8.177-15.8 0-30.641 2.871-42.7 8.177-11.877-22.755-35.779-37.548-61.834-37.548-38.428 0-69.692 31.264-69.692 69.692 0 23.47 11.674 44.251 29.507 56.886h-141.881c-14.347 0-26.018-11.672-26.018-26.018v-340.253c0-14.347 11.671-26.019 26.018-26.019h24.228c4.142 0 7.5-3.358 7.5-7.5s-3.358-7.5-7.5-7.5h-24.228c-22.618 0-41.018 18.401-41.018 41.019v340.253c0 22.617 18.4 41.018 41.018 41.018h239.228 68.979c8.677 0 16.972-2.677 23.988-7.743 3.358-2.425 4.116-7.113 1.691-10.471-2.424-3.358-7.113-4.114-10.471-1.691-4.445 3.209-9.704 4.905-15.209 4.905h-68.979-17.025c8.986-6.338 16.495-14.776 21.697-24.742 12.06 5.306 26.901 8.177 42.7 8.177s30.639-2.871 42.698-8.177c11.877 22.755 35.779 37.548 61.835 37.548 8.119 0 16.078-1.386 23.655-4.119 3.896-1.406 5.916-5.704 4.51-9.6-1.405-3.897-5.703-5.916-9.6-4.51-5.94 2.143-12.187 3.229-18.565 3.229-22.646 0-43.221-14.241-51.197-35.437-.78-2.072-2.436-3.693-4.522-4.431-2.086-.735-4.395-.515-6.302.609-10.674 6.283-26.168 9.887-42.512 9.887s-31.839-3.604-42.514-9.888c-1.908-1.124-4.215-1.345-6.302-.609-2.087.737-3.742 2.359-4.522 4.431-7.977 21.196-28.551 35.437-51.196 35.437-30.157 0-54.692-24.535-54.692-54.692s24.535-54.692 54.692-54.692c22.646 0 43.22 14.241 51.196 35.438.78 2.072 2.436 3.693 4.522 4.431 2.088.736 4.395.515 6.302-.609 10.674-6.284 26.17-9.888 42.514-9.888 16.343 0 31.838 3.604 42.513 9.888 1.908 1.123 4.215 1.345 6.302.609 2.087-.737 3.742-2.359 4.522-4.431 7.977-21.196 28.551-35.438 51.196-35.438 30.157 0 54.691 24.535 54.691 54.692 0 16.577-7.396 32.076-20.294 42.523-3.219 2.607-3.714 7.33-1.107 10.548 2.607 3.219 7.331 3.714 10.549 1.107 16.43-13.309 25.853-33.056 25.853-54.179.001-38.426-31.263-69.69-69.691-69.69z"/></g></g></svg>