<svg height="512pt" viewBox="-19 0 511 512" width="512pt" xmlns="http://www.w3.org/2000/svg"><path d="m158 7.5-30 90h75v-45c0-24.851562-20.148438-45-45-45zm0 0" fill="#ffa754"/><path d="m158 7.5c-24.855469 0-45 20.148438-45 45v45h45zm0 0" fill="#ffcb63"/><path d="m158 52.5v65l45-20c0-24.851562-20.148438-45-45-45zm0 0" fill="#40211d"/><path d="m158 82.519531v59.980469c24.851562 0 45-20.148438 45-45-16.894531 0-32.46875-5.574219-45-14.980469zm0 0" fill="#a45e43"/><path d="m172.847656 91.203125c-1.019531-21.871094-7.277344-38.703125-14.847656-38.703125-7.667969 0-14.886719 1.921875-21.203125 5.304688l21.203125 59.695312zm0 0" fill="#60312c"/><path d="m136.796875 57.804688c-14.160156 7.578124-23.796875 22.511718-23.796875 39.695312 0 24.851562 20.144531 45 45 45 8.285156 0 15-20.148438 15-45 0-2.136719-.054688-4.238281-.148438-6.296875-15.441406-6.777344-28.15625-18.605469-36.054687-33.398437zm0 0" fill="#c27749"/><path d="m158 262.5v75c24.851562 0 45-20.148438 45-45zm0 0" fill="#999"/><path d="m173 292.5-15-30-45 30c0 24.851562 20.144531 45 45 45 8.285156 0 15-20.148438 15-45zm0 0" fill="#b3b3b3"/><path d="m198 172.5h-30l-25 75 30 45h30v-35c8.027344-6.03125 13.609375-15.140625 15-25.570312v-39.429688c0-11.046875-8.957031-20-20-20zm0 0" fill="#ffa754"/><path d="m188 231.929688v-39.429688c0-11.046875-8.957031-20-20-20h-50c-11.046875 0-20 8.953125-20 20v39.429688c1.390625 10.429687 6.972656 19.539062 15 25.570312v35h60v-35c8.027344-6.03125 13.609375-15.140625 15-25.570312zm0 0" fill="#ffcb63"/><path d="m135.5 207.5h45v30h-45zm0 0" fill="#fff"/><path d="m465.496094 120c0 12.425781-10.074219 22.5-22.5 22.5-12.425782 0-22.5-10.074219-22.5-22.5s10.074218-22.5 22.5-22.5c12.425781 0 22.5 10.074219 22.5 22.5zm0 0" fill="#ff4996"/><path d="m347.996094 227.5h-30v120h50v-100c0-11.046875-8.953125-20-20-20zm0 0" fill="#999"/><path d="m317.996094 227.5h-20c-11.046875 0-20 8.953125-20 20v60l60 40v-100c0-11.046875-8.953125-20-20-20zm0 0" fill="#b3b3b3"/><path d="m367.996094 307.5h-30l15 75h30v-35.335938c0-15.210937-5.671875-29.089843-15-39.664062zm0 0" fill="#ff4128"/><path d="m337.996094 307.5h-60c-9.328125 10.574219-15 24.453125-15 39.664062v35.335938h90v-35.335938c0-15.210937-5.671875-29.089843-15-39.664062zm0 0" fill="#ff6337"/><path d="m389.714844 169.589844c-.003906-3.5-1.214844-6.710938-3.226563-9.261719l-28.800781-36.472656-34.691406 73.644531h60c8.285156 0 15-6.226562 15-14.511719.003906-5.867187-3.375-10.933593-8.28125-13.398437zm0 0" fill="#ff6337"/><path d="m256.28125 169.589844c.003906-3.5 1.214844-6.710938 3.226562-9.261719l28.800782-36.472656 34.691406 73.644531s-51.722656 0-60 0c-8.285156 0-15-6.226562-15-14.511719 0-5.867187 3.375-10.933593 8.28125-13.398437zm0 0" fill="#ff8646"/><path d="m323 107.5v46.355469h34.695312l-.007812-30c-8.25-9.980469-20.71875-16.355469-34.6875-16.355469zm0 0" fill="#ff6337"/><path d="m288.304688 153.855469.003906-30c8.25-9.980469 20.71875-16.355469 34.691406-16.355469 6.089844 0 11.320312 10.878906 13.667969 26.5-.128907-.0625 0 19.855469 0 19.855469zm0 0" fill="#ff8646"/><path d="m357.6875 123.855469c-1.070312 4.550781-4.21875 8.535156-8.859375 10.464843-4.640625 1.917969-9.679687 1.328126-13.648437-1.128906l-12.179688 64.308594c24.847656 0 45-20.152344 45-45 0-10.878906-3.882812-20.855469-10.3125-28.644531zm0 0" fill="#ffd9d4"/><path d="m336.667969 134c-.507813-.242188-1.007813-.511719-1.488281-.808594-2.722657 3.789063-7.160157 6.257813-12.179688 6.257813-4.082031 0-7.769531-1.628907-10.480469-4.28125-.621093-.609375-1.191406-1.269531-1.699219-1.976563-3.972656 2.457032-9.011718 3.046875-13.652343 1.128906-2.027344-.839843-3.769531-2.082031-5.1875-3.589843-1.8125-1.929688-3.070313-4.316407-3.671875-6.875-6.429688 7.789062-10.308594 17.765625-10.308594 28.644531 0 24.847656 20.148438 45 45 45 8.277344 0 15-20.152344 15-45 0-6.601562-.480469-12.859375-1.332031-18.5zm0 0" fill="#fff0d3"/><path d="m158 150c28.949219 0 52.5-23.550781 52.5-52.5v-45c0-28.949219-23.550781-52.5-52.5-52.5s-52.5 23.550781-52.5 52.5v45c0 28.949219 23.550781 52.5 52.5 52.5zm-37.5-97.5c0-20.679688 16.820312-37.5 37.5-37.5 20.675781 0 37.5 16.820312 37.5 37.5v8.308594c-9.539062-9.746094-22.820312-15.808594-37.5-15.808594s-27.964844 6.0625-37.5 15.808594zm74.125 36.972656c-18.875-2.339844-35.847656-12.515625-46.800781-28.058594 3.238281-.914062 6.648437-1.414062 10.175781-1.414062 17.921875 0 32.9375 12.640625 36.625 29.472656zm-60.21875-21.09375c13.710938 20.519532 35.847656 33.785156 60.410156 36.210938-3.324218 17.296875-18.5625 30.410156-36.816406 30.410156-20.679688 0-37.5-16.824219-37.5-37.5 0-11.742188 5.429688-22.238281 13.90625-29.121094zm0 0"/><path d="m220.371094 497.382812-24.871094-8.289062v-159.902344c9.269531-9.472656 15-22.421875 15-36.691406v-31.460938c8.117188-7.261718 13.492188-17.316406 14.933594-28.121093.042968-.328125.066406-.65625.066406-.988281v-39.429688c0-15.164062-12.335938-27.5-27.5-27.5h-80c-12.464844 0-23.011719 8.339844-26.375 19.726562-42.519531-3.265624-76.125-38.882812-76.125-82.226562 0-4.140625-3.355469-7.5-7.5-7.5s-7.5 3.359375-7.5 7.5c0 51.238281 39.730469 93.371094 90 97.214844v32.214844c0 .332031.019531.660156.066406.988281 1.4375 10.804687 6.816406 20.859375 14.933594 28.121093v31.460938c0 14.269531 5.730469 27.21875 15 36.691406v159.902344l-24.871094 8.289062c-3.929687 1.308594-6.054687 5.558594-4.746094 9.488282 1.050782 3.140625 3.976563 5.128906 7.117188 5.128906.785156 0 1.585938-.125 2.371094-.386719l30-10c3.0625-1.019531 5.128906-3.886719 5.128906-7.113281v-154.578125c6.824219 3.25 14.453125 5.078125 22.5 5.078125s15.675781-1.828125 22.5-5.078125v154.578125c0 3.226562 2.0625 6.09375 5.128906 7.113281l30 10c.785156.261719 1.585938.386719 2.371094.386719 3.140625 0 6.066406-1.988281 7.113281-5.128906 1.3125-3.929688-.8125-8.179688-4.742187-9.488282zm-102.371094-317.382812h32.5v20h-15c-4.144531 0-7.5 3.355469-7.5 7.5v30c0 4.140625 3.355469 7.5 7.5 7.5h45c4.140625 0 7.5-3.359375 7.5-7.5v-30c0-4.144531-3.359375-7.5-7.5-7.5h-15v-20h32.5c6.890625 0 12.5 5.605469 12.5 12.5v38.902344c-1.1875 7.941406-5.542969 15.246094-12.003906 20.101562-1.886719 1.417969-2.996094 3.636719-2.996094 5.996094v27.5h-75v-27.5c0-2.359375-1.109375-4.582031-2.996094-5.996094-6.460937-4.855468-10.816406-12.160156-12.003906-20.101562v-38.902344c0-6.894531 5.605469-12.5 12.5-12.5zm55 35v15h-30v-15zm-51.746094 85h73.492188c-3.484375 17.09375-18.636719 30-36.746094 30s-33.261719-12.90625-36.746094-30zm0 0"/><path d="m442.996094 90c-16.542969 0-30 13.457031-30 30s13.457031 30 30 30c16.542968 0 30-13.457031 30-30s-13.457032-30-30-30zm0 45c-8.269532 0-15-6.730469-15-15s6.730468-15 15-15c8.269531 0 15 6.730469 15 15s-6.730469 15-15 15zm0 0"/><path d="m383 205c12.617188 0 22.5-9.667969 22.5-22.011719 0-7.070312-3.253906-13.558593-8.710938-17.769531-.679687-3.457031-2.171874-6.699219-4.414062-9.539062 0 0-29.140625-36.878907-29.320312-37.066407-9.640626-11.375-24.015626-18.613281-40.054688-18.613281-16.042969 0-30.417969 7.238281-40.054688 18.613281-.179687.1875-29.328124 37.070313-29.328124 37.070313-2.234376 2.839844-3.726563 6.078125-4.410157 9.535156-5.457031 4.210938-8.707031 10.699219-8.707031 17.769531 0 12.34375 9.882812 22.011719 22.5 22.011719zm-97.5-52.5c0-5.238281 1.082031-10.222656 3.027344-14.753906 1.71875 1.433594 3.660156 2.625 5.773437 3.503906 4.714844 1.953125 9.925781 2.207031 14.746094.839844 3.933594 3.105468 8.84375 4.859375 13.953125 4.859375 5.105469 0 10.019531-1.753907 13.949219-4.859375 4.824219 1.367187 10.039062 1.109375 14.757812-.84375 2.109375-.878906 4.046875-2.066406 5.761719-3.5 1.949219 4.53125 3.03125 9.519531 3.03125 14.753906 0 20.679688-16.824219 37.5-37.5 37.5-20.679688 0-37.5-16.824219-37.5-37.5zm96.714844 17.097656c.003906 2.832032 1.601562 5.421875 4.132812 6.695313 2.5625 1.285156 4.152344 3.851562 4.152344 6.695312 0 3.996094-3.226562 7.011719-7.5 7.011719h-23.308594c8.480469-8.304688 14.171875-19.445312 15.5-31.875l5.410156 6.847656c.734376.933594 1.613282 2.492188 1.613282 4.625zm-33.417969-44.273437c-.753906.890625-1.71875 1.601562-2.835937 2.066406-2.246094.929687-4.738282.71875-6.832032-.574219-3.351562-2.082031-7.742187-1.203125-10.042968 2-1.429688 1.992188-3.648438 3.132813-6.085938 3.132813-2.441406 0-4.660156-1.140625-6.089844-3.132813-2.300781-3.203125-6.691406-4.082031-10.042968-2-2.089844 1.292969-4.582032 1.503906-6.816407.578125-1.125-.46875-2.09375-1.179687-2.847656-2.074219 6.726563-6.386718 15.808594-10.320312 25.796875-10.320312s19.070312 3.933594 25.796875 10.324219zm-93.296875 57.664062c0-2.84375 1.589844-5.410156 4.148438-6.695312 2.53125-1.273438 4.128906-3.863281 4.132812-6.695313 0-2.132812.878906-3.691406 1.613281-4.621094l5.410157-6.851562c1.332031 12.429688 7.019531 23.574219 15.503906 31.875h-23.308594c-4.277344 0-7.5-3.015625-7.5-7.011719zm0 0"/><path d="m442.996094 165c-4.144532 0-7.5 3.355469-7.5 7.5 0 35.070312-26.890625 63.972656-61.136719 67.191406-3.371094-11.371094-13.910156-19.691406-26.363281-19.691406h-50c-15.164063 0-27.5 12.335938-27.5 27.5v57.257812c-9.691406 11.988282-15 26.9375-15 42.40625v35.335938c0 4.140625 3.359375 7.5 7.5 7.5h22.503906v99.09375l-24.871094 8.289062c-3.929687 1.308594-6.054687 5.558594-4.746094 9.488282 1.050782 3.140625 3.976563 5.128906 7.113282 5.128906.789062 0 1.585937-.125 2.375-.386719l30-10c3.0625-1.019531 5.128906-3.886719 5.128906-7.113281v-104.5h45v104.5c0 3.226562 2.0625 6.09375 5.125 7.113281l30 10c.789062.261719 1.589844.386719 2.375.386719 3.140625 0 6.066406-1.988281 7.113281-5.128906 1.308594-3.929688-.8125-8.179688-4.742187-9.488282l-24.871094-8.289062v-99.09375h22.496094c4.144531 0 7.5-3.359375 7.5-7.5v-35.335938c0-15.472656-5.304688-30.417968-15-42.40625v-50.113281c41.988281-3.804687 75-39.183593 75-82.144531 0-4.144531-3.355469-7.5-7.5-7.5zm-145 70h50c6.894531 0 12.5 5.605469 12.5 12.5v52.5h-75v-52.5c0-6.894531 5.609375-12.5 12.5-12.5zm77.5 140h-105v-27.835938c0-11.6875 3.90625-22.980468 11.039062-32.164062h82.921875c7.132813 9.183594 11.039063 20.476562 11.039063 32.164062zm0 0"/></svg>