<svg id="Capa_1" enable-background="new 0 0 511.965 511.965" height="512" viewBox="0 0 511.965 511.965" width="512" xmlns="http://www.w3.org/2000/svg"><g><g><path d="m179.894 336.545c-17.598-8.463-57.011-38.303-76.699-71.295-6.713-11.248-21.189-15.029-32.387-8.234l-.09.055c-10.971 6.657-14.58 20.915-8.016 31.941 16.439 27.615 66.928 91.015 141.289 104.474l4.779-48.805c-10.017-1.062-19.798-3.77-28.876-8.136z" fill="#fed2a4"/></g><g><path d="m62.701 289.007c16.44 27.62 66.93 91.02 141.29 104.48l1.54-15.77c-68.91-16.99-115.63-75.97-131.33-102.34-3.56-5.98-4.13-12.92-2.15-19.07-.42.23-.83.46-1.24.71l-.09.05c-10.98 6.66-14.58 20.92-8.02 31.94z" fill="#ffbd86"/></g><g><path d="m332.071 336.545c17.598-8.463 57.011-38.303 76.699-71.295 6.713-11.248 21.189-15.029 32.387-8.234l.09.055c10.971 6.657 14.58 20.915 8.016 31.941-16.439 27.615-66.928 91.015-141.289 104.474l-4.779-48.805c10.018-1.062 19.798-3.77 28.876-8.136z" fill="#fed2a4"/></g><g><path d="m449.263 289.009c-16.44 27.62-66.93 91.02-141.29 104.48l-1.54-15.77c68.91-16.99 115.63-75.97 131.33-102.34 3.56-5.98 4.13-12.92 2.15-19.07.42.23.83.46 1.24.71l.09.05c10.98 6.66 14.58 20.92 8.02 31.94z" fill="#ffbd86"/></g><g><path d="m313.939 38.32c-1.642-5.584-4.69-10.286-8.499-13.662-17.483-15.499-40.34-19.173-60.993-16.192-15.121 2.183-40.242 8.885-46.409 29.854-5.687 19.343 7.78 37.674 7.78 37.674h100.34c.001 0 13.468-18.331 7.781-37.674z" fill="#c86d36"/></g><g><path d="m306.158 75.993h-19.792s13.46-18.335 7.779-37.677c-1.64-5.58-4.691-10.281-8.503-13.662-11.188-9.914-24.575-14.99-38.181-16.566 19.837-2.218 41.343 1.823 57.982 16.566 3.803 3.381 6.854 8.082 8.494 13.662 5.69 19.342-7.779 37.677-7.779 37.677z" fill="#ac5e2e"/></g><g><path d="m159.284 136.01v71.25c-12.014 0-24.287 9.74-24.287 21.754 0 12.014 9.74 21.754 21.754 21.754h1.289v.64c0 39.079 31.68 70.759 70.759 70.759h54.366c39.079 0 70.759-31.68 70.759-70.759v-.64h1.289c12.014 0 21.754-9.74 21.754-21.754 0-12.014-11.165-21.754-23.179-21.754v-71.25z" fill="#fed2a4"/></g><g><path d="m376.782 231.905c-1.405 10.919-11.121 18.866-22.129 18.866h-.729v.639c0 39.078-31.679 70.757-70.757 70.757-.067 0-.077-.089-.012-.106 30.673-7.72 53.378-35.489 53.378-68.561v-117.49h17.391v71.247h1.292c6.011 0 11.444 2.437 15.384 6.377 4.552 4.552 7.101 11.13 6.182 18.271z" fill="#ffbd86"/></g><g><path d="m158.04 190.335s66.5 26.31 122.395-25.918c2.46-2.298 6.354-2.135 8.578.386 8.361 9.475 30 29.493 64.91 31.45v-72.612h-195.883z" fill="#c86d36"/></g><g><path d="m353.924 123.64v72.615c-6.222-.348-12.012-1.274-17.391-2.611v-70.004z" fill="#ac5e2e"/></g><g><g><path d="m172.291 157.514c13.346-13.131 38.588-25.329 83.035-33.978 13.779-2.681 23.706-14.179 23.706-27.568 0-17.139-15.96-30.299-33.775-27.836-50.756 7.016-135.724 33.856-86.021 136.229v-16.118c0-11.469 4.678-22.486 13.055-30.729z" fill="#97d729"/></g><g><path d="m340.883 157.514c-13.346-13.131-38.588-25.329-83.035-33.978-13.779-2.681-23.706-14.179-23.706-27.568 0-17.139 15.96-30.299 33.775-27.836 50.756 7.016 135.724 33.856 86.021 136.229v-16.118c0-11.469-4.678-22.486-13.055-30.729z" fill="#bbec6c"/></g><g><path d="m365.084 175.483c2.758-64.497-64.717-84.289-108.497-90.336-1.558-.22-3.097-.321-4.618-.321-6.24 0-12.122 1.75-17.079 4.792 3.051-12.599 14.945-21.78 28.725-21.78 1.411 0 2.85.091 4.297.293 45.613 6.305 118.842 28.616 97.172 107.352z" fill="#a2e62e"/></g></g><g><g><path d="m333.769 382.659c-3.518-13.802-9.446-26.272-13.173-33.326-1.977-3.742-5.673-6.043-9.679-6.043h-54.911-.049-54.911c-4.006 0-7.702 2.302-9.679 6.043-3.727 7.053-9.655 19.524-13.173 33.326-4.616 18.112-2.171 50.538 7.548 66.149 10.142 16.289 7.705 34.711 4.669 55.657h65.546.049 65.546c-2.915-19.88-5.467-39.377 4.669-55.657 9.72-15.612 12.164-48.037 7.548-66.149z" fill="#fed2a4"/></g><g><path d="m326.219 448.809c-10.13 16.28-7.58 35.78-4.67 55.66h-17.65c-2.92-19.88-5.47-39.38 4.67-55.66 9.71-15.61 12.16-48.04 7.54-66.15-3.51-13.8-9.44-26.27-13.17-33.33-1.98-3.74-5.67-6.04-9.68-6.04h17.66c4 0 7.7 2.3 9.68 6.04 3.72 7.06 9.65 19.53 13.17 33.33 4.62 18.11 2.17 50.54-7.55 66.15z" fill="#ffbd86"/></g><g><path d="m326.219 448.809c-.39.63-.77 1.27-1.12 1.91h-138.24c-.35-.64-.73-1.28-1.12-1.91-9.72-15.61-12.16-48.04-7.54-66.15 3.51-13.8 9.44-26.27 13.17-33.33 1.98-3.74 5.67-6.04 9.68-6.04h109.87c4 0 7.7 2.3 9.68 6.04 3.72 7.06 9.65 19.53 13.17 33.33 4.62 18.11 2.17 50.54-7.55 66.15z" fill="#fe5694"/></g><g><path d="m326.219 448.809c-.39.63-.77 1.27-1.12 1.91h-17.65c.35-.64.73-1.28 1.12-1.91 9.71-15.61 12.16-48.04 7.54-66.15-3.51-13.8-9.44-26.27-13.17-33.33-1.98-3.74-5.67-6.04-9.68-6.04h17.66c4 0 7.7 2.3 9.68 6.04 3.72 7.06 9.65 19.53 13.17 33.33 4.62 18.11 2.17 50.54-7.55 66.15z" fill="#fd3581"/></g></g><g><g><path d="m255.983 359.698c-11.205 0-20.289-9.084-20.289-20.289v-17.243h40.578v17.243c0 11.206-9.084 20.289-20.289 20.289z" fill="#fed2a4"/></g><g><path d="m235.693 322.169h40.58v17.241h-40.58z" fill="#ffbd86"/></g><g><path d="m260.162 470.09h-8.361c-4.142 0-7.5 3.358-7.5 7.5s3.358 7.5 7.5 7.5h8.361c4.142 0 7.5-3.358 7.5-7.5s-3.357-7.5-7.5-7.5z"/><path d="m234.805 269.949c3.597 8.506 11.889 14.002 21.124 14.002 9.234 0 17.526-5.496 21.124-14.001 1.614-3.815-.17-8.215-3.985-9.829-3.814-1.615-8.215.17-9.829 3.985-1.245 2.943-4.114 4.845-7.309 4.845s-6.063-1.901-7.308-4.845c-1.613-3.815-6.014-5.6-9.829-3.986-3.817 1.613-5.602 6.013-3.988 9.829z"/><path d="m445.132 250.656-.084-.051c-7.07-4.29-15.385-5.553-23.41-3.558-8.131 2.022-14.988 7.122-19.308 14.36-19.295 32.333-58.015 60.928-73.509 68.379-5.585 2.686-11.493 4.686-17.634 6.012-.089-.001-.178-.01-.267-.01h-27.147v-6.137c40.772-.312 74.226-31.954 77.406-71.995 13.281-2.762 23.291-14.555 23.291-28.643 0-12.602-8.874-23.649-20.864-27.653 15.502-34.739 17.03-64.196 4.51-87.627-10.701-20.028-30.128-32.89-51.32-41.145 4.021-8.213 8.6-21.898 4.341-36.385-1.992-6.774-5.698-12.707-10.718-17.159-17.314-15.349-41.124-21.743-67.04-18.002-8.182 1.181-20.12 3.785-30.525 9.484-3.633 1.99-4.965 6.548-2.976 10.181s6.546 4.964 10.181 2.976c8.44-4.623 18.505-6.79 25.463-7.794 12.439-1.794 36.116-2.313 54.946 14.38 2.911 2.581 5.082 6.096 6.279 10.166 3.185 10.835-1.316 21.713-4.318 27.288-11.444-3.345-22.948-5.565-33.483-7.021-4.183-.579-8.368-.46-12.403.299-4.006-.748-8.158-.873-12.309-.299-10.852 1.5-22.732 3.804-34.516 7.32-2.534-4.627-6.286-13.215-5.459-22.4.372-4.125-2.671-7.771-6.797-8.143-4.125-.368-7.771 2.671-8.143 6.797-1.044 11.588 2.753 22.041 6.063 28.698-20.802 8.269-39.786 21.046-50.319 40.76-12.511 23.415-10.995 52.848 4.478 87.557-12.503 3.98-22.041 15.235-22.041 27.723 0 14.088 10.009 25.881 23.29 28.643 3.18 40.041 36.634 71.683 77.407 71.995v6.137h-27.146c-.077 0-.153.007-.229.008-6.156-1.322-12.078-3.319-17.675-6.01-15.494-7.452-54.213-36.046-73.509-68.379-4.32-7.238-11.177-12.338-19.308-14.36-8.025-1.996-16.34-.732-23.404 3.554l-.097.059c-14.456 8.771-19.197 27.698-10.57 42.19 4.435 7.451 21.18 33.75 50.428 59.353 19.842 17.368 40.736 30.402 62.413 39.005-1.269 11.291-.829 22.864 1.016 34.067.923 5.607 2.226 11.176 4.125 16.537 3.341 9.428 9.349 16.833 10.788 27.043 1.615 11.459-.394 23.197-2.039 34.535-.313 2.154.327 4.338 1.751 5.984s3.494 2.592 5.671 2.592h131.141c2.179 0 4.25-.948 5.675-2.597 1.425-1.648 2.062-3.835 1.746-5.991-2.526-17.226-5.133-35.018 2.754-49.143.743-1.349 1.584-2.629 2.31-3.99 8.277-15.439 10.932-40.345 8.829-59.053 15.952-6.345 31.528-15.103 46.57-26.221 3.332-2.462 4.036-7.158 1.574-10.489-2.461-3.331-7.158-4.037-10.489-1.574-13.218 9.769-26.841 17.559-40.745 23.34-3.483-11.818-8.355-22.375-12.154-29.668 2.616-.975 5.184-2.066 7.699-3.275 17.412-8.374 58.72-38.738 79.889-74.21 2.256-3.78 5.824-6.439 10.046-7.49 4.118-1.024 8.383-.376 12.016 1.829l.084.051c7.444 4.517 9.894 14.248 5.462 21.693-4.159 6.986-16.053 25.424-36.622 45.702-2.95 2.908-2.984 7.656-.076 10.606 2.907 2.949 7.656 2.984 10.606.076 21.808-21.499 34.525-41.227 38.98-48.711 8.628-14.495 3.887-33.421-10.575-42.196zm-196.47-169.782c4.93-4.296 11.571-6.232 18.228-5.313 56.956 7.874 79.289 28.949 87.994 45.242 7.38 13.812 8.56 30.69 3.564 50.396-2.562-7.053-6.724-13.539-12.306-19.03-16.05-15.792-45.275-27.902-86.863-35.994-10.221-1.989-17.639-10.487-17.639-20.207.001-5.789 2.495-11.149 7.022-15.094zm97.762 106.827v.257c-27.824-4.131-45.247-20.707-51.787-28.118-2.421-2.743-5.773-4.352-9.439-4.528-3.621-.175-7.231 1.146-9.883 3.625-21.592 20.175-47.312 30.445-76.446 30.524-13.473.016-24.644-2.235-31.329-4.014 1.462-5.861 4.891-17.549 10.012-22.587 13.892-13.668 40.484-24.41 79.035-31.928 38.551 7.518 65.143 18.26 79.035 31.928 6.842 6.732 10.659 15.535 10.802 24.841zm-188.134-66.898c7.917-14.817 27.147-33.573 73.398-42.774-3.265 5.396-5.047 11.582-5.047 17.939 0 9.135 3.671 17.624 9.769 24.028-32.383 7.904-55.682 18.697-69.379 32.173-5.581 5.491-9.743 11.977-12.305 19.03-4.996-19.706-3.816-36.584 3.564-50.396zm7.25 130.605v-.64c0-4.142-3.358-7.5-7.5-7.5h-1.289c-7.86 0-14.254-6.394-14.254-14.254 0-7.194 8.315-14.254 16.787-14.254 4.142 0 7.5-3.358 7.5-7.5 0 0-.005-2.971-.012-6.52 7.615 1.823 18.559 3.695 31.49 3.722h.271c22.612 0 55.662-5.879 85.906-33.531 8.581 9.372 29.392 28.021 61.883 32.148l-.033 4.18c0 4.142 3.358 7.5 7.5 7.5 8.206 0 15.679 6.794 15.679 14.254 0 7.86-6.395 14.254-14.254 14.254h-1.289c-4.142 0-7.5 3.358-7.5 7.5v.64c0 34.881-28.378 63.259-63.259 63.259h-54.366c-34.882 0-63.26-28.378-63.26-63.258zm103.231 78.258v9.743c0 7.052-5.737 12.789-12.789 12.789s-12.789-5.737-12.789-12.789v-9.743zm-96.582 46.575c-19.224-7.969-37.841-19.76-55.623-35.326-27.586-24.148-43.27-48.768-47.419-55.739-4.432-7.445-1.981-17.176 5.456-21.689l.097-.059c2.504-1.52 5.312-2.299 8.166-2.299 1.28 0 2.569.157 3.844.474 4.223 1.05 7.791 3.71 10.046 7.49 21.168 35.472 62.477 65.837 79.889 74.21 2.515 1.209 5.091 2.286 7.706 3.265-3.799 7.269-8.677 17.822-12.162 29.673zm140.727 120.724h-113.878c1.717-13.056 2.64-26.225-.986-38.746h115.896c-3.636 12.667-2.702 26.058-1.032 38.746zm8.765-55.513c-.288.608-.584 1.198-.889 1.767h-129.623c-.915-1.695-1.746-3.585-2.497-5.622-.001 0-.002.001-.003.002-5.693-15.446-6.665-39.512-3.201-53.091 3.394-13.344 9.31-25.573 12.53-31.67.679-1.283 1.82-2.049 3.051-2.049h29.592c4.356 9.663 14.073 16.409 25.342 16.409s20.986-6.746 25.342-16.409h29.594c1.213 0 2.383.785 3.045 2.036 3.94 7.478 9.313 19.046 12.538 31.688 3.765 14.761 2.281 41.939-4.821 56.939z"/><path d="m238.959 233.618c2.497-3.305 1.842-8.008-1.463-10.505s-8.009-1.842-10.505 1.463c-2.103 2.782-4.567 2.882-5.288 2.838-.244-.054-.192-.027-.523-.054-3.05-.246-5.918-2.734-6.777-3.683-2.716-3.089-7.417-3.418-10.537-.723-3.134 2.708-3.479 7.444-.771 10.579.698.808 7.048 7.861 16.606 8.754.629.085 1.342.136 2.122.136 4.731 0 11.878-1.847 17.136-8.805z"/><path d="m290.142 242.423c.777 0 1.488-.05 2.115-.135 9.073-.828 15.306-6.294 15.992-6.921 3.061-2.791 3.31-7.562.519-10.623-2.791-3.06-7.504-3.307-10.565-.515-.032.028-3.253 2.793-7.417 3.13-.208.017-.417.042-.623.077-.029.003-2.836.252-5.188-2.861-2.497-3.305-7.2-3.961-10.505-1.463-3.305 2.497-3.96 7.2-1.463 10.505 5.257 6.96 12.405 8.806 17.135 8.806z"/></g></g></g></svg>