<svg id="Capa_1" enable-background="new 0 0 512 512" height="512" viewBox="0 0 512 512" width="512" xmlns="http://www.w3.org/2000/svg"><g><path d="m489.5 372.14h-30v30h30c8.284 0 15-6.716 15-15s-6.716-15-15-15z" fill="#9db55f"/><path d="m474.5 387.14c0-8.284-6.716-15-15-15h-437c-8.284 0-15 6.716-15 15s6.716 15 15 15h437c8.284 0 15-6.716 15-15z" fill="#b9d171"/><path d="m229.15 297.139h75c0 24.853-20.147 45-45 45z" fill="#4f4f4f"/><path d="m259.15 312.139-30-15 30-45c24.853 0 45 20.147 45 45 0 8.285-20.147 15-45 15z" fill="#696969"/><path d="m142.581 265.424-7.071 7.071c-7.811 7.811-7.811 20.474 0 28.284l20.148 20.147c11.667 11.667 34.713 21.213 51.213 21.213h52.279v-30z" fill="#ff4996"/><path d="m259.15 252.139h-45l-15-15c-7.811-7.811-20.474-7.811-28.284 0l-28.284 28.284 34.29 34.29c6.039 6.038 21.46 12.426 30 12.426h52.279v-60z" fill="#ff6b8a"/><path d="m75.404 177.037 56.569 56.569c17.574-17.574 17.574-46.066 0-63.64-3.72-3.72-7.933-6.644-12.424-8.789z" fill="#ffa754"/><path d="m68.333 169.966 31.214 11.213 20.001-20.001c-16.726-7.989-37.361-5.066-51.215 8.788z" fill="#40211d"/><path d="m59.544 221.181c2.145 4.492 5.069 8.704 8.789 12.424 17.574 17.574 46.066 17.574 63.64 0 5.858-5.858-3.64-24.853-21.213-42.426-3.72-3.72-7.503-7.073-11.213-10.001l-24.143-4.141z" fill="#ffcb63"/><path d="m68.333 169.966c-13.853 13.854-16.777 34.489-8.789 51.215l40.003-40.003c-13.814-10.9-26.596-15.83-31.214-11.212z" fill="#60312c"/><path d="m57.383 180.225 21.213-21.213c5.858-5.858 5.858-15.355 0-21.213-11.716-11.716-30.711-11.716-42.426 0s-11.716 30.711 0 42.426c5.858 5.858 15.355 5.858 21.213 0z" fill="#60312c"/><path d="m432.117 237.139v105c28.995 0 52.5-23.505 52.5-52.5s-23.505-52.5-52.5-52.5z" fill="#ccc"/><path d="m454.617 289.639c0-28.995-10.074-52.5-22.5-52.5-28.995 0-52.5 23.505-52.5 52.5s23.505 52.5 52.5 52.5c12.426 0 22.5-23.505 22.5-52.5z" fill="#ebebeb"/><path d="m489.5 364.64h-467c-12.407 0-22.5 10.093-22.5 22.5s10.093 22.5 22.5 22.5h467c12.406 0 22.5-10.093 22.5-22.5s-10.094-22.5-22.5-22.5zm0 30h-467c-4.136 0-7.5-3.364-7.5-7.5s3.364-7.5 7.5-7.5h467c4.136 0 7.5 3.364 7.5 7.5s-3.364 7.5-7.5 7.5z"/><path d="m122.152 286.637c0 7.346 2.86 14.251 8.055 19.445l20.147 20.147c13.127 13.127 37.953 23.41 56.517 23.41h52.278c23.154 0 42.841-15.073 49.8-35.916l33.088-94.074c1.054-2.997 3.898-5.01 7.079-5.01h83c3.229 0 6.095-2.066 7.115-5.128l10-30c1.31-3.93-.813-8.177-4.743-9.487-3.933-1.311-8.178.814-9.487 4.744l-8.29 24.872h-77.595c-9.536 0-18.067 6.042-21.229 15.033l-21.189 60.243c-8.385-17.868-26.541-30.276-47.549-30.276h-41.893l-7.724-7.724c32.824-38.264 31.15-96.129-5.079-132.358-2.929-2.929-7.678-2.929-10.606 0-2.929 2.929-2.929 7.678 0 10.606 30.645 30.645 32.071 79.587 4.325 111.964-3.992-2.183-8.488-3.346-13.164-3.346-7.345 0-14.251 2.86-19.445 8.055l-35.355 35.355c-5.195 5.193-8.056 12.099-8.056 19.445zm174.497 10.503c0 3.965-.623 7.785-1.769 11.375l-.377 1.071c-.037.104-.061.209-.093.314-4.403 12.129-14.893 21.362-27.762 23.985v-73.491c17.097 3.484 30.001 18.636 30.001 36.746zm-155.836-19.342 35.355-35.355c2.437-2.437 5.638-3.655 8.839-3.655s6.402 1.218 8.839 3.655l15 15c1.406 1.407 3.314 2.197 5.303 2.197h37.5v75h-44.778c-14.577 0-35.602-8.708-45.91-19.017l-20.147-20.148c-2.361-2.36-3.661-5.5-3.661-8.838s1.3-6.478 3.66-8.839z"/><path d="m46.776 192.119c.61 0 1.214-.041 1.816-.088-3.091 16.475 1.718 34.155 14.44 46.876 10.235 10.235 23.679 15.352 37.123 15.352s26.888-5.117 37.123-15.352c20.47-20.47 20.47-53.776 0-74.246-12.722-12.722-30.401-17.531-46.877-14.44.048-.602.088-1.205.088-1.816 0-6.01-2.341-11.661-6.59-15.91-7.083-7.083-16.5-10.984-26.517-10.984s-19.434 3.901-26.516 10.984c-7.083 7.083-10.984 16.5-10.984 26.516s3.901 19.434 10.983 26.517c4.251 4.25 9.901 6.591 15.911 6.591zm79.895 36.182c-14.622 14.621-38.413 14.621-53.033 0-1.816-1.816-3.405-3.774-4.77-5.837l51.966-51.966c2.064 1.365 4.021 2.954 5.837 4.77 14.621 14.621 14.621 38.411 0 53.033zm-21.227-63.626-42.397 42.397c-1.594-11.279 1.936-23.149 10.592-31.805 7.311-7.311 16.914-10.966 26.517-10.966 1.767.001 3.534.127 5.288.374zm-63.971-21.573c4.25-4.25 9.9-6.59 15.91-6.59s11.66 2.341 15.91 6.591c1.417 1.416 2.197 3.299 2.197 5.303 0 2.003-.78 3.887-2.197 5.303l-21.213 21.213c-1.417 1.417-3.3 2.197-5.303 2.197s-3.887-.78-5.303-2.197c-4.25-4.25-6.59-9.9-6.59-15.91-.001-6.01 2.34-11.66 6.589-15.91z"/><path d="m372.117 289.64c0 33.084 26.916 60 60 60s60-26.916 60-60-26.916-60-60-60-60 26.916-60 60zm105 0c0 24.813-20.187 45-45 45s-45-20.187-45-45 20.187-45 45-45 45 20.187 45 45z"/></g></svg>