<svg height="512pt" viewBox="0 -104 512 512" width="512pt" xmlns="http://www.w3.org/2000/svg"><path d="m19.863281 49.726562c-7.058593 0-12.835937 5.363282-12.835937 11.917969v14.496094c0 6.558594 5.777344 11.921875 12.835937 11.921875h12.082031v-38.335938zm0 0" fill="#8896df"/><path d="m23.359375 76.140625v-14.496094c0-5.171875 3.601563-9.589843 8.585937-11.230469v-.6875h-12.082031c-7.058593 0-12.835937 5.363282-12.835937 11.917969v14.496094c0 6.558594 5.777344 11.921875 12.835937 11.921875h12.082031v-.691406c-4.984374-1.636719-8.585937-6.054688-8.585937-11.230469zm0 0" fill="#6c7fd9"/><path d="m56.289062 167.488281v-127.519531c0-3.15625-2.515624-5.714844-5.617187-5.714844h-14.882813c-3.105468 0-5.621093 2.558594-5.621093 5.714844v127.515625h26.121093zm0 0" fill="#8896df"/><path d="m261.707031 139.734375h-116.886719v19.996094c0 3.578125-2.929687 6.507812-6.507812 6.507812h123.394531c5.597657 0 10.179688-4.582031 10.179688-10.179687v-6.148438c0-5.597656-4.578125-10.175781-10.179688-10.175781zm0 0" fill="#6c7fd9"/><path d="m124.316406 159.730469v-19.996094h-14.761718l-32.902344-31.648437c-2.578125-2.484376-6.71875-2.402344-9.199219.175781l-9.355469 9.726562c-2.480468 2.578125-2.398437 6.714844.179688 9.199219l35.125 33.785156c3.75 3.386719 8.625 5.265625 13.683594 5.265625h23.734374c-3.578124 0-6.503906-2.929687-6.503906-6.507812zm0 0" fill="#6c7fd9"/><path d="m261.707031 148.023438h-116.886719v11.707031c0 3.578125-2.929687 6.507812-6.507812 6.507812h123.394531c5.597657 0 10.179688-4.582031 10.179688-10.179687v-6.148438c0-2.253906-.753907-4.339844-2.007813-6.03125-1.859375 2.507813-4.828125 4.144532-8.171875 4.144532zm0 0" fill="#4f66d1"/><path d="m124.316406 159.730469v-11.707031h-17.234375c-5.054687 0-9.929687-1.875-13.679687-5.265626l-30.714844-29.542968-4.589844 4.773437c-2.480468 2.578125-2.398437 6.714844.179688 9.199219l35.125 33.785156c3.75 3.386719 8.625 5.265625 13.679687 5.265625h23.738281c-3.578124 0-6.503906-2.929687-6.503906-6.507812zm0 0" fill="#4f66d1"/><path d="m141.3125 112.558594h-13.492188c-3.578124 0-6.503906 2.925781-6.503906 6.503906v40.667969c0 3.578125 2.925782 6.507812 6.503906 6.507812h13.492188c3.578125 0 6.507812-2.929687 6.507812-6.507812v-40.667969c0-3.578125-2.929687-6.503906-6.507812-6.503906zm0 0" fill="#8896df"/><path d="m138.3125 159.730469v-40.667969c0-2.972656 2.019531-5.488281 4.753906-6.257812-.558594-.160157-1.144531-.25-1.753906-.25h-13.492188c-3.578124 0-6.503906 2.929687-6.503906 6.507812v40.667969c0 3.578125 2.925782 6.503906 6.503906 6.503906h13.492188c.605469 0 1.195312-.089844 1.753906-.246094-2.734375-.769531-4.753906-3.285156-4.753906-6.257812zm0 0" fill="#6c7fd9"/><path d="m467.65625 7.941406c-20.085938 0-36.371094 16.285156-36.371094 36.371094 0 9 3.277344 17.230469 8.691406 23.582031l22.949219 12.472657c21.953125 2.851562 41.101563-14.230469 41.101563-36.054688 0-20.085938-16.28125-36.371094-36.371094-36.371094zm0 0" fill="#6c7fd9"/><path d="m462.234375 67.894531c-5.414063-6.351562-8.691406-14.582031-8.691406-23.582031 0-16.203125 10.601562-29.925781 25.242187-34.628906-3.507812-1.128906-7.246094-1.742188-11.128906-1.742188-20.085938 0-36.371094 16.285156-36.371094 36.371094 0 9 3.277344 17.230469 8.691406 23.582031l22.949219 12.472657c6.421875.835937 12.597657-.046876 18.128907-2.242188zm0 0" fill="#4f66d1"/><path d="m412.320312 168.894531h58.496094l-37.625-39.132812zm0 0" fill="#8bcaff"/><path d="m433.191406 129.761719-20.871094 39.132812h22.253907l12.933593-24.246093zm0 0" fill="#60b8ff"/><path d="m417.222656 168.894531 60.539063-113.507812c2.121093-3.96875 1.550781-8.402344-1.261719-9.90625l-13.511719-7.207031c-2.816406-1.5-6.816406.5-8.933593 4.46875l-67.28125 126.152343zm0 0" fill="#b4dbff"/><path d="m462.988281 38.273438c-2.816406-1.5-6.816406.5-8.933593 4.46875l-67.28125 126.152343h22.257812l66.1875-124.097656zm0 0" fill="#8bcaff"/><path d="m54.15625 229.609375v43.058594l43.328125-43.058594zm0 0" fill="#6c7fd9"/><path d="m444.820312 229.609375v43.058594l-44.476562-43.058594zm0 0" fill="#6c7fd9"/><path d="m76.554688 229.609375h-22.398438v43.058594l22.398438-22.257813zm0 0" fill="#4f66d1"/><path d="m422.742188 229.609375h-22.402344l44.480468 43.058594v-21.6875zm0 0" fill="#4f66d1"/><path d="m441.539062 229.609375v61.832031c0 3.195313 2.511719 5.789063 5.617188 5.789063h14.882812c3.101563 0 5.617188-2.59375 5.617188-5.789063v-61.832031zm0 0" fill="#8896df"/><path d="m30.167969 229.609375v61.832031c0 3.195313 2.515625 5.789063 5.621093 5.789063h14.882813c3.101563 0 5.617187-2.59375 5.617187-5.789063v-61.832031zm0 0" fill="#8896df"/><g fill="#6c7fd9"><path d="m52.183594 34.46875c-.480469-.136719-.988282-.214844-1.511719-.214844h-14.882813c-3.105468 0-5.621093 2.558594-5.621093 5.714844v127.519531h17.90625v-127.519531c0-2.621094 1.742187-4.828125 4.109375-5.5zm0 0"/><path d="m459.445312 291.441406v-61.832031h-17.90625v61.832031c0 3.195313 2.511719 5.789063 5.617188 5.789063h14.882812c.523438 0 1.03125-.078125 1.511719-.21875-2.367187-.679688-4.105469-2.914063-4.105469-5.570313zm0 0"/><path d="m48.074219 291.441406v-61.832031h-17.90625v61.832031c0 3.195313 2.515625 5.789063 5.621093 5.789063h14.882813c.523437 0 1.027344-.078125 1.511719-.21875-2.367188-.679688-4.109375-2.914063-4.109375-5.570313zm0 0"/></g><path d="m486.976562 165.238281h-469.578124c-5.703126 0-10.371094 4.664063-10.371094 10.371094v45.648437c0 5.707032 4.667968 10.371094 10.371094 10.371094h469.578124c5.703126 0 10.371094-4.664062 10.371094-10.371094v-45.648437c0-5.707031-4.667968-10.371094-10.371094-10.371094zm0 0" fill="#ffe55a"/><path d="m486.976562 201.796875h-469.578124c-5.703126 0-10.371094-4.667969-10.371094-10.371094v29.832031c0 5.707032 4.667968 10.371094 10.371094 10.371094h469.578124c5.703126 0 10.371094-4.664062 10.371094-10.371094v-29.832031c0 5.703125-4.667968 10.371094-10.371094 10.371094zm0 0" fill="#ffd500"/><path d="m468.128906 87.742188c24.191406 0 43.871094-19.683594 43.871094-43.871094 0-24.191406-19.679688-43.871094-43.871094-43.871094-24.1875 0-43.871094 19.679688-43.871094 43.871094 0 8.660156 2.582032 17.097656 7.335938 24.253906l-47.5625 89.167969h-29.066406l-290.703125-94.292969v-23.570312c0-7.234376-5.882813-13.117188-13.117188-13.117188h-14.882812c-7.234375 0-13.117188 5.882812-13.117188 13.117188v2.351562h-3.726562c-10.707031 0-19.417969 8.714844-19.417969 19.421875v14.496094c0 10.710937 8.710938 19.421875 19.417969 19.421875h3.726562v62.171875h-5.273437c-9.855469 0-17.871094 8.019531-17.871094 17.871093v45.652344c0 9.855469 8.015625 17.871094 17.871094 17.871094h5.269531v52.480469c0 7.234375 5.886719 13.117187 13.117187 13.117187h14.886719c7.230469 0 13.117188-5.882812 13.117188-13.117187v-15.132813l36.832031-37.347656h137.40625c4.140625 0 7.5-3.359375 7.5-7.5 0-4.144531-3.359375-7.5-7.5-7.5-11.265625 0-211.234375 0-220.628906 0-1.558594 0-2.871094-1.316406-2.871094-2.871094v-45.652344c0-1.558593 1.3125-2.871093 2.871094-2.871093h469.578125c1.554687 0 2.871093 1.3125 2.871093 2.871093v5.324219c0 4.144531 3.355469 7.5 7.5 7.5 4.140626 0 7.5-3.355469 7.5-7.5v-5.324219c0-9.855468-8.019531-17.871093-17.871093-17.871093h-18.433594l-24.6875-25.675781 23.410156-43.890626c.128907.003907.261719.015626.390625.015626zm-403.867187 166.933593v-15.988281h15.765625zm-15-15.988281v50.601562h-11.117188v-50.601562zm391.085937-186.976562c-.71875-2.535157-1.089844-5.171876-1.089844-7.839844 0-15.921875 12.953126-28.871094 28.871094-28.871094 15.921875 0 28.871094 12.949219 28.871094 28.871094 0 13.054687-8.710938 24.117187-20.628906 27.671875l7.230468-13.558594c4.070313-7.628906 2.171876-16.316406-4.316406-19.78125l-13.132812-7.003906c-6.273438-3.34375-14.671875-.371094-18.832032 7.433593zm-311.0625 105.582031v-38.679688h11.507813v38.679688zm21.371094-50.5 73.984375 23.996093h-68.847656v-13.167968c0-4.359375-2.003907-8.257813-5.136719-10.828125zm129.203125 41.910156 26.488281 8.589844h-26.710937c.132812-.875.222656-1.765625.222656-2.679688zm-138.996094-45.089844h-12.570312c-7.722657 0-14.007813 6.285157-14.007813 14.007813v13.167968h-1.238281l-30.722656-29.550781c-5-4.8125-12.671875-5.144531-18.0625-1.132812v-21.335938zm-76.601562 37.839844 16.472656 15.839844h-16.472656zm-44.84375-61.332031c-2.394531 0-4.417969-2.023438-4.417969-4.421875v-14.496094c0-2.398437 2.023438-4.421875 4.417969-4.421875h3.726562v23.339844zm18.726562 77.171875c0-12.648438 0-103.683594 0-115.980469h11.117188v115.980469zm60.832031-3.261719-34.3125-33.003906 7.976563-8.289063 32.1875 30.957031c2.628906 2.53125 5.304687 2.09375 9.457031 2.09375v11.503907c-6.429687 0-10.839844.710937-15.308594-3.261719zm56.816407 3.261719v-11.503907h106.386719c1.453124 0 2.679687 1.226563 2.679687 2.679688v6.144531c0 1.453125-1.226563 2.679688-2.679687 2.679688zm304.980469-111.960938 9.769531 5.210938c-.125.324219-56.746094 106.441406-56.910157 106.75h-12.601562c.144531-.269531 59.566406-111.707031 59.742188-111.960938zm-30.140626 111.960938 6.273438-11.753907 11.300781 11.753907zm0 0" fill="#231f20"/><path d="m497.820312 207.992188c-4.144531 0-7.5 3.355468-7.5 7.5v5.324218c0 1.558594-1.3125 2.871094-2.871093 2.871094-6.226563 0-209.246094 0-213.949219 0-4.144531 0-7.5 3.359375-7.5 7.5 0 4.144531 3.355469 7.5 7.5 7.5h124.175781l36.832031 37.347656v15.136719c0 7.230469 5.886719 13.117187 13.117188 13.117187h14.886719c7.230469 0 13.117187-5.886718 13.117187-13.117187v-52.484375h11.820313c9.851562 0 17.871093-8.015625 17.871093-17.871094v-5.324218c0-4.144532-3.355468-7.5-7.5-7.5zm-79.078124 30.695312h15.769531v15.988281zm41.886718 50.601562h-11.117187c0-22.890624 0-28.476562 0-50.601562h11.117187zm0 0" fill="#231f20"/></svg>