<svg id="Capa_1" enable-background="new 0 0 512 512" height="512" viewBox="0 0 512 512" width="512" xmlns="http://www.w3.org/2000/svg"><g><g><g><path d="m340.007 252.195h72.884l10-15.865-10-15.865h-72.884c-8.762 0-15.865 7.103-15.865 15.865 0 8.762 7.103 15.865 15.865 15.865z" fill="#fea3c6"/><path d="m412.891 220.465h48.659v31.73h-48.659z" fill="#fe76a8"/><path d="m173.623 345.878-75.897-75.897c-6.403-6.403-6.403-16.784 0-23.187 6.403-6.403 16.784-6.403 23.187 0l75.897 75.897c6.403 6.403 6.403 16.784 0 23.187-6.403 6.403-16.785 6.403-23.187 0z" fill="#fea3c6"/><g><path d="m471.343 347.875h-28.453v-279.96c0-2.65-2.156-4.807-4.807-4.807h-364.184c-2.65 0-4.807 2.156-4.807 4.807v279.96h-38.452v-279.96c0-23.854 19.406-43.259 43.259-43.259h354.185c23.853 0 43.259 19.406 43.259 43.259z" fill="#eef5f6"/></g><g><path d="m438.084 24.656h-31c23.853 0 43.259 19.406 43.259 43.259v279.96h31v-279.96c0-23.853-19.406-43.259-43.259-43.259z" fill="#deecf1"/></g><path d="m381.983 370.711-291.983-10v58.545h291.983l15-24.272z" fill="#b98080"/><path d="m381.983 370.711v48.545h30l10-58.545z" fill="#9b5e5e"/><path d="m446.744 487.026h-29.954c-2.655 0-4.807-2.152-4.807-4.807v-111.508l39.567-10v121.509c0 2.654-2.152 4.806-4.806 4.806z" fill="#b98080"/><path d="m441.55 360.711v121.509c0 2.655-2.152 4.807-4.807 4.807h20c2.655 0 4.807-2.152 4.807-4.807v-111.509z" fill="#9b5e5e"/><path d="m85.193 487.026h-29.954c-2.655 0-4.807-2.152-4.807-4.807v-111.508l39.567-10v121.509c.001 2.654-2.151 4.806-4.806 4.806z" fill="#b98080"/><path d="m80 360.711v121.509c0 2.655-2.152 4.807-4.807 4.807h20c2.655 0 4.807-2.152 4.807-4.807v-111.509z" fill="#9b5e5e"/><path d="m471.655 370.711h-441.327c-12.612 0-22.836-10.224-22.836-22.836 0-12.612 10.224-22.836 22.836-22.836h441.327c12.612 0 22.836 10.224 22.836 22.836 0 12.612-10.224 22.836-22.836 22.836z" fill="#86e8d0"/><path d="m481.655 325.039h-30c12.612 0 22.836 10.224 22.836 22.836s-10.224 22.836-22.836 22.836h30c12.612 0 22.836-10.224 22.836-22.836s-10.224-22.836-22.836-22.836z" fill="#0ed2b3"/></g></g><path d="m488.852 318.565v-250.491c0-27.989-22.77-50.76-50.759-50.76h-364.186c-27.989 0-50.759 22.771-50.759 50.76v250.491c-13.268 3.238-23.148 15.218-23.148 29.469 0 16.728 13.609 30.336 30.336 30.336h12.605v29.315c0 4.142 3.358 7.5 7.5 7.5s7.5-3.358 7.5-7.5v-29.315h34.567v101.315h-34.567v-39.315c0-4.143-3.358-7.5-7.5-7.5s-7.5 3.357-7.5 7.5v42.009c0 6.786 5.521 12.307 12.306 12.307h39.955c6.786 0 12.307-5.521 12.307-12.307v-55.465h296.982v55.465c0 6.786 5.52 12.307 12.307 12.307h39.955c6.786 0 12.306-5.521 12.306-12.307v-104.009h12.605c16.727 0 30.336-13.608 30.336-30.336 0-14.251-9.88-26.231-23.148-29.469zm-381.343 93.349v-33.544h296.982v33.544zm346.55 67.772h-34.567v-101.316h34.567zm27.605-116.316h-451.328c-8.456 0-15.336-6.88-15.336-15.336 0-8.457 6.88-15.337 15.336-15.337h346.175c4.142 0 7.5-3.358 7.5-7.5 0-4.143-3.358-7.5-7.5-7.5h-174.253c-.047-.05-.088-.103-.137-.151l-75.897-75.898c-9.316-9.314-24.476-9.315-33.794.001-9.316 9.316-9.316 24.477.001 33.794l9.917 9.917v32.337h-25.747v-246.929h47.256c4.142 0 7.5-3.357 7.5-7.5s-3.358-7.5-7.5-7.5h-49.95c-6.786 0-12.307 5.521-12.307 12.307v249.623h-23.452v-249.624c0-19.718 16.042-35.76 35.759-35.76h364.186c19.718 0 35.759 16.042 35.759 35.76v249.623h-23.453v-249.623c0-6.786-5.521-12.307-12.307-12.307h-281.55c-4.142 0-7.5 3.357-7.5 7.5s3.358 7.5 7.5 7.5h51.94v28.397c-.566.591-1.075 1.243-1.493 1.967l-25.245 43.726c-1.849 3.203-1.849 7.182-.001 10.385 1.849 3.203 5.295 5.192 8.993 5.192h50.491c3.698 0 7.143-1.989 8.992-5.191s1.85-7.182.001-10.384l-.001-.001-25.245-43.726c-.418-.724-.927-1.377-1.493-1.968v-28.396h65.033v28.397c-.566.591-1.075 1.243-1.493 1.967l-25.246 43.728c-1.849 3.202-1.848 7.182.001 10.384s5.294 5.191 8.992 5.191h50.491c3.698 0 7.144-1.989 8.993-5.192s1.849-7.182-.001-10.385v.001l-25.245-43.727c-.418-.724-.927-1.375-1.493-1.966v-28.398h131.883v71.549l-73.17 70.808h-22.214c-12.884 0-23.365 10.481-23.365 23.365 0 12.883 10.481 23.364 23.365 23.364h95.384v57.844h-26.202c-4.142 0-7.5 3.357-7.5 7.5 0 4.142 3.358 7.5 7.5 7.5h72.466c8.456 0 15.336 6.88 15.336 15.337.004 8.455-6.876 15.335-15.332 15.335zm-325.765-45.673-40.747-40.746c-.001-.001-.001-.001-.002-.002l-12.113-12.113c-3.469-3.469-3.469-9.113-.001-12.581 3.47-3.469 9.113-3.469 12.581 0l65.441 65.441h-25.159zm-21.214 0h-17.337v-17.337zm300.714-89.573v16.729h-95.384c-4.613 0-8.365-3.752-8.365-8.364s3.752-8.365 8.365-8.365zm0-15h-51.601l51.601-49.935zm-146.016-86.078c1.257 2.381 3.754 4.006 6.634 4.006s5.377-1.625 6.634-4.006l10.616 18.388h-34.5zm-80.034 0c1.257 2.382 3.754 4.006 6.634 4.006s5.377-1.625 6.634-4.006l10.616 18.388h-34.501zm107.914 25.31.001.002v.001c0-.001-.001-.002-.001-.003z"/></g></svg>