<svg id="Capa_1" enable-background="new 0 0 504.346 504.346" height="512" viewBox="0 0 504.346 504.346" width="512" xmlns="http://www.w3.org/2000/svg"><g><g><g><g><path d="m252.164 479.519c-5.027 0-10.029.839-15.001.519-55.391-3.565-106.973-26.842-146.576-66.447-43.159-43.158-66.927-100.541-66.927-161.577s23.768-118.418 66.927-161.577c39.603-39.604 91.185-62.881 146.576-66.447 4.972-.32 9.974.519 15.001.519 61.036 0 108.419 22.769 151.577 65.928 43.159 43.159 66.928 100.541 66.928 161.577s-23.769 118.419-66.928 161.577c-43.158 43.159-90.54 65.928-151.577 65.928zm0-416.01c-103.942 0-188.505 84.563-188.505 188.505s84.563 188.505 188.505 188.505 188.505-84.563 188.505-188.505-84.562-188.505-188.505-188.505z" fill="#fea3c6"/></g><g><path d="m413.741 90.437c-43.158-43.159-100.541-66.928-161.577-66.928-5.028 0-10.028.177-15 .497 55.39 3.566 106.974 26.826 146.577 66.431 43.159 43.159 66.928 100.541 66.928 161.577s-23.769 118.419-66.928 161.577c-39.603 39.604-91.187 62.865-146.577 66.431 4.972.32 9.972.497 15 .497 61.036 0 118.419-23.769 161.577-66.928 43.159-43.159 66.928-100.541 66.928-161.577s-23.768-118.418-66.928-161.577z" fill="#fe76a8"/></g><path d="m58.332 274.911v-45.793c0-5.156 4.18-9.336 9.336-9.336 5.156 0 9.336-4.18 9.336-9.336v-22.897c0-5.156-4.18-9.336-9.336-9.336h-50.841c-5.156 0-9.336 4.18-9.336 9.336v128.93c0 5.156 4.18 9.336 9.336 9.336h50.841c5.156 0 9.336-4.18 9.336-9.336v-22.897c0-5.156 5.82-9.336.664-9.336h-10c-5.157.001-9.336-4.179-9.336-9.335z" fill="#b98080"/><path d="m417.326 187.549v22.897c0 5.156 4.18 9.336 9.336 9.336 5.156 0 9.336 4.18 9.336 9.336v45.793c0 5.156-4.18 9.336-9.336 9.336-5.156 0-9.336 4.18-9.336 9.336v22.897c0 5.156 4.18 9.336 9.336 9.336h50.841c5.156 0 9.336-4.18 9.336-9.336v-128.93c0-5.156-4.18-9.336-9.336-9.336h-50.841c-5.157-.001-9.336 4.179-9.336 9.335z" fill="#b98080"/><g fill="#9b5e5e"><path d="m77.668 219.782c5.156 0 9.336-4.18 9.336-9.336v-22.897c0-5.156-4.18-9.336-9.336-9.336h-27c5.156 0 9.336 4.18 9.336 9.336v22.897c0 5.156-4.18 9.336-9.336 9.336s-9.336 4.18-9.336 9.336v45.793c0 5.156 4.18 9.336 9.336 9.336s9.336 4.18 9.336 9.336v22.897c0 5.156-4.18 9.336-9.336 9.336h27c5.156 0 9.336-4.18 9.336-9.336v-22.897c0-5.156-4.18-9.336-9.336-9.336s-9.336-4.18-9.336-9.336v-45.793c0-5.157 4.179-9.336 9.336-9.336z"/><path d="m487.502 178.213h-27c5.156 0 9.336 4.18 9.336 9.336v128.93c0 5.156-4.18 9.336-9.336 9.336h27c5.156 0 9.336-4.18 9.336-9.336v-128.93c0-5.156-4.18-9.336-9.336-9.336z"/></g></g></g><path d="m487.511 170.872h-13.671c-11.328-30.961-28.823-58.818-52.074-82.824-2.883-2.975-7.631-3.052-10.605-.169-2.976 2.882-3.052 7.63-.17 10.605 20.48 21.145 36.186 45.469 46.805 72.389h-27.284c-31.92-69.812-101.497-114.705-178.339-114.705-76.84 0-146.42 44.894-178.339 114.704h-27.282c11.063-28.055 27.623-53.25 49.348-74.973 41.741-41.742 97.24-64.731 156.273-64.731 49.599 0 96.363 15.962 135.236 46.162 3.27 2.541 7.982 1.95 10.524-1.322 2.541-3.271 1.949-7.983-1.321-10.524-41.53-32.263-91.477-49.316-144.439-49.316-63.04 0-122.306 24.549-166.881 69.125-24.602 24.601-43.007 53.386-54.783 85.58h-13.674c-9.283-.001-16.835 7.552-16.835 16.835v39.295c0 4.142 3.358 7.5 7.5 7.5 4.143 0 7.5-3.358 7.5-7.5v-39.295c0-1.012.823-1.836 1.835-1.836h60.841c1.013 0 1.836.824 1.836 1.836v22.896c0 1.012-.823 1.836-1.836 1.836-9.283 0-16.836 7.553-16.836 16.836v45.793c0 9.283 7.553 16.836 16.836 16.836 1.013 0 1.836.824 1.836 1.836v22.896c0 1.012-.823 1.836-1.836 1.836h-60.841c-1.012 0-1.835-.824-1.835-1.836v-56.948c0-4.142-3.357-7.5-7.5-7.5-4.142 0-7.5 3.358-7.5 7.5v56.948c0 9.283 7.552 16.836 16.835 16.836h13.673c11.775 32.192 30.181 60.976 54.784 85.58 44.575 44.576 103.841 69.125 166.881 69.125s122.306-24.549 166.881-69.125c24.604-24.604 43.009-53.387 54.784-85.58h13.673c9.283 0 16.835-7.553 16.835-16.836v-128.93c0-9.282-7.552-16.835-16.835-16.835zm-79.065 237.575c-41.741 41.742-97.24 64.731-156.273 64.731s-114.532-22.989-156.273-64.731c-21.726-21.726-38.285-46.919-49.347-74.973h27.309c6.637 14.5 15.024 28.185 25.009 40.708 1.481 1.857 3.665 2.824 5.869 2.824 1.64 0 3.29-.535 4.671-1.637 3.239-2.582 3.771-7.301 1.188-10.54-8.708-10.918-16.113-22.784-22.071-35.34 3.654-3.091 5.984-7.702 5.984-12.851v-22.896c0-9.283-7.553-16.836-16.836-16.836-1.013 0-1.836-.824-1.836-1.836v-45.793c0-1.012.823-1.836 1.836-1.836 9.283 0 16.836-7.553 16.836-16.836v-22.896c0-5.149-2.33-9.76-5.983-12.851 29.937-63.188 93.517-103.689 163.645-103.689 70.129 0 133.707 40.501 163.645 103.689-3.654 3.091-5.984 7.702-5.984 12.851v22.896c0 9.283 7.553 16.836 16.836 16.836 1.013 0 1.836.824 1.836 1.836v45.793c0 1.012-.823 1.836-1.836 1.836-9.283 0-16.836 7.553-16.836 16.836v22.896c0 5.148 2.329 9.758 5.982 12.849-29.937 63.169-93.575 103.691-163.643 103.691-44.214 0-86.814-16.183-119.953-45.567-3.1-2.748-7.84-2.462-10.587.636-2.748 3.1-2.464 7.839.636 10.588 35.885 31.82 82.02 49.344 129.904 49.344 76.774 0 146.42-44.916 178.337-114.704h27.284c-11.063 28.053-27.623 53.246-49.349 74.972zm80.9-91.809c0 1.012-.823 1.836-1.835 1.836h-60.841c-1.013 0-1.836-.824-1.836-1.836v-22.896c0-1.012.823-1.836 1.836-1.836 9.283 0 16.836-7.553 16.836-16.836v-45.793c0-9.283-7.553-16.836-16.836-16.836-1.013 0-1.836-.824-1.836-1.836v-22.896c0-1.012.823-1.836 1.836-1.836h60.841c1.012 0 1.835.824 1.835 1.836z"/></g></svg>