<svg id="Capa_1" enable-background="new 0 0 512 512" height="512" viewBox="0 0 512 512" width="512" xmlns="http://www.w3.org/2000/svg"><g><g><circle cx="487.562" cy="401.734" fill="#fcb143" r="16.967"/><g><g><g><path d="m61.401 284.533c-30.738 5.367-53.93 31.151-53.93 61.873v9.38c0 34.411 29.088 62.651 65.298 62.913.266.002.532.003.798.003.267 0 .533-.001.799-.003 36.209-.263 65.298-28.502 65.298-62.913v-9.38c0-.116 0-.231-.001-.346-.096-16.851-10.364-31.985-25.816-38.708z" fill="#7fd061"/><path d="m139.662 346.059c-.096-16.851-10.364-31.985-25.816-38.708l-14.021-6.1.398 54.535c0 28.15-19.47 52.159-46.376 60.112 5.985 1.769 12.333 2.753 18.922 2.801.266.002.532.003.798.003.267 0 .533-.001.799-.003 36.209-.263 65.298-28.502 65.298-62.913v-9.38c-.001-.116-.001-.232-.002-.347z" fill="#51be26"/></g><g><g><g><g><g><g><g><g><path d="m52.086 264.231-1.121-.229c-3.204-.656-6.021-2.585-7.733-5.371-3.201-5.209-5.741-10.938-8.13-16.501l-9.435-21.971c-1.568-3.652-5.254-5.934-9.222-5.71-4.925.278-8.896 4.285-8.974 9.184l.123 52.476c-.012 4.939 3.367 9.189 8.217 10.123l27.483 3.607 5.178-3.87 5.841-17.008z" fill="#69d8e4"/></g><g><g><g><g><g><path d="m416.551 377.75s-7.622-15.635-19.245-24.667c0 0-32.017-35.724-92.283-35.724l-57.476-.54-14.664 5.947-9.562 39.626 11.302 11.066 50.89 17.534 35.355 27.708 113.252-.042-17.526-40.897z" fill="#fb74c4"/></g></g></g></g><g><g><path d="m124.942 323.245-81.649-33.407 8.794-25.607 93.471 17.997c9.586 1.724 19.014 4.229 28.191 7.491l73.798 27.101-14.664 5.947-9.562 39.626 11.302 11.066s-34.877-7.557-34.877-7.557c-12.295-11.856-58.906-36.417-74.804-42.657z" fill="#057195"/></g></g></g></g></g></g></g><g><g><path d="m201.938 127.512-.393-1.868c-.682-3.242-.028-6.638 1.874-9.351 3.497-4.988 7.726-9.582 11.864-13.972l16.401-17.401c2.726-2.893 3.353-7.181 1.568-10.733-2.215-4.408-7.423-6.343-11.948-4.465l-48.189 20.774c-4.536 1.955-7.041 6.858-5.968 11.679l7.475 26.494 5.438 3.078 16.702-.708z" fill="#69d8e4"/></g><g><g><path d="m188.631 230.478-14.009-101.808 27.317-1.158 28.266 83.346c2.98 9.272 5.195 18.773 6.625 28.407l10.718 77.556c-7.435 14.067-11.673 29.602-12.409 45.495l-.516 11.144c-35.321 5.152-64.812-26.75-56.906-61.558l10.452-46.018c1.924-11.713 2.08-23.648.462-35.406z" fill="#0e80ac"/></g></g></g><g><g><path d="m444.228 418.109c23.086-1.201 40.827-20.889 39.626-43.974-1.201-23.086-20.889-40.827-43.974-39.626l-10.287.535c-23.086 1.201-40.827 20.889-39.626 43.974 1.201 23.086 20.889 40.827 43.974 39.626z" fill="#fff0dc"/><path d="m483.854 374.134c-1.127-21.676-18.553-38.637-39.786-39.635l.86 46.635c.275 14.648-9.058 29.155-20.425 36.927 3.054.536 6.211.75 9.438.583l10.287-.535c23.085-1.201 40.826-20.889 39.626-43.975z" fill="#ffe4c0"/><path d="m483.854 374.135c-.999-19.21-14.803-34.708-32.71-38.682l1.645 31.635c.398 7.657-5.486 14.188-13.143 14.586-3.377.176-6.573 1.577-8.989 3.942l-24.697 24.168c7.677 6.02 17.474 9.407 27.982 8.861l10.287-.535c23.084-1.202 40.825-20.89 39.625-43.975z" fill="#fcb143"/><path d="m483.854 374.135c-.999-19.21-14.803-34.708-32.71-38.681l1.645 31.634c.3 5.771-2.97 10.898-7.876 13.246l.015.801c.275 14.648-9.058 29.155-20.425 36.927 3.054.536 6.211.75 9.438.583l10.287-.535c23.085-1.202 40.826-20.89 39.626-43.975z" fill="#fa9801"/></g></g></g></g><g><path d="m353.296 418.701c10.047 0 18.192-8.145 18.192-18.192 0-10.047-8.145-18.192-18.192-18.192l-94.801 11.737c-21.037 2.384-41.561 8.102-60.8 16.941l-3.475 1.596c-3.122 1.434-2.099 6.11 1.336 6.11z" fill="#fff0dc"/></g></g></g><g><g><g><g><g><g><path d="m491.232 443.074h-470.464c-7.344 0-13.297-5.953-13.297-13.297 0-7.344 5.953-13.297 13.297-13.297h470.465c7.344 0 13.297 5.953 13.297 13.297-.001 7.344-5.954 13.297-13.298 13.297z" fill="#d0f0f3"/></g></g></g></g></g></g><path d="m491.232 416.48h-26.71v26.594h26.71c7.344 0 13.297-5.953 13.297-13.297 0-7.344-5.953-13.297-13.297-13.297z" fill="#a5e4ef"/></g></g><path d="m512 401.734c0-12.172-8.847-22.263-20.64-24.119.032-1.281.022-2.57-.046-3.868-1.416-27.227-24.594-48.112-51.822-46.698l-10.287.534c-12.773.665-24.17 6.16-32.516 14.617-12.449-10.75-43.421-32.31-91.596-32.31l-51.029-.48-9.845-71.242c-1.485-10.006-3.807-19.963-6.902-29.596-.013-.038-.025-.076-.038-.114l-28.122-82.922c-.06-.75-1.066-2.891.38-4.955 4.596-6.556 9.604-11.389 27.583-30.537 12.466-13.225-2.025-34.139-18.681-27.222-.031.013-.062.026-.093.039l-48.19 20.773c-8.436 3.637-12.335 13.016-10.2 20.569l7.334 25.995 13.939 101.298c1.508 10.955 1.374 22.041-.397 32.956l-4.174 18.377c-.268-.083-13.243-4.982-29.688-7.938l-33.437-6.438c-4.05-.779-7.968 1.873-8.749 5.924-.78 4.052 1.872 7.969 5.924 8.749l33.527 6.454c16.916 3.041 28.19 7.656 29.087 7.94l-2.89 12.726c-2.108 9.28-1.879 18.771.465 27.706-11.336-6.39-23.278-12.564-32.533-16.94-.019-.008-.038-.019-.057-.027-4.18-1.975-7.815-3.586-10.582-4.675l-75.074-30.717 4.396-12.8 19.077 3.673c4.054.783 7.969-1.872 8.749-5.923.78-4.052-1.872-7.968-5.923-8.748l-25.378-4.887c-.504-.178-2.724-.159-3.972-2.19-4.196-6.828-6.629-13.333-17.066-37.509-7.197-16.763-32.246-11.646-32.531 6.303-.003.047-.003.091-.003.137l.123 52.441c-.021 9.139 6.914 16.519 14.715 17.549l8.633 1.133c-14.805 13.1-23.471 31.607-23.471 51.633v9.38c0 20.892 9.668 40.146 25.373 53.224h-4.605c-11.452 0-20.768 9.316-20.768 20.768s9.316 20.768 20.768 20.768h470.465c11.451 0 20.768-9.317 20.768-20.768 0-5.09-1.847-9.751-4.897-13.366 3.175-4.211 4.896-9.311 4.896-14.677zm-14.942 0c0 2.801-1.19 5.501-3.597 7.399-.733-.079-1.475-.124-2.229-.124h-9.739c-.503-.413-.706-.564-1.319-1.323 3.741-4.542 6.659-9.739 8.576-15.366 4.662.587 8.308 4.532 8.308 9.414zm-20.665-27.211c.815 15.669-8.904 29.703-23.735 34.486h-32.976c-.54-.203-1.082-.403-1.607-.63l17.806-17.425c1.117-1.093 2.591-1.739 4.153-1.82 11.758-.613 20.827-10.677 20.215-22.435l-1.051-20.202c9.95 5.751 16.573 16.073 17.195 28.026zm-46.413-32.019 10.287-.534c1.254-.065 2.499-.057 3.735.01l1.326 25.496c.183 3.531-2.54 6.553-6.069 6.736-5.197.269-10.108 2.423-13.828 6.063l-19.603 19.183c-4.946-5.663-7.989-12.923-8.4-20.829-.985-18.934 13.618-35.139 32.552-36.125zm-42.11 11.893c-3.84 7.479-5.831 16.026-5.363 25.009.583 11.214 4.858 21.52 11.81 29.603h-16.806c.945-2.69 1.449-5.558 1.449-8.5 0-16.166-14.886-27.063-26.581-25.606l-18.84 2.333c-4.094.507-7.003 4.237-6.496 8.333.508 4.094 4.239 7 8.332 6.496l18.322-2.268c5.727.211 10.32 4.936 10.32 10.713 0 3.363-1.583 6.487-4.207 8.5h-136.14c24.907-7.788 39.874-7.532 76.326-12.565 4.095-.507 7.003-4.237 6.497-8.333s-4.24-6.991-8.332-6.496l-12.456 1.542-43.36-14.94c.4-3.071-.684-21.64 9.807-43.883l52.871.497c44.605-.001 73.015 20.924 82.847 29.565zm-372.928 1.388v-9.38c0-5.77.932-11.381 2.685-16.686 13.72 5.164 35.557 9.806 58.988 9.806 13.076 0 33.516-1.891 50.958-7.043.678.304 1.374.62 2.101.956 1.641 4.043 2.493 8.289 2.518 12.652l.001 9.696c0 3.458-.352 6.856-1.006 10.168-16.972 5.039-39.168 7.317-54.572 7.317-17.937 0-43.871-2.98-61.047-9.479-.405-2.625-.626-5.297-.626-8.007zm132.192 0-.001-9.769c-.008-1.36-.09-2.707-.207-4.049 14.216 7.391 30.283 16.519 40.364 23.591 12.313 11.619 29.24 17.487 46.544 15.531l18.19 6.268c-28.852 4.07-61 16.516-64.959 21.653h-65.308c15.706-13.079 25.377-32.331 25.377-53.225zm82.294-115.499 10.394 75.216c-12.687 25.312-12.112 49.275-12.359 51.036-12.512.09-23.782-5.036-32.018-13.945-9.852-10.657-13.659-24.885-10.444-39.038l10.452-46.018c.033-.147.062-.295.087-.444 2.048-12.462 2.213-25.125.492-37.635l-12.89-93.673 13.519-.573 26.447 77.985c2.839 8.843 4.968 17.981 6.32 27.089zm-49.22-119.33-5.797-20.545c-.215-1.271.465-2.54 1.661-3.054l48.125-20.746c1.902-.749 3.468 1.681 2.051 3.185-17.931 19.107-23.535 24.493-28.946 32.21-1.748 2.494-2.839 5.374-3.266 8.364zm-76.918 201.502c-9.606 1.442-19.132 2.125-26.675 2.125-15.869 0-37.378-2.831-52.35-8.277 4.976-7.298 11.785-13.489 20.043-17.981zm-88.226-46.368-.123-52.38c.079-1.915 3.012-2.581 3.861-.604 9.87 22.845 13.013 31.216 18.065 39.436 1.483 2.414 3.5 4.436 5.849 5.974l-4.506 13.12-21.135-2.774c-1.194-.302-2.014-1.407-2.011-2.772zm6.497 105.272c19.759 5.281 42.557 6.85 55.054 6.85 13.408 0 31.695-1.632 48.001-5.182-7.333 12.312-19.518 21.847-34.448 25.979h-33.202c-15.598-4.317-28.202-14.531-35.405-27.647zm469.671 54.241h-470.464c-3.213 0-5.826-2.614-5.826-5.827 0-3.212 2.613-5.826 5.826-5.826h470.465c3.213 0 5.826 2.614 5.826 5.826-.001 3.214-2.614 5.827-5.827 5.827z"/></g></svg>