<svg id="Capa_1" enable-background="new 0 0 512 512" height="512" viewBox="0 0 512 512" width="512" xmlns="http://www.w3.org/2000/svg"><g><g><g><g><circle cx="112.066" cy="428.648" fill="#fa9801" r="17.379"/><g><g><g><g><path d="m208.813 108.996-5.543-14.416c-2.714-7.059-6.256-13.771-10.551-19.996l-13.247-19.2c-2.12-3.072-2.092-7.142.069-10.186l.109-.154c2.764-3.892 8.028-4.981 12.082-2.522l31.409 19.056c5.383 3.266 8.544 9.217 8.237 15.506l-.282 5.772c-.26 5.321.608 10.637 2.547 15.599l-4.618 6.618-12.178 5.169z" fill="#69d8e4"/><path d="m329.494 293.903c12.04-26.665 5.792-58.036-15.547-78.053-21.636-20.296-39.933-43.882-54.213-69.884l-26.091-47.508-24.831 10.539 62.184 175.364 5.731 15.743 41.075 7.817z" fill="#0e80ac"/></g><g><g><g><g><g><g><path d="m201.59 405.941c15.875-65.604 54.486-52.478 69.407-121.58l28.788 4.696 29.709 4.846s-2.368 123.808-57.369 152.124h-105.798s35.264-40.086 35.22-40.078c.017-.003.026-.005.043-.008z" fill="#fb74c4"/></g></g></g></g></g></g><g><path d="m313.948 215.85c-4.602-4.317-9.042-8.791-13.335-13.396 9.329 25.605 11.181 57.492-9.232 85.232 0 0-.204 5.724-1.029 15.011l27.45 5.224 11.692-14.018c12.04-26.665 5.792-58.036-15.546-78.053z" fill="#057195"/></g><path d="m299.785 289.057-8.404-1.371s-4.588 130.025-59.589 158.341h40.333c55.002-28.316 57.369-152.124 57.369-152.124z" fill="#fd4eb4"/></g></g><g><path d="m261.464 446.027c-10.291 0-18.633-8.342-18.633-18.633 0-10.291 8.342-18.633 18.633-18.633l88.101 12.022c21.548 2.441 42.569 8.299 62.275 17.352l3.559 1.635c3.197 1.469 2.15 6.258-1.369 6.258h-152.566z" fill="#fff0dc"/></g></g><g><path d="m161.077 446.027c-23.564 0-42.667-19.103-42.667-42.667 0-23.564 19.103-42.667 42.667-42.667h10.5c23.564 0 42.667 19.103 42.667 42.667s-19.103 42.667-42.667 42.667z" fill="#fff0dc"/><path d="m174.318 360.791v47.819c0 15.624-8.402 29.279-20.93 36.713 2.495.454 5.062.704 7.688.704h10.5c23.564 0 42.667-19.102 42.667-42.667 0-22.642-17.64-41.155-39.925-42.569z" fill="#ffe4c0"/><path d="m118.41 403.36c0-19.608 13.232-36.116 31.25-41.109v32.291c0 7.816 6.336 14.152 14.152 14.152 3.447 0 6.774 1.258 9.359 3.537l26.421 23.295c-7.497 6.535-17.29 10.501-28.016 10.501h-10.5c-23.564 0-42.666-19.103-42.666-42.667z" fill="#fcb143"/><path d="m171.576 446.027c10.726 0 20.519-3.967 28.016-10.501l-25.524-22.504c-1.416 13.757-9.349 25.577-20.68 32.301 2.495.454 5.062.704 7.688.704z" fill="#fa9801"/></g></g></g><g><g><g><g><g><g><path d="m491.205 470.787h-470.41c-7.343 0-13.295-5.952-13.295-13.295 0-7.343 5.952-13.295 13.295-13.295h470.409c7.343 0 13.295 5.952 13.295 13.295.001 7.343-5.951 13.295-13.294 13.295z" fill="#d0f0f3"/></g></g></g></g></g></g><path d="m491.205 444.197h-26.706v26.591h26.706c7.343 0 13.295-5.953 13.295-13.295s-5.953-13.296-13.295-13.296z" fill="#a5e4ef"/></g><path d="m491.205 436.727h-68.242c-1.087-1.604-2.598-2.9-4.433-3.743-2.399-.943-23.113-11.851-53.598-17.466-4.074-.756-7.984 1.943-8.734 6.018-.75 4.073 1.944 7.984 6.018 8.734 8.585 1.582 17.052 3.753 25.345 6.457h-132.178c-3.148-2.042-5.052-5.487-5.052-9.303 0-5.99 4.755-10.891 10.688-11.125l66.822 9.118c4.104.57 7.885-2.312 8.445-6.417.56-4.104-2.313-7.885-6.417-8.444l-16.281-2.222c20.328-44.036 23.04-102.482 23.365-112.771 12.492-29.271 5.419-63.303-17.874-85.152-18.98-17.805-35.312-38.194-48.542-60.604-2.106-3.566-6.705-4.752-10.271-2.645-3.567 2.105-4.751 6.704-2.646 10.271 13.954 23.634 31.179 45.139 51.197 63.916 17.607 16.517 23.665 41.708 15.929 64.209l-48.162-7.857-58.342-164.53 12.092-5.133 10.172 18.523c1.994 3.631 6.552 4.96 10.184 2.964 3.63-1.994 4.958-6.554 2.964-10.185l-13.163-23.969c-3.042-8.098-1.576-13.928-1.621-17.891.442-9.046-4.094-17.585-11.838-22.284l-31.408-19.055c-14.933-9.067-32.523 8.747-22.325 23.53 10.292 15.651 17.268 22.798 22.97 37.628l5.506 14.319 61.429 173.236c-7.23 31.614-19.624 44.068-32.734 57.222-7.631 7.657-15.458 15.532-22.342 27.004-9.158-9.751-22.151-15.859-36.551-15.859h-10.5c-27.742 0-50.407 22.663-50.158 50.638-6.065.281-11.973 2.752-16.445 7.224-6.999 6.996-8.899 17.008-5.957 25.641h-67.722c-11.466.003-20.795 9.332-20.795 20.799s9.329 20.795 20.795 20.795h470.409c11.467 0 20.795-9.328 20.795-20.795s-9.328-20.796-20.794-20.796zm-305.559-385.57c-.865-1.256.778-3.051 2.197-2.189l31.408 19.056c3.034 1.841 4.811 5.185 4.637 8.728-.045 3.955-1.052 9.453.662 17.449l-11.522 4.89-2.757-7.171c-6.551-17.037-14.591-25.43-24.625-40.763zm55.449 301.511c13.409-13.455 27.246-27.34 35.593-59.749l45.033 7.347c-.403 7.351-1.37 20.308-3.625 35.477-4.214 28.338-11.15 52.542-20.14 70.459l-35.477-4.841c-.336-.046-.675-.069-1.014-.069-14.41 0-26.133 11.724-26.133 26.134 0 3.227.617 6.372 1.745 9.303h-27.92c7.937-8.931 12.588-20.649 12.588-33.336 0-7.176-1.526-13.999-4.252-20.178 6.687-13.567 14.92-21.836 23.602-30.547zm-69.518 15.556c19.391 0 35.167 15.775 35.167 35.167 0 8.05-2.82 15.677-7.614 21.758l-20.997-18.513c-3.958-3.49-9.043-5.412-14.32-5.412-3.668 0-6.652-2.983-6.652-6.651v-26.125c1.287-.143 2.592-.223 3.917-.223h10.499zm-29.417 5.545v20.804c0 11.938 9.713 21.651 21.652 21.651 1.621 0 3.183.591 4.399 1.663l19.174 16.906c-1.479.75-3.02 1.397-4.617 1.934h-32.884c-14.166-4.759-23.975-18.315-23.975-33.336.001-12.43 6.489-23.366 16.251-29.622zm-37.079 47.924c2.196-2.195 5.266-3.179 8.25-2.794 1.68 5.234 4.197 10.108 7.426 14.455-.776 1.449-1.776 2.525-2.982 3.373h-11.418c-4.998-3.512-5.607-10.705-1.276-15.034zm386.124 41.625h-470.41c-3.196 0-5.795-2.6-5.795-5.795 0-3.196 2.6-5.796 5.795-5.796h470.409c3.196 0 5.795 2.6 5.795 5.796.001 3.196-2.599 5.795-5.794 5.795z"/></g></svg>