<svg id="Filled-Outline" enable-background="new 0 0 512 512" height="512" viewBox="0 0 512 512" width="512" xmlns="http://www.w3.org/2000/svg"><g><g><circle cx="352" cy="368" fill="#ddf216" r="48"/><path d="m352 424c-30.8789063 0-56-25.121582-56-56s25.1210938-56 56-56 56 25.121582 56 56-25.1210937 56-56 56zm0-96c-22.0556641 0-40 17.9438477-40 40s17.9443359 40 40 40 40-17.9438477 40-40-17.9443359-40-40-40z" fill="#35495e"/><path d="m152 368v34.289978l-24-10.289978-8 24h-16v-32c0-8.8365479 7.1634445-16 16-16z" fill="#fad6c6"/><path d="m240 360-48.3411713 48.3411865c-4.6257629 4.6257629-11.601593 5.969574-17.6147614 3.3933105l-22.0440673-9.444519v-34.289978h16v-18.5800171c0-6.5599976 1.8598633-12.8499756 5.1799316-18.2199707 3.3200684-5.3800049 8.1101074-9.8400269 13.9799805-12.7800293 8.2199707-4.1099854 17.7399902-4.789978 26.4602051-1.8800049l10.3798828 3.460022v1.3699951c0 14.4899903 5.7600098 28.3900147 16 38.6300049z" fill="#5b0b3c"/><path d="m280 336c0 11.8399658-9.7199707 20.039978-20.0800781 20.039978-4.0600586 0-8.2099609-1.2600098-11.9199219-4.039978l-8 8c-10.2399902-10.2399902-16-24.1400146-16-38.6300049v-1.3699951l18.5341949-30.8903503c3.3120728-5.5200806 9.6098328-8.5176392 15.9826202-7.6072388l17.4831849 2.4975891-4 4-3.1000977 6.2000122c-7.369873 14.7399902-2.6098632 32.6599732 11.1000977 41.7999878z" fill="#f249b4"/><path d="m367.9994812 368.128418c-.0693665 8.8537597-7.5550842 15.871582-16.4091492 15.871582h-7.590332l-40-32-23.9997253-15.9998169c-13.7112427-9.1408386-18.4701233-27.0611267-11.1003723-41.8001709l3.1000976-6.2000122 4-4 20.4609985 2.9230042c4.7696533.681366 8.978302 3.4757996 11.4571533 7.6072693l20.0818482 33.4697265 24 24c4.4199219 0 8.4199219 1.789978 11.3200684 4.6799927 2.9178466 2.928009 4.7144775 6.977478 4.6794128 11.4484253z" fill="#fad6c6"/><path d="m16 416h480v16h-480z" fill="#a565c3"/><g><path d="m216 216h-20.0000153c-11.0456848 0-19.9999847-8.9542999-19.9999847-19.9999847v-.0000305c0-11.0456849 8.9542999-19.9999848 19.9999847-19.9999848h20.0000153z" fill="#eaaa94"/><path d="m360 176h20.0000305c11.0456848 0 19.9999695 8.9542999 19.9999695 19.9999847v.0000305c0 11.0456849-8.9542847 19.9999848-19.9999695 19.9999848h-20.0000305z" fill="#eaaa94"/><circle cx="224" cy="120" fill="#5b0b3c" r="40"/><circle cx="352" cy="120" fill="#5b0b3c" r="40"/><path d="m192 176c0-9.5400391 1.3901367-18.75 3.9799805-27.4400024 4.6101074-15.4800415 13.0100098-29.3200073 24.1401367-40.4400024 17.369873-17.380005 41.369873-28.1199952 67.8798828-28.1199952s50.5100098 10.7399902 67.8798828 28.1199951c11.130127 11.1199951 19.5300293 24.9599609 24.1401367 40.4400024 2.5898438 8.6900025 3.9799805 17.8999634 3.9799805 27.4400025z" fill="#fbc6ea"/><path d="m370.0500488 168.1099854c-.0100098-.0100098-.0100098-.0100098-.0100098-.0100098-12.7800292-32.8299561-44.6899413-56.0999756-82.040039-56.0999756-37.8901367 0-70.1899414 23.9499512-82.5800781 57.5400391-3.5100098 9.4899902-5.4199219 19.75-5.4199219 30.4599609 0 48.5999756 39.3999023 88 88 88s88-39.4000244 88-88c0-11.25-2.1098633-22-5.9499512-31.8900146z" fill="#fad6c6"/><path d="m240 192h-16c0-17.6450195 14.3554688-32 32-32v16c-8.8222656 0-16 7.1777344-16 16z" fill="#5b0b3c"/><path d="m352 192h-16c0-8.8222656-7.1777344-16-16-16v-16c17.6445313 0 32 14.3549805 32 32z" fill="#5b0b3c"/><path d="m248 240c0 12.1099854-8.9799805 22.1300049-20.6499023 23.7600098-10.630127-10.1100464-18.7299805-22.8500366-23.25-37.1700439 4.3098144-6.3899537 11.619873-10.5899659 19.8999023-10.5899659 13.25 0 24 10.75 24 24z" fill="#f48da1"/><path d="m371.8999023 226.5899658c-4.5200195 14.3200073-12.619873 27.0599976-23.25 37.1700439-11.6699218-1.6300048-20.6499023-11.6500243-20.6499023-23.7600097 0-13.25 10.75-24 24-24 8.2800293 0 15.5900879 4.2000122 19.8999023 10.5899658z" fill="#f48da1"/><path d="m376 174.3983307c-6.2651978-8.1862946-14.1124268-14.7264557-22.9006348-19.2867279-9.3762817-4.8828888-19.8323975-7.5189514-30.5985718-7.5189514l-17.1060486-17.7963257-17.1060486 17.7963257h-25.6590881c-23.9055633 0-46.5605773 10.3996887-62.6296081 28.4073486 13.2466431-37.3611145 47.7792816-64 88.2886963-64 39.9320373 0 74.047821 25.8824768 87.7113037 62.3983307z" fill="#5b0b3c"/><path d="m288 207.612793c-5.7943726 0-11.5887451-2.2994385-16-6.897934l8.3578491-8.714859c4.2150269 4.3927765 11.0692749 4.3927765 15.2843018 0l8.3578491 8.714859c-4.4112549 4.5984955-10.2056274 6.897934-16 6.897934z" fill="#e22526"/></g></g><g><path d="m259 160c-17.6445313 0-32 14.3549805-32 32h16c0-8.8222656 7.1777344-16 16-16z"/><path d="m339 192h16c0-17.6450195-14.3554688-32-32-32v16c8.8222656 0 16 7.1777344 16 16z"/><path d="m312.65625 198.6572266-11.3125-11.3144531c-5.7050781 5.703125-14.9824219 5.703125-20.6875 0l-11.3125 11.3144531c5.9707031 5.9702148 13.8134766 8.9555664 21.65625 8.9555664s15.6855469-2.9853516 21.65625-8.9555664z"/><path d="m391.1384277 408c10.3942871-10.1724243 16.8615723-24.342041 16.8615723-40 0-30.878418-25.1210938-56-56-56-7.4853516 0-14.8452148 1.4940186-21.6586914 4.3526611l-14.217041-23.6950684c33.1503906-8.9982909 59.2336426-35.3486327 67.8381347-68.6575927h2.0375977c15.4394531 0 28-12.5605469 28-28 0-12.3706665-8.0668945-22.8859863-19.2141113-26.5802002-.4020996-6.4052734-1.3840332-12.6550293-2.8986816-18.6970215 7.1088867-8.5625 11.1127929-19.526001 11.1127929-30.7525635 0-10.4433594-3.3193359-20.3916016-9.5996094-28.7695313-7.6904297-10.2558594-18.9169922-16.9023438-31.6113281-18.715332-11.390625-1.6279907-22.7182617.821167-32.3330078 6.8872681-11.9018555-4.75354-24.878418-7.3726196-38.4560547-7.3726196-13.5778809 0-26.5544434 2.6191406-38.4562988 7.3727417-9.6159668-6.0656128-20.9499512-8.5109863-32.3327637-6.8873901-12.6943359 1.8129883-23.9208984 8.4594727-31.6123047 18.7163086-6.2792969 8.3769531-9.5986328 18.3251953-9.5986328 28.7685546 0 11.2265625 4.0039063 22.1900635 11.112793 30.7525635-1.5146484 6.0419922-2.496582 12.291748-2.8986816 18.6970215-11.1472169 3.6942139-19.2141114 14.2095337-19.2141114 26.5802002 0 15.4394531 12.5605469 28 28 28h2.0375977c6.048584 23.4146729 20.7363281 43.3887329 40.4418945 56.3179932l-18.0380859 30.0633545-4.2910156-1.4306641c-10.8115234-3.6040039-22.3769531-2.7817383-32.5693359 2.3144531-14.544922 7.272461-23.5810548 21.8930664-23.5810548 38.1557617v10.5791016h-56c-4.4179688 0-8 3.581543-8 8v40h-80v16h480v-16zm.8615723-40c0 22.0561523-17.9443359 40-40 40-21.8347168 0-39.6289063-17.5889893-39.9833984-39.3413696l26.9853516 21.5884399c1.4189452 1.1347656 3.1816406 1.7529297 4.9980468 1.7529297h8c13.2333984 0 24-10.7666016 24-24 0-12.0170898-8.8779297-22-20.4199219-23.7333984l-14.6894531-14.6897583c3.5856934-1.0335694 7.3222656-1.5768433 11.109375-1.5768433 22.0556641 0 40 17.9438477 40 40zm-70.8603516-35.8842773c.3369141.5610352.7412109 1.0786133 1.203125 1.5410156l24 24c1.5009766 1.5004883 3.5351563 2.3432617 5.6572266 2.3432617 4.4111328 0 8 3.5888672 8 8s-3.5888672 8-8 8h-5.1933594l-37.8085938-30.2470703c-.1806641-.1445313-.3681641-.2807617-.5605469-.4091797l-24-16c-10.3320313-6.8881836-13.9355469-20.4584961-8.3828125-31.5649414l1.371582-2.7429199c4.4360353.6306152 8.9663087.9641113 13.5737306.9641113 2.78125 0 5.5332031-.1259155 8.2548828-.3588257zm-94.1396484-124.1157227c-5.3649902 0-10.5422363 1.3415527-15.123291 3.7998657-.5720215-3.8523559-.876709-7.7908935-.876709-11.7998657 0-9.1870728 1.5761719-18.0082397 4.4396973-26.2319336 13.4487304-13.7608643 32.1271972-21.7680664 51.5603027-21.7680664h24c2.1220703 0 4.15625-.8427734 5.6572266-2.3432617l10.3427734-10.3427735 10.3427734 10.3427734c1.5009766 1.5004884 3.5351563 2.3432618 5.6572266 2.3432618 16.5549316 0 32.4038086 7.4729614 42.9768066 20.1140747 3.2416993 8.6879883 5.0231934 18.081665 5.0231934 27.8859253 0 4.0089722-.3046875 7.9475098-.876709 11.7998657-4.5810547-2.458313-9.7583008-3.7998657-15.123291-3.7998657-17.6445313 0-32 14.3549805-32 32 0 10.5140381 5.2006836 20.0370483 13.2758789 25.9074097-12.8845215 8.8787231-28.4797363 14.0925903-45.2758789 14.0925903s-32.3913574-5.2138672-45.2758789-14.0925903c8.0751953-5.8703614 13.2758789-15.3933716 13.2758789-25.9074097 0-17.6450195-14.3554687-32-32-32zm9.510498-66.4992676c14.2958985-13.3250122 33.4511719-21.5007324 54.489502-21.5007324 4.1621094 0 8.2504883.3213501 12.2429199.9370728-.6826172.3634033-1.324707.8309326-1.9001465 1.406189l-13.65625 13.6567382h-20.6865234c-10.5007324 0-20.8208008 1.9146729-30.489502 5.5007324zm77.069336-18.2349243c10.6721191 3.1459961 20.423584 8.4520874 28.7407227 15.4257813-5.1647949-1.4495239-10.501709-2.3500366-15.9250488-2.6100464zm35.5593262 131.6011963c-5.970459-2.3636475-10.1391602-8.2124023-10.1391602-14.8670044 0-8.8222656 7.1777344-16 16-16 4.0646973 0 7.9140625 1.5430298 10.8371582 4.2393799-3.7783203 9.9795532-9.4997559 19.0045166-16.697998 26.6276245zm37.527832-46.9008179c.2167969-2.6276855.3330078-5.2834472.3330078-7.9661865 0-5.4508667-.463623-10.7946777-1.3408203-16h.3408203c6.6171875 0 12 5.3833008 12 12 0 6.3916016-5.0268555 11.6170044-11.3330078 11.9661865zm-27.140625-119.6414795c8.4638672 1.2084961 15.9472656 5.6391602 21.0722656 12.4736328 4.1875 5.5864258 6.4013672 12.2163086 6.4013672 19.171875 0 3.9699707-.7160645 7.8169556-2.0732422 11.4049072-8.2851563-17.368042-21.2480469-32.0899658-37.2495117-42.531189 3.831543-.8986205 7.8349609-1.0916747 11.8491211-.519226zm17.5012207 69.1049805c-15.7180176-31.6343994-48.3728027-53.4296875-86.0275879-53.4296875-37.6279297 0-70.2631836 21.7643433-85.9941406 53.3622437 8.5754394-39.5993042 43.8657226-69.3622437 85.9941406-69.3622437 42.154541 0 77.4804688 29.7932129 86.0275879 69.4296875zm-182.0275879-37.4594727c0-6.9555664 2.2138672-13.5854492 6.4003906-19.1708984 5.1259766-6.8354492 12.609375-11.2661133 21.0732422-12.4746094 4.0136719-.5722656 8.0170898-.3792725 11.848877.5192871-16.0012207 10.4411621-28.9643555 25.1630859-37.2492676 42.5311279-1.3571777-3.5879516-2.0732422-7.4349365-2.0732422-11.4049072zm-11 76.0297852c0-6.6166992 5.3828125-12 12-12h.3408203c-.8771973 5.2053223-1.3408203 10.5491333-1.3408203 16 0 2.6827393.1162109 5.338501.3330078 7.9661865-6.3061523-.3491821-11.3330078-5.5745849-11.3330078-11.9661865zm32.1628418 32.2394409c2.9230957-2.6964111 6.7724609-4.2394409 10.8371582-4.2394409 8.8222656 0 16 7.1777344 16 16 0 6.6546021-4.1687012 12.5033569-10.1391602 14.8670044-7.1982421-7.6231079-12.9194335-16.6480103-16.697998-26.6275635zm45.2492676 63.088562c-7.9160156 16.6172485-3.5795898 36.3774414 10.0734863 48.2116699-.9255371 3.0967407-3.0683594 5.6682129-6.1193848 7.1937256-4.1533203 2.0771484-8.8515625 1.6533203-12.5664063-1.1333008-3.1835938-2.3886719-7.640625-2.0732422-10.4570313.7431641l-1.8527832 1.8527222c-5.355957-7.5810547-8.3098145-16.5649414-8.4702148-26.0125732l20.5361328-34.2269287c2.8813478 1.2642822 5.8359376 2.390747 8.8562013 3.3715209zm-93.4121094 84.6719971c4.4179688 0 8-3.581543 8-8v-18.5791016c0-10.1630859 5.6464844-19.300293 14.7373047-23.8452148 6.3701172-3.1845703 13.5996094-3.6982422 20.3525391-1.4462891l5.0834961 1.694519c.8647461 12.385376 5.3251953 24.0567017 12.8815918 33.8071899l-46.8820801 46.8820801-22.1728516-9.5025634v-21.0106201zm-22.9750977 32h-13.9255371l1.7404785-5.222168zm-33.0249023 0v-32h32v14.1535034l-12.8486328-5.5065308c-2.0566406-.8813477-4.3867188-.8608398-6.4287109.0551758-2.0410156.9165039-3.6044922 2.6455078-4.3125 4.7680664l-6.1757813 18.5297852zm91.3139648 0 46.0737305-46.0737305c7.3701172 3.0395508 15.7568359 2.8071289 23.1337891-.8823242 5.4414063-2.7202148 9.7080078-7.0073242 12.3710938-12.1674805l12.1938477 8.1294556c-.7175294 3.5977173-1.0864259 7.2758789-1.0864259 10.9940796 0 15.657959 6.4672852 29.8275757 16.8615723 40z"/></g></g></svg>