<svg height="512pt" viewBox="0 -23 512 512" width="512pt" xmlns="http://www.w3.org/2000/svg"><path d="m117.027344 38.199219c2.933594-5.652344 2.035156-12.777344-2.707032-17.519531-4.742187-4.742188-11.867187-5.640626-17.519531-2.707032-1.917969-6.070312-7.59375-10.472656-14.300781-10.472656s-12.382812 4.402344-14.300781 10.472656c-5.652344-2.933594-12.777344-2.035156-17.519531 2.707032-4.742188 4.742187-5.640626 11.867187-2.707032 17.519531-6.070312 1.917969-10.472656 7.59375-10.472656 14.300781v45h90s0-36.714844 0-45c0-6.707031-4.402344-12.382812-10.472656-14.300781zm0 0" fill="#60312c"/><path d="m504.5 457.5h-30l-60-105 90 45zm0 0" fill="#353535"/><path d="m474.5 457.5h-150v-60l150-45zm0 0" fill="#4f4f4f"/><path d="m37.5 382.5h30v75h-30zm0 0" fill="#4f4f4f"/><path d="m67.5 262.5 30 90h30v-60zm0 0" fill="#2dade3"/><path d="m37.5 292.5c0 24.851562 20.148438 45 45 45l15 15v-90zm0 0" fill="#49c9ff"/><path d="m122.5 172.53125h-30l-30 60 35 60h30v-45c8.03125-6.03125 13.609375-15.140625 15-25.570312v-29.429688c0-11.050781-8.949219-20-20-20zm0 0" fill="#ff6337"/><path d="m112.5 192.53125v29.429688c-1.390625 10.429687-6.96875 19.539062-15 25.570312v45h-60v-45c-8.03125-6.03125-13.609375-15.140625-15-25.570312v-29.429688c0-11.050781 8.949219-20 20-20h50c11.050781 0 20 8.949219 20 20zm0 0" fill="#ff8646"/><path d="m127.5 337.5h-30v45l45-15v-15c0-8.25-6.75-15-15-15zm0 0" fill="#353535"/><path d="m97.5 337.5h-45c-8.25 0-15 6.75-15 15v30h75v-30c0-8.25-6.75-15-15-15zm0 0" fill="#4f4f4f"/><path d="m294.5 367.5-15 15 15 15h45v-30zm0 0" fill="#b3b3b3"/><path d="m7.5 367.5h287v30h-287zm0 0" fill="#ccc"/><path d="m414.5 172.5 60 225h30v-135c0-49.707031-40.292969-90-90-90zm0 0" fill="#4f4f4f"/><path d="m414.5 172.5c-49.707031 0-90 40.292969-90 90v135h150v-135c0-49.707031-26.863281-90-60-90zm0 0" fill="#696969"/><path d="m414.5 202.5v120c33.136719 0 60-26.863281 60-60s-26.863281-60-60-60zm0 0" fill="#b3b3b3"/><path d="m444.5 262.5c0-33.136719-13.429688-60-30-60-33.136719 0-60 26.863281-60 60s26.863281 60 60 60c16.570312 0 30-26.863281 30-60zm0 0" fill="#ccc"/><path d="m414.5 232.5-15 30 15 30c16.570312 0 30-13.429688 30-30s-13.429688-30-30-30zm0 0" fill="#353535"/><path d="m384.5 262.5c0 16.570312 13.429688 30 30 30v-60c-16.570312 0-30 13.429688-30 30zm0 0" fill="#4f4f4f"/><path d="m82.5 52.5v101l45-46v-10c0-24.851562-20.148438-45-45-45zm0 0" fill="#85453d"/><path d="m82.5 52.5c-24.851562 0-45 20.148438-45 45v10l60 46v-56c0-24.851562-6.714844-45-15-45zm0 0" fill="#a45e43"/><path d="m101.210938 107.5c-1.054688-1.574219-2.304688-3.003906-3.710938-4.261719l-15 69.261719c24.851562 0 45-20.148438 45-45v-20zm0 0" fill="#40211d"/><path d="m97.5 127.5v-24.261719c-3.980469-3.566406-9.234375-5.738281-15-5.738281-7.800781 0-14.671875 3.972656-18.710938 10h-26.289062v20c0 24.851562 20.148438 45 45 45 8.285156 0 15-20.148438 15-45zm0 0" fill="#60312c"/><path d="m414.5 300c20.679688 0 37.5-16.820312 37.5-37.5s-16.820312-37.5-37.5-37.5-37.5 16.820312-37.5 37.5 16.820312 37.5 37.5 37.5zm0-60c12.40625 0 22.5 10.09375 22.5 22.5s-10.09375 22.5-22.5 22.5-22.5-10.09375-22.5-22.5 10.09375-22.5 22.5-22.5zm0 0"/><path d="m414.5 330c37.21875 0 67.5-30.28125 67.5-67.5s-30.28125-67.5-67.5-67.5-67.5 30.28125-67.5 67.5 30.28125 67.5 67.5 67.5zm0-120c28.949219 0 52.5 23.550781 52.5 52.5s-23.550781 52.5-52.5 52.5-52.5-23.550781-52.5-52.5 23.550781-52.5 52.5-52.5zm0 0"/><path d="m414.5 165c-51.238281 0-93.371094 39.730469-97.214844 90h-137.285156v-30c0-4.140625-3.359375-7.5-7.5-7.5s-7.5 3.359375-7.5 7.5v75c0 4.140625 3.359375 7.5 7.5 7.5s7.5-3.359375 7.5-7.5v-30h137v90h-167v-7.5c0-2.628906-.457031-5.152344-1.289062-7.5h135.789062c3.226562 0 6.09375-2.066406 7.113281-5.128906l10-30c1.3125-3.929688-.8125-8.175782-4.742187-9.484375-3.929688-1.3125-8.175782.8125-9.488282 4.742187l-8.289062 24.871094h-144.09375v-78.929688c8.117188-7.261718 13.492188-17.316406 14.933594-28.117187.042968-.332031.066406-.660156.066406-.992187v-21.929688h52.5c12.40625 0 22.5-10.09375 22.5-22.5s-10.09375-22.5-22.5-22.5h-15c-4.140625 0-7.5 3.359375-7.5 7.5 0 4.144531 3.359375 7.5 7.5 7.5h15c4.136719 0 7.5 3.363281 7.5 7.5s-3.363281 7.5-7.5 7.5h-53.546875c-3.273437-11.527344-13.890625-20-26.453125-20h-3.339844c9.761719-9.539062 15.839844-22.835938 15.839844-37.53125v-75c0-7.269531-3.429688-13.863281-9-18.019531 1-6.875-1.238281-13.964844-6.378906-19.105469-5.136719-5.136719-12.226563-7.375-19.101563-6.375-4.15625-5.570312-10.75-9-18.019531-9s-13.863281 3.429688-18.019531 9c-6.871094-1-13.964844 1.238281-19.101563 6.378906-5.140625 5.136719-7.378906 12.226563-6.378906 19.101563-5.566406 4.15625-9 10.75-9 18.019531v75c0 14.695312 6.078125 27.992188 15.839844 37.53125h-3.339844c-15.164062 0-27.5 12.335938-27.5 27.5v29.429688c0 .332031.023438.660156.066406.988281 1.441406 10.804687 6.816406 20.859375 14.933594 28.121093v41.429688c0 15.085938 6.40625 28.695312 16.628906 38.28125-9.566406 2.589844-16.628906 11.34375-16.628906 21.71875v7.5h-22.5c-4.140625 0-7.5 3.359375-7.5 7.5v30c0 4.140625 3.359375 7.5 7.5 7.5h22.5v45h-22.5c-4.140625 0-7.5 3.359375-7.5 7.5s3.359375 7.5 7.5 7.5h90c4.140625 0 7.5-3.359375 7.5-7.5s-3.359375-7.5-7.5-7.5h-22.5v-45h242v52.5c0 4.140625 3.359375 7.5 7.5 7.5h180c4.140625 0 7.5-3.359375 7.5-7.5v-195c0-53.761719-43.738281-97.5-97.5-97.5zm-294.5-65h-15.140625c-5.648437-6.324219-13.746094-10-22.359375-10s-16.707031 3.675781-22.359375 10h-15.140625v-2.5c0-20.679688 16.820312-37.5 37.5-37.5s37.5 16.820312 37.5 37.5zm-75-47.5c0-3.285156 2.105469-6.160156 5.234375-7.148438 2.113281-.667968 3.820313-2.234374 4.667969-4.28125.847656-2.046874.746094-4.363281-.273438-6.328124-1.515625-2.914063-.96875-6.433594 1.355469-8.757813s5.839844-2.871094 8.757813-1.355469c1.964843 1.023438 4.28125 1.121094 6.324218.273438 2.046875-.847656 3.613282-2.554688 4.28125-4.667969.992188-3.128906 3.867188-5.234375 7.152344-5.234375s6.160156 2.105469 7.148438 5.234375c.667968 2.113281 2.234374 3.820313 4.28125 4.667969 2.046874.847656 4.359374.75 6.328124-.273438 2.914063-1.511718 6.433594-.96875 8.757813 1.355469s2.867187 5.84375 1.355469 8.757813c-1.023438 1.964843-1.121094 4.28125-.273438 6.328124.847656 2.042969 2.554688 3.613282 4.667969 4.28125 3.128906.988282 5.234375 3.863282 5.234375 7.148438v8.308594c-9.535156-9.746094-22.820312-15.808594-37.5-15.808594s-27.964844 6.0625-37.5 15.808594zm0 75v-12.5h18.792969c2.5 0 4.839843-1.246094 6.230469-3.328125 2.796874-4.179687 7.460937-6.671875 12.476562-6.671875s9.679688 2.492188 12.476562 6.671875c1.390626 2.082031 3.730469 3.328125 6.230469 3.328125h18.792969v12.5c0 20.679688-16.820312 37.5-37.5 37.5s-37.5-16.820312-37.5-37.5zm-2.996094 114.035156c-6.460937-4.855468-10.816406-12.160156-12.003906-20.101562v-28.902344c0-6.894531 5.605469-12.5 12.5-12.5h80c6.894531 0 12.5 5.605469 12.5 12.5v28.902344c-1.1875 7.941406-5.542969 15.246094-12.003906 20.097656-1.886719 1.417969-2.996094 3.640625-2.996094 6v37.46875h-75v-37.46875c0-2.359375-1.109375-4.582031-2.996094-5.996094zm3.75 58.464844h74.246094v30h-37.5c-18.109375 0-33.261719-12.902344-36.746094-30zm-.753906 52.5c0-4.136719 3.363281-7.5 7.5-7.5h75c4.136719 0 7.5 3.363281 7.5 7.5v7.5h-90zm15 97.5h-15v-45h15zm257-60h-302v-15h302zm180 60h-165v-45h165zm0-60h-165v-127.5c0-45.492188 37.007812-82.5 82.5-82.5s82.5 37.007812 82.5 82.5zm0 0"/></svg>