<svg height="512pt" viewBox="0 -13 512.00075 512" width="512pt" xmlns="http://www.w3.org/2000/svg"><path d="m127.503906 447.511719h-60.003906l30.003906-95.003907h30zm0 0" fill="#b3b3b3"/><path d="m67.5 352.507812h30.003906v95.003907h-30.003906zm0 0" fill="#ccc"/><path d="m261.628906 432.507812-15 15.003907 15 15h45.003906v-30.003907zm0 0" fill="#b3b3b3"/><path d="m157.503906 432.507812h104.125v30.003907h-104.125zm0 0" fill="#ccc"/><path d="m142.503906 417.507812-45 30.003907 45 30h30v-60.003907zm0 0" fill="#4f4f4f"/><path d="m37.5 417.507812c-16.570312 0-30 13.433594-30 30.003907v30h135.003906v-60.003907zm0 0" fill="#696969"/><path d="m425.871094 202.503906-75.003906-15 32.046874 170.003906 60.003907-30zm0 0" fill="#b3b3b3"/><path d="m395.867188 202.503906-45-15-16.359376 15 17.125 125.003906 31.28125 30 30-30zm0 0" fill="#ccc"/><path d="m112.503906 187.503906 30 120.003906 30-15v-45.003906zm0 0" fill="#9db55f"/><path d="m82.5 247.503906c0 24.855469 20.148438 45.003906 45.003906 45.003906l15 15v-110.003906zm0 0" fill="#b9d171"/><path d="m152.503906 127.503906h-30l20 120h30v-100c0-11.046875-8.953125-20-20-20zm0 0" fill="#084f6d"/><path d="m142.503906 147.503906c0-11.046875-8.953125-20-20-20h-20c-11.046875 0-20.003906 8.953125-20.003906 20v100h60.003906zm0 0" fill="#116f97"/><path d="m142.503906 292.507812-15 15 15 15h30v-30zm0 0" fill="#353535"/><path d="m52.5 292.507812v15c0 8.25 6.75 15 15 15h75.003906v-30zm0 0" fill="#4f4f4f"/><path d="m442.917969 327.507812h-91.285157l-60 60v90.003907h171.742188zm0 0" fill="#696969"/><path d="m351.632812 327.507812v120.003907c33.136719 0 60-26.867188 60-60.003907 0-33.136718-26.863281-60-60-60zm0 0" fill="#b3b3b3"/><path d="m381.632812 387.507812c0-33.136718-13.429687-60-30-60-33.136718 0-60 26.863282-60 60 0 33.136719 26.863282 60.003907 60 60.003907 16.566407 0 30-26.867188 30-60.003907zm0 0" fill="#ccc"/><path d="m500.117188 107.042969c-5.851563-5.859375-15.351563-5.859375-21.210938 0l-65.460938 65.460937h-48.9375c-16.5 0-30 13.5-30 30h91.367188l74.242188-74.25c5.859374-5.851562 5.859374-15.351562 0-21.210937zm0 0" fill="#4f4f4f"/><path d="m351.632812 357.507812-15 30 15 30c16.570313 0 30-13.429687 30-30 0-16.570312-13.433593-30-30-30zm0 0" fill="#353535"/><path d="m321.632812 387.507812c0 16.570313 13.429688 30 30 30v-60c-16.570312 0-30 13.429688-30 30zm0 0" fill="#4f4f4f"/><path d="m62.5 112.503906c11.046875 0 20-8.957031 20-20v-40.003906c-22.089844 0-40 17.910156-40 40.003906 0 11.042969 8.957031 20 20 20zm0 0" fill="#85453d"/><path d="m154.503906 16.5h-27v81.003906c24.847656 0 45-20.152344 45-45.003906 0-14.71875-7.070312-27.800781-18-36zm0 0" fill="#ffa754"/><path d="m140.703125 31.140625c1.148437 6.359375 1.800781 13.628906 1.800781 21.359375 0 24.851562-6.722656 45.003906-15 45.003906-24.851562 0-45.003906-20.152344-45.003906-45.003906zm0 0" fill="#ffcb63"/><path d="m154.503906 16.5c-4.039062 5.378906-8.671875 10.289062-13.800781 14.640625l-13.199219-23.640625c10.117188 0 19.480469 3.351562 27 9zm0 0" fill="#60312c"/><path d="m82.5 52.5c0-24.847656 20.152344-45 45.003906-45 5.699219 0 10.667969 9.5625 13.199219 23.640625-15.691406 13.320313-36.011719 21.359375-58.203125 21.359375zm0 0" fill="#85453d"/><path d="m37.5 195.003906c4.136719 0 7.5 3.363282 7.5 7.5v105.003906c0 12.40625 10.09375 22.5 22.5 22.5h105.003906c4.140625 0 7.5-3.359374 7.5-7.5v-22.5h32.5c6.894532 0 12.5 5.605469 12.5 12.5v80c0 .058594.007813.113282.011719.171876.003906.160156.007813.316406.023437.472656.007813.105468.019532.207031.03125.308594.019532.136718.039063.269531.0625.402343.023438.121094.050782.242188.078126.359375.023437.109375.054687.222656.082031.332032.039062.132812.082031.261718.125.390624.035156.097657.066406.191407.105469.285157.050781.132812.105468.261719.164062.394531.042969.089844.085938.179688.128906.265625.0625.125.128906.246094.199219.363281.054687.09375.109375.1875.167969.277344.066406.109375.136718.210938.210937.3125.070313.101562.144531.199219.21875.296875.070313.085937.136719.171875.210938.253906.089843.105469.179687.203125.273437.304688.070313.070312.140625.144531.214844.210937.101562.101563.207031.195313.3125.285156.078125.066407.15625.132813.234375.195313.109375.085937.21875.167969.328125.246094.09375.066406.1875.128906.285156.1875.101563.066406.207032.128906.3125.191406.117188.066406.238282.132813.363282.191406.089843.046875.183593.09375.277343.136719.144531.0625.289063.121094.4375.175781.054688.023438.105469.046875.160157.066407l28.5 10c.820312.289062 1.660156.425781 2.484374.425781 3.097657 0 5.992188-1.929688 7.078126-5.019531 1.371093-3.90625-.6875-8.1875-4.59375-9.558594l-23.488282-8.242188v-74.683594c0-15.164062-12.335937-27.5-27.5-27.5h-32.5v-130.289062c50.273438-3.84375 90-45.976562 90-97.21875 0-4.140625-3.355468-7.5-7.5-7.5-4.140625 0-7.5 3.359375-7.5 7.5 0 43.34375-33.605468 78.964844-76.125 82.230469-3.363281-11.386719-13.910156-19.726563-26.375-19.726563h-50c-15.167968 0-27.503906 12.335938-27.503906 27.5v100c0 14.679688 6.066406 27.964844 15.808594 37.503906h-30.808594v-82.503906c0-12.40625-10.09375-22.5-22.5-22.5-4.140625 0-7.5 3.359375-7.5 7.5 0 4.144532 3.359375 7.5 7.5 7.5zm65.003906-60h50c6.890625 0 12.5 5.605469 12.5 12.5v92.5h-75.003906v-92.5c0-6.894531 5.609375-12.5 12.503906-12.5zm-11.746094 120h74.246094v30.003906h-37.5c-18.113281 0-33.261718-12.90625-36.746094-30.003906zm74.246094 45.003906v15h-97.503906c-4.132812 0-7.5-3.363281-7.5-7.5v-7.5zm0 0"/><path d="m351.632812 425.007812c20.679688 0 37.5-16.820312 37.5-37.5 0-20.675781-16.820312-37.5-37.5-37.5-20.679687 0-37.5 16.824219-37.5 37.5 0 20.679688 16.820313 37.5 37.5 37.5zm0-60c12.40625 0 22.5 10.09375 22.5 22.5s-10.09375 22.5-22.5 22.5-22.5-10.09375-22.5-22.5 10.09375-22.5 22.5-22.5zm0 0"/><path d="m505.421875 101.738281c-4.25-4.25-9.902344-6.589843-15.910156-6.589843-6.011719 0-11.664063 2.34375-15.910157 6.589843l-63.265624 63.265625h-45.828126c-17.765624 0-32.675781 12.421875-36.523437 29.03125l.523437.96875h-23.980468c-12.429688 0-22.519532-10.09375-22.519532-22.5v-45c0-4.144531-3.359374-7.5-7.5-7.5-4.144531 0-7.503906 3.355469-7.503906 7.5v45c0 20.679688 16.824219 37.5 37.503906 37.5h23.457032l15.144531 110.558594c-33.207031 4.207031-58.980469 32.613281-58.980469 66.945312v37.5h-104.125v-7.5c0-4.140624-3.359375-7.5-7.5-7.5h-37.5v-50h37.5c4.140625 0 7.5-3.359374 7.5-7.5 0-4.140624-3.359375-7.5-7.5-7.5h-105.003906c-4.140625 0-7.5 3.359376-7.5 7.5v22.5h-7.5c-4.140625 0-7.5 3.359376-7.5 7.5 0 4.144532 3.359375 7.5 7.5 7.5h7.5v20h-22.5c-20.675781 0-37.5 16.824219-37.5 37.503907v30c0 4.140625 3.359375 7.5 7.5 7.5h165.003906c4.140625 0 7.5-3.359375 7.5-7.5v-7.5h104.128906v7.5c0 4.140625 3.355469 7.5 7.5 7.5h171.742188c2.167969 0 4.226562-.9375 5.652344-2.570313 1.421875-1.628906 2.074218-3.796875 1.78125-5.945312l-37.003906-271.316406 71.617187-71.621094c8.773437-8.773438 8.773437-23.046875 0-31.820313zm-153.789063 233.269531c28.949219 0 52.5 23.550782 52.5 52.5 0 28.949219-23.550781 52.503907-52.5 52.503907-28.949218 0-52.5-23.554688-52.5-52.503907 0-28.949218 23.550782-52.5 52.5-52.5zm-276.632812 25h45.003906v50h-45.003906zm90.003906 110.003907h-150.003906v-22.5c0-12.410157 10.09375-22.503907 22.5-22.503907h127.503906zm15-15v-15h104.128906v15zm119.128906 15v-40.140625c12.382813 15.320312 31.3125 25.140625 52.5 25.140625 37.21875 0 67.5-30.28125 67.5-67.503907 0-21.1875-9.820312-40.117187-25.136718-52.5h42.375l18.414062 135.003907zm135.191407-150.003907h-76.148438l-15.070312-110.003906h76.214843zm60.488281-197.054687-72.050781 72.050781h-79.460938c3.09375-8.730468 11.429688-15 21.207031-15h48.933594c1.992188 0 3.898438-.789062 5.304688-2.199218l65.460937-65.457032c1.417969-1.417968 3.300781-2.199218 5.304688-2.199218 2.003906 0 3.886719.78125 5.300781 2.199218 2.925781 2.921875 2.925781 7.679688 0 10.605469zm0 0"/><path d="m62.5 120.003906c15.164062 0 27.5-12.335937 27.5-27.5v-3.308594c9.539062 9.746094 22.824219 15.808594 37.503906 15.808594 28.949219 0 52.5-23.554687 52.5-52.503906s-23.550781-52.5-52.5-52.5c-26.582031 0-48.601562 19.863281-52.023437 45.523438-22.875 3.40625-40.480469 23.171874-40.480469 46.980468 0 15.160156 12.335938 27.5 27.5 27.5zm102.503906-67.503906c0 20.679688-16.824218 37.503906-37.5 37.503906-18.230468 0-33.457031-13.078125-36.808594-30.34375 25.03125-2.054687 47.917969-13.492187 64.609376-32.296875 6.023437 6.65625 9.699218 15.476563 9.699218 25.136719zm-37.5-37.5c5.582032 0 10.878906 1.234375 15.644532 3.433594-13.714844 14.933594-32.144532 24.148437-52.296876 26.148437 3.644532-16.886719 18.691407-29.582031 36.652344-29.582031zm-52.503906 45.875v31.625c0 6.894531-5.605469 12.5-12.5 12.5-6.890625 0-12.5-5.605469-12.5-12.5 0-15.339844 10.683594-28.230469 25-31.625zm0 0"/></svg>