<svg id="Layer_3" enable-background="new 0 0 64 64" height="512" viewBox="0 0 64 64" width="512" xmlns="http://www.w3.org/2000/svg"><g><path d="m12 29h10v5h-10z" fill="#959595"/><path d="m20.8 43.9-1.8-9.9h-4l1.474 8.108z" fill="#5a5b5d"/><path d="m18.637 43.004-1.637-9.004h-2l1.474 8.108z" fill="#3f4042"/><path d="m17 32h5v-3h-8c0 1.657 1.343 3 3 3z" fill="#b4b4b4"/><path d="m24.895 54.442h23.108v2.001h-23.108z" fill="#5a5b5d" transform="matrix(.991 -.135 .135 .991 -7.137 5.416)"/><path d="m34.14 35.639h2v22.75h-2z" fill="#5a5b5d" transform="matrix(.1 -.995 .995 .1 -15.137 77.301)"/><circle cx="15" cy="52" fill="#3f4042" r="10"/><path d="m15 42c-2.507 0-4.792.929-6.547 2.453-1.524 1.755-2.453 4.04-2.453 6.547 0 5.523 4.477 10 10 10 2.507 0 4.792-.929 6.547-2.453 1.524-1.755 2.453-4.04 2.453-6.547 0-5.523-4.477-10-10-10z" fill="#5a5b5d"/><circle cx="15" cy="52" fill="#959595" r="6"/><path d="m14 47c-1.402 0-2.688.485-3.71 1.29-.805 1.022-1.29 2.308-1.29 3.71 0 3.314 2.686 6 6 6 1.402 0 2.688-.485 3.71-1.29.805-1.022 1.29-2.308 1.29-3.71 0-3.314-2.686-6-6-6z" fill="#b4b4b4"/><circle cx="25" cy="52" fill="#e7b532" r="6"/><path d="m25 46c-1.402 0-2.688.485-3.71 1.29-.805 1.022-1.29 2.308-1.29 3.71 0 3.314 2.686 6 6 6 1.402 0 2.688-.485 3.71-1.29.805-1.022 1.29-2.308 1.29-3.71 0-3.314-2.686-6-6-6z" fill="#f9cb66"/><path d="m52 58-7.001-26 7.001-2.001v-12.999h-4v10l-8.462 1.884 8.462 29.116" fill="#777"/><path d="m50 28-8.462 1.884 8.171 28.116h2.291l-7.001-26 7.001-2.001v-12.999h-2z" fill="#959595"/><path d="m38.953 18.666 1.904-2.667-4.469-2.162-.388 1.163-2.03.185c-5.917.538-11.661 2.283-16.877 5.128-1.907 1.04-3.093 3.038-3.093 5.21 0 2.65 1.757 4.979 4.305 5.707l9.695 2.77-8 11 4.379 4.379c.398.398.937.621 1.5.621 1.171 0 2.121-.95 2.121-2.121 0-.563-.223-1.102-.621-1.5l-1.379-1.379 7.758-8.62c.8-.888 1.242-2.041 1.242-3.236 0-1.912-1.126-3.644-2.873-4.42l-6.127-2.724 9.57-3.48z" fill="#4fa04b"/><path d="m38.143 15-2.03.185c-5.917.538-11.661 2.283-16.877 5.128-1.907 1.04-3.093 3.038-3.093 5.21 0 2.65 1.757 4.979 4.305 5.707l9.695 2.77-8 11 4.379 4.379c.128.128.275.231.428.321.625-.369 1.05-1.042 1.05-1.821 0-.563-.224-1.102-.621-1.5l-1.379-1.379 7.758-8.62c.8-.889 1.242-2.041 1.242-3.236 0-1.912-1.126-3.644-2.873-4.42l-6.127-2.724 9.57-3.48 3.383-3.854 1.904-2.667-2.624-1.269z" fill="#6bb566"/><path d="m36.388 13.837-.388 1.163c.64 1.281 1.763 2.254 3.121 2.707l.417.139 1.319-1.848z" fill="#d69475"/><path d="m14 25.523c0 2.65 1.757 4.979 4.305 5.707l9.695 2.77-8 11 4.379 4.379c.398.398.937.621 1.5.621 1.171 0 2.121-.95 2.121-2.121 0-.563-.224-1.102-.621-1.5l-1.379-1.379 7.758-8.62c.8-.889 1.242-2.041 1.242-3.236 0-1.912-1.126-3.644-2.873-4.42l-6.127-2.724-11.047-3.683c-.606.942-.953 2.046-.953 3.206z" fill="#19529d"/><path d="m32.127 28.723-6.127-2.723-9.241-3.081c-.391.799-.615 1.683-.615 2.604 0 2.65 1.757 4.979 4.305 5.707l9.694 2.77-8 11 4.379 4.379c.128.128.275.231.428.321.625-.369 1.05-1.042 1.05-1.821 0-.563-.224-1.102-.621-1.5l-1.379-1.379 7.758-8.62c.8-.889 1.242-2.041 1.242-3.236 0-1.912-1.126-3.644-2.873-4.421z" fill="#2769b3"/><path d="m41 2c-3.314 0-6 2.686-6 6v2c0 3.314 2.686 6 6 6 3.314 0 6-2.686 6-6v-2c0-3.314-2.686-6-6-6z" fill="#e8a885"/><path d="m41 2c-1.402 0-2.688.485-3.71 1.29-.805 1.022-1.29 2.308-1.29 3.71v2c0 3.314 2.686 6 6 6 1.402 0 2.688-.485 3.71-1.29.805-1.022 1.29-2.308 1.29-3.71v-2c0-3.314-2.686-6-6-6z" fill="#f6ba91"/><path d="m40 8h7c0-3.314-2.686-6-6-6s-6 2.686-6 6v2c0 2.106 1.088 3.956 2.73 5.027l2.27-3.027z" fill="#3f4042"/><path d="m41 2c-1.402 0-2.688.485-3.71 1.29-.805 1.022-1.29 2.308-1.29 3.71v2c0 2.035 1.015 3.829 2.564 4.914l1.436-1.914v-4h7c0-3.314-2.686-6-6-6z" fill="#5a5b5d"/><path d="m35 20.325c0-1.284 1.041-2.325 2.325-2.325 1.001 0 1.889.64 2.205 1.589l1.47 4.411 7-1 1.379-1.379c.398-.398.937-.621 1.5-.621 1.171 0 2.121.95 2.121 2.121 0 1.121-.717 2.117-1.781 2.471l-9.679 3.228c-.358.119-.732.18-1.109.18-1.462 0-2.771-.907-3.284-2.276l-1.909-5.092c-.158-.418-.238-.861-.238-1.307z" fill="#f6ba91"/><path d="m20 45 4.379 4.379c.398.398.937.621 1.5.621 1.171 0 2.121-.95 2.121-2.121 0-.563-.224-1.102-.621-1.5l-1.379-1.379-3.793-3.034z" fill="#959595"/><path d="m39.53 19.589c-.317-.949-1.205-1.589-2.205-1.589-1.284 0-2.325 1.041-2.325 2.325 0 .447.08.89.237 1.308l.763 2.034 4.4-1.467z" fill="#4fa04b"/><path d="m42 58h17v4h-17z" fill="#3f4042"/><path d="m46 60h13v-2h-15c0 1.105.895 2 2 2z" fill="#5a5b5d"/><path d="m15 63c3.351 0 6.498-1.546 8.578-4.146.459.095.935.146 1.422.146.819 0 1.602-.149 2.332-.408l18.805-3.419.531 1.827h-4.668c-.553 0-1 .447-1 1v4c0 .553.447 1 1 1h17c.553 0 1-.447 1-1v-4c0-.553-.447-1-1-1h-6.234l-6.546-24.309 6.054-1.731c.43-.123.726-.515.726-.961v-4.39c.626-.655 1-1.537 1-2.488 0-.9-.389-1.706-1-2.276v-3.845c0-.552-.447-1-1-1h-4c-.553 0-1 .448-1 1v5.133l-5.315.759-1.206-3.619c-.074-.221-.175-.424-.289-.62l1.194-1.673c3.68-.2 6.616-3.25 6.616-6.98v-2c0-3.86-3.141-7-7-7s-7 3.14-7 7v2c0 1.494.474 2.876 1.274 4.014l-.017.049-1.379.125c-6.09.554-11.898 2.319-17.265 5.247-2.228 1.216-3.613 3.549-3.613 6.088 0 .866.178 1.698.479 2.476h-1.479c-.266 0-.52.105-.707.293s-.293.441-.293.707v5c0 .553.447 1 1 1h2.166l1.093 6.011c-.087-.002-.172-.01-.259-.01-6.065 0-11 4.935-11 11s4.935 11 11 11zm.425-39.471 10.216 3.405 6.08 2.703c1.384.615 2.279 1.991 2.279 3.507 0 .949-.35 1.861-.985 2.567l-7.126 7.919-2.311-1.848 5.231-7.193c.192-.264.243-.605.137-.914s-.356-.546-.671-.636l-9.695-2.77c-2.108-.603-3.58-2.554-3.58-4.746 0-.7.151-1.376.425-1.994zm20.748-2.249c-.114-.305-.173-.627-.173-.955 0-.731.594-1.325 1.324-1.325.571 0 1.077.364 1.258.905l.554 1.662-2.538.846zm-1.192 2.518 1.229 3.277c.446 1.188 1.376 2.1 2.508 2.57l5.005 17.222-16.046-1.604-.299-.299 7.123-7.915c.967-1.074 1.499-2.461 1.499-3.905 0-2.305-1.361-4.398-3.467-5.334l-3.862-1.717zm-12.274 10.909c.188-.187.293-.441.293-.707v-.389l3.35.957-4.984 6.854-1.168-6.422h1.802c.266 0 .52-.105.707-.293zm-.307 8.694 2.936 2.349 1.336 1.336c.209.209.328.498.328.793 0 .618-.503 1.121-1.121 1.121-.295 0-.584-.119-.793-.328l-3.774-3.774zm-3.597 11.842c-.946 1.108-2.329 1.757-3.803 1.757-2.757 0-5-2.243-5-5s2.243-5 5-5c1.475 0 2.857.646 3.802 1.753-.515.984-.802 2.088-.802 3.247 0 1.17.292 2.273.803 3.243zm1.197-3.243c0-1.495.654-2.87 1.773-3.813l1.899 1.899c.581.581 1.385.914 2.207.914 1.394 0 2.563-.925 2.963-2.189.73.883 1.158 2.006 1.158 3.189 0 2.136-1.353 3.95-3.243 4.665l-1.813.33c-2.731-.032-4.944-2.257-4.944-4.995zm10.787 3.932c.765-1.122 1.213-2.475 1.213-3.932 0-1.653-.597-3.221-1.616-4.456l13.941 1.394 1.251 4.305zm27.213 5.068h-15v-2h15zm-13.275-29.961c-.525.15-.833.694-.691 1.221l6.661 24.74h-1.945l-7.858-27.037c.327-.034.65-.09.964-.194l9.144-3.05v2.525zm6.275-13.039v2.012c-.041-.001-.08-.012-.121-.012-.68 0-1.34.238-1.879.646v-2.646zm-2.858 5.99c.214-.03.412-.13.565-.283l1.379-1.379c.209-.208.498-.328.793-.328.618 0 1.121.503 1.121 1.121 0 .692-.441 1.304-1.098 1.522l-9.679 3.228c-1.241.414-2.681-.272-3.141-1.498l-.782-2.086 2.468-.822.284.851c.152.459.608.744 1.09.674zm-7.142-8.99c-.618 0-1.204-.127-1.75-.333l1.55-2.067c.13-.173.2-.384.2-.6v-3h5v1c0 2.757-2.243 5-5 5zm-5-7c0-2.757 2.243-5 5-5 2.414 0 4.434 1.721 4.899 4h-5.899c-.553 0-1 .448-1 1v3.667l-1.452 1.935c-.95-.911-1.548-2.185-1.548-3.602zm-1.939 8.181 2.03-.185c.29-.026.547-.179.714-.406.682.513 1.458.905 2.3 1.142l-.408.572c-.424-.192-.887-.304-1.373-.304-1.833 0-3.324 1.492-3.324 3.325 0 .549.099 1.086.284 1.599l-8.299 3.018-9.316-3.105c.275-.243.572-.465.902-.645 5.126-2.797 10.673-4.483 16.49-5.011zm-21.061 13.818h1.674c.866 1.02 2.011 1.808 3.356 2.192l2.83.809-7.86-.001zm3.198 5h1.968l1.261 6.934c-.673-.297-1.372-.525-2.091-.68zm-1.198 8.001c1.554 0 3.042.411 4.376 1.158l-.185.254c-.29.397-.246.947.102 1.295l1.066 1.066c-.125.11-.252.218-.368.336-1.305-1.332-3.088-2.109-4.991-2.109-3.859 0-7 3.141-7 7s3.141 7 7 7c1.903 0 3.691-.78 4.996-2.115.47.482 1.009.896 1.6 1.226-1.692 1.824-4.076 2.889-6.596 2.889-4.963 0-9-4.037-9-9s4.037-9 9-9z"/></g></svg>