<svg height="512pt" viewBox="-53 0 512 512" width="512pt" xmlns="http://www.w3.org/2000/svg"><path d="m167.5 172.734375h-30v150l50-30v-100c0-11.042969-8.953125-20-20-20zm0 0" fill="#ff1b7c"/><path d="m137.5 172.734375-20-.234375c-11.042969 0-20 8.953125-20 20v100l60 30.234375v-130c0-11.042969-8.953125-20-20-20zm0 0" fill="#ff4996"/><path d="m157.5 292.5h30c0 24.847656-20.148438 45-45 45h-30zm0 0" fill="#353535"/><path d="m97.5 292.5h60c0 24.847656-20.148438 45-45 45h-15zm0 0" fill="#4f4f4f"/><path d="m176.757812 68.335938c.007813-.011719-34.257812-.007813-34.257812-.007813v74.171875c24.851562 0 45-20.152344 45-45 0-11.121094-4.042969-21.316406-10.742188-29.164062zm0 0" fill="#e18f4e"/><path d="m156.390625 80.507812-48.144531-12.171874c-6.699219 7.847656-10.746094 18.042968-10.746094 29.164062 0 24.847656 20.152344 45 45 45 8.28125 0 15-20.152344 15-45 0-6.011719-.386719-11.75-1.109375-16.992188zm0 0" fill="#ffa754"/><path d="m142.5 52.5 13.890625 28.007812c7.449219-2.226562 14.476563-6.292968 20.367187-12.171874-8.25-9.691407-20.535156-15.835938-34.257812-15.835938zm0 0" fill="#60312c"/><path d="m142.5 52.5c-13.71875 0-26.003906 6.144531-34.253906 15.835938 13.039062 13.039062 31.644531 17.105468 48.144531 12.171874-2.230469-16.429687-7.609375-28.007812-13.890625-28.007812zm0 0" fill="#85453d"/><path d="m152.5 7.5c-3.71875 0-7.164062 1.171875-10 3.148438-2.835938-1.976563-6.277344-3.148438-10-3.148438-9.664062 0-17.5 7.835938-17.5 17.5 0 15.1875 12.3125 27.5 27.5 27.5s27.5-12.3125 27.5-27.5c0-9.664062-7.832031-17.5-17.5-17.5zm0 0" fill="#85453d"/><path d="m377.5 172.734375h-30v150l50-30v-100c0-11.042969-8.953125-20-20-20zm0 0" fill="#2dade3"/><path d="m347.5 172.734375-20-.234375c-11.046875 0-20 8.953125-20 20v100l60 30.234375v-130c0-11.042969-8.953125-20-20-20zm0 0" fill="#49c9ff"/><path d="m367.5 292.5h30c0 24.847656-20.148438 45-45 45h-30zm0 0" fill="#4f4f4f"/><path d="m307.5 292.5h60c0 24.847656-20.148438 45-45 45h-15zm0 0" fill="#696969"/><path d="m352.5 52.5v101l45-46v-10c0-24.851562-20.144531-45-45-45zm0 0" fill="#85453d"/><path d="m352.5 52.5c-24.851562 0-45 20.148438-45 45v10l60 46v-56c0-24.851562-6.714844-45-15-45zm0 0" fill="#a45e43"/><path d="m371.210938 107.5c-1.054688-1.574219-2.304688-3.003906-3.710938-4.261719l-15 69.261719c24.855469 0 45-20.148438 45-45v-20zm0 0" fill="#40211d"/><path d="m367.5 127.5v-24.261719c-3.980469-3.566406-9.234375-5.738281-15-5.738281-7.800781 0-14.671875 3.96875-18.707031 10h-26.292969v20c0 24.851562 20.148438 45 45 45 8.285156 0 15-20.148438 15-45zm0 0" fill="#60312c"/><path d="m167.5 165h-50c-15.160156 0-27.5 12.335938-27.5 27.5v13.96875h-30.003906l-.011719-33.972656c0-4.140625-3.359375-7.496094-7.5-7.496094-4.144531 0-7.5 3.359375-7.5 7.5l.011719 33.96875h-37.492188c-4.144531 0-7.49999975 3.359375-7.49999975 7.5s3.35546875 7.5 7.49999975 7.5h37.496094v7.5c0 20.675781 16.824219 37.5 37.5 37.5h7.5v63.53125h-32.5c-15.160156 0-27.5 12.335938-27.5 27.5v58.828125l-24.871094 8.289063c-3.929687 1.308593-6.050781 5.558593-4.742187 9.488281 1.046875 3.140625 3.972656 5.128906 7.113281 5.128906.785156 0 1.585938-.125 2.375-.386719l30-10c3.0625-1.019531 5.125-3.886718 5.125-7.117187v-64.230469c0-6.894531 5.609375-12.5 12.5-12.5h77.5v144.09375l-24.871094 8.289062c-3.929687 1.308594-6.050781 5.558594-4.742187 9.488282 1.046875 3.140625 3.972656 5.128906 7.113281 5.128906.785156 0 1.585938-.125 2.375-.386719l30-10c3.0625-1.019531 5.125-3.886719 5.125-7.113281v-150.046875c25.410156-3.648437 45-25.550781 45-51.953125v-100c0-15.164062-12.335938-27.5-27.5-27.5zm-62.5 27.5c0-6.894531 5.609375-12.5 12.5-12.5h50c6.894531 0 12.5 5.605469 12.5 12.5v92.5h-75v-63.53125h52.5c4.144531 0 7.5-3.359375 7.5-7.5 0-4.144531-3.355469-7.5-7.5-7.5h-52.5zm-22.5 58.96875c-12.402344 0-22.5-10.09375-22.5-22.503906v-7.496094h30v30zm60 78.53125h-37.5v-30h74.246094c-3.484375 17.09375-18.632813 30-36.746094 30zm0 0"/><path d="m166.234375 50.695312c6.921875-6.402343 11.265625-15.546874 11.265625-25.695312 0-13.785156-11.214844-25-25-25-3.476562 0-6.863281.714844-10 2.089844-3.132812-1.375-6.519531-2.089844-10-2.089844-13.785156 0-25 11.214844-25 25 0 10.148438 4.347656 19.296875 11.269531 25.695312-17.054687 8.679688-28.769531 26.394532-28.769531 46.804688 0 28.949219 23.554688 52.5 52.5 52.5 28.949219 0 52.5-23.550781 52.5-52.5 0-20.410156-11.714844-38.125-28.765625-46.804688zm-43.734375-25.695312c0-5.515625 4.488281-10 10-10 2.046875 0 4.023438.621094 5.707031 1.800781 2.582031 1.796875 6.007813 1.796875 8.585938 0 1.6875-1.179687 3.660156-1.800781 5.707031-1.800781 5.515625 0 10 4.484375 10 10 0 11.027344-8.96875 20-20 20-11.027344 0-20-8.972656-20-20zm43.023438 42.929688c-13.839844 9.421874-32.207032 9.421874-46.042969 0 6.359375-4.960938 14.347656-7.929688 23.019531-7.929688s16.664062 2.96875 23.023438 7.929688zm-23.023438 67.070312c-20.675781 0-37.5-16.824219-37.5-37.5 0-6.566406 1.703125-12.742188 4.679688-18.117188 9.75 7.074219 21.285156 10.613282 32.820312 10.613282 11.539062 0 23.070312-3.539063 32.820312-10.613282 2.980469 5.375 4.679688 11.550782 4.679688 18.117188 0 20.675781-16.820312 37.5-37.5 37.5zm0 0"/><path d="m384.957031 56.28125 1.539063-2.664062c2.070312-3.585938.84375-8.175782-2.746094-10.246094-3.585938-2.070313-8.171875-.839844-10.242188 2.746094l-1.527343 2.644531c-3.796875-1.523438-7.808594-2.617188-11.980469-3.21875v-3.042969c0-4.144531-3.355469-7.5-7.5-7.5-4.140625 0-7.5 3.355469-7.5 7.5v3.042969c-4.167969.601562-8.179688 1.695312-11.976562 3.21875l-1.527344-2.644531c-2.070313-3.585938-6.65625-4.8125-10.246094-2.746094-3.585938 2.070312-4.8125 6.660156-2.742188 10.246094l1.535157 2.664062c-12.191407 9.621094-20.039063 24.515625-20.039063 41.21875v30c0 15.625 6.867188 29.667969 17.738282 39.296875-10.359376 3.945313-17.738282 13.976563-17.738282 25.703125v13.96875h-30.007812l-.011719-33.972656c0-4.140625-3.355469-7.496094-7.5-7.496094s-7.5 3.359375-7.5 7.5l.011719 33.96875h-37.492188c-4.144531 0-7.5 3.359375-7.5 7.5s3.355469 7.5 7.5 7.5h37.496094l.003906 7.5c0 20.675781 16.820313 37.5 37.5 37.5h7.5v63.53125h-32.5c-15.164062 0-27.5 12.335938-27.5 27.5v58.828125l-24.871094 8.289063c-3.929687 1.308593-6.054687 5.558593-4.746093 9.488281 1.050781 3.140625 3.976562 5.128906 7.117187 5.128906.785156 0 1.585938-.125 2.371094-.386719l30-10c3.0625-1.019531 5.128906-3.886718 5.128906-7.117187v-64.230469c0-6.894531 5.605469-12.5 12.5-12.5h77.5v144.09375l-24.875 8.289062c-3.925781 1.308594-6.050781 5.558594-4.742187 9.488282 1.050781 3.140625 3.976562 5.128906 7.113281 5.128906.789062 0 1.585938-.125 2.375-.386719l30-10c3.0625-1.019531 5.128906-3.886719 5.128906-7.113281v-150.046875c25.40625-3.648437 45-25.550781 45-51.953125v-100c0-11.726562-7.382812-21.757812-17.742187-25.703125 10.871093-9.628906 17.742187-23.671875 17.742187-39.296875v-30c-.003906-16.703125-7.851562-31.597656-20.046875-41.21875zm-32.457031 3.71875c20.679688 0 37.5 16.820312 37.5 37.5v2.5h-15.136719c-5.65625-6.324219-13.75-10-22.363281-10s-16.707031 3.675781-22.359375 10h-15.140625v-2.5c0-20.679688 16.824219-37.5 37.5-37.5zm-60 191.46875c-12.40625 0-22.5-10.09375-22.5-22.503906v-7.496094h30v30zm60 78.53125h-37.5v-30h74.246094c-3.484375 17.09375-18.636719 30-36.746094 30zm25-150c6.894531 0 12.5 5.605469 12.5 12.5v92.5h-75v-63.53125h52.5c4.144531 0 7.5-3.359375 7.5-7.5 0-4.144531-3.355469-7.5-7.5-7.5h-52.5v-13.96875c0-6.894531 5.609375-12.5 12.5-12.5zm-25-15c-20.675781 0-37.5-16.824219-37.5-37.5v-12.5h18.792969c2.5 0 4.839843-1.25 6.230469-3.328125 2.796874-4.179687 7.460937-6.671875 12.476562-6.671875s9.679688 2.492188 12.476562 6.671875c1.394532 2.078125 3.730469 3.328125 6.234376 3.328125h18.789062v12.5c0 20.675781-16.820312 37.5-37.5 37.5zm0 0"/></svg>