<svg id="Filled-Outline" enable-background="new 0 0 512 512" height="512" viewBox="0 0 512 512" width="512" xmlns="http://www.w3.org/2000/svg"><g><g><g fill="#35495e"><path d="m168 504c-4.4179688 0-8-3.581543-8-8v-48c0-4.418457 3.5820313-8 8-8s8 3.581543 8 8v48c0 4.418457-3.5820312 8-8 8z"/><path d="m40 471c-4.4179688 0-8-3.581543-8-8v-47c0-4.418457 3.5820313-8 8-8s8 3.581543 8 8v47c0 4.418457-3.5820312 8-8 8z"/><path d="m344 504c-4.4179688 0-8-3.581543-8-8v-48c0-4.418457 3.5820313-8 8-8s8 3.581543 8 8v48c0 4.418457-3.5820312 8-8 8z"/><path d="m472 471c-4.4179688 0-8-3.581543-8-8v-47c0-4.418457 3.5820313-8 8-8s8 3.581543 8 8v47c0 4.418457-3.5820312 8-8 8z"/></g><path d="m24 376v32c0 30.927948 103.8699417 56 232 56s232-25.072052 232-56v-32z" fill="#00a8e7"/><ellipse cx="256" cy="376" fill="#e22526" rx="232" ry="56"/><ellipse cx="256" cy="376" fill="#35495e" rx="168" ry="32"/><path d="m191.1098633 262.2199707-7.1098633 1.7800293-15.5200195 10.3499756c-2.1000977 1.4000244-4.5 2.0800171-6.8898926 2.0800171-3.2102051 0-6.4001465-1.2399902-8.8000488-3.6400146-4.8500977-4.8499756-4.8500977-12.7299805 0-17.5800171l23.2099609-23.209961z" fill="#fad6c6"/><path d="m326.8598633 221.7099609-6.1000977 30.4800415-16.7597656-4.1900024-8 16-72 8-8-16-24.8901367 6.2199707-15.1098633-30.2199707 32-16h96z" fill="#f249b4"/><path d="m337.6801758 308.6300049-9.6801758 19.3699951-25.8999023-6.4800415 1.8999023-9.5199585-32-16-32.5600586 39.0700073c-4.4399414 5.3299561-11.7998047 7.1900024-18.2299805 4.6099854l-29.2099609-11.6799927 8-24 24 8-8-16c-1.2900391-2.5700073-1.8901367-5.2999878-1.8901367-7.9899902 0-6.5599976 3.6201172-12.8800049 9.8901367-16.0100098l72-8 36.25 24.1699829c6.7099609 4.4700317 9.0400391 13.25 5.4301758 20.460022z" fill="#ddf216"/><path d="m200 304-8 24-18.7800293 12.5199585c-1.3000488.8600464-2.7800293 1.2800293-4.25 1.2800293-1.9699707 0-3.9299316-.7600098-5.3999023-2.2299805-2.170166-2.1700439-2.8300781-5.4100342-1.6999512-8.25l14.1298828-35.3200073z" fill="#fad6c6"/><path d="m341.6000977 350.9400024c0 2.1499634-.8300781 4.289978-2.4399414 5.8999634-1.9702148 1.9700317-4.800293 2.8300171-7.5400391 2.2800293l-35.6201172-7.1199951 6.1000977-30.4800415 25.8999023 6.4800415 12.2001953 18.2999878c.9399414 1.4199829 1.3999024 3.0299683 1.3999024 4.6400146z" fill="#fad6c6"/><path d="m364.1499023 244.7399902-28.1499023 11.2600098-15.2402344-3.8099976 6.1000977-30.4800415 9.1401367 2.2900391 19.8398438-4.960022c1.1000977-.2799683 2.2099609-.4099731 3.2900391-.4099731 5.7001953 0 10.9599609 3.6300049 12.8300781 9.2600098 2.2700195 6.7999877-1.1601563 14.1899414-7.8100587 16.8499755z" fill="#fad6c6"/><g><g><path d="m192 80-28.4615326-27.7157593c-15.4827271-15.6209526-40.5852127-15.6209526-56.0679474.0000038l-.0000381.0000381c-7.4350739 7.5014497-11.6120529 17.6755944-11.6120529 28.2842446v32.8040771c0 14.4880753-5.7044449 28.3827667-15.8584137 38.6273804l-.0000153.0000153h25.1481018c14.3598862 0 28.1316223-5.7553711 38.2855988-15.9999847l.0000152-.0000153h48.5662842z" fill="#5b0b3c"/></g><g><path d="m184 160h-20.0000153c-11.0456848 0-19.9999847-8.9542999-19.9999847-19.9999847v-.0000305c0-11.0456849 8.9542999-19.9999848 19.9999847-19.9999848h20.0000153z" fill="#eaaa94"/><path d="m328 120h20.0000305c11.0456848 0 19.9999695 8.9542999 19.9999695 19.9999847v.0000305c0 11.0456849-8.9542847 19.9999848-19.9999695 19.9999848h-20.0000305z" fill="#eaaa94"/><path d="m160 120c0-9.5400391 1.3901367-18.75 3.9799805-27.4400024 4.6101074-15.4800415 13.0100098-29.3200073 24.1401367-40.4400024 17.369873-17.380005 41.369873-28.1199952 67.8798828-28.1199952s50.5100098 10.7399902 67.8798828 28.1199951c11.130127 11.1199951 19.5300293 24.9599609 24.1401367 40.4400024 2.5898438 8.6900025 3.9799805 17.8999634 3.9799805 27.4400025z" fill="#fbc6ea"/><path d="m338.0500488 112.1099854c-.0100098-.0100098-.0100098-.0100098-.0100098-.0100098-12.7800292-32.8299561-44.6899413-56.0999756-82.040039-56.0999756-37.8901367 0-70.1899414 23.9499512-82.5800781 57.5400391-3.5100098 9.4899902-5.4199219 19.75-5.4199219 30.4599609 0 48.5999756 39.3999023 88 88 88s88-39.4000244 88-88c0-11.25-2.1098633-22-5.9499512-31.8900146z" fill="#fad6c6"/><path d="m216 184c0 12.1099854-8.9799805 22.1300049-20.6499023 23.7600098-10.630127-10.1100464-18.7299805-22.8500366-23.25-37.1700439 4.3098144-6.3899537 11.619873-10.5899659 19.8999023-10.5899659 13.25 0 24 10.75 24 24z" fill="#f48da1"/><path d="m339.8999023 170.5899658c-4.5200195 14.3200073-12.619873 27.0599976-23.25 37.1700439-11.6699218-1.6300048-20.6499023-11.6500243-20.6499023-23.7600097 0-13.25 10.75-24 24-24 8.2800293 0 15.5900879 4.2000122 19.8999023 10.5899658z" fill="#f48da1"/><g fill="#5b0b3c"><path d="m344 118.3983307c-6.2651978-8.1862946-14.1124268-14.7264481-22.9006348-19.2867279-9.3762817-4.8828812-19.8323975-7.518959-30.5985718-7.518959l-17.1060486-17.7963181-17.1060486 17.7963181h-25.6590881c-23.9055633-.0000001-46.5605773 10.3996963-62.6296081 28.4073562 13.2466431-37.3611145 47.7792816-64 88.2886963-64 39.9320373 0 74.047821 25.8824768 87.7113037 62.3983307z"/><path d="m296 120h16v16h-16z"/><path d="m200 120h16v16h-16z"/></g><path d="m271.9999695 144v.0000153c-10.0722351 5.0361023-21.9277496 5.0361023-31.9999695 0l-.0000153-.0000153v8.0000153c0 8.8365479 7.1634369 15.9999847 15.9999847 15.9999847h.0000306c8.8365479 0 15.9999695-7.1634369 15.9999695-15.9999847z" fill="#e22526"/></g></g></g><g><path d="m342.925293 316.038269 1.9135742-3.8273315c5.4013672-10.8032227 1.8964844-24.0024414-8.1533203-30.7021484l-30.3720703-20.2480469 1.9716797-3.9433594 25.7744141 6.4438477c1.6328125.4086914 3.3505859.2915039 4.9111328-.3334961l28.1494141-11.2597656c10.5732422-4.2290039 16.0341797-16.0039063 12.4335938-26.8056641-3.5361328-10.6098633-14.8037109-16.7949219-25.6542969-14.0834961l-17.8994142 4.4750977-13.6518555-3.4130249c12.3037109-12.1266479 21.359375-27.5377197 25.7270508-44.7984009h1.1474609c13.9609375 0 25.3193359-12.3554688 25.3193359-27.5424805 0-11.4777832-6.4897461-21.3338013-15.6855469-25.4656982-2.8520507-54.8150635-48.3442382-98.5343018-103.8564452-98.5343018-31.8955078 0-60.4780273 14.4375-79.5708008 37.1151123l-6.487793-6.4876709c-18.7167969-18.7158203-49.1679688-18.7148438-67.8828125 0-9.0654296 9.0664063-14.0585937 21.1206055-14.0585937 33.940918v32.8041992c0 12.4550781-4.8496094 24.1640625-13.65625 32.9702148-2.2880859 2.2880859-2.9726563 5.7290039-1.734375 8.71875 1.2373047 2.9892579 4.1552734 4.9384766 7.390625 4.9384766h25.3730469c11.8613281 0 23.2114258-3.2902832 33.0332031-9.4127808 3.8220215 9.9467163 12.857666 16.9552612 23.3720703 16.9552612h1.1462402c4.760498 18.8128662 15.0900879 35.4285889 29.1242676 47.9887695l-18.6269531 9.3134766c-.7685547.3842773-1.4707031.890625-2.0791016 1.4985352l-23.2080078 23.2080078c-7.9667969 7.9667969-7.9667969 20.9306641 0 28.8974609 6.8632813 6.8632813 17.7070313 7.9384766 25.7841797 2.5532227l14.3652344-9.5766602 24.4306641-6.1079102 2.1171875 4.2358398c-7.4501953 7.3491211-9.9228516 18.7792969-5.5751953 28.7661133l-29.7265625-9.9086914c-4.0205078-1.3393555-8.3857422.6865234-9.9580078 4.6181641l-9.6201172 24.0493774c-46.6357422 5.1513063-142.9521485 20.4596559-142.9521485 58.9218141v32c0 9.0703125 5.3630371 17.3588867 16 24.8248291v30.1751709h16v-21.2886353c11.142334 5.0239258 25.1762695 9.5843506 42.0742188 13.663147 20.557373 4.9621582 44.2275391 8.8901367 69.9257813 11.6807251v28.9447632h16v-27.3773804c25.3242187 2.218689 52.3024901 3.3773804 79.9999999 3.3773804 27.6977539 0 54.6757813-1.1586914 80-3.3773804v27.3773804h16v-28.9447632c25.6982422-2.7905884 49.3681641-6.7185669 69.9257813-11.6807251 16.8979492-4.0787964 30.9321289-8.6392212 42.0742188-13.663147v21.2886353h16v-30.1751709c10.6367187-7.4659424 15.9999999-15.7545166 15.9999999-24.8248291v-32c0-40.3310547-105.4423828-55.2775879-153.074707-59.961731zm1.8920898 46.4588013c1.5166016-1.5167847 2.6660156-3.281311 3.4648438-5.1702271 48.3388672 6.1424561 64.7607422 15.1745605 67.4785156 18.6702271-2.1953125 2.7949219-13.6484375 9.7416992-47.2695313 15.6494141-30.6572265 5.3867187-70.6074218 8.3535156-112.4912109 8.3535156s-81.8339844-2.9667969-112.4912109-8.3535156c-33.6103516-5.9057617-45.0664063-12.8496094-47.2675782-15.6464844 2.2011719-2.796875 13.6572266-9.7407227 47.2675781-15.6464844 30.6572266-5.3867187 70.6074219-8.3535156 112.491211-8.3535156 10.7958984 0 21.5273438.2030029 32.0292969.5930786.1010742 1.3618774.5439453 2.6882935 1.3144531 3.8444214 1.1767578 1.765625 3.0068359 2.9912109 5.0869141 3.4072266l35.6191406 7.1235352c1.0722656.2143555 2.1494141.3193359 3.2197266.3193359 4.290039 0 8.446289-1.6894532 11.5478515-4.7905274zm-89.0705566-34.4968262c.0859375-.000061.1665039-.000122.2531738-.0002441 12.2768555 0 24.5073242.2432251 36.5004883.704834l-1.5991211 7.9951172c-11.4267578-.4557495-23.1240234-.6999512-34.9013672-.6999512-2.3225098 0-4.6362305.0111084-6.9438477.0287476zm13.2565918-15.9076538 5.0864258-6.1033325 13.0449219 6.5223999c-6.0043946-.192688-12.0498048-.338562-18.1313477-.4190674zm-76.0668946 24.8981324 2.765625 1.1062012c-1.6733398.1210327-3.3388672.2460327-4.9909668.3772583zm140.5673829 14.1918945c-.0830078.0834961-.2021484.1210938-.3164063.0961914l-27.7744141-5.5546875 1.9448243-9.7241211h16.3608398l9.828125 14.7426758c.0917969.1381836.0742188.3232422-.0429687.4399414zm4.4365234-119.4213867 19.8398438-4.9599609c2.7832031-.6972656 5.6845703.8916016 6.59375 3.6201172.9257813 2.7768555-.4775391 5.8037109-3.1953125 6.8911133l-25.7480469 10.2988281-6.3398438-1.5848999 4.7714844-14.3144531.1972656.0492554c1.2734375.3183592 2.6074219.3183592 3.8808594-.0000001zm-128.2160645-21.8537598c8.0749512-5.8703613 13.2756348-15.3933716 13.2756348-25.9074707 0-17.6450195-14.3554688-32-32-32-5.3647461 0-10.5422363 1.3416138-15.123291 3.7999878-.5720215-3.852417-.876709-7.7909546-.876709-11.7999878 0-9.1870728 1.5761719-18.0082397 4.4396973-26.2319336 13.4487304-13.7608643 32.1271972-21.7680664 51.5603027-21.7680664h24c2.1220703 0 4.15625-.8427734 5.6572266-2.3432617l10.3427734-10.3427735 10.3427734 10.3427734c1.5009766 1.5004884 3.5351563 2.3432618 5.6572266 2.3432618 16.5546875 0 32.4038086 7.4729614 42.9765625 20.1140747 3.2421875 8.6879883 5.0234375 18.081665 5.0234375 27.8859253 0 4.0089722-.3046875 7.9475098-.8769531 11.7998657-4.5810547-2.458313-9.7583008-3.7998657-15.1230469-3.7998657-17.6445313 0-32 14.3549805-32 32 0 10.5140381 5.2006836 20.0370483 13.2758789 25.9074097-12.8842773 8.8787231-28.4799805 14.0925903-45.2758789 14.0925903s-32.3913574-5.2139282-45.2756348-14.0925293zm-9.2138672-124.4067383c14.2958985-13.3250122 33.4511719-21.5007324 54.489502-21.5007324 4.1621094 0 8.2504883.3213501 12.2431641.9370728-.6831055.3634033-1.3251953.8309326-1.9003906 1.406189l-13.6562501 13.6567382h-20.6865234c-10.5007324 0-20.8208008 1.9146729-30.489502 5.5007324zm77.0690918-18.2349243c10.6723633 3.1459961 20.4238281 8.4520874 28.7412109 15.4257813-5.1650391-1.4495239-10.5019531-2.3500366-15.925293-2.6100464zm35.5595704 131.6011963c-5.9702149-2.3636475-10.1391602-8.2124023-10.1391602-14.8670044 0-8.8222656 7.1777344-16 16-16 4.0649414 0 7.9140625 1.5430298 10.8369141 4.2393799-3.7783203 9.9795532-9.4995118 19.0045166-16.6977539 26.6276245zm37.4956054-46.5423584c.2373047-2.7445679.3652344-5.5197144.3652344-8.324646 0-5.4508667-.4638672-10.7946777-1.3408203-16h1.3408203c.2714844 0 .5390625-.0142212.8037109-.0405884 4.3959961 1.3977661 7.6542969 6.2582397 7.6542969 12.0405884 0 6.2844849-3.847168 11.4828491-8.8232422 12.324646zm-95.6347656-120.324646c42.1542969 0 77.4804688 29.7932129 86.0273438 69.4296875-15.7177735-31.6343994-48.3725586-53.4296875-86.0273438-53.4296875-37.6279297 0-70.2631836 21.7643433-85.9941406 53.3622437 8.5754394-39.5993042 43.8657226-69.3622437 85.9941406-69.3622437zm-159.9677734 112c5.2011718-9.2490234 7.9677734-19.7255859 7.9677734-30.6274414v-32.8041992c0-8.546875 3.3291016-16.5830078 9.3730469-22.6274414 12.4765625-12.4765625 32.7773438-12.4765625 45.2539063 0l8.347168 8.347229c-8.6130371 14.2229004-13.9160156 30.6633301-14.8308105 48.2463379-6.590332 2.9613037-11.7883301 8.8621216-14.2053223 16.194458-8.7587892 8.5571289-20.2968751 13.2710571-32.5649415 13.2710571zm55.5097656-4c0-5.7822876 3.2583008-10.6427612 7.6547852-12.0405884.2641601.0263672.5322265.0405884.8032226.0405884h1.3408203c-.8771973 5.2053223-1.3408203 10.5491333-1.3408203 16 0 2.8048706.1281738 5.5800171.3649902 8.3245239-4.9763183-.8422241-8.822998-6.0404052-8.822998-12.3245239zm29.6210937 32.2396851c2.9223633-2.6964112 6.7717286-4.2396851 10.8369141-4.2396851 8.8222656 0 16 7.1777344 16 16 0 6.6547852-4.1689453 12.5036621-10.1391602 14.8671875-7.197998-7.6230469-12.9194335-16.6480103-16.6977539-26.6275024zm-16.1191406 95.4492797c-1.7529297 1.168457-4.1054688.9355469-5.5947266-.5537109-.8378906-.8374023-1.2988281-1.9506836-1.2988281-3.1352539s.4609375-2.2978516 1.2988281-3.1352539l15.359375-15.359375 5.8835449 11.7671509c-.041748.0266724-.0883789.0437622-.1296387.071228zm31.3525391-14.7844238-8.6635742-17.3267212 18.7387695-9.3693848c14.4692383 8.749939 31.4206543 13.791565 49.5283203 13.791565 18.9907227 0 36.7109375-5.5437012 51.6279297-15.0966187l11.6655273 2.9163818-4.7714844 14.3144531-7.581543-1.8954468c-3.6416016-.9101563-7.4179688.8295898-9.0957031 4.1835938l-6.0537109 12.1069946-62.1306152 6.9034424-5.505127-11.010437c-1.6767578-3.3540039-5.4628906-5.09375-9.0957031-4.1835938zm26.0732422 66.6848145c3.0703125 1.0234375 6.4541016.0976563 8.5742188-2.3476563 2.1201172-2.4443359 2.5585938-5.925293 1.1113281-8.8193359l-8-16c-2.2553711-4.5108643-.7214355-9.9353027 3.3798828-12.6546631l67.4526367-7.494751 33.8227539 22.5483398c3.3496094 2.2333984 4.5175781 6.6333008 2.7177734 10.234375l-7.472168 14.944336h-12.4975586l1.2861328-6.4311523c.7070313-3.5375977-1.0400391-7.1108398-4.2666016-8.7241211l-32-16c-3.3203125-1.659668-7.3466797-.8193359-9.7236328 2.0336914l-32.5585938 39.0703125c-2.2255859 2.6704102-5.8876953 3.5976563-9.1171875 2.3066406l-22.2036133-8.8813477 3.0849609-9.2546387zm-40.84375-13.6147461 9.2543945 3.0848389-4.6022949 13.807251-15.5563965 10.3706055zm-27.2961426 27.8538818c-.0632324 2.956604.7180176 5.8826904 2.2641602 8.432312-6.9836426.9784546-13.6340332 2.0637817-19.8840332 3.2543335-38.0078126 7.2397461-55.709961 16.9267578-55.709961 30.4848633s17.7021484 23.2451172 55.7099609 30.4848633c32.2119141 6.1357422 74.9316407 9.5151367 120.2900391 9.5151367s88.078125-3.3793945 120.2900391-9.5151367c38.0078125-7.2397461 55.7099609-16.9267578 55.7099609-30.4848633 0-12.9741211-16.1699219-19.7490234-28.3330078-23.7167969-14.1669922-4.6213989-33.956543-8.5213623-57.4174805-11.3305664l-6.0795898-9.1199951c96.3417969 9.105896 139.8300781 31.0095825 139.8300781 44.1673584 0 6.2763672-13.0224609 20.0415039-61.828125 31.8222656-43.2216797 10.4321289-100.8154297 16.1777344-162.171875 16.1777344s-118.9501953-5.7456055-162.171875-16.1777344c-48.8056641-11.7807617-61.828125-25.5458984-61.828125-31.8222656 0-10.9973755 33.2087402-31.6049194 121.329834-42.1715088zm264.842041 105.9927979c-43.2226562 10.4331054-100.8164062 16.1787109-162.171875 16.1787109s-118.9492188-5.7456055-162.171875-16.1787109c-48.8056641-11.7807618-61.828125-25.5454102-61.828125-31.8212891v-7.1741943c12.3146973 8.6437988 31.7016602 16.1842041 58.0742188 22.5496826 44.415039 10.7202148 103.3417968 16.6245117 165.9257812 16.6245117s121.5107422-5.9042969 165.9257813-16.6245117c26.3725585-6.3654785 45.7597656-13.9058838 58.0742187-22.5496826v7.1741943c0 6.2758789-13.0224609 20.0405273-61.828125 31.8212891z"/><path d="m295 120h16v16h-16z"/><path d="m199 120h16v16h-16z"/><path d="m279 152v-8c0-2.7724609-1.4355469-5.3476563-3.7939453-6.8051758-2.359375-1.4575195-5.3017578-1.5898438-7.7841797-.3500977-7.7773438 3.8886719-17.0664063 3.8886719-24.84375 0-2.4804688-1.2397461-5.4238281-1.1083984-7.7841797.3500977-2.3583984 1.4575196-3.7939453 4.0327149-3.7939453 6.8051758v8c0 13.2338867 10.7666016 24 24 24s24-10.7661133 24-24zm-31.359375 3.1357422c4.8671875.8222656 9.8515625.8222656 14.71875 0-1.2216797 2.8574219-4.0605469 4.8642578-7.359375 4.8642578s-6.1376953-2.0068359-7.359375-4.8642578z"/></g></g></svg>