<svg id="rings" enable-background="new 0 0 300 300" height="512" viewBox="0 0 300 300" width="512" xmlns="http://www.w3.org/2000/svg"><g><circle cx="136" cy="120" fill="#ffe4b8" r="92"/><path d="m108 84h8v92h-8z" fill="#4c241d"/><g><path d="m120 180h-16v-8c0-4.418 3.582-8 8-8 4.418 0 8 3.582 8 8z" fill="#ffce56"/><path d="m120 184h-16c-2.209 0-4-1.789-4-4v-8c0-6.617 5.383-12 12-12s12 5.383 12 12v8c0 2.211-1.791 4-4 4zm-12-8h8v-4c0-2.207-1.795-4-4-4s-4 1.793-4 4z" fill="#4c241d"/></g><g fill="#4c241d"><circle cx="122.364" cy="53.235" r="4.276"/><path d="m164 56c-1.023 0-2.047-.391-2.828-1.172l-12-12c-1.562-1.562-1.562-4.094 0-5.656s4.094-1.562 5.656 0l12 12c1.562 1.562 1.562 4.094 0 5.656-.781.781-1.805 1.172-2.828 1.172z"/><path d="m152 56c-1.023 0-2.047-.391-2.828-1.172-1.562-1.562-1.562-4.094 0-5.656l12-12c1.562-1.562 4.094-1.562 5.656 0s1.562 4.094 0 5.656l-12 12c-.781.781-1.805 1.172-2.828 1.172z"/></g><g><path d="m112 232c-15.439 0-28-12.562-28-28s12.561-28 28-28 28 12.562 28 28-12.561 28-28 28zm0-40c-6.617 0-12 5.383-12 12s5.383 12 12 12 12-5.383 12-12-5.383-12-12-12z" fill="#e66353"/><path d="m112 236c-17.645 0-32-14.355-32-32s14.355-32 32-32 32 14.355 32 32-14.355 32-32 32zm0-56c-13.234 0-24 10.766-24 24s10.766 24 24 24 24-10.766 24-24-10.766-24-24-24zm0 40c-8.822 0-16-7.176-16-16s7.178-16 16-16 16 7.176 16 16-7.178 16-16 16zm0-24c-4.412 0-8 3.59-8 8s3.588 8 8 8 8-3.59 8-8-3.588-8-8-8z" fill="#4c241d"/></g><g><path d="m252 84h-204c-4.418 0-8-3.582-8-8 0-4.418 3.582-8 8-8h204c4.418 0 8 3.582 8 8 0 4.418-3.582 8-8 8z" fill="#ccc"/><path d="m252 88h-204c-6.617 0-12-5.383-12-12s5.383-12 12-12h204c6.617 0 12 5.383 12 12s-5.383 12-12 12zm-204-16c-2.205 0-4 1.793-4 4s1.795 4 4 4h204c2.205 0 4-1.793 4-4s-1.795-4-4-4z" fill="#4c241d"/></g><g><path d="m236 268v-184h16v184" fill="#b5a19c"/><path d="m252 272c-2.209 0-4-1.789-4-4v-180h-8v180c0 2.211-1.791 4-4 4s-4-1.789-4-4v-184c0-2.211 1.791-4 4-4h16c2.209 0 4 1.789 4 4v184c0 2.211-1.791 4-4 4z" fill="#4c241d"/></g><g><path d="m48 268v-184h16v184" fill="#b5a19c"/><path d="m64 272c-2.209 0-4-1.789-4-4v-180h-8v180c0 2.211-1.791 4-4 4s-4-1.789-4-4v-184c0-2.211 1.791-4 4-4h16c2.209 0 4 1.789 4 4v184c0 2.211-1.791 4-4 4z" fill="#4c241d"/></g><g><path d="m196 180h-16v-8c0-4.418 3.582-8 8-8 4.418 0 8 3.582 8 8z" fill="#ffce56"/><path d="m196 184h-16c-2.209 0-4-1.789-4-4v-8c0-6.617 5.383-12 12-12s12 5.383 12 12v8c0 2.211-1.791 4-4 4zm-12-8h8v-4c0-2.207-1.795-4-4-4s-4 1.793-4 4z" fill="#4c241d"/></g><path d="m184 84h8v80h-8z" fill="#4c241d"/><g><path d="m188 232c-15.439 0-28-12.562-28-28s12.561-28 28-28 28 12.562 28 28-12.561 28-28 28zm0-40c-6.617 0-12 5.383-12 12s5.383 12 12 12 12-5.383 12-12-5.383-12-12-12z" fill="#e66353"/><path d="m188 236c-17.645 0-32-14.355-32-32s14.355-32 32-32 32 14.355 32 32-14.355 32-32 32zm0-56c-13.234 0-24 10.766-24 24s10.766 24 24 24 24-10.766 24-24-10.766-24-24-24zm0 40c-8.822 0-16-7.176-16-16s7.178-16 16-16 16 7.176 16 16-7.178 16-16 16zm0-24c-4.412 0-8 3.59-8 8s3.588 8 8 8 8-3.59 8-8-3.588-8-8-8z" fill="#4c241d"/></g></g></svg>