<svg height="512pt" viewBox="0 -14 512 511" width="512pt" xmlns="http://www.w3.org/2000/svg"><path d="m61.121094 98.191406v-45.089844c0-8.300781-6.730469-15.027343-15.03125-15.027343-8.300782 0-15.027344 6.726562-15.027344 15.027343v90.175782c0 8.300781 6.726562 15.03125 15.027344 15.03125 8.300781 0 15.03125-6.730469 15.03125-15.03125l15.027344-22.542969zm0 0" fill="#4f4f4f"/><path d="m466.910156 38.074219c-8.296875 0-15.027344 6.726562-15.027344 15.027343v45.089844l-15.03125 22.542969 15.03125 22.542969c0 8.300781 6.730469 15.03125 15.027344 15.03125 8.300782 0 15.03125-6.730469 15.03125-15.03125v-90.175782c0-8.300781-6.730468-15.027343-15.03125-15.027343zm0 0" fill="#4f4f4f"/><path d="m279.046875 30.558594c0 12.449218-10.09375 22.542968-22.546875 22.542968-12.449219 0-22.542969-10.09375-22.542969-22.542968 0-12.449219 10.09375-22.542969 22.542969-22.542969 12.453125 0 22.546875 10.09375 22.546875 22.542969zm0 0" fill="#a45e43"/><path d="m256.5 53.101562v90.175782c24.902344 0 45.089844-20.183594 45.089844-45.085938zm0 0" fill="#ffb4a9"/><path d="m256.5 53.101562-45.085938 45.089844c0 24.902344 20.183594 45.085938 45.085938 45.085938 8.300781 0 15.03125-20.183594 15.03125-45.085938s-6.730469-45.089844-15.03125-45.089844zm0 0" fill="#ffd9d4"/><path d="m256.5 53.101562c-24.902344 0-45.085938 20.1875-45.085938 45.089844 24.902344 0 45.085938-20.1875 45.085938-45.089844zm0 0" fill="#a45e43"/><path d="m301.589844 98.191406c0-24.902344-20.1875-45.089844-45.089844-45.089844 0 24.902344 20.1875 45.089844 45.089844 45.089844zm0 0" fill="#85453d"/><path d="m76.148438 83.160156c-8.300782 0-15.027344 6.730469-15.027344 15.03125v367.71875l30.058594-20.039062v-347.679688c0-8.300781-6.730469-15.03125-15.03125-15.03125zm0 0" fill="#999"/><path d="m22.542969 445.871094c-8.300781 0-15.027344 6.726562-15.027344 15.027344v15.03125h83.664063v-30.058594zm0 0" fill="#ccc"/><path d="m436.851562 83.160156c-8.296874 0-15.027343 6.730469-15.027343 15.03125v347.679688l30.058593 20.039062v-367.71875c0-8.300781-6.730468-15.03125-15.03125-15.03125zm0 0" fill="#999"/><path d="m489.457031 445.871094c8.300781 0 15.027344 6.726562 15.027344 15.027344v15.03125h-82.660156v-30.058594zm0 0" fill="#ccc"/><path d="m241.472656 340.664062h30.058594v135.265626h-30.058594zm0 0" fill="#ebebeb"/><path d="m256.5 263.515625v90.175781h45.089844v-60.117187zm0 0" fill="#999"/><path d="m211.414062 293.574219v60.117187h60.117188v-90.175781zm0 0" fill="#b3b3b3"/><path d="m296.578125 173.335938h-30.058594l5.011719 120.238281h30.058594v-45.089844c8.042968-6.042969 13.636718-15.167969 15.027344-25.621094v-29.488281c0-11.066406-8.972657-20.039062-20.039063-20.039062zm0 0" fill="#ff4996"/><path d="m286.558594 222.863281v-29.488281c0-11.066406-8.972656-20.039062-20.039063-20.039062h-50.097656c-11.066406 0-20.039063 8.972656-20.039063 20.039062v29.488281c1.394532 10.453125 6.988282 19.578125 15.03125 25.621094v45.089844h60.117188v-45.089844c8.042969-6.042969 13.632812-15.167969 15.027344-25.621094zm0 0" fill="#ff6b8a"/><path d="m361.707031 353.691406c0-8.300781-6.730469-15.03125-15.03125-15.03125h-180.351562c-8.300781 0-15.027344 6.730469-15.027344 15.03125 0 8.296875 6.726563 15.027344 15.027344 15.027344h180.351562c8.300781 0 15.03125-6.730469 15.03125-15.027344zm0 0" fill="#4f4f4f"/><path d="m489.457031 438.355469h-30.058593v-273.824219c2.351562.832031 4.878906 1.292969 7.511718 1.292969 12.433594 0 22.546875-10.113281 22.546875-22.546875v-37.570313h7.511719c4.152344 0 7.515625-3.363281 7.515625-7.515625s-3.363281-7.515625-7.515625-7.515625h-7.511719v-37.574219c0-12.429687-10.113281-22.542968-22.546875-22.542968-12.429687 0-22.542968 10.113281-22.542968 22.542968v23.835938c-2.351563-.832031-4.878907-1.289062-7.515626-1.289062-9.792968 0-18.148437 6.28125-21.25 15.027343h-107.042968c-2.550782-17.757812-14.003906-32.675781-29.679688-40.078125 4.773438-5.320312 7.679688-12.347656 7.679688-20.039062 0-16.574219-13.484375-30.058594-30.058594-30.058594s-30.058594 13.484375-30.058594 30.058594c0 7.691406 2.910156 14.71875 7.679688 20.039062-15.675782 7.402344-27.125 22.320313-29.679688 40.078125h-107.042968c-3.101563-8.746093-11.453126-15.027343-21.25-15.027343-2.632813 0-5.164063.457031-7.515626 1.289062v-23.835938c0-12.429687-10.113281-22.542968-22.542968-22.542968-12.429688 0-22.542969 10.113281-22.542969 22.542968v37.574219h-7.515625c-4.152344 0-7.515625 3.363281-7.515625 7.515625s3.363281 7.515625 7.515625 7.515625h7.515625v37.570313c0 12.433594 10.113281 22.546875 22.542969 22.546875 2.632812 0 5.164062-.460938 7.515625-1.292969v273.824219h-31.0625c-12.429688 0-22.542969 10.113281-22.542969 22.542969v15.03125c0 4.148437 3.363281 7.511718 7.515625 7.511718h83.664063c4.148437 0 7.511718-3.363281 7.511718-7.511718v-370.222657h30.058594v57.609375c0 20.71875 16.855469 37.574219 37.574219 37.574219h22.542969v21.972656c0 .332031.023437.664063.066406.992188 1.441406 10.824219 6.832031 20.898437 14.964844 28.175781v79.113281h-15.03125v-7.511719c0-4.152343-3.363282-7.515624-7.511719-7.515624-4.152344 0-7.515625 3.363281-7.515625 7.515624v7.511719h-7.515625c-12.429688 0-22.542969 10.113281-22.542969 22.546875 0 12.429688 10.113281 22.542969 22.542969 22.542969h7.515625v69.863281l-13.234375 26.46875c-1.855469 3.710938-.351563 8.226563 3.359375 10.082032 1.082031.542968 2.226562.796874 3.355468.796874 2.757813 0 5.410157-1.523437 6.730469-4.15625l14.027344-28.054687c.519531-1.042969.792969-2.191406.792969-3.359375v-71.640625h45.085937v92.179687h-7.515625c-4.148437 0-7.515625 3.363282-7.515625 7.515626 0 4.152343 3.367188 7.515624 7.515625 7.515624h60.117188c4.152344 0 7.515625-3.363281 7.515625-7.515624 0-4.152344-3.363281-7.515626-7.515625-7.515626h-7.511719v-92.179687h45.085937v71.640625c0 1.167969.273438 2.316406.792969 3.359375l14.027344 28.054687c1.316406 2.632813 3.972656 4.15625 6.726563 4.15625 1.128906 0 2.277343-.257812 3.355468-.796874 3.710938-1.855469 5.21875-6.367188 3.363282-10.082032l-13.234376-26.464844v-69.867187h7.511719c12.429688 0 22.546875-10.113281 22.546875-22.542969 0-12.429687-10.117187-22.542968-22.546875-22.542968h-7.511719v-7.515626c0-4.152343-3.363281-7.515624-7.515624-7.515624-4.152344 0-7.515626 3.363281-7.515626 7.515624v7.515626h-15.027343v-79.117188c8.132812-7.277344 13.519531-17.351562 14.960937-28.175781.046875-.328125.066406-.660157.066406-.992188v-21.972656h22.542969c20.71875 0 37.574219-16.851563 37.574219-37.570313v-57.613281h30.058594v370.222657c0 4.152343 3.363281 7.515624 7.515625 7.515624h82.660156c4.152344 0 7.515625-3.363281 7.515625-7.515624v-15.03125c0-12.429688-10.113281-22.542969-22.542969-22.542969zm-30.058593-385.253907c0-4.144531 3.371093-7.511718 7.511718-7.511718 4.144532 0 7.515625 3.367187 7.515625 7.511718v90.175782c0 4.144531-3.371093 7.515625-7.515625 7.515625-4.140625 0-7.511718-3.371094-7.511718-7.515625zm-22.546876 37.574219c4.144532 0 7.515626 3.371094 7.515626 7.515625v340.164063h-15.027344v-340.164063c0-4.144531 3.371094-7.515625 7.511718-7.515625zm-180.351562-10.5c7.875 13.066407 21.273438 22.441407 36.933594 24.890625-3.242188 17.445313-18.5625 30.699219-36.933594 30.699219-18.367188 0-33.691406-13.253906-36.929688-30.699219 15.660157-2.449218 29.054688-11.824218 36.929688-24.890625zm36.59375 9.519531c-13.90625-3.226562-24.871094-14.191406-28.097656-28.097656 13.90625 3.226563 24.871094 14.191406 28.097656 28.097656zm-51.621094-59.136718c0-8.285156 6.742188-15.027344 15.027344-15.027344 8.289062 0 15.03125 6.742188 15.03125 15.027344 0 8.289062-6.742188 15.03125-15.03125 15.03125-8.285156 0-15.027344-6.742188-15.027344-15.03125zm6.53125 31.039062c-3.226562 13.90625-14.191406 24.871094-28.097656 28.097656 3.230469-13.90625 14.195312-24.871093 28.097656-28.097656zm-201.914062 89.195313c-4.144532 0-7.515625-3.371094-7.515625-7.515625v-90.175782c0-4.144531 3.371093-7.511718 7.515625-7.511718 4.144531 0 7.515625 3.367187 7.515625 7.511718v90.175782c0 4.144531-3.371094 7.515625-7.515625 7.515625zm37.574218 317.621093h-68.632812v-7.515624c0-4.144532 3.367188-7.515626 7.511719-7.515626h61.121093zm0-30.058593h-15.03125v-340.164063c0-4.144531 3.371094-7.515625 7.515626-7.515625 4.144531 0 7.515624 3.371094 7.515624 7.515625zm82.660157-77.152344c-4.144531 0-7.515625-3.371094-7.515625-7.511719 0-4.144531 3.371094-7.515625 7.515625-7.515625h7.515625v15.027344zm97.691406 107.210937h-15.03125v-92.179687h15.03125zm82.660156-122.238281c4.144531 0 7.515625 3.371094 7.515625 7.515625 0 4.140625-3.371094 7.511719-7.515625 7.511719h-7.511719v-15.027344zm-22.542969 15.027344h-135.265624v-15.027344h135.265624zm-105.207031-30.058594v-30.058593h75.148438v30.058593zm90.179688-108.808593c-1.191407 7.957031-5.554688 15.273437-12.03125 20.140624-1.890625 1.417969-3 3.644532-3 6.007813v37.574219h-75.148438v-37.574219c0-2.363281-1.109375-4.589844-3-6.007813-6.476562-4.863281-10.839843-12.183593-12.027343-20.140624v-28.960938c0-6.90625 5.617187-12.523438 12.523437-12.523438h80.15625c6.90625 0 12.527344 5.617188 12.527344 12.523438zm60.117187-59.019532c0 12.433594-10.117187 22.546875-22.546875 22.546875h-23.59375c-3.28125-11.550781-13.914062-20.039062-26.503906-20.039062h-80.15625c-12.585937 0-23.222656 8.488281-26.503906 20.039062h-23.59375c-12.429688 0-22.542969-10.113281-22.542969-22.546875v-57.609375h60.660156c3.660156 25.457031 25.605469 45.085938 52.058594 45.085938s48.398438-19.628907 52.058594-45.085938h60.664062zm127.746094 305.097656h-67.628906v-15.03125h60.117187c4.144531 0 7.511719 3.371094 7.511719 7.515626zm0 0"/></svg>