<svg height="512pt" viewBox="0 0 512 512.001" width="512pt" xmlns="http://www.w3.org/2000/svg"><path d="m162.5 37.5-30-.019531c0 .019531.371094 29.96875.371094 29.96875l29.628906.019531c8.28125 0 14.980469-6.710938 14.980469-14.988281 0-8.269531-6.699219-14.980469-14.980469-14.980469zm0 0" fill="#b3b3b3"/><path d="m143.101562 41.890625c2.699219 2.710937 4.378907 6.449219 4.378907 10.589844 0 8.160156-6.5 14.769531-14.609375 14.96875l-15.371094-.007813v-29.972656l15 .011719c4.140625.019531 7.878906 1.699219 10.601562 4.410156zm0 0" fill="#ccc"/><path d="m42.5 279.5h45.300781v180h-45.300781zm0 0" fill="#353535"/><path d="m27.5 7.5h30v496.996094h-30zm0 0" fill="#ccc"/><path d="m364.503906 67.441406c0 .019532-15 .027344-15 .027344-8.28125 0-14.988281-6.710938-14.988281-14.988281 0-8.269531 6.707031-14.980469 14.988281-14.980469l15-.011719 15 15.011719zm0 0" fill="#ccc"/><path d="m394.503906 37.46875v29.972656l-30 .019532c0-.019532 0-29.972657 0-29.972657zm0 0" fill="#b3b3b3"/><path d="m424.199219 279.5h45.300781v180h-45.300781zm0 0" fill="#353535"/><path d="m454.5 7.5h30v496.996094h-30zm0 0" fill="#ccc"/><path d="m211 262.5v99.03125h30v-26.605469c4.691406 1.660157 9.738281 2.574219 15 2.574219s10.304688-.914062 15-2.574219h15v-72.425781zm0 0" fill="#ff4996"/><path d="m271 262.5v99.03125h30c0-8.285156 0-99.03125 0-99.03125zm0 0" fill="#ff1b7c"/><path d="m296 172.5h-30l5 120h30c8.027344-6.03125 13.609375-15.140625 15-25.570312v-74.429688c0-11.050781-8.949219-20-20-20zm0 0" fill="#ffb4a9"/><path d="m286 192.5v74.429688c-1.390625 10.429687-6.96875 19.539062-15 25.570312h-60c-8.03125-6.03125-13.609375-15.140625-15-25.570312v-74.429688c0-11.050781 8.949219-20 20-20h50c11.050781 0 20 8.949219 20 20zm0 0" fill="#ffd9d0"/><path d="m233.5 202.5c0 4.140625-3.359375 7.5-7.5 7.5s-7.5-3.359375-7.5-7.5c0-4.144531 3.359375-7.5 7.5-7.5s7.5 3.355469 7.5 7.5zm0 0" fill="#ffb4a9"/><path d="m293.5 202.5c0 4.140625-3.359375 7.5-7.5 7.5-4.144531 0-7.5-3.359375-7.5-7.5 0-4.144531 3.355469-7.5 7.5-7.5 4.140625 0 7.5 3.355469 7.5 7.5zm0 0" fill="#ff8d7e"/><path d="m270.089844 82.046875-14.089844 60.453125c24.851562 0 45-20.148438 45-45zm0 0" fill="#ffb4a9"/><path d="m271 97.5c0-5.429688-.320312-10.632812-.910156-15.453125l-41.09375-20.546875c-10.925782 8.210938-17.996094 21.277344-17.996094 36 0 24.851562 20.148438 45 45 45 8.285156 0 15-20.148438 15-45zm0 0" fill="#ffd9d0"/><path d="m256 52.5 14.898438 39.832031c9.414062 3.339844 19.542968 5.167969 30.101562 5.167969 0-24.851562-20.148438-45-45-45zm0 0" fill="#60312c"/><path d="m256 52.5c-10.132812 0-19.480469 3.351562-27.003906 9 10.53125 14.023438 25.066406 24.859375 41.902344 30.832031-.855469-22.417969-7.199219-39.832031-14.898438-39.832031zm0 0" fill="#85453d"/><path d="m233.5 202.5c0 4.140625-3.359375 7.5-7.5 7.5s-7.5-3.359375-7.5-7.5c0-4.144531 3.359375-7.5 7.5-7.5s7.5 3.355469 7.5 7.5zm0 0"/><path d="m293.5 202.5c0 4.140625-3.359375 7.5-7.5 7.5-4.144531 0-7.5-3.359375-7.5-7.5 0-4.144531 3.355469-7.5 7.5-7.5 4.140625 0 7.5 3.355469 7.5 7.5zm0 0"/><path d="m504.5 497h-12.5v-489.5c0-4.140625-3.359375-7.5-7.5-7.5h-457c-4.144531 0-7.5 3.359375-7.5 7.5v489.5h-12.5c-4.140625 0-7.5 3.355469-7.5 7.496094 0 4.144531 3.359375 7.5 7.5 7.5h130c4.144531 0 7.5-3.355469 7.5-7.5 0-4.140625-3.355469-7.496094-7.5-7.496094h-12.5v-422.03125h30v211.335938c-8.71875 3.097656-14.984375 11.425781-14.984375 21.195312v15c0 4.140625 3.355469 7.5 7.5 7.5h29.96875c4.144531 0 7.5-3.359375 7.5-7.5v-15c0-9.769531-6.261719-18.101562-14.984375-21.195312v-212.625c8.722656-3.097657 14.984375-11.425782 14.984375-21.195313 0-12.398437-10.085937-22.484375-22.484375-22.484375h-37.5v-15h262v15h-37.5c-12.398438 0-22.484375 10.085938-22.484375 22.484375 0 9.769531 6.261719 18.097656 14.984375 21.195313v212.625c-8.722656 3.09375-14.984375 11.425781-14.984375 21.191406v15c0 4.144531 3.355469 7.5 7.5 7.5h29.96875c4.144531 0 7.5-3.355469 7.5-7.5v-15c0-9.765625-6.261719-18.097656-14.984375-21.191406v-211.335938h30v422.03125h-12.5c-4.140625 0-7.5 3.355469-7.5 7.496094 0 4.144531 3.359375 7.5 7.5 7.5h130c4.144531 0 7.5-3.355469 7.5-7.5 0-4.140625-3.359375-7.496094-7.5-7.496094zm-27.5 0h-15v-482h15zm-30-45h-15.300781v-165h15.300781zm-382-165h15.300781v165h-15.300781zm-30-272h15v482h-15zm134.984375 300h-14.96875v-7.5c0-4.128906 3.355469-7.484375 7.484375-7.484375 4.125 0 7.484375 3.355469 7.484375 7.484375zm-7.484375-270c4.125 0 7.484375 3.359375 7.484375 7.484375s-3.355469 7.480469-7.480469 7.484375c-.015625 0-37.503906 0-37.503906 0v-14.96875zm-52.5 452h-45v-30h22.800781c4.140625 0 7.5-3.359375 7.5-7.5v-180c0-4.144531-3.359375-7.5-7.5-7.5h-22.800781v-257h45zm246.984375-182h-14.972656v-7.5c0-4.128906 3.359375-7.484375 7.488281-7.484375 4.125 0 7.484375 3.355469 7.484375 7.484375zm-7.476563-255.03125c-4.136718-.003906-7.492187-3.359375-7.492187-7.484375s3.355469-7.484375 7.484375-7.484375h37.5v14.96875zm52.492188-44.96875h45v257h-22.800781c-4.140625 0-7.5 3.355469-7.5 7.5v180c0 4.140625 3.359375 7.5 7.5 7.5h22.800781v30h-45zm0 0"/><path d="m318.371094 497.382812-24.871094-8.289062v-120.0625h7.5c4.140625 0 7.5-3.359375 7.5-7.5v-65.492188c8.117188-7.261718 13.492188-17.316406 14.933594-28.121093.042968-.328125.066406-.65625.066406-.988281v-74.429688c0-15.164062-12.335938-27.5-27.5-27.5h-80c-15.164062 0-27.5 12.335938-27.5 27.5v74.429688c0 .332031.019531.660156.066406.988281 1.4375 10.804687 6.816406 20.859375 14.933594 28.121093v65.492188c0 4.140625 3.355469 7.5 7.5 7.5h7.5v120.0625l-24.871094 8.289062c-3.929687 1.3125-6.054687 5.558594-4.746094 9.488282 1.050782 3.144531 3.976563 5.128906 7.117188 5.128906.785156 0 1.585938-.125 2.371094-.386719l30-10c3.0625-1.019531 5.128906-3.886719 5.128906-7.113281v-125.46875h7.5c4.140625 0 7.5-3.359375 7.5-7.5v-17.066406c4.949219.710937 10.046875.710937 15 0v17.066406c0 4.140625 3.355469 7.5 7.5 7.5h7.5v125.46875c0 3.226562 2.0625 6.09375 5.128906 7.113281l30 10c.785156.261719 1.585938.386719 2.371094.386719 3.140625 0 6.066406-1.988281 7.113281-5.128906 1.3125-3.929688-.8125-8.179688-4.742187-9.488282zm-114.871094-304.882812c0-6.894531 5.605469-12.5 12.5-12.5h80c6.890625 0 12.5 5.605469 12.5 12.5v73.902344c-1.070312 7.160156-4.726562 13.800781-10.171875 18.597656h-84.65625c-5.445313-4.796875-9.101563-11.433594-10.171875-18.597656zm71.828125 136.304688c-1.984375-1.40625-4.53125-1.757813-6.828125-.949219-8.042969 2.84375-16.960938 2.84375-25 0-2.296875-.8125-4.84375-.457031-6.832031.949219s-3.167969 3.6875-3.167969 6.121093v19.105469h-15v-54.03125h75v54.03125h-15v-19.105469c0-2.433593-1.183594-4.714843-3.171875-6.121093zm0 0"/><path d="m256 150c28.949219 0 52.5-23.550781 52.5-52.5s-23.550781-52.5-52.5-52.5-52.5 23.550781-52.5 52.5 23.550781 52.5 52.5 52.5zm36.648438-60.421875c-20.152344-2-38.578126-11.210937-52.292969-26.144531 4.761719-2.199219 10.0625-3.433594 15.644531-3.433594 17.960938 0 33.003906 12.695312 36.648438 29.578125zm-64.449219-17.21875c16.691406 18.804687 39.578125 30.246094 64.605469 32.300781-3.351563 17.261719-18.578126 30.339844-36.804688 30.339844-20.679688 0-37.5-16.824219-37.5-37.5 0-9.664062 3.675781-18.484375 9.699219-25.140625zm0 0"/></svg>