<?xml version="1.0"?>
<svg xmlns="http://www.w3.org/2000/svg" viewBox="0 0 512 512" width="512" height="512"><g id="Filled_outline" data-name="Filled outline"><path d="M408,184l-32,64-40-24-29.66,37.07L304,264l-2.87,8.6a29.573,29.573,0,0,1-48.97,11.56L232,264l-16.94-32q13.2-8.67,26.91-16.52,6.675-3.81,13.46-7.43,7.155-3.825,14.43-7.41c2.61-1.29,5.25-2.52,7.9-3.69A209.454,209.454,0,0,1,408,184Z" style="fill:#fec093"/><path d="M232,264l-16.941-32q-8.805,5.781-17.372,11.923L192,248c-20.467,8.183-39.216,13.833-39.216,13.833-14.176,5.776-20.734,25.341-14.958,39.516a27.706,27.706,0,0,0,36.129,15.21l6.364-2.984,18.2,3.938,1.99-9.942,17.9-11.93-9.384-12.874Z" style="fill:#feb784"/><path d="M135.962,261.259l-7.257-27.745a21.509,21.509,0,0,1,15.367-26.251l48.553-12.7L204.683,184l3.629,13.872a21.509,21.509,0,0,1-15.367,26.251l-36.039,9.426a8,8,0,0,0-5.958,7.212l-1.114,16.87Z" style="fill:#6e3c26"/><path d="M177.877,265.376l-7.826-3.3a9.728,9.728,0,0,0-10.114,16.345l1.8,1.547L143.6,310.2c-9.876-8.858-21.319-26.922-10.926-47.376C147.3,234.03,192,248,192,248Z" style="fill:#6e3c26"/><path d="M232,224l-80,48L64,312l-32.932,6.586A8.792,8.792,0,0,0,32.792,336H64l104-32,73-45.5Z" style="fill:#fec093"/><path d="M306.34,261.07,304,264l-2.87,8.6a29.573,29.573,0,0,1-48.97,11.56l-7.99-7.99c9.74-14.15,17.99-36.36,11.26-68.12q7.155-3.825,14.43-7.41c2.61-1.29,5.25-2.52,7.9-3.69L304,256Z" style="fill:#c378cb"/><path d="M488,324.219A12.26,12.26,0,0,1,475.6,336H302.56a38.558,38.558,0,0,1-5.45-76.73L376,248l32-64,14.25,5.7a54.25,54.25,0,0,1,9.94,95.51l-4.27,2.84a54.188,54.188,0,0,1-26.21,8.97l-41.62,2.99L376,301.15,416,304l7.167-7.167a16,16,0,0,1,19.545-2.406L472,312h4A12,12,0,0,1,488,324.219Z" style="fill:#fec093"/><path d="M432.19,285.21l-4.27,2.84a54.188,54.188,0,0,1-26.21,8.97l-41.62,2.99L376,301.15V336H302.56a38.558,38.558,0,0,1-5.45-76.73L376,248l32-64,14.25,5.7a54.25,54.25,0,0,1,9.94,95.51Z" style="fill:#b53f92"/><path d="M476,304h-1.784l-30.065-18.039A62.251,62.251,0,0,0,449,199.128c-20.705-23.755-56.9-28.118-86.427-28.118-36.714,0-72.988,9.805-110.9,29.977-19.825,10.549-38.7,22.665-57.445,35q-2.351,1.548-4.718,3.1A100.508,100.508,0,0,0,175.6,236.93l19.376-5.07a29.5,29.5,0,0,0,21.078-36.015l-3.63-13.87a8,8,0,0,0-13.011-3.992l-10.63,9.315-46.736,12.223a29.538,29.538,0,0,0-21.072,36.011l1.7,6.49,15.48-4.044-1.7-6.5A13.521,13.521,0,0,1,146.094,215l48.56-12.7a7.977,7.977,0,0,0,3.248-1.723l2.316-2.029.353,1.35a13.5,13.5,0,0,1-9.646,16.484l-41.62,10.89a8,8,0,0,0-5.957,7.21l-.5,7.539A38.1,38.1,0,0,0,128.8,253.86a39.384,39.384,0,0,0-3.263,5.337,44.051,44.051,0,0,0-4.935,19.16c-10.454,4.811-49.873,21.81-59.072,25.979L29.5,310.744A16.836,16.836,0,0,0,16,327.21,16.808,16.808,0,0,0,32.79,344H64a7.988,7.988,0,0,0,2.353-.354l76.568-23.559a36.334,36.334,0,0,0,6.728,3.732,35.517,35.517,0,0,0,27.325.147c.127-.052.252-.107.375-.164l3.922-1.841,15.557,3.368a8,8,0,0,0,9.538-6.257l1.332-6.685,15.139-10.09a8,8,0,0,0,2.028-11.369l-4.921-6.752,11.514-9.4L246.5,289.816a37.565,37.565,0,0,0,9.511,6.894c0,.243-.014.487-.014.73A46.546,46.546,0,0,0,302.56,344H328V328H302.56a30.39,30.39,0,0,1-21.609-8.943c-17.381-17.357-7.215-48.366,17.289-51.868l78.891-11.269c.148-.021.29-.061.438-.075l40-8-3.138-15.69-23.96,4.792,21.392-42.785,7.412,2.965c18.52,7.408,30.953,27.011,28.667,46.978-2.218,19.381-16.97,36.475-35.313,42.617a46.759,46.759,0,0,1-11.49,2.318L360.1,291.987l-55.531-3.966-1.14,15.958L368,308.592V328H344v16H476.005a20,20,0,0,0,0-40ZM139.8,266.454a23.532,23.532,0,0,1,1.955-3.2,23.187,23.187,0,0,1,11.463-8.316,45.377,45.377,0,0,1,15.291-2.333l-1.205.749a17.686,17.686,0,0,0-17.026,10.088q-5.921,3.324-11.949,6.393A31.835,31.835,0,0,1,139.8,266.454Zm56.266,34.459a8,8,0,0,0-3.409,5.095l-.391,1.962-10.251-2.219a7.939,7.939,0,0,0-1.453-.166l24.177-15.111,2.285,3.135Zm46.457-37.707-4.863-4.863a8,8,0,0,0-9.893-1.121l0-.006-63.113,39.445L62.8,328H32.79a.749.749,0,0,1-.571-.255A.707.707,0,0,1,32,327.21a.792.792,0,0,1,.64-.775l32.93-6.59a8.017,8.017,0,0,0,1.74-.562c9.325-4.238,18.928-8.378,28.214-12.382,16.1-6.938,32.741-14.114,48.787-22.157,20.687-10.37,40.018-23.091,58.711-35.392,11.054-7.274,22.483-14.8,33.984-21.682,4.09-2.454,8.208-4.839,12.319-7.151C251.044,236.365,248.766,250.656,242.52,263.206Zm16.873,16.711c-.546-.448-1.076-.914-1.576-1.414l-3.48-3.48c7.929-13.791,14.588-34.516,10.041-62.6q4.751-2.412,9.462-4.591L293.381,251.8A46.21,46.21,0,0,0,259.393,279.917Zm68.635-33.146,9.851-12.314,14.683,8.81Zm44.68-10.076L340.116,217.14A8,8,0,0,0,329.753,219l-21.5,26.872-19.7-44.325c25.044-9.758,49.473-14.54,74.012-14.54a201.671,201.671,0,0,1,33.567,2.826ZM476.005,328H384V309.734l31.43,2.245a8,8,0,0,0,6.227-2.322l11.583-11.584,34.644,20.787A8.009,8.009,0,0,0,472,320h4a4,4,0,0,1,0,8Z"/></g></svg>
