<svg height="512" viewBox="0 0 512 512" width="512" xmlns="http://www.w3.org/2000/svg"><g id="Filled_outline" data-name="Filled outline"><path d="m112 216.248v40l8 16-20.707-4.142a24 24 0 0 1 -19.293-23.534v-28.324l-24-8v-16h32a24 24 0 0 1 24 24z" fill="#61311c"/><path d="m487.98 248.78a8.176 8.176 0 0 1 -8.25 7.47h-7.73l-32 8-31.52 17.19-56.48 30.81-80 16h-96l-32-16-9.59 3.19a24.566 24.566 0 0 1 -31.87-18.49l-4.07-20.33-2.47-12.37-20.54-16-11.28 8.82a5.049 5.049 0 0 1 -7.13.16l-8.69-8.18-9.56 1.6-4.97-15.27-2.42-2.28a23.4 23.4 0 0 1 -7.39-16.16 22.863 22.863 0 0 1 1.48-9.06 22.215 22.215 0 0 1 4.35-7.07 23.3 23.3 0 0 1 31.91-2.49l29.7 25.93 12.54 8 .14-.15a26.834 26.834 0 0 1 39.91 2.21l14.95 18.69 9 11.25 32 16 19.46-9.73a59.4 59.4 0 0 1 59.5 3.7l9.04 6.03 48-8 32-16 56-16 16-16 40 16a8 8 0 0 1 7.98 8.53z" fill="#f7b488"/><path d="m174 267.25-30 45-9.59 3.19a24.566 24.566 0 0 1 -31.87-18.49l-4.07-20.33 2.74 1.45c7.65 2.52 17.4 4.27 25.79 1.18 8.55-3.15 20.95-14.6 32-26.25l9 11.25z" fill="#c378cb"/><path d="m408.48 281.44-56.48 30.81-80 16h-72v-48l19.46-9.73a59.4 59.4 0 0 1 59.5 3.7l9.04 6.03 48-8 32-16 24.5-7 15.5 31z" fill="#b53f92"/><path d="m71.42 218.692-.274-7.065a8.261 8.261 0 0 0 -4.239-6.876 8 8 0 0 0 -11.664 4.749l-.532 1.895-29.211-3.517a22.441 22.441 0 0 1 4.641-7.394l7.131-7.577q.421-.447.857-.873c12.193-11.934 32.341-10.286 43.431 3.055l.558.73c7.424 9.717 8.874 16.306 9.344 28.429z" fill="#6e3c26"/><path d="m272 240.248-16 8-64-24h-72a16 16 0 0 0 -16 16 16 16 0 0 0 16 16h64l72 16h48v-32z" fill="#fec093"/><path d="m481.8 232.353-38.825-15.531a8 8 0 0 0 -8.628 1.771l-14.534 14.534-54.013 15.431a7.9 7.9 0 0 0 -1.38.537l-30.92 15.462-21.5 3.583v-27.892a8 8 0 0 0 -8-8h-32a7.994 7.994 0 0 0 -3.578.845l-12.88 6.439-60.733-22.774a8 8 0 0 0 -2.809-.51h-41.5v16h40.049l62.642 23.49a7.993 7.993 0 0 0 6.387-.335l14.311-7.155h22.111v16h-39.122l-71.143-15.81a8.034 8.034 0 0 0 -1.735-.19h-64a8 8 0 1 1 0-16h17v-16h-17a32.036 32.036 0 0 0 -32-32h-6.267a40.361 40.361 0 0 0 -24.933-8.226c-24.158.326-36.1 21.01-38.722 29.017l-.048-.018a30.679 30.679 0 0 0 -2 12.231 31.258 31.258 0 0 0 9.9 21.67l.931.878 4.337 13.326a8 8 0 0 0 8.929 5.415l5.645-.945 5.8 5.461a13.08 13.08 0 0 0 17.9.032l5.769-4.512a31.7 31.7 0 0 0 14.381 14.578l5.078 25.362a32.549 32.549 0 0 0 42.241 24.514l6.448-2.145 7.923 3.962a108.539 108.539 0 0 0 48.3 11.4h62.488a108.178 108.178 0 0 0 21.18-2.1l53.993-10.8-3.138-15.689-53.993 10.8a92.216 92.216 0 0 1 -18.042 1.791h-54.1v-35.056l15.045-7.523a50.4 50.4 0 0 1 7.247-2.941c7.794 1.732 15.545 3.763 23.471 4.819 6.578.878 13.162.7 19.78.7.327.206.655.412.978.627l9.04 6.03a8.015 8.015 0 0 0 5.754 1.237l48-8a8.026 8.026 0 0 0 2.263-.737l31.335-15.667 17.4-4.972 9.649 19.3-49.8 27.162 7.662 14.046 87.1-47.51 30.052-7.513h6.745a16 16 0 0 0 2.066-31.9zm-377.8-16.103v6.129c-.047.042-.1.082-.142.124l-4.633-2.835c-.47-6.657-1.509-12.127-4-17.673a16 16 0 0 1 8.775 14.255zm-46.986-24.229a23.694 23.694 0 0 1 18.3 8.066l.448.588c3.618 4.735 5.5 8.324 6.518 12.725l-3.09-.857-.048-1.226a16.343 16.343 0 0 0 -8.342-13.552 16.036 16.036 0 0 0 -14.05-.829 15.83 15.83 0 0 0 -7.089 5.79l-11.214-1.349c3.805-4.601 9.8-9.238 18.567-9.356zm46.832 70.666a8.006 8.006 0 0 0 -2.929-4.748l-20.542-16a8 8 0 0 0 -9.843.01l-9.857 7.708-6.832-6.431a8.014 8.014 0 0 0 -6.8-2.066l-2.764.463c.242-.044-2.426-6.632-2.629-7.1a19.2 19.2 0 0 0 -4.756-7.25 15.35 15.35 0 0 1 -4.868-10.551l21.734 2.612a8 8 0 0 0 8.657-5.778l.483-1.844c.013-.007.033-.018.115.028a.27.27 0 0 1 .141.2l.27 7.06a8 8 0 0 0 5.857 7.4l18.867 5.231.553.354c.047.03.093.06.141.088l7.43 4.548a24.01 24.01 0 0 0 23.726 27.627h15.652c-5.959 4.923-9.51 6.794-11.417 7.5-5.855 2.154-13.117.939-18.72-.712zm35.022 42.839-6.986 2.325a16.6 16.6 0 0 1 -5.252.859 16.807 16.807 0 0 1 -16.245-13.329l-1.433-7.164a49.991 49.991 0 0 0 8.069.7c16.943 0 30.039-12.58 41.38-23.855l3.352 4.189a8 8 0 0 0 .76.812zm53.132 14.4a92.527 92.527 0 0 1 -33.537-9.389l-2.78-1.39 21.056-31.584 15.261 7.631zm8-48.62-11.906-5.953 16.485 3.663zm272-23.056a7.977 7.977 0 0 0 -1.94.239l-32 8a7.951 7.951 0 0 0 -1.891.738l-24.149 13.173-8.053-16.1 22.231-6.352a8.013 8.013 0 0 0 3.459-2.035l12.27-12.27 35.1 14.041a8.2 8.2 0 0 0 2.39.572z"/></g></svg>