<svg id="Capa_1" enable-background="new 0 0 512.01 512.01" height="512" viewBox="0 0 512.01 512.01" width="512" xmlns="http://www.w3.org/2000/svg"><g><path d="m264.413 83.037c-8.569-19.614-40.273-55.592-74.572-73.868-8.663-4.616-19.283.806-20.787 10.506-.658 4.242-1.018 8.02-.594 9.694-30.335-8.184-59.466 9.463-88.872 19.858-2.743.97-4.898 3.125-5.868 5.868-10.393 29.405-28.04 58.536-19.856 88.871-1.675-.425-5.452-.064-9.694.594-9.7 1.504-15.122 12.124-10.506 20.787 18.277 34.299 54.255 66.003 73.868 74.572z" fill="#4b5165"/><path d="m479.461 470.733c-3.849-19.246-44.124-129.995-59.859-162.928 2.516-19.794-2.514-38.623-15.691-51.8-26.368-26.368-75.371-20.118-109.45 13.962-34.079 34.079-40.33 83.082-13.962 109.45.425.425.872.818 1.309 1.226-18.63 34.191-39.516 76.675-42.717 83.211-6.857 13.998-1.068 30.905 12.93 37.761 13.978 6.849 30.895 1.087 37.761-12.93 9.509-19.412 33.05-66.341 49.185-94.716 15.737-3.31 31.739-11.279 45.725-23.604 16.463 42.333 37.303 101.318 39.418 111.44 3.064 15.322 17.961 25.19 33.21 22.14 15.286-3.058 25.199-17.927 22.141-33.212z" fill="#ffd3bd"/><path d="m473.608 450.607c-12.614-38.934-41.304-116.217-54.005-142.802 2.516-19.794-2.514-38.623-15.691-51.8-26.368-26.368-75.371-20.118-109.45 13.962-34.079 34.079-40.33 83.082-13.962 109.45.425.425.872.818 1.309 1.226-11.612 21.311-24.099 45.84-32.635 62.882 10.947 2.789 37.165 12.462 50.253 25.73 11.378-22.687 27.515-54.138 39.541-75.287 15.737-3.31 31.739-11.279 45.725-23.604 12.333 31.712 27.121 72.769 34.655 95.629 8.664-9.419 36.612-18.878 54.26-15.386z" fill="#4b5165"/><path d="m199.242 428.352c-8.386 13.383-26.033 17.434-39.415 9.049-13.381-8.386-17.432-26.033-9.048-39.415 9.382-14.973 49.041-115.17 51-131.615 1.85-15.667 15.971-26.948 31.661-25.152 15.691 1.796 26.954 15.977 25.158 31.667-3.217 27.92-47.083 135.88-59.356 155.466z" fill="#ffd3bd"/><path d="m322.554 219.92c-11.413 10.914-29.514 10.51-40.43-.904-10.915-11.414-10.544-29.543.903-40.429 11.426-10.907 65.423-84.801 84.323-116.635 8.06-13.577 25.607-18.053 39.186-9.991 13.579 8.063 18.053 25.607 9.991 39.186-15.602 26.279-74.389 110.024-93.973 128.773z" fill="#ffbe9d"/><path d="m360.204 335.709c15.225-15.225 63.905-70.591 37.424-92.217-44.056-35.979-138.844-74.969-171.727-42.086s6.107 127.671 42.086 171.727c21.626 26.481 76.992-22.199 92.217-37.424z" fill="#8eafe2"/><path d="m281.289 256.793c16.485-16.485 28.809-35.972 36.256-56.894-36.781-12.924-73.567-16.571-91.644 1.506s-14.43 54.863-1.506 91.644c20.922-7.446 40.409-19.771 56.894-36.256z" fill="#7c93dd"/><circle cx="109.257" cy="243.669" fill="#ffd3bd" r="36.085"/><circle cx="268.165" cy="84.762" fill="#ffbe9d" r="36.085"/><ellipse cx="192.284" cy="167.789" fill="#ffd3bd" rx="113.338" ry="98.643" transform="matrix(.707 -.707 .707 .707 -62.326 185.11)"/><path d="m286.269 203.941c-109.493 85.516-184.159-15.354-192.978-60.742-13.861 37.192-7.984 77.897 18.851 104.732 38.523 38.523 105.632 33.87 149.893-10.391 10.197-10.196 18.285-21.606 24.234-33.599z" fill="#ffbe9d"/><g><g><g><g><path d="m167.814 214.315c9.129 9.129 7.237 25.823-4.227 37.287s-28.158 13.356-37.287 4.227-7.237-25.823 4.227-37.287 28.158-13.356 37.287-4.227z" fill="#eda1ab"/></g><g><ellipse cx="259.567" cy="122.562" fill="#eda1ab" rx="29.355" ry="23.377" transform="matrix(.707 -.707 .707 .707 -10.639 219.439)"/></g></g></g></g><path d="m228.376 104.958c-2.93-2.928-7.678-2.928-10.607 0-2.929 2.93-2.929 7.678 0 10.607l8.485 8.485c2.931 2.929 7.678 2.928 10.607 0 2.929-2.93 2.929-7.678 0-10.607zm-88.315 88.315c-2.93-2.928-7.678-2.928-10.607 0-2.929 2.93-2.929 7.678 0 10.607l8.485 8.485c2.931 2.929 7.678 2.928 10.607 0 2.929-2.93 2.929-7.678 0-10.607zm346.755 275.99c-.8-3.999-2.966-11.371-6.045-20.882-12.661-39.113-40.82-114.551-53.475-141.84 2.069-20.336-3.248-38.81-15.063-52.512-1.322-6.522-4.677-12.11-9.862-16.345-15.416-12.59-35.179-24.497-55.839-34.069 26.128-33.012 64.543-88.592 76.444-108.637 12.912-21.75-.085-49.793-24.986-54.018-4.086-.693-7.957 2.053-8.649 6.138-.694 4.083 2.054 7.956 6.138 8.649 14.539 2.472 22.151 18.856 14.6 31.573-12.095 20.373-52.099 78.145-77.804 110.119-10.566-4.257-21.156-7.813-31.333-10.466 2.33-7.844 3.857-15.79 4.563-23.701 20.252-26.191 51.201-69.531 66.268-94.131 2.164-3.532 1.054-8.149-2.479-10.313-3.529-2.164-8.148-1.056-10.313 2.479-12.198 19.916-35.054 52.415-53.913 77.712-1.047-8.125-3.02-16.047-5.922-23.605 16.829-17.007 16.779-44.532-.159-61.471-14.031-14.031-35.04-16.37-51.327-7.663-16.324-18.138-35.824-33.89-54.289-43.73-13.171-7.016-29.427 1.148-31.725 15.977-.099.635-.188 1.236-.267 1.809-29.714-3.835-57.417 12.323-84.288 21.821-4.903 1.733-8.709 5.54-10.438 10.439-9.51 26.897-25.655 54.578-21.821 84.287-.572.079-1.175.168-1.81.267-14.775 2.29-23.018 18.508-15.976 31.725 9.843 18.471 25.601 37.978 43.746 54.304-8.767 16.479-6.222 37.443 7.647 51.312 16.907 16.905 44.38 17.01 61.413.214 15.166 5.865 32.192 8.104 50.238 6.138-10.95 33.675-38.505 101.735-45.666 113.164-14.331 22.875.739 52.743 27.35 55.12 4.113.371 7.768-2.667 8.138-6.802.369-4.125-2.676-7.77-6.802-8.138-15.434-1.384-24.396-18.774-15.975-32.217 9.008-14.377 40.683-94.069 49.588-124.138 1.595-.405 3.183-.843 4.764-1.313 4.67 17.887 12.143 37.052 21.261 55.09-12.843 34.517-29.173 73.097-37.704 88.989-2.701 5.031 1.004 11.048 6.602 11.048 2.674 0 5.262-1.434 6.615-3.954 7.799-14.529 21.797-47.118 33.965-78.755 6.259 10.584 13 20.428 19.953 28.942 2.474 3.03 5.416 5.427 8.73 7.167-12.819 23.931-28.505 54.995-38.552 75.51-8.685 17.728-1.368 39.109 16.365 47.796 17.773 8.71 39.128 1.331 47.796-16.366 12.483-25.482 33.202-66.257 47.353-91.447 13.144-3.261 25.912-9.359 37.52-17.889 16.243 42.484 33.658 92.455 35.366 100.627 3.887 19.443 22.765 31.881 42.035 28.023 19.36-3.874 31.898-22.676 28.024-42.037zm-198.439-404.713c9.788 9.787 10.977 24.963 3.577 36.062-3.914-6.554-8.647-12.691-14.224-18.268 0-.001 0-.001 0-.001-8.188-8.188-17.648-14.691-28.036-19.389 11.218-9.534 28.057-9.031 38.683 1.596zm-248.095 97.268c-2.176-4.083.404-9.13 5.035-9.848 4.852-.751 6.592-.698 6.947-.678 5.475 1.199 10.305-3.847 8.84-9.28-7.423-27.516 9.275-54.96 19.689-84.421.214-.608.687-1.079 1.295-1.294 29.376-10.383 56.891-27.116 84.419-19.689 5.424 1.464 10.48-3.355 9.28-8.843-.023-.354-.073-2.095.678-6.943.717-4.625 5.755-7.216 9.848-5.036 16.733 8.917 34.477 23.216 49.512 39.771-.561.621-1.102 1.261-1.627 1.914-71.311-18.75-150.05 40.132-155.387 117.145-.847 12.222.247 24.026 3.155 35.087-.653.524-1.292 1.065-1.913 1.626-16.555-15.034-30.855-32.778-39.771-49.511zm48.762 102.064c-10.583-10.582-11.109-27.464-1.595-38.682 8.051 17.801 21.264 32.452 37.624 42.281-11.097 7.377-26.252 6.179-36.029-3.599zm28.402-21.255c-35.537-35.536-30.876-98.02 10.391-139.285 40.062-40.064 102.774-46.906 139.286-10.392 35.537 35.537 30.876 98.022-10.391 139.286-40.383 40.387-102.964 46.714-139.286 10.391zm108.2 28.737c30.217-13.081 56.418-38.39 70.156-70.228 32.876 8.354 71.932 27.625 97.082 48.164 18.897 15.434-20.595 63.718-37.983 81.105-17.332 17.333-65.669 56.882-81.105 37.983-20.527-25.134-39.788-64.159-48.15-97.024zm57.401 214.021c-5.034 10.274-17.433 14.539-27.727 9.494-10.283-5.037-14.533-17.438-9.493-27.727.75-1.53 3.396-6.924 7.256-14.667 10.462 3.395 26.599 10.103 37.079 18.523-2.76 5.531-5.181 10.43-7.115 14.377zm140.117-31.602c-8.392-24.59-21.391-60.196-31.48-86.139-1.895-4.869-8.055-6.342-11.948-2.908-12.671 11.165-27.302 18.734-42.311 21.891-2.102.442-3.914 1.765-4.976 3.633-10.592 18.626-24.388 45.254-35.433 67.105-11.662-8.587-26.734-14.878-37.141-18.42 7.538-14.938 17.105-33.583 26.285-50.589 32.016-.94 74.48-42.476 79.348-47.343 4.056-4.057 33.566-34.211 43.844-62.678 3.123 8.484 4.127 18.182 2.811 28.523-.182 1.429.052 2.88.673 4.18 9.891 20.701 36.073 89.524 50.225 131.355-13.854.454-29.289 5.219-39.897 11.39zm32.687 42.806c-11.157 2.231-22.119-4.927-24.398-16.319-.467-2.237-1.676-6.366-3.427-11.847 8.482-5.866 26.584-11.835 39.965-10.978 2.044 6.515 3.489 11.63 4.115 14.76 2.248 11.23-5.023 22.139-16.255 24.384zm-257.576-353.061c-4.132.284-7.252 3.864-6.968 7.997.285 4.144-1.23 8.199-4.159 11.127-2.928 2.928-6.995 4.44-11.128 4.159-4.15-.282-7.712 2.835-7.997 6.968-.284 4.133 2.836 7.713 6.968 7.997 8.693.59 16.915-2.668 22.765-8.517 5.995-5.995 9.099-14.292 8.517-22.764-.286-4.132-3.864-7.251-7.998-6.967z"/></g></svg>