<svg id="Capa_1" enable-background="new 0 0 512 512" height="512" viewBox="0 0 512 512" width="512" xmlns="http://www.w3.org/2000/svg"><g><g><path d="m91.9 389.43c24.94 31.56 58.73 64.16 72.41 112.57h-79.71z" fill="#ffdad5"/></g><g><path d="m79.34 242.57c0-.01 0-.01 0-.01l-31.71-40.66c-6.1-8.29-5.48-19.74 1.48-27.32l33.45-36.46c2.44-2.65 3.63-5.99 3.63-9.32 0-3.84-1.58-7.65-4.69-10.38-6.16-5.41-6.63-14.83-1.03-20.82l4.67-4.98c5.62-6.01 15.1-6.14 20.89-.3l55.39 55.9c6.75 6.82 10.73 15.9 11.15 25.49l9.65 217.78c-14.89-21.7-35.07-44.98-62.4-68.24-16.99-14.46-20.48-32.64-20.78-43.93l.69-10.6z" fill="#ffdad5"/></g><g><path d="m79.336 242.56s-32.451 39.977-13.712 101.629c15.11 49.714 78.597 86.696 98.689 157.81h59.943s.425-89.504-104.432-178.75c-26.654-22.685-20.092-54.535-20.092-54.535z" fill="#7dd8c1"/></g><g><path d="m106.032 92.322s15.957-18.92 15.957-47.92c0-16.411-6.708-34.401-6.708-34.401h58.999s3.305 91.83-14.117 136.953z" fill="#7dd8c1"/></g><g><path d="m420.1 389.43 7.3 112.57h-79.71c13.68-48.41 47.47-81.01 72.41-112.57z" fill="#ffdad5"/></g><g><path d="m464.37 201.9-31.7 40.66-20.4 26.16.69 10.6c-.3 11.29-3.79 29.47-20.78 43.93-27.33 23.26-47.5 46.54-62.4 68.24l9.65-217.78c.42-9.59 4.4-18.67 11.15-25.49l55.39-55.9c5.79-5.84 15.27-5.71 20.89.3l4.67 4.98c5.6 5.99 5.13 15.41-1.02 20.82-3.11 2.73-4.7 6.55-4.7 10.38 0 3.33 1.2 6.67 3.63 9.32l33.46 36.46c6.95 7.58 7.57 19.03 1.47 27.32z" fill="#ffdad5"/></g><g><path d="m432.665 242.56s32.451 39.977 13.712 101.629c-15.11 49.714-78.597 86.696-98.689 157.81h-59.943s-.425-89.504 104.432-178.75c26.654-22.685 20.092-54.535 20.092-54.535z" fill="#7dd8c1"/></g><g><path d="m405.968 92.322s-15.957-18.92-15.957-47.92c0-16.411 6.708-34.401 6.708-34.401h-58.999s-3.305 91.83 14.117 136.953z" fill="#7dd8c1"/></g><g><path d="m470.268 167.819-33.457-36.456c-1.43-1.561-1.3-4.026.305-5.435 5.025-4.421 7.974-10.538 8.299-17.221.326-6.68-2.011-13.049-6.59-17.947l-4.661-4.97c-4.589-4.908-10.815-7.665-17.532-7.763-2.56-.04-5.065.315-7.449 1.033-3.97-7.104-9.17-19.334-9.17-34.659 0-14.341 6.021-30.753 6.078-30.908 1.145-3.07.713-6.506-1.156-9.197s-4.939-4.296-8.215-4.296h-58.999c-5.383 0-9.8 4.261-9.993 9.64-.133 3.676-2.924 87.102 12.674 134.955-6.641 8.104-10.5 18.128-10.962 28.672l-9.531 215.081c-13.779 20.49-22.771 39.115-28.592 54.13-13.531 34.897-13.576 58.579-13.571 59.57.026 5.504 4.496 9.953 10 9.953h59.943 79.71c2.765 0 5.405-1.145 7.296-3.162s2.862-4.727 2.684-7.485l-7.053-108.767c11.237-14.536 20.678-29.228 25.621-45.489 15.742-51.797-1.894-89.465-10.911-104.137l27.22-34.911c.057-.073.112-.147.168-.221 8.907-12.107 8.002-28.932-2.156-40.01zm-122.744-147.819h35.797c-1.707 6.979-3.309 15.812-3.309 24.401 0 21.276 7.629 37.738 13.045 46.743l-36.576 36.912c-8.733-35.669-9.189-86.938-8.957-108.056zm13.995 472c11.022-29.009 30.507-53.196 50.237-76.71l4.974 76.71zm75.292-150.719c-4.413 14.516-13.867 28.464-25.121 42.653-27.076 34.095-57.401 65.821-71.391 108.066h-41.661c1.268-9.296 4.333-24.534 11.747-43.37 11.597-29.468 29.279-56.413 50.057-80.201 13.575-15.541 29.681-27.97 43.762-42.818 19.055-20.012 19.412-43.899 18.517-54.032l8.95-11.479c7.344 14.83 16.585 43.519 5.14 81.181zm19.573-145.403-52 66.688c-1.547 1.979-2.319 4.576-2.075 7.077.47 7.226.888 13.816-.92 20.969-2.478 9.798-8.012 18.486-15.692 25.024-15.979 13.601-30.982 28.428-44.517 44.471l8.24-185.958c.348-7.946 4.009-14.619 9.521-20.155l54.13-54.632c1.772-1.788 4.771-1.743 6.493.1l4.66 4.969c1.725 1.844 1.586 4.805-.312 6.475-5.149 4.52-8.104 11.043-8.104 17.896 0 5.965 2.223 11.675 6.262 16.082l33.457 36.457c3.69 4.019 4.042 10.116.857 14.537z"/><path d="m192.09 388.346-4.201-94.795c-.245-5.517-4.93-9.791-10.433-9.547-5.518.245-9.792 4.916-9.548 10.433l2.91 65.663c-13.533-16.04-28.537-30.866-44.515-44.464-7.942-6.76-13.57-15.817-15.93-25.999-1.601-6.908-1.12-13.305-.667-20.267.158-2.415-.601-4.894-2.091-6.804l-52.003-66.689c-3.184-4.421-2.829-10.514.864-14.537l33.438-36.448c4.045-4.394 6.272-10.109 6.272-16.092 0-6.858-2.95-13.381-8.091-17.893-1.893-1.663-2.062-4.62-.334-6.466l4.679-4.99c1.731-1.851 4.7-1.891 6.482-.092l54.134 54.634c5.509 5.546 9.171 12.208 9.52 20.161l1.438 32.453c.245 5.518 4.931 9.813 10.433 9.547 5.518-.245 9.792-4.916 9.548-10.433l-1.438-32.448c-.462-10.547-4.319-20.569-10.961-28.675 15.602-47.854 12.811-131.282 12.678-134.958-.194-5.379-4.611-9.64-9.994-9.64h-58.999c-3.276 0-6.345 1.605-8.214 4.296s-2.301 6.127-1.156 9.197c1.69 4.534 6.078 18.925 6.078 30.908 0 15.332-5.191 27.548-9.167 34.657-2.383-.717-4.889-1.072-7.454-1.031-6.717.098-12.943 2.855-17.523 7.752l-4.68 4.991c-4.57 4.888-6.907 11.26-6.579 17.941.329 6.685 3.281 12.801 8.316 17.224 1.594 1.398 1.71 3.881.288 5.424l-33.447 36.457c-10.167 11.073-11.079 27.9-2.167 40.01.055.075.111.149.168.223l27.223 34.906c-9.016 14.67-26.656 52.339-10.912 104.141 4.942 16.261 14.382 30.953 25.619 45.488l-7.054 108.769c-.179 2.759.793 5.468 2.684 7.485 1.89 2.017 4.531 3.162 7.296 3.162h139.655c5.504 0 9.974-4.448 10-9.953.005-.991-.04-24.672-13.571-59.57-5.822-15.015-14.814-33.64-28.594-54.131zm-63.409-368.346h35.797c.231 21.118-.225 72.388-8.958 108.058l-36.577-36.914c5.416-9.005 13.046-25.467 13.046-46.743 0-8.589-1.601-17.422-3.308-24.401zm-28.437 395.289c19.699 23.472 39.329 47.698 50.237 76.711h-55.211zm71.457 76.711c-13.982-42.176-44.266-73.92-71.321-107.978-11.285-14.219-20.769-28.195-25.19-42.741-11.507-37.863-2.282-66.439 5.103-81.226l8.987 11.526c-.873 9.889-.554 32.87 17.163 52.569 15.763 17.582 34.724 31.701 50.021 50.024 18.639 22.325 34.479 47.338 45.152 74.456 7.414 18.839 10.479 34.081 11.747 43.37z"/><path d="m183 242.46c-3.842-3.842-10.3-3.847-14.141 0-3.848 3.854-3.848 10.298 0 14.15 3.84 3.844 10.301 3.849 14.141 0 3.871-3.881 3.81-10.26 0-14.15z"/></g></g></svg>