<svg height="512" viewBox="0 0 512 512" width="512" xmlns="http://www.w3.org/2000/svg"><g id="Filled_outline" data-name="Filled outline"><g fill="#fec093"><path d="m331.143 164.857h-16.572v99.429h-41.428v33.142l40.332 13.445c20.076 6.692 41.538-7.358 42.491-28.5q.034-.755.034-1.517v-91.142a24.857 24.857 0 0 0 -24.857-24.857z"/><path d="m322.86 388.57v11.43h-132.57v-11.43l15.81-58 9.04-33.14v-33.14h82.86v33.14l9.04 33.14z"/><path d="m314.57 164.86v41.43l-16.57 58h-82.86l-8.28-33.15-26.87-26.86a49.746 49.746 0 0 1 -14.56-35.16v-107.83a20.715 20.715 0 1 1 41.43 0v103.57h20.71a8.286 8.286 0 0 0 8.28-8.29v-41.43h41.43v41.43a8.288 8.288 0 0 0 8.29 8.29z"/></g><path d="m277.28 104v32.34a31.824 31.824 0 0 1 -41.43-.01v-32.33z" fill="#feb784"/><path d="m273.143 32.286v33.143h24.857v33.142a33.143 33.143 0 0 0 33.143 33.143v-66.285a33.143 33.143 0 0 0 -33.143-33.143z" fill="#61311c"/><path d="m219.286 98.571h12.428v-24.857h-12.428a12.429 12.429 0 0 0 -12.429 12.429 12.429 12.429 0 0 0 12.429 12.428z" fill="#fec093"/><path d="m293.857 73.714h-12.428v24.857h12.428a12.429 12.429 0 0 0 12.429-12.428 12.429 12.429 0 0 0 -12.429-12.429z" fill="#fec093"/><path d="m256.571 131.714a31.835 31.835 0 0 1 -30.885-24.114l-.99-3.958a42.438 42.438 0 0 1 -1.267-10.3v-19.628a33.143 33.143 0 0 1 33.142-33.143 33.143 33.143 0 0 1 33.143 33.143v19.632a42.438 42.438 0 0 1 -1.267 10.3l-.99 3.958a31.836 31.836 0 0 1 -30.886 24.11z" fill="#fec093"/><path d="m264.857 48.857s8.286 16.572 30.83 38.484a105.338 105.338 0 0 0 2.313-21.912 41.428 41.428 0 0 0 -41.429-41.429 41.428 41.428 0 0 0 -41.428 41.429 105.245 105.245 0 0 0 .781 12.75c12.764-4.635 30.952-6.609 48.933-29.322z" fill="#6e3c26"/><path d="m307.088 209.76-9.088-44.903h-8.286l-8.926 17.852a27.328 27.328 0 0 1 -19.739 14.919 26.824 26.824 0 0 1 -28.46-14.45l-9.16-18.321h-8.286l-9.088 44.9-4.218 6.656a33.481 33.481 0 0 0 13.306 47.87h82.857a33.481 33.481 0 0 0 13.306-47.87z" fill="#c378cb"/><path d="m472 430v12.14a8.271 8.271 0 0 1 -3.69 6.89l-12.02 8.01a24.862 24.862 0 0 1 -19.81 3.44l-22.48-5.62-13.32 4.44a24.893 24.893 0 0 1 -21.65-2.9l-64.85-42.49-51.32-33.62v24.85c0 22.88-16.55 41.43-39.43 41.43a41.431 41.431 0 0 1 -41.43-41.43 99.324 99.324 0 0 1 19.89-59.65l13.51-18.02a54.372 54.372 0 0 1 81.96-5.83l50.35 50.35v.01l49.72 49.71h66.28a8.288 8.288 0 0 1 8.29 8.29z" fill="#fec093"/><path d="m347.71 371.99v.01l-33.14 41.43-.39.48-51.32-33.62v24.85c0 22.88-16.55 41.43-39.43 41.43a41.431 41.431 0 0 1 -41.43-41.43 99.324 99.324 0 0 1 19.89-59.65l13.51-18.02a54.372 54.372 0 0 1 81.96-5.83z" fill="#bc4598"/><path d="m337.62 428.7-74.76-48.46v49.09l-55.95-15.99-2.21-.63-52.91-15.11a16.544 16.544 0 0 0 -9.8.21l-63.29 21.1a16.319 16.319 0 0 0 -6.38 27.03l8.72 8.72a16.332 16.332 0 0 0 17.98 3.46l47.84-20.5 34.71 20.82 2.14 1.28 27.31 16.39a78.707 78.707 0 0 0 100.25-16.26l15.88-18.77z" fill="#fec093"/><path d="m337.62 428.7-74.76-48.46v49.09l-55.95-15.99-.05.09-23.15 46.29 27.31 16.39a78.707 78.707 0 0 0 100.25-16.26l15.88-18.77z" fill="#b53f92"/><path d="m337.62 428.7-74.76-48.46v19.17l64.29 41.67z" fill="#ab3989"/><path d="m194.784 341.673a106.941 106.941 0 0 0 -20.371 54.166l-18.429-5.266a24.468 24.468 0 0 0 -14.52.316l-63.294 21.1a24.323 24.323 0 0 0 -9.507 40.275l8.722 8.723a24.208 24.208 0 0 0 26.782 5.157l44.082-18.892 60.656 36.394a86.707 86.707 0 0 0 110.442-17.922l10.727-12.515-12.148-10.414-10.726 12.514a70.706 70.706 0 0 1 -90.062 14.615l-22.758-13.654 16.663-33.325 51.616 14.747a8 8 0 0 0 10.2-7.692v-24.743c0-.039 0-.078 0-.117v-9.9l101.741 67.818a32.679 32.679 0 0 0 28.615 3.831l11.11-3.7 20.228 5.057a32.932 32.932 0 0 0 26.179-4.546l12.02-8.01a16.247 16.247 0 0 0 7.248-13.55v-12.14a16.309 16.309 0 0 0 -16.29-16.29h-62.967l-86.264-86.264-2.35-8.618a40.269 40.269 0 0 0 34.7-5.447 39.07 39.07 0 0 0 17.131-30.639c.028-.624.042-93.022.042-93.022a32.9 32.9 0 0 0 -32.86-32.86h-45.572a.287.287 0 0 1 -.29-.29v-29.07a39.718 39.718 0 0 0 8.16-12.543 41.191 41.191 0 0 0 37.7 24.753 8 8 0 0 0 8-8v-66.473a41.178 41.178 0 0 0 -33.7-40.562l-2.886 15.737a25.182 25.182 0 0 1 20.586 24.825v57.163a25.283 25.283 0 0 1 -16.84-20.09 20.347 20.347 0 0 0 -.3-32.59v-4.29a49.422 49.422 0 0 0 -95.151-18.754 28.708 28.708 0 0 0 -53.419 14.614v107.83a57.379 57.379 0 0 0 16.905 40.818l15.327 15.319a41.377 41.377 0 0 0 17.478 43.6v27.5zm-14.164 106.341-27.647-16.588a8 8 0 0 0 -7.267-.493l-47.842 20.5a8.283 8.283 0 0 1 -9.165-1.765l-8.722-8.722a8.323 8.323 0 0 1 3.253-13.783l63.293-21.1a8.54 8.54 0 0 1 5.066-.11l43.8 12.515zm211.154-20.647a8 8 0 0 0 5.656 2.343h66.28a.286.286 0 0 1 .29.29v12.14a.272.272 0 0 1 -.126.233l-12.024 8.012a16.892 16.892 0 0 1 -13.43 2.334l-22.48-5.62a8 8 0 0 0 -4.47.172l-13.314 4.437a16.785 16.785 0 0 1 -14.689-1.964l-57.2-38.131 22.111-27.639zm-77.204-254.507h16.57a16.879 16.879 0 0 1 16.86 16.86s-.008 91.91-.026 92.3a23.2 23.2 0 0 1 -10.207 18.176 24.455 24.455 0 0 1 -21.761 3.088l-8.93-2.978-1.076-3.947v-21.884l3.826 2.817a8 8 0 0 0 12.744-6.442v-24.023c.145-.458.294-.914.423-1.378a41.551 41.551 0 0 0 -.423-23.614v-15.545h-8l-.024-.007-6.764-33.423zm-57.999-140.86a33.467 33.467 0 0 1 33.429 33.429q0 2.14-.1 4.286c-12.639-14.305-17.775-24.215-17.9-24.453a8 8 0 0 0 -13.42-1.37c-12.371 15.626-24.516 20.193-35.419 23.582-.015-.683-.022-1.366-.022-2.045a33.466 33.466 0 0 1 33.432-33.429zm21.2 138.864-4.134 8.267a19.34 19.34 0 0 1 -13.9 10.606 18.775 18.775 0 0 1 -19.99-10.136l-4.37-8.741a16.3 16.3 0 0 0 8.476-14.29v-18.94a39.931 39.931 0 0 0 25.43 0v18.94a16.3 16.3 0 0 0 8.484 14.294zm-21.2-47.154c-16.1 0-25.14-15.719-25.14-30.36v-11.725c9.5-3.166 20.823-8.069 32.25-19.43a192.04 192.04 0 0 0 18.03 22.3s-.116 11.688-.309 13.093a75.946 75.946 0 0 1 -1.7 8.068 23.814 23.814 0 0 1 -23.132 18.054zm-41.71-17.636a20.244 20.244 0 0 0 2.3.382l.771 3.083a39.734 39.734 0 0 0 9.921 17.95v29.081a.285.285 0 0 1 -.28.29h-12.713zm-16.354 100.652-1.843 2.908-11.014-11.008a41.482 41.482 0 0 1 -12.22-29.506v-107.83a12.715 12.715 0 1 1 25.43 0v103.57a8 8 0 0 0 6.53 7.859zm7.059 34.438a25.186 25.186 0 0 1 3.028-20.465l4.218-6.657a7.972 7.972 0 0 0 1.084-2.695l6.867-33.932 4.671 9.341a34.638 34.638 0 0 0 31.08 19.249 34.824 34.824 0 0 0 31.429-19.718l4.437-8.872 6.867 33.932a8 8 0 0 0 1.083 2.7l4.219 6.656a25.485 25.485 0 0 1 -8.57 35.587h-78.815a25.148 25.148 0 0 1 -11.598-15.126zm84.716 58.371 2.177 7.985a62.245 62.245 0 0 0 -72.934 4.241l3.333-12.226a8 8 0 0 0 .282-2.105v-25.14h66.86v25.14a8 8 0 0 0 .282 2.105zm-81.967 50.721 13.485-17.987a46.371 46.371 0 0 1 69.9-4.972l45.3 45.293-24.091 30.115-43.609-29.071a8 8 0 0 0 -12.437 6.652v24.971a34.045 34.045 0 0 1 -.666 6.576 33.074 33.074 0 0 1 -2.156 6.755l-63.894-18.256a91.14 91.14 0 0 1 18.174-50.076z"/></g></svg>