<svg height="512pt" viewBox="-128 0 512 512" width="512pt" xmlns="http://www.w3.org/2000/svg"><path d="m127.5 262.5v75c24.851562 0 45-20.148438 45-45zm0 0" fill="#ff4128"/><path d="m142.5 292.5v-30l-60 30c0 24.851562 20.148438 45 45 45 8.285156 0 15-20.148438 15-45zm0 0" fill="#ff6753"/><path d="m167.5 172.5h-30l-25 75 30 45h30v-45c8.027344-6.03125 13.609375-15.140625 15-25.570312v-29.429688c0-11.046875-8.957031-20-20-20zm0 0" fill="#e18f4e"/><path d="m157.5 221.929688v-29.429688c0-11.046875-8.957031-20-20-20h-50c-11.046875 0-20 8.953125-20 20v29.429688c1.390625 10.429687 6.972656 19.539062 15 25.570312v45h60v-45c8.027344-6.03125 13.609375-15.140625 15-25.570312zm0 0" fill="#ffa754"/><path d="m127.5 52.5v90c24.851562 0 45-20.148438 45-45s-20.148438-45-45-45zm0 0" fill="#e18f4e"/><path d="m142.5 97.5c0-24.851562-6.714844-45-15-45-24.851562 0-45 20.148438-45 45s20.148438 45 45 45c8.285156 0 15-20.148438 15-45zm0 0" fill="#ffa754"/><path d="m150 30c0 12.425781-10.074219 22.5-22.5 22.5s-22.5-10.074219-22.5-22.5 10.074219-22.5 22.5-22.5 22.5 10.074219 22.5 22.5zm0 0" fill="#a45e43"/><path d="m180 251.039062c6.308594-5.644531 10.953125-12.980468 13.386719-21.039062h39.113281c12.40625 0 22.5-10.09375 22.5-22.5s-10.09375-22.5-22.5-22.5h-38.546875c-3.277344-11.527344-13.890625-20-26.453125-20h-80c-12.5625 0-23.179688 8.472656-26.453125 20h-38.546875c-12.40625 0-22.5 10.09375-22.5 22.5s10.09375 22.5 22.5 22.5h39.109375c2.4375 8.058594 7.082031 15.394531 13.390625 21.039062v41.460938c0 14.269531 5.730469 27.21875 15 36.691406v159.902344l-24.871094 8.289062c-3.929687 1.308594-6.054687 5.558594-4.746094 9.488282 1.050782 3.140625 3.976563 5.128906 7.117188 5.128906.785156 0 1.585938-.125 2.371094-.386719l30-10c3.0625-1.019531 5.128906-3.886719 5.128906-7.113281v-118.964844h112.5c12.40625 0 22.5-10.09375 22.5-22.5 0-10.75-7.652344-20.039062-18.1875-22.085937l-50.335938-9.828125c5.378907-8.242188 8.523438-18.070313 8.523438-28.625zm60-43.539062c0 4.136719-3.363281 7.5-7.5 7.5h-37.5v-15h37.5c4.136719 0 7.5 3.363281 7.5 7.5zm-152.5-27.5h80c6.890625 0 12.5 5.605469 12.5 12.5v22.5h-32.5c-6.894531 0-12.5-5.609375-12.5-12.5 0-4.144531-3.359375-7.5-7.5-7.5-4.144531 0-7.5 3.355469-7.5 7.5 0 6.890625-5.609375 12.5-12.5 12.5h-32.5v-22.5c0-6.894531 5.605469-12.5 12.5-12.5zm-72.5 27.5c0-4.136719 3.363281-7.5 7.5-7.5h37.5v15h-37.5c-4.136719 0-7.5-3.363281-7.5-7.5zm92.5 22.5c7.875 0 14.980469-3.332031 20-8.65625 5.015625 5.324219 12.125 8.65625 20 8.65625h29.871094c-2.136719 4.492188-5.347656 8.476562-9.375 11.503906-1.886719 1.414063-2.996094 3.636719-2.996094 5.996094v37.5h-75v-37.5c0-2.359375-1.109375-4.582031-2.996094-5.996094-4.03125-3.027344-7.242187-7.011718-9.375-11.503906zm20 100c-18.109375 0-33.261719-12.90625-36.746094-30h73.492188c-3.484375 17.09375-18.636719 30-36.746094 30zm97.5 23.035156c0 4.132813-3.363281 7.5-7.5 7.5h-112.5v-20.613281c6.824219 3.25 14.453125 5.078125 22.5 5.078125 12.042969 0 23.140625-4.085938 32.007812-10.929688l59.441407 11.605469c3.503906.679688 6.050781 3.773438 6.050781 7.359375zm0 0"/><path d="m127.5 150c28.949219 0 52.5-23.550781 52.5-52.5 0-20.964844-12.355469-39.089844-30.164062-47.5 4.761718-5.3125 7.664062-12.320312 7.664062-20 0-16.542969-13.457031-30-30-30s-30 13.457031-30 30c0 7.679688 2.902344 14.6875 7.664062 20-17.808593 8.410156-30.164062 26.535156-30.164062 47.5 0 28.949219 23.550781 52.5 52.5 52.5zm-15-120c0-8.269531 6.730469-15 15-15s15 6.730469 15 15-6.730469 15-15 15-15-6.730469-15-15zm15 30c20.675781 0 37.5 16.820312 37.5 37.5 0 20.675781-16.824219 37.5-37.5 37.5-20.679688 0-37.5-16.824219-37.5-37.5 0-20.679688 16.820312-37.5 37.5-37.5zm0 0"/></svg>