<svg id="Capa_1" enable-background="new 0 0 512 512" height="512" viewBox="0 0 512 512" width="512" xmlns="http://www.w3.org/2000/svg"><g><path d="m49.404 350.817c40.797.004 75.227.271 104.538.46 6.512.042 12.436-3.676 15.298-9.525 13.389-27.364 34.545-43.541 59.209-47.077l45.477 54.485c15.475-1.453 27.707-3.758 38.242-7.351 21.371-7.289 45.054 3.772 52.541 25.074 7.559 21.505-3.828 45.028-25.346 52.457-54.638 18.866-118.625 13.638-290.782 13.638-22.416 0-40.639-17.954-41.073-40.266-.448-23.039 18.853-41.897 41.896-41.895z" fill="#cb9d82"/><path d="m81.485 350.865c28.139.086 50.555.271 72.457.412 6.512.042 12.436-3.676 15.298-9.525 13.389-27.364 34.545-43.541 59.209-47.077l45.477 54.485c15.475-1.453 27.707-3.758 38.242-7.351 21.371-7.289 45.054 3.772 52.541 25.074 7.559 21.505-3.828 45.028-25.346 52.457-51.831 17.897-109.744 14.112-262.762 13.676 13.51-16.772 11.646-63.499 4.884-82.151z" fill="#4b5165"/><path d="m267.212 398.019c-23.239-15.711-75.673-86.657-45.233-111.516 50.642-41.358 151.023-98.291 188.821-60.493s-7.991 135.778-49.348 186.42c-24.86 30.44-71.001 1.3-94.24-14.411z" fill="#8de1ce"/><path d="m271.218 252.04c33.937 43.88 91.816 64.066 147.328 53.577 9.336-32.279 9.589-62.273-7.746-79.607-27.674-27.674-88.895-4.566-139.582 26.03z" fill="#6fcd90"/><ellipse cx="389.396" cy="174.418" fill="#cb9d82" rx="115.104" ry="103.915"/><path d="m385.015 70.585c-61.539 2.08-110.724 47.767-110.724 103.832 0 57.391 51.534 103.915 115.104 103.915 23.589 0 45.518-6.411 63.774-17.401-98.885-11.939-87.149-145.343-68.154-190.346z" fill="#b7856b"/><path d="m490.227 111.652c-30.601 18.564-106.378 39.547-149.638 48.085 1.976 57.891 4.063 128.314-75.021 146.902-7.781 1.829-15.842-1.609-19.929-8.479-5.132-8.626-10.116-19.43-13.71-27.789-3.03-7.049-1.248-15.12 4.211-20.511 34.608-34.169 8.479-118.12 59.687-163.216 41.462-36.514 132.736-45.553 195.767 6.576 5.997 4.961 5.287 14.395-1.367 18.432z" fill="#4b5165"/><path d="m309.217 174.418c0-18.247 14.792-33.039 33.039-33.039s22.36 14.792 22.36 33.039-4.113 33.039-22.36 33.039-33.039-14.792-33.039-33.039z" fill="#cb9d82"/><path d="m410.534 451.666c17.415-8.654 24.518-29.788 15.864-47.204-17.543-35.303-42.815-79.06-66.088-126.476-8.568-17.457-29.665-24.663-47.125-16.094-17.458 8.569-24.663 29.667-16.094 47.125 24.114 49.129 49.308 92.709 66.241 126.786 8.626 17.358 29.732 24.542 47.202 15.863z" fill="#cb9d82"/><g><g><ellipse cx="434.943" cy="208.02" fill="#f8d2e3" rx="29.355" ry="23.377"/></g></g><path d="m452.052 193.017c4.142 0 7.5-3.357 7.5-7.5v-12c0-4.143-3.358-7.5-7.5-7.5-4.143 0-7.5 3.357-7.5 7.5v12c0 4.143 3.357 7.5 7.5 7.5zm59.948-18.599c0-20.19-5.901-39.675-17.135-56.838 10.44-7.033 11.167-22.151 1.51-30.137-4.037-3.339-8.283-6.515-12.621-9.44-3.436-2.314-8.096-1.407-10.412 2.025-2.315 3.435-1.408 8.096 2.025 10.412 3.935 2.652 7.786 5.533 11.448 8.563 2.048 1.693 1.736 4.895-.478 6.238-23.348 14.165-76.056 30.552-120.102 41.148-3.619-5.936-10.637-12.51-23.98-12.51-22.354 0-40.539 18.186-40.539 40.539 0 19.04 13.197 35.048 30.923 39.378-1.365 14.543-4.106 26.806-8.306 37.218-20.876 2.124-37.362 19.278-38.299 40.693-6.645 3.159-14.077 5.726-22.182 7.631-4.617 1.084-9.339-.932-11.767-5.012-4.766-8.013-9.566-18.312-13.265-26.917-1.77-4.118-.753-8.912 2.589-12.213 37.449-36.972 10.575-119.948 59.375-162.924 29.467-25.951 89.311-38.556 144.281-17.543 3.869 1.48 8.204-.46 9.684-4.328 1.479-3.869-.459-8.204-4.328-9.684-27.896-10.662-58.518-14.034-88.555-9.755-28.366 4.042-53.579 14.715-70.996 30.052-53.471 47.092-28.368 132.279-60 163.508-7.769 7.671-10.058 18.979-5.832 28.811.123.286.253.585.38.879-2.824 2.175-5.57 4.345-8.186 6.481-3.978 3.249-6.987 7.258-9.004 11.894-19.211 8.113-34.976 23.893-45.728 45.866-1.608 3.288-4.843 5.322-8.451 5.322-88.958-.582-90.653-.416-104.653-.46-26.736 0-49.928 21.834-49.389 49.54.299 15.395 8.007 29.892 20.618 38.777 3.37 2.376 8.054 1.59 10.451-1.81 2.386-3.387 1.575-8.065-1.811-10.451-8.722-6.146-14.053-16.167-14.26-26.807-.37-19.031 15.755-34.249 34.393-34.249 4.081.003 12.081-.001 26.506.038 2.258 9.018 3.528 21.926 3.243 34.114-.333 14.215-2.736 26.165-6.539 33.034-4.165-.01-8.392-.017-12.697-.021h-.007c-4.139 0-7.496 3.353-7.5 7.493-.004 4.142 3.351 7.503 7.493 7.507 149.017.141 210.579 3.931 262.09-8.318 10.092 1.761 20.293 1.431 29.674-2.808 1.718 3.345 3.383 6.622 4.954 9.784 10.48 21.089 36.164 29.72 57.256 19.242 21.139-10.504 29.75-36.114 19.243-57.258-7.318-14.726-16-30.965-25.216-48.127 9.719-19.819 20.82-47.296 23.741-73.982 46.854-15.673 80.361-56.645 80.361-104.595zm-145.159 26.994c3.599-6.503 5.275-15.08 5.275-26.994 0-5.193-.319-9.751-.977-13.781 36.242-8.782 81.83-22.264 110.448-35.911 10.092 14.981 15.413 32.035 15.413 49.692 0 62.71-66.089 108.926-134.149 93.443-5.812-7.748-13.975-13.104-22.97-15.552 3.883-10.923 6.44-23.397 7.746-37.75 10.59-1.595 16.259-7.809 19.214-13.147zm-50.124-26.994c0-14.082 11.457-25.539 25.539-25.539 13.845 0 14.86 16.157 14.86 25.539 0 23.568-7.341 25.54-14.86 25.54-14.082 0-25.539-11.457-25.539-25.54zm-227.751 251.138c3.752-10.415 4.944-22.807 5.177-32.735.281-12.005-.802-24.468-2.859-34.412 21.579.089 39.821.22 62.763.368 9.246 0 17.842-5.376 21.929-13.729 7.39-15.105 17.411-26.686 29.358-34.106 2.072 34.576 38.873 80.579 57.678 93.291 6.661 4.504 17.463 11.804 30.01 17.947-42.73 5.568-100.923 3.789-204.056 3.376zm182.446-33.75c-23.704-16.025-67.776-80.641-44.688-99.494 1.655-1.353 3.372-2.721 5.121-4.095 2.296 4.701 4.798 9.488 7.349 13.778 5.758 9.677 17.021 14.55 28.09 11.944 7.478-1.758 14.483-4.038 20.956-6.786 4.03 11.918 45.341 87.79 56.463 108.854-21.504 8.94-53.845-11.055-73.291-24.201zm148.269 15.994c6.815 13.711 1.235 30.332-12.483 37.148-13.685 6.8-30.349 1.2-37.148-12.484-17.011-34.232-42.174-77.753-66.226-126.753-6.732-13.717-1.051-30.354 12.665-37.087 13.716-6.732 30.356-1.052 37.089 12.666 12.961 26.405 26.801 52.171 39.012 74.902 9.937 18.504 19.325 35.979 27.091 51.608zm-20.63-71.291c-8.954-16.717-18.048-33.885-27.031-51.8 14.704 1.898 29.511 1.386 43.903-1.511-2.517 15.868-8.311 34.176-16.872 53.311z"/></g></svg>