<?xml version="1.0"?>
<svg xmlns="http://www.w3.org/2000/svg" viewBox="0 0 512 512" width="512" height="512"><g id="Filled_outline" data-name="Filled outline"><path d="M328,152h16l-8-16V72a32,32,0,0,0-32-32H272V64l24,8v48A32,32,0,0,0,328,152Z" style="fill:#61311c"/><polygon points="200 288 208 336 200 368 312 368 304 336 312 288 200 288" style="fill:#fec093"/><path d="M200,368l-16,40L77.918,420.48A33.876,33.876,0,0,0,48,454.124h0A33.876,33.876,0,0,0,81.876,488H430.124A33.876,33.876,0,0,0,464,454.124h0a33.876,33.876,0,0,0-29.918-33.644L328,408l-16-40Z" style="fill:#b03b8d"/><path d="M392,396a11.984,11.984,0,0,1-12,12h-4l-80,40-64.23,14.6L120,488H80.55a32.55,32.55,0,0,1-1.12-65.08l144.89-5L280,416l4.12-16.48a16,16,0,0,1,19.4-11.64L320,392l32-8h28A12,12,0,0,1,392,396Z" style="fill:#f7b488"/><path d="M231.77,462.6,120,488H80.55a32.55,32.55,0,0,1-1.12-65.08l144.89-5Z" style="fill:#bc4598"/><path d="M463.98,456.614C463.363,474.238,448.442,488,430.807,488H392L280.23,462.6,216,448l-80-40h-4a12,12,0,0,1-12-12h0a12,12,0,0,1,12-12h28l32,8,16.478-4.119a16,16,0,0,1,19.4,11.641L232,416l55.68,1.92,144.89,5a32.543,32.543,0,0,1,31.41,33.694Z" style="fill:#fec093"/><path d="M464,455.45A32.546,32.546,0,0,1,431.45,488H392L280.23,462.6l7.45-44.68,144.89,5A32.541,32.541,0,0,1,464,455.45Z" style="fill:#bc4598"/><path d="M488,400v24l-24,8-12.55-4.18-8.6-2.87-2.04-.68-13.9-4.63L416,416l-24-28.8-2.67-3.2L336,320l-16-88-24,24H216l-24-24-16,88-53.33,64L120,387.2,96,416l-10.91,3.64-13.9,4.63-2.04.68-8.6,2.87L48,432l-24-8V400l32-16a16,16,0,0,1-16-16H88l48-64,19.11-101.9A31.993,31.993,0,0,1,186.56,176H232V120h48v56h45.44a31.993,31.993,0,0,1,31.45,26.1L376,304l48,64h48a16,16,0,0,1-16,16Z" style="fill:#fec093"/><path d="M280,120v40.04a40.161,40.161,0,0,1-48,0V120Z" style="fill:#f5a76e"/><path d="M214,112h14V84.333H214a13.918,13.918,0,0,0-14,13.834h0A13.917,13.917,0,0,0,214,112Z" style="fill:#f7b488"/><path d="M299,84.333H286V112h13c7.18,0,13-6.193,13-13.833h0C312,90.527,306.18,84.333,299,84.333Z" style="fill:#f7b488"/><path d="M256,152h0c-17.631,0-33-11.345-37.276-27.517l-1.194-4.516A45.937,45.937,0,0,1,216,108.219v-22.4C216,64.932,233.909,48,256,48h0c22.091,0,40,16.932,40,37.818v22.4a45.937,45.937,0,0,1-1.53,11.748l-1.194,4.516C289,140.655,273.631,152,256,152Z" style="fill:#fec093"/><path d="M265.6,52.255S275.2,71.092,301.32,96A117.512,117.512,0,0,0,304,71.092h0C304,45.084,282.51,24,256,24h0c-26.51,0-48,21.084-48,47.092h0a117.542,117.542,0,0,0,.905,14.494C223.694,80.317,244.767,78.073,265.6,52.255Z" style="fill:#6e3c26"/><path d="M312,288h0a40.98,40.98,0,0,0,0-64h0l-8-48H288l-3.293,16.466A29.276,29.276,0,0,1,256,216h0a29.276,29.276,0,0,1-28.707-23.534L224,176H208l-8,48h0a40.98,40.98,0,0,0,0,64H312Z" style="fill:#c378cb"/><path d="M491.578,392.845l-17.7-8.85A23.9,23.9,0,0,0,480,368a8,8,0,0,0-8-8H428l-44.48-59.308L364.753,200.629A40.006,40.006,0,0,0,325.44,168H288V147.792a44.867,44.867,0,0,0,6.036-6.7A40,40,0,0,0,328,160h16a8,8,0,0,0,7.155-11.578L344,134.111V72a40.045,40.045,0,0,0-40-40h-8.585A56.285,56.285,0,0,0,256,16c-30.879,0-56,24.714-56,55.092,0,3.273.148,6.583.412,9.893a21.738,21.738,0,0,0-1.924,32.666,21.951,21.951,0,0,0,10.705,5.808c.181.853.379,1.7.6,2.551l1.19,4.516A43.861,43.861,0,0,0,224,147.793V168H208a8,8,0,0,0-7.892,6.685l-7.521,45.129A48.715,48.715,0,0,0,176.62,256a49.39,49.39,0,0,0,1.052,10.079L168.506,316.5,91.311,409.131,48,423.567l-16-5.333v-13.29l27.578-13.789A8,8,0,0,0,56,376H88a8,8,0,0,0,6.4-3.2l48-64a8,8,0,0,0,1.463-3.325L162.974,203.57A24,24,0,0,1,186.56,184V168a40.006,40.006,0,0,0-39.313,32.625L128.48,300.692,84,360H40a8,8,0,0,0-8,8,23.9,23.9,0,0,0,6.121,16l-17.7,8.85A8,8,0,0,0,16,400v24a8,8,0,0,0,5.47,7.59l22.05,7.35a40.411,40.411,0,0,0-3.507,15.492q0,.1,0,.2v.186c-.007.212-.01.428-.01.634A40.6,40.6,0,0,0,80.55,496H280V480H191.294L256,465.294,320.7,480H296v16H431.448a40.622,40.622,0,0,0,37.072-57.073l22.01-7.337A8,8,0,0,0,496,424V400A8,8,0,0,0,491.578,392.845ZM304,119.37a21.717,21.717,0,0,0,16-21.2A22.233,22.233,0,0,0,314.021,82.9a21.31,21.31,0,0,0-2.4-2.179q.374-4.813.379-9.63a54,54,0,0,0-5.091-22.909A24.031,24.031,0,0,1,328,72v64a7.994,7.994,0,0,0,.845,3.578L331.056,144H328a24.028,24.028,0,0,1-24-24Zm-16-11.149c0,18.6-12.022,35.771-31.986,35.779-13.968.006-24.692-9.366-29.389-21.624A40.452,40.452,0,0,1,224,108.22V89.253c11.651-3.637,26-9.167,40.428-23.692A217.949,217.949,0,0,0,288,94.051Zm-9.72,75.589-1.418,7.086a21.275,21.275,0,0,1-41.724,0l-1.418-7.086A8,8,0,0,0,240,176V157.287a48.537,48.537,0,0,0,32,0V176A8,8,0,0,0,278.28,183.81ZM216.07,74.946q-.07-1.935-.07-3.854C216,49.536,233.944,32,256,32s40,17.536,40,39.092q0,3.913-.284,7.838c-16.389-17.716-22.921-30.177-23-30.326a8,8,0,0,0-13.344-1.373C244.182,66.059,229.3,70.972,216.07,74.946ZM205,230.247a8,8,0,0,0,2.895-4.932L214.777,184h2.664l2.007,10.035a37.276,37.276,0,0,0,73.1,0L294.559,184h2.664l6.885,41.315A8,8,0,0,0,307,230.247,32.983,32.983,0,0,1,309.023,280H202.977A32.983,32.983,0,0,1,205,230.247ZM352,376a7.985,7.985,0,0,0-1.941.239l-23.772,5.947-6.659-16.657-7.463-29.855,7.251-43.5c1-.914,1.958-1.869,2.874-2.854l5.839,32.116a8.006,8.006,0,0,0,1.725,3.69L372.254,376Zm28,16a4,4,0,0,1,4,4,4.086,4.086,0,0,1-4,4c-2.528,0-5.241-.324-7.578.845l-22.437,11.219-60.235-2.077,2.13-8.521a8,8,0,0,1,9.7-5.825l16.48,4.12a8.009,8.009,0,0,0,3.871,0l1.27-.316q.1-.022.2-.048l29.584-7.4Zm-83.761-54.06L301.754,360H264V328H248v32H210.246l5.515-22.06a8.026,8.026,0,0,0,.131-3.255L209.443,296h93.114l-6.449,38.685A8.026,8.026,0,0,0,296.239,337.94ZM182.146,325.121a8.006,8.006,0,0,0,1.725-3.69l5.839-32.116c.916.985,1.87,1.94,2.874,2.854l7.251,43.505-7.463,29.855-6.658,16.654-23.774-5.944A7.977,7.977,0,0,0,160,376H139.746Zm-67.423,80.907a20.13,20.13,0,0,0,7.513,7.41l-14.093.486ZM119.1,480H80.55A24.578,24.578,0,0,1,56,455.45v-.067c.007-.131.01-.262.01-.393v-.254a24.533,24.533,0,0,1,6.876-16.34c9.687-10.058,26.773-7.825,39.656-8.269l43.313-1.5L158.5,428.2l53.92,26.96a8,8,0,0,0,1.805.646l5.674,1.289Zm154.632-27.082-55.021-12.5-79.136-39.568A7.994,7.994,0,0,0,136,400h-4a4,4,0,0,1,0-8h27.016l31.044,7.761a8.009,8.009,0,0,0,3.88,0l16.478-4.119a8.009,8.009,0,0,1,9.7,5.821l4.119,16.477A8,8,0,0,0,231.725,424l46.564,1.606Zm2.623-55.337-2.96,11.842-35.1-1.21-2.658-10.631a24,24,0,0,0-29.1-17.462l-3.074.769L205.417,376H306.582l1.954,4.888-3.084-.771a24.008,24.008,0,0,0-29.094,17.464ZM431.448,480H392.9L289.362,456.47l5.054-30.313,137.864,4.754A24.552,24.552,0,0,1,431.448,480Zm-41.656-66.563a19.671,19.671,0,0,0,7.5-7.4l6.568,7.88Zm90.208,4.8-16,5.333-43.31-14.436L343.494,316.5l-9.166-50.418A49.39,49.39,0,0,0,335.38,256a48.715,48.715,0,0,0-15.967-36.186L313.444,184h12a24,24,0,0,1,23.586,19.574l19.111,101.9A8,8,0,0,0,369.6,308.8l48,64A8,8,0,0,0,424,376h32a8,8,0,0,0-3.578,15.155L480,404.944Z"/></g></svg>
