<svg id="Capa_1" enable-background="new 0 0 511.993 511.993" height="512" viewBox="0 0 511.993 511.993" width="512" xmlns="http://www.w3.org/2000/svg"><g><path d="m409.387 212.015 41.789-47.656c8.66-9.876 3.852-25.414-8.872-28.673l-19.789-5.068c-7.706-1.974-13.133-8.868-13.241-16.823l-.506-37.369c-.175-12.922-13.745-21.261-25.352-15.581l-28.588 13.991c-10.326 5.053-22.647-.981-24.986-12.236l-5.371-25.851c-2.643-12.72-17.678-18.298-27.978-10.38l-29.761 22.88c-6.329 4.866-15.14 4.866-21.469 0l-29.761-22.88c-10.3-7.918-25.335-2.34-27.978 10.38l-5.372 25.851c-2.339 11.256-14.659 17.29-24.985 12.236l-28.588-13.991c-11.607-5.681-25.177 2.659-25.352 15.581l-.507 37.369c-.108 7.954-5.534 14.849-13.241 16.823l-19.789 5.068c-12.724 3.259-17.532 18.797-8.872 28.673l41.789 47.656c3.344 3.814 8.17 6 13.242 6h280.297c5.072 0 9.897-2.187 13.241-6z" fill="#f6ee86"/><path d="m129.282 504.493c8.562-47.641 26.056-67.159 31.951-68.873 16.351-4.754 25.752-21.863 20.999-38.213-4.755-16.351-21.864-25.753-38.213-20.998-32.477 9.442-58.034 45.069-71.23 97.64-3.879 15.452 7.784 30.444 23.715 30.444z" fill="#ffd3bd"/><path d="m382.712 504.493c-8.561-47.641-26.056-67.159-31.951-68.873-16.351-4.754-25.752-21.863-20.999-38.213 4.755-16.351 21.864-25.753 38.214-20.998 32.477 9.442 58.034 45.069 71.23 97.64 3.879 15.452-7.784 30.444-23.715 30.444z" fill="#ffd3bd"/><path d="m387.696 504.493c-8.338-77.471-59.658-178.489-131.703-178.489-72.046 0-123.365 101.018-131.703 178.489z" fill="#d1c4e9"/><path d="m147.945 419.723c30.13 15.459 66.716 23.491 108.047 23.491s77.917-8.033 108.048-23.491c-23.209-51.1-61.254-93.718-108.047-93.718-46.795-.001-84.839 42.618-108.048 93.718z" fill="#b0ade2"/><ellipse cx="89.65" cy="277.492" fill="#ffd3bd" rx="47.737" ry="48.512"/><ellipse cx="422.344" cy="277.492" fill="#ffbe9d" rx="47.737" ry="48.512"/><ellipse cx="255.993" cy="270.244" fill="#ffd3bd" rx="166.343" ry="142.97"/><path d="m183.436 141.56c-55.514 23.165-93.787 72.082-93.787 128.684 0 78.96 53.756 142.97 166.343 142.97 13.929 0 26.953-.983 39.09-2.849-169.059-2.966-160.698-222.859-111.646-268.805z" fill="#ffbe9d"/><path d="m255.993 115.865c133.078 0 176.476 88.696 174.967 143.822-.359 13.121-16.442 19.261-25.288 9.562-21.263-23.313-49.302-64.861-56.877-78.846-14.633 7.316-76.671 9.755-92.803 9.755s-78.17-2.439-92.803-9.755c-7.575 13.984-35.614 55.533-56.877 78.846-8.846 9.698-24.929 3.559-25.288-9.562-1.508-55.125 41.891-143.822 174.969-143.822z" fill="#d2996f"/><g><path d="m354.038 200.224c3.635-1.774 5.206-6.088 3.561-9.784-7.802-17.537-27.512-38.466-44.975-44.822-19.65-7.152-42.669-.311-48.702 16.267s7.202 36.614 26.852 43.766c17.464 6.356 46.015 2.993 63.264-5.427z" fill="#6fcd90"/><path d="m157.955 200.224c-3.635-1.774-5.205-6.088-3.561-9.784 7.801-17.537 27.511-38.466 44.975-44.822 19.65-7.152 42.668-.311 48.702 16.267s-7.202 36.614-26.852 43.766c-17.463 6.356-46.014 2.993-63.264-5.427z" fill="#6fcd90"/><path d="m266.242 214.259c-5.915 5.008-14.576 5.008-20.49 0-13.703-11.603-25.537-30.292-25.537-44.185 0-17.292 16.02-33.243 35.782-33.243s35.783 15.952 35.783 33.243c0 13.893-11.835 32.582-25.538 44.185z" fill="#8de1ce"/><path d="m221.15 164.405c23.095-8.406 42.934-31.214 31.97-61.338-10.435-28.669-61.005-45.154-89.123-49.444-6.94-1.059-13.444 3.646-14.583 10.573-3.727 22.652-3.088 50.695 7.82 73.771 13.697 28.983 40.821 34.844 63.916 26.438z" fill="#f1b3c1"/><path d="m290.844 164.405c-23.095-8.406-42.934-31.214-31.97-61.338 10.435-28.669 61.005-45.154 89.123-49.444 6.94-1.059 13.444 3.646 14.583 10.573 3.727 22.652 3.088 50.695-7.82 73.771-13.698 28.983-40.821 34.844-63.916 26.438z" fill="#f1b3c1"/><path d="m255.997 167.92c24.578 0 51.021-19.12 51.021-60.964 0-35.5-23.139-75.64-41.679-95.415-5.06-5.397-13.623-5.397-18.683 0-18.54 19.775-41.679 59.915-41.679 95.415-.001 41.844 26.442 60.964 51.02 60.964z" fill="#f8d2e3"/></g><g><g fill="#eda1ab"><ellipse cx="182.74" cy="289.734" rx="27.03" ry="21.525"/><ellipse cx="329.253" cy="289.734" rx="27.03" ry="21.525"/></g></g><path d="m417.264 333.254c32.648 3.045 60.317-23.135 60.317-55.762 0-26.804-18.55-49.507-43.933-54.831-1.798-6.467-4.077-12.884-6.823-19.155l29.991-34.202c12.362-14.096 5.472-36.24-12.651-40.883l-19.789-5.068c-4.414-1.131-7.541-5.103-7.604-9.695l-.208-11.358c-.075-4.095-3.418-7.362-7.496-7.362-.047 0-.094 0-.14.001-4.142.076-7.438 3.495-7.361 7.637l.207 11.322c.154 11.316 7.917 21.18 18.88 23.987l19.789 5.068c7.321 1.875 10.08 10.776 5.094 16.462l-26.019 29.672c-12.97-22.454-31.867-41.226-55.077-54.727 8.131-21.182 8.498-43.297 7.061-59.334l15.21-7.443c5.348-2.615 10.937.02 13.254 4.077 2.055 3.598 6.636 4.849 10.232 2.794 3.597-2.054 4.848-6.635 2.794-10.231-6.557-11.484-20.998-15.928-32.874-10.112l-11.047 5.406c-3.192-8.99-12.465-14.792-22.205-13.306-3.975.606-8.099 1.398-12.283 2.343l-2.77-13.33c-3.765-18.119-25.191-26.102-39.893-14.801l-6.321 4.86c-5.103-7.563-10.234-14.013-14.79-18.872-8.013-8.547-21.611-8.549-29.626 0-4.556 4.859-9.688 11.309-14.79 18.872l-6.321-4.859c-14.671-11.281-36.12-3.356-39.893 14.8l-2.769 13.33c-4.184-.945-8.308-1.737-12.282-2.343-9.747-1.483-19.015 4.317-22.206 13.306l-11.047-5.406c-16.563-8.11-35.898 3.809-36.148 22.215l-.506 37.369c-.061 4.557-3.188 8.528-7.602 9.659l-19.79 5.068c-18.164 4.653-24.985 26.817-12.65 40.884l29.986 34.195c-2.748 6.275-5.028 12.695-6.827 19.164-25.379 5.327-43.925 28.027-43.925 54.829 0 32.659 27.699 58.799 60.309 55.763 7.183 16.341 17.383 30.884 30.432 43.234-27.007 15.758-47.957 49.19-59.639 95.734-2.374 9.456-.362 19.334 5.519 27.103 2.503 3.306 7.21 3.949 10.506 1.452 3.303-2.5 3.953-7.204 1.453-10.507-3.123-4.124-4.19-9.371-2.929-14.395 11.246-44.808 32.068-76.902 57.498-88.978 4.42 3.282 9.071 6.339 13.952 9.156-17.104 30.429-29.203 66.48-33.863 100.941h-6.921c-4.142 0-7.5 3.357-7.5 7.5s3.358 7.5 7.5 7.5h304.76c20.822 0 36.056-19.584 30.989-39.771-11.683-46.546-32.634-79.981-59.643-95.738 13.047-12.353 23.246-26.895 30.428-43.234zm12.435-56.28c5.278-3.99 8.57-10.198 8.758-17.082.184-6.72-.255-13.604-1.265-20.53 15.009 6.04 25.389 20.924 25.389 38.13 0 22.464-17.814 40.758-39.798 41 4.037-12.959 6.369-26.852 6.916-41.518zm-21.701-77.825c10.512 19.198 16.004 40.625 15.465 60.333-.175 6.39-7.963 9.413-12.249 4.714-16.465-18.053-36.151-46.067-47.349-63.426 2.212-3.976 2.583-8.891.586-13.38-3.808-8.559-10.062-17.699-17.638-25.93 4.195-3.808 7.909-8.342 11.081-13.544 21.368 12.659 38.609 30.24 50.104 51.233zm-57.249-5.665c-16.045 7.83-44.38 11.296-60.422 3.856 4.477-7.385 7.747-15.328 8.676-22.972 12.109 2.217 24.35.929 35.252-4.371 7.122 7.424 13.129 15.93 16.494 23.487zm-1.62-132.446c2.865-.435 5.582 1.525 6.051 4.376 4.197 25.513 1.573 50.789-7.2 69.349-11.991 25.368-34.1 28.868-51.801 23.51 11.996-12.443 18.338-30.184 18.338-51.316 0-11.566-2.244-23.357-5.845-34.726 12.824-5.13 27.496-9.216 40.457-11.193zm-48.065-28.724c5.924-4.553 14.542-1.367 16.064 5.96l2.933 14.118c-5.675 1.713-11.273 3.656-16.588 5.766-2.97-7.04-6.355-13.784-9.927-20.063zm-48.937-15.644c2.096-2.234 5.637-2.243 7.74.001 19.222 20.502 39.65 59.112 39.65 90.285 0 54.205-48.749 65.885-72.856 40.959-9.28-9.593-14.185-23.757-14.185-40.959 0-31.173 20.429-69.783 39.651-90.286zm9.268 191.865c-3.127 2.648-7.668 2.649-10.797 0-10.202-8.639-23.028-25.942-22.871-38.703.721-.315 1.437-.643 2.149-.984 16.474 8.751 35.751 8.761 52.242 0 .712.341 1.428.669 2.149.984.158 12.817-12.602 30.008-22.872 38.703zm-66.529-170.261c1.534-7.387 10.203-10.469 16.063-5.959l7.519 5.781c-3.573 6.279-6.957 13.023-9.927 20.063-5.316-2.111-10.913-4.053-16.588-5.767zm-38.053 27.14c.469-2.851 3.182-4.81 6.052-4.376 12.961 1.977 27.632 6.063 40.455 11.192-3.6 11.369-5.845 23.16-5.845 34.726 0 21.132 6.342 38.873 18.337 51.316-17.702 5.358-39.81 1.859-51.801-23.51-8.77-18.559-11.395-43.835-7.198-69.348zm64.854 131.926c-16.088 7.458-44.415 3.958-60.421-3.852 3.364-7.561 9.371-16.068 16.493-23.49 10.881 5.289 23.119 6.593 35.252 4.371.929 7.643 4.199 15.586 8.676 22.971zm-155.21-37.926c-4.983-5.681-2.234-14.586 5.094-16.462l19.79-5.068c10.962-2.808 18.725-12.672 18.879-23.987l.506-37.369c.101-7.432 7.871-12.215 14.556-8.945l15.21 7.443c-1.437 16.036-1.07 38.15 7.06 59.33-23.211 13.5-42.109 32.271-55.081 54.726zm-17.045 118.078c0-17.2 10.376-32.072 25.379-38.113-1.008 6.921-1.447 13.799-1.263 20.514.188 6.883 3.48 13.092 8.758 17.082.547 14.665 2.879 28.558 6.916 41.518-21.98-.247-39.79-18.54-39.79-41.001zm39.11-18.01c-1.107-40.439 21.831-85.656 65.574-111.57 3.172 5.202 6.886 9.737 11.081 13.546-7.575 8.23-13.827 17.372-17.635 25.934-1.995 4.485-1.625 9.397.583 13.371-11.197 17.359-30.884 45.377-47.352 63.434-4.295 4.704-12.076 1.668-12.251-4.715zm44.282 237.511c4.628-31.872 16.265-66.052 32.064-94.079 25.682 11.72 56.471 17.8 91.125 17.8 34.653 0 65.442-6.079 91.124-17.8 15.799 28.027 27.43 62.206 32.058 94.079zm299.126-21.118c2.689 10.712-5.383 21.118-16.44 21.118h-21.182c-4.66-34.463-16.735-70.507-33.84-100.938 4.883-2.819 9.537-5.876 13.959-9.161 25.432 12.074 46.255 44.169 57.503 88.981zm-56.496-109.248c-27.696 25.57-68.998 39.087-119.441 39.087s-91.746-13.517-119.441-39.087c-23.246-21.463-36.624-50.777-39.001-85.181 5.358-.44 10.424-2.888 14.304-7.142 16.897-18.525 36.945-46.976 48.526-64.872 18.333 7.078 45 9.966 63.402 3.266 2.333-.849 4.602-1.886 6.81-3.061 3.333 3.904 6.855 7.418 10.312 10.345 8.743 7.405 21.439 7.405 30.183 0 3.456-2.926 6.979-6.44 10.311-10.343 2.207 1.175 4.477 2.21 6.81 3.059 18.402 6.697 45.061 3.813 63.398-3.264 11.582 17.896 31.631 46.346 48.525 64.869 3.879 4.253 8.943 6.701 14.3 7.142-2.377 34.404-15.752 63.719-38.998 85.182zm-119.437-97.459c-5.955 0-10.783 5.149-10.783 11.5 0 6.352 4.828 11.5 10.783 11.5 5.956 0 10.783-5.149 10.783-11.5s-4.828-11.5-10.783-11.5zm76.377-13.19c-3.122-2.723-7.86-2.397-10.582.726-2.095 2.403-5.117 3.781-8.292 3.781-3.176 0-6.198-1.378-8.293-3.781-2.722-3.124-7.46-3.448-10.582-.726-3.123 2.721-3.448 7.459-.726 10.581 4.944 5.673 12.088 8.926 19.601 8.926 7.512 0 14.656-3.253 19.6-8.926 2.722-3.122 2.397-7.861-.726-10.581zm-115.006 0c-3.123-2.723-7.86-2.397-10.581.726-2.095 2.403-5.117 3.781-8.293 3.781-3.175 0-6.198-1.378-8.292-3.781-2.722-3.124-7.46-3.448-10.582-.726-3.123 2.721-3.448 7.459-.726 10.581 4.944 5.673 12.088 8.926 19.6 8.926s14.657-3.253 19.601-8.926c2.721-3.122 2.396-7.861-.727-10.581z"/></g></svg>