<svg id="Layer_1" enable-background="new 0 0 512 512" height="512" viewBox="0 0 512 512" width="512" xmlns="http://www.w3.org/2000/svg"><g id="Filled_outline"><path d="m335.5 329.9-63.8 73.6-4.7 5.4-27 31.1v24l10.5 5.3c3.3 1.7 5.5 5.1 5.5 8.8 0 5.5-4.4 9.9-9.9 9.9h-30.1l-16-48 41.1-56 46.9-64h-95.8c-22.2 0-40.2-18-40.2-40.2 0-5.1 1-10.2 2.9-15l3.5-8.8 9.6-24v-67.3c0-4.2.3-8.4 1-12.5s1.7-8.2 3-12.2c1.3-3.9 2.3-7.9 3-12 .7-4.2 1-8.4 1-12.7v-62.7c0-15.6 12.8-28.8 28.4-28.6 15.3.2 27.6 12.7 27.6 28v4l8 16-8 4v12c0 4.4-3.6 8-8 8h-16v28.2c0 2.4.8 4.8 2.4 6.7l17.8 22.3 6.4 8c8.5 10.7 6.8 26.3-3.9 34.8-1.4 1.1-2.8 2-4.4 2.8l-2.3 1.2-8 32v40h92.4c17.5 0 32.7 12.6 35.2 29.9 1.5 10-1.5 20.3-8.1 28z" fill="#fec093"/><path d="m238.6 168.5c-.9-2.6-2.3-5.1-4-7.3l-6.4-8c-19.5-.5-32.4-6.5-40.5-12.5-2.5-1.9-5.7-2.6-8.9-2-4.4.8-7.8 4.2-8.8 8.5-.4 1.6-.7 3.3-1 5-.7 4.1-1 8.3-1 12.5v35.3h56l2.3-1.1c11.2-5.6 16.4-18.6 12.3-30.4z" fill="#c378cb"/><path d="m360 136h-124c-7.9 0-15.8-1.3-23.4-3.8l-1.2-.4c-7.5-2.5-15.4-3.8-23.4-3.8-11 0-20 9-20 20 0 11 9 20 20 20h84l88-8 24 4 24-4v-24z" fill="#fec9a3"/><path d="m168 40h-32c-13.3 0-24 10.7-24 24v56h8c13.3 0 24-10.7 24-24v-32l24-8z" fill="#6e3c26"/><path d="m185.6 75.2-6.1-6.1c-3.8-3.8-3.8-10.1 0-13.9 3-3 7.6-3.7 11.4-1.8l2.1 1.1 21.5-28.5c-3.3-1.3-6.9-2-10.5-2h-12.7c-.5 0-1 0-1.5 0-20.9.8-36.3 19.8-33.7 40.6l.2 1.1c2.4 14.5 9.3 27.9 19.7 38.3z" fill="#6e3c26"/><path d="m335.5 329.9-63.8 73.6-30.6-19.5 46.9-64h-95.8c-22.2 0-40.2-18-40.2-40.2 0-5.1 1-10.2 2.9-15l3.5-8.8h57.6v16h92.4c17.5 0 32.7 12.6 35.2 29.9 1.5 10-1.5 20.3-8.1 28z" fill="#bc4598"/><path d="m112 128h8c17.7 0 32-14.3 32-32v-15.2c3.5 9.8 9 18.7 16 26.4 0 0-.3 15.7-.9 19.5-.2 1.2-.4 2.4-.7 3.5-9.8 11.9-8.1 29.6 3.8 39.4 5 4.1 11.3 6.4 17.8 6.4h44v.7c0 6.4-3.6 12.2-9.3 15l-.6.3h-46.1v-11h-16v49.5l-12.6 31.4c-9.9 24.7 2.1 52.8 26.9 62.7 5.7 2.3 11.8 3.4 17.9 3.4h80l-73.8 100.6c-4.6 6.3-5.9 14.4-3.4 21.8l13.4 40.2c1.1 3.3 4.1 5.5 7.6 5.5h30.1c9.9 0 17.9-8 17.9-17.9 0-6.8-3.8-13-9.9-16l-6.1-3.1v-16.1l29.7-34.2 19.3-21.4-11.9-10.7-14.8 16.4-17.7-11.2 41.9-57.1c2.6-3.6 1.8-8.6-1.7-11.2-1.4-1-3-1.5-4.7-1.5h-95.8c-17.8 0-32.2-14.4-32.2-32.2 0-4.1.8-8.2 2.3-12l1.5-3.8h44.1v8c0 4.4 3.6 8 8 8h92.4c13.6 0 25.4 9.9 27.3 23 1.1 7.8-1.2 15.7-6.3 21.6l-31.4 36.2 12.1 10.5 31.5-36.3c8.2-9.5 11.9-22 10-34.4-3.1-20.9-21.6-36.7-43.1-36.7h-84.5v-31l6.9-27.5c10.6-5.7 17.2-16.8 17.1-28.8 0-.2 0-.5 0-.7h24 .7l87-7.9 23 3.8c.9.1 1.8.1 2.6 0l24-4c3.9-.6 6.7-4 6.7-7.9v-24c0-4.4-3.6-8-8-8h-172c-6.8 0-13.5-1.1-20-3.1v-20.9h16c4.4 0 8-3.6 8-8v-12.7l5.7-5.7c2.4-2.4 3-6.2 1.5-9.2l-7.2-14.3v-2.1c0-9.6-3.8-18.7-10.6-25.5-12.2-12.3-35.1-13-51-8.6-13 3.6-20.5 13.9-20.7 14.1h-21.7c-17.7 0-32 14.3-32 32v56c0 4.4 3.6 8 8 8zm147.6 277.2-25.6 29.6c-1.3 1.5-2 3.3-2 5.2v24c0 3 1.7 5.8 4.4 7.2l10.5 5.3c.9.5 1.3 1.6.8 2.5-.3.6-1 1-1.7 1h-24.3l-11.6-34.7c-.8-2.5-.4-5.2 1.1-7.3l31.8-43.3zm-51.4-175.1c-.2.6-.2 1.3-.2 1.9v16h-37.8l5.2-13c.4-.9.6-2 .6-3v-24h37.8zm27.8-86.1h164v9.2l-16 2.7-22.7-3.8c-.7-.1-1.4-.1-2-.1l-87.6 8h-83.7c-6.6 0-12-5.4-12-12s5.4-12 12-12c16.4 0 31.5 8 48 8zm-17.9-106.1c3.8 3.7 5.9 8.8 5.9 14.1 0 7.1 3.2 12.2 6.3 18.4l-3.9 3.9c-1.5 1.5-2.3 3.5-2.3 5.7v8h-16c-4.4 0-8 3.6-8 8v24.9c0-.9-16.1-1.2-16.2-.6.1-1.7.2-15 .2-15l9.2-27.6c1-2.9.2-6-1.9-8.2l-6.1-6.1c-.5-.5-.6-1.1-.5-1.7.3-1 1.2-1.6 2.2-1.3.1 0 .3.1.4.1l2.1 1.1c3.5 1.8 7.7.8 10.1-2.3l17.1-22.8c.5.4 1 .9 1.4 1.4zm-47.5 3.8c7.7-9.1 18.4-9.7 29.4-9.7l-9.6 12.8c-9.6-2.2-19.2 3.9-21.3 13.5-1.3 6 .5 12.2 4.8 16.5l2.6 2.6-3.5 10.2c-4.5-7.1-7.5-15-8.9-23.2l-.1-.9c-.9-7.9 1.4-15.8 6.6-21.8zm-50.6 22.3c0-8.8 7.2-16 16-16h13.5c-.6 2-1 4.1-1.3 6.2l-6.7 2.2c-3.3 1.1-5.5 4.1-5.5 7.6v32c0 8.8-7.2 16-16 16z"/></g></svg>