<?xml version="1.0"?>
<svg xmlns="http://www.w3.org/2000/svg" viewBox="0 0 512 512" width="512" height="512"><g id="Filled_outline" data-name="Filled outline"><path d="M14.667,336.333v53.334L8,403l17.208-5.736A33.333,33.333,0,0,0,48,365.641V303h0A33.333,33.333,0,0,0,14.667,336.333Z" style="fill:#6e3c26"/><path d="M105.39,299.927c-20.032,4.22-39.952,6.659-39.952,6.659-13.93,2.839-29.076-8.9-31.915-22.832a25.732,25.732,0,0,1,20.085-30.365l6.456-.972L72.1,240l6.658,6.659H94.731a4,4,0,0,1,4,4v15.975H152v33.293Z" style="fill:#feb784"/><path d="M83.005,290.922l-4.35,6.579a9.035,9.035,0,0,1-16.236-7.421l.6-2.124L33.427,273.941c-3.068,11.932-2.606,31.786,15.962,42.239,26.137,14.715,53.99-18.94,53.99-18.94Z" style="fill:#6e3c26"/><path d="M272,240l-32,72-23.53-11.76L208,296l-18.44,18.44a33.3,33.3,0,0,1-43.51,3.1L128,304V208l8-56V80L120.46,48.91a4.309,4.309,0,0,1,5.78-5.79L136,48V32a8,8,0,0,1,8-8h16a8,8,0,0,1,8,8V216l24,24Z" style="fill:#feb784"/><path d="M472,488H425.889A9.888,9.888,0,0,1,416,478.111h0a9.888,9.888,0,0,1,5.466-8.844L432,464l-37.65-42.35L304,320l-56,56-48,24-32,40-32,16L88,488H49.3a9.3,9.3,0,0,1-9.3-9.3h0a9.3,9.3,0,0,1,6.358-8.821L64,464l48-41.45L240,312l32-72h.5a89.8,89.8,0,0,1,80.32,49.64L360,304l40,64,24,24,28.8,38.4A96,96,0,0,1,472,488Z" style="fill:#feb784"/><path d="M424,392l-29.65,29.65L304,320l-56,56-48,24-32,40-32,16-24-32v-1.45L240,312l32-72h.5a89.8,89.8,0,0,1,80.32,49.64L360,304l40,64Z" style="fill:#b53f92"/><path d="M128,304v32l8,56v72l-17.642,5.881A9.3,9.3,0,0,0,121.3,488H168V304Z" style="fill:#feb784"/><path d="M216.47,300.24,208,296l-18.44,18.44a33.3,33.3,0,0,1-43.51,3.1L128,304s32,0,32-24-32-24-32-24v-8c16,0,32,0,56-16l8,8h24v56Z" style="fill:#c378cb"/><path d="M56,365.64V327.223a38.849,38.849,0,0,0,8.618.97c19.816,0,37.538-14.358,43.988-20.263H120V336a8.087,8.087,0,0,0,.08,1.132L128,392.568v5.591L59.969,456.911l-16.142,5.38A17.3,17.3,0,0,0,49.3,496H88a8.005,8.005,0,0,0,4.438-1.344l13.138-8.759A17.23,17.23,0,0,0,121.3,496H168a8,8,0,0,0,8-8V377.841c5.988-5.172,69.927-59.506,71.956-64.045.73-1.631,28.759-65.689,29.185-65.665a81.806,81.806,0,0,1,68.524,45.086c13.726,27.453,31.3,53.017,47.551,79.023a8.022,8.022,0,0,0,1.127,1.417L412.686,392,394.7,409.99,312,316.958V288H296v28.686L292.686,320H264v16h12.686l-33.425,33.425-46.839,23.42A8.012,8.012,0,0,0,193.753,395l-13.122,16.4,12.494,10,12.024-15.031,46.429-23.214a7.986,7.986,0,0,0,2.079-1.5l50-50L419.085,461.513l-1.2.6a17.889,17.889,0,0,0,8,33.888H472a8,8,0,0,0,8-8,104.648,104.648,0,0,0-20.8-62.4l-28.8-38.4a7.87,7.87,0,0,0-.743-.857L406.3,362.987c-12.289-19.662-25.345-38.856-36.852-59-10.634-18.613-18.651-36.794-35.85-50.554A98.814,98.814,0,0,0,272.5,232H195.313L176,212.687V32a16.019,16.019,0,0,0-16-16H144a16.019,16.019,0,0,0-16,16v3.228A12.319,12.319,0,0,0,112,46.98a12.39,12.39,0,0,0,1.3,5.507l14.7,29.4v69.544l-7.92,55.436A7.938,7.938,0,0,0,120,208v50.63H106.73V246.66a8,8,0,0,0-8-8H82.073l-4.316-4.317A8,8,0,0,0,72.1,232h-.063a8.006,8.006,0,0,0-5.682,2.432L56.2,244.911l-3.776.568c-.133.019-.266.042-.4.07a33.589,33.589,0,0,0-21.44,14.467c-6.088,9.26-7.613,21.451-6.052,32.258a44.13,44.13,0,0,0,4.587,14.347C30.473,309.176,40,317.951,40,319.533V365.64a25.281,25.281,0,0,1-17.33,24.03V336.33A25.232,25.232,0,0,1,26.8,322.461l-13.383-8.77A41.194,41.194,0,0,0,6.67,336.33v51.45L.846,399.42a8,8,0,0,0,9.685,11.169l17.2-5.738A41.263,41.263,0,0,0,56,365.64ZM446.4,435.2a88.623,88.623,0,0,1,17.23,44.8h-37.74a1.889,1.889,0,0,1-.846-3.578l10.534-5.267a8,8,0,0,0,2.4-12.469L405.344,421.97l17.791-17.79ZM128,419.3V432l-5.781-7.708ZM85.578,480H49.3a1.3,1.3,0,0,1-.41-2.529L66.53,471.59a8.031,8.031,0,0,0,2.7-1.535l40.852-35.281,14.445,19.261ZM160,480H121.3a1.286,1.286,0,0,1-1.3-1.3,1.3,1.3,0,0,1,.891-1.23l17.639-5.88A8,8,0,0,0,144,464V392a8.087,8.087,0,0,0-.08-1.132L136,335.432V320l5.253,3.94a41.3,41.3,0,0,0,18.747,7.8Zm64-232h35.689L250.9,267.786,236.089,301.1,224,295.056Zm1.689,65.789L176,356.7V330.95c1.032-.257,2.06-.541,3.076-.879a41.469,41.469,0,0,0,16.141-9.973l14.363-14.364Zm-42.827-71.613,3.481,3.481A8,8,0,0,0,192,248h16v40a7.992,7.992,0,0,0-5.657,2.338L183.9,308.783a25.357,25.357,0,0,1-9.874,6.1,25.408,25.408,0,0,1-23.177-3.747l-3.713-2.786C160.59,303.192,168,293.139,168,280c0-12.92-6.822-20.98-15.337-25.783C161.547,252.472,171.437,249.009,182.862,242.176ZM140.206,54.806A8,8,0,0,0,144,48V32h16V216a8,8,0,0,0,2.343,5.657l8.8,8.8A72.158,72.158,0,0,1,136,239.918v-31.35l7.92-55.436A8.087,8.087,0,0,0,144,152V80a8.006,8.006,0,0,0-.844-3.577l-10.6-21.2A8,8,0,0,0,140.206,54.806ZM43.932,268.84a17.666,17.666,0,0,1,11.086-7.572c8.14-1.736,11.263-3.772,17.17-9.866l.915.915a8,8,0,0,0,5.657,2.343H90.73v11.97a8,8,0,0,0,8,8H128a8,8,0,0,0,8-8v-1.639a37.151,37.151,0,0,1,5.191,1.5C150.88,270.124,152,275.94,152,280c0,4-1.088,9.744-10.5,13.391a38.3,38.3,0,0,1-6.985,1.911A7.985,7.985,0,0,0,128,291.93H106.939L85.991,283.5a8,8,0,0,0-9.66,3.01l-4.349,6.578a1.048,1.048,0,0,1-.915.463,1.036,1.036,0,0,1-.946-1.311l.6-2.123a8,8,0,0,0-4.278-9.39L43.368,269.8C43.552,269.476,43.727,269.151,43.932,268.84Zm-3.96,17.053,14.1,6.681a17.04,17.04,0,0,0,31.252,9.339l.748-1.132,3.944,1.588a71.19,71.19,0,0,1-6.685,4.193c-11.655,6.411-21.758,7.3-30.023,2.648C42.614,303.187,40.059,293.515,39.972,285.893Z"/></g></svg>
