<svg id="Capa_1" enable-background="new 0 0 510 510" height="512" viewBox="0 0 510 510" width="512" xmlns="http://www.w3.org/2000/svg"><g><g id="XMLID_1597_"><g id="XMLID_1641_"><path id="XMLID_1598_" d="m300 405-15 15-15-15c0-10.5 0-19.5 0-30l15-15 15 15z" fill="#ece6f2"/></g><g id="XMLID_1620_"><path id="XMLID_1593_" d="m210 405-15 15-15-15c0-10.5 0-19.5 0-30l15-15 15 15z" fill="#fff5f5"/></g><g id="XMLID_1595_"><path id="XMLID_1672_" d="m150 480c-20.2 0-63.2 0-75 0 0-10.5 0-19.5 0-30h75l15 15z" fill="#fff5f5"/></g><path id="XMLID_1689_" d="m435 360c-33.1 0-60 26.9-60 60h30c0-16.5 13.5-30 30-30s30 13.5 30 30-13.5 30-30 30c-28.3 0-88.5 0-105 0l-15 15 15 15h105c33.1 0 60-26.9 60-60s-26.9-60-60-60z" fill="#ece6f2"/><path id="XMLID_1754_" d="m150 405v75l45 15 45-15 15-37.5-15-37.5c-10.9 0-79 0-90 0z" fill="#4793ff"/><path id="XMLID_1681_" d="m240 0 47.7 375h57.3l1.1-6.2 1.1-6.2c4.5-25.3 15.7-48.8 31.8-68.2 26.5-32.1 41-72.7 41-114.4 0-99.9-80.9-180-180-180z" fill="#ca2e43"/><path id="XMLID_1688_" d="m60 178.7c-.3 42.1 14.2 83.2 41 115.7 16 19.4 27.3 42.9 31.8 68.2l1.1 6.2 1.1 6.2h57.3l47.7-375c-97.7 0-179.3 79-180 178.7z" fill="#ff3f5c"/><path id="XMLID_1755_" d="m168.3 234.5c7 57.3 19 62.3 23.2 126.5.3 4.9.6 9.1.9 14h47.7l15-187.5-15.1-187.5c-58.8.1-84.5 130.4-71.7 234.5z" fill="#ffd845"/><path id="XMLID_1748_" d="m330 405c-10.9 0-79 0-90 0v75l45 15 45-15c0-20.2 0-63.2 0-75z" fill="#525cdd"/><path id="XMLID_1591_" d="m150 480v30h90l15-15-15-15c-10.9 0-79 0-90 0z" fill="#00366d"/><path id="XMLID_1679_" d="m330 480c-10.9 0-79 0-90 0v30h90c0-10.5 0-19.5 0-30z" fill="#01223c"/><path id="XMLID_1750_" d="m287.7 375c.3-4.9.6-9.1.9-14 4.1-64.2 16.2-69.5 23.1-125.9 12-96.9-10.1-235.2-71.7-235.1v375z" fill="#ffa951"/></g><path d="m15 450h30v30h-30z" fill="#fff5f5"/></g></svg>