<?xml version="1.0" encoding="iso-8859-1"?>
<!-- Generator: Adobe Illustrator 19.0.0, SVG Export Plug-In . SVG Version: 6.00 Build 0)  -->
<svg version="1.1" id="Capa_1" xmlns="http://www.w3.org/2000/svg" xmlns:xlink="http://www.w3.org/1999/xlink" x="0px" y="0px"
	 viewBox="0 0 511.994 511.994" style="enable-background:new 0 0 511.994 511.994;" xml:space="preserve">
<path style="fill:#DAE5EF;" d="M448.461,224.592l63.056,222.864c1.6,5.664-0.928,10.656-6.4,12.288l-158.8,47.728
	c-2.576,0.704-5.36,0.704-8.048,0l-150.784-43.184l-172.416,47.12c-9.92,2.688-17.2-4.208-14.496-13.744l69.488-245.6
	c0.96-3.392,4.784-6.304,9.536-7.248l125.792-25.024c1.856-0.336,3.776-0.336,5.584,0l108.944,22.432l114-24.304
	C439.901,216.656,447.165,220,448.461,224.592z"/>
<g>
	<polygon style="fill:#3E4347;" points="189.709,438.624 32.381,480.288 88.829,257.52 207.053,233.488 	"/>
	<polygon style="fill:#3E4347;" points="483.261,438.624 340.013,480.288 321.213,257.52 431.309,233.488 	"/>
</g>
<polygon style="fill:#5A5F63;" points="189.709,438.624 340.013,480.288 321.213,257.52 207.053,233.488 "/>
<g>
	<polygon style="fill:#9A795F;" points="122.365,366.64 131.277,454.096 189.709,438.624 197.901,341.664 	"/>
	<polygon style="fill:#9A795F;" points="138.861,352.16 198.669,332.592 201.165,303.136 	"/>
	<polygon style="fill:#9A795F;" points="158.957,325.536 78.061,300.016 58.173,378.544 114.301,360.192 	"/>
</g>
<polygon style="fill:#E9B02C;" points="202.093,292.08 207.053,233.488 88.829,257.52 80.093,292 167.197,319.152 "/>
<polygon style="fill:#7FB239;" points="55.581,388.736 32.381,480.288 119.485,457.216 111.805,370.144 "/>
<g>
	<polygon style="fill:#9A795F;" points="427.693,362.592 455.645,329.6 438.989,263.856 392.861,304.656 	"/>
	<polygon style="fill:#9A795F;" points="470.221,387.12 458.813,342.128 435.357,370.4 	"/>
</g>
<g>
	<polygon style="fill:#F4C534;" points="344.253,347.616 417.837,364.672 386.077,310.64 	"/>
	<polygon style="fill:#F4C534;" points="332.557,344.912 377.517,305.824 324.541,297.04 328.493,343.968 	"/>
</g>
<polygon style="fill:#7FB239;" points="336.349,354.608 329.885,360.336 340.013,480.288 483.261,438.624 473.101,398.48 
	426.077,375.648 "/>
<polygon style="fill:#F4C534;" points="384.877,299.424 436.605,254.432 431.309,233.488 321.197,257.52 323.901,289.408 "/>
<g>
	<polygon style="fill:#8CC63E;" points="323.901,289.408 321.197,257.52 272.237,247.216 236.781,275.104 	"/>
	<polygon style="fill:#8CC63E;" points="262.557,245.168 207.053,233.488 202.093,292.08 	"/>
	<path style="fill:#8CC63E;" d="M201.165,303.136l-2.496,29.456l31.872-10.416c1.04-0.352,2.192-0.4,3.264-0.16l94.688,21.952
		l-3.952-46.928l-95.504-15.84L201.165,303.136z"/>
</g>
<polygon style="fill:#A5856D;" points="256.797,424.944 251.805,455.84 340.013,480.288 329.885,360.336 "/>
<polygon style="fill:#E9B02C;" points="270.637,339.2 259.453,408.48 324.589,351.84 "/>
<polygon style="fill:#8CC63E;" points="232.413,330.24 197.901,341.664 189.709,438.624 240.493,452.704 260.733,336.88 "/>
<g>
	<path style="fill:#E24B4B;" d="M384.221,0c-61.168,0-110.784,49.616-110.784,110.784c0,48.656,69.792,143.04,98.576,179.92
		c6.224,7.968,18.192,7.968,24.4,0c28.8-36.88,98.592-131.264,98.592-179.92C495.005,49.616,445.405,0,384.221,0z M384.221,154.544
		c-24.16,0-43.744-19.6-43.744-43.632c0-24.16,19.6-43.872,43.744-43.872c24.16,0,43.76,19.712,43.76,43.872
		C427.981,134.944,408.381,154.544,384.221,154.544z"/>
	<path style="fill:#E24B4B;" d="M384.221,0c-61.168,0-110.784,49.616-110.784,110.784c0,61.296,110.784,195.2,110.784,195.2
		s110.784-133.904,110.784-195.2C495.005,49.616,445.405,0,384.221,0z M384.221,154.544c-24.16,0-43.744-19.6-43.744-43.632
		c0-24.16,19.6-43.872,43.744-43.872c24.16,0,43.76,19.712,43.76,43.872C427.981,134.944,408.381,154.544,384.221,154.544z"/>
</g>
<path style="fill:#3E4347;" d="M441.005,110.896c0-31.36-25.44-56.816-56.816-56.816c-31.36,0-56.672,25.456-56.672,56.816
	c0,31.232,25.312,56.672,56.672,56.672C415.565,167.568,441.005,142.128,441.005,110.896z M384.237,141.216
	c-16.8,0-30.432-13.632-30.432-30.352c0-16.8,13.632-30.512,30.432-30.512c16.8,0,30.432,13.712,30.432,30.512
	C414.669,127.6,401.037,141.216,384.237,141.216z"/>
<path style="fill:#D03F3F;" d="M444.493,17.92c7.536,18.176,11.552,37.664,11.552,58.192c0,73.376-52.336,135.6-125.328,158.192
	C357.869,274.048,384.221,306,384.221,306s110.784-133.904,110.784-195.2C495.005,71.824,474.877,37.536,444.493,17.92z"/>
<g style="opacity:0.1;">
	<path style="fill:#FFFFFF;" d="M390.381,32.592c-2.544,6.528-23.424,5.648-41.664,16.208c-18.912,9.296-29.856,27.2-36.656,25.68
		c-7.232-0.576-5.024-32.32,24.672-48.336C366.541,10.32,393.965,26.24,390.381,32.592z"/>
</g>
<path style="opacity:0.15;fill:#FFFFFF;enable-background:new    ;" d="M384.221,141.184c-16.752,0-30.384-13.632-30.384-30.256
	c0-16.88,13.632-30.528,30.384-30.528c13.792,0,25.328,9.296,29.04,21.968c7.952-19.584,12.416-40.96,12.416-63.408
	c0-10.96-1.136-21.632-3.12-32.016C410.589,2.528,397.725,0,384.221,0c-61.168,0-110.784,49.616-110.784,110.784
	c0,23.024,15.632,56.304,35.152,88.864c33.6-10.816,62.48-31.92,83.216-59.552C389.373,140.736,386.861,141.184,384.221,141.184z"/>
<g>
	<path style="fill:#E24B4B;" d="M135.021,144.48c-27.088,0-49.056,21.968-49.056,49.056c0,21.536,30.896,63.328,43.648,79.664
		c2.752,3.52,8.048,3.52,10.8,0c12.752-16.32,43.648-58.112,43.648-79.664C184.077,166.432,162.109,144.48,135.021,144.48z
		 M135.021,212.896c-10.688,0-19.376-8.672-19.376-19.328c0-10.688,8.672-19.424,19.376-19.424c10.704,0,19.376,8.736,19.376,19.424
		C154.397,204.208,145.725,212.896,135.021,212.896z"/>
	<path style="fill:#E24B4B;" d="M135.021,144.48c-27.088,0-49.056,21.968-49.056,49.056c0,27.136,49.056,86.432,49.056,86.432
		s49.04-59.28,49.04-86.432C184.077,166.432,162.109,144.48,135.021,144.48z M135.021,212.896c-10.688,0-19.376-8.672-19.376-19.328
		c0-10.688,8.672-19.424,19.376-19.424c10.704,0,19.376,8.736,19.376,19.424C154.397,204.208,145.725,212.896,135.021,212.896z"/>
</g>
<path style="fill:#3E4347;" d="M160.173,193.568c0-13.888-11.264-25.152-25.152-25.152s-25.088,11.264-25.088,25.152
	c0,13.824,11.2,25.088,25.088,25.088C148.909,218.656,160.173,207.392,160.173,193.568z M135.037,206.992
	c-7.44,0-13.472-6.032-13.472-13.44c0-7.44,6.032-13.504,13.472-13.504c7.44,0,13.472,6.064,13.472,13.504
	C148.509,200.96,142.477,206.992,135.037,206.992z"/>
<path style="fill:#D03F3F;" d="M161.709,152.4c3.328,8.048,5.12,16.672,5.12,25.76c0,32.496-23.168,60.032-55.488,70.032
	c12.016,17.6,23.696,31.744,23.696,31.744s49.04-59.28,49.04-86.432C184.077,176.272,175.165,161.088,161.709,152.4z"/>
<g style="opacity:0.1;">
	<path style="fill:#FFFFFF;" d="M137.757,158.896c-1.136,2.88-10.368,2.496-18.448,7.168c-8.368,4.112-13.216,12.048-16.224,11.36
		c-3.2-0.256-2.224-14.304,10.928-21.392C127.197,149.04,139.341,156.096,137.757,158.896z"/>
</g>
<path style="opacity:0.15;fill:#FFFFFF;enable-background:new    ;" d="M135.021,206.976c-7.424,0-13.456-6.032-13.456-13.392
	c0-7.472,6.032-13.52,13.456-13.52c6.096,0,11.216,4.112,12.848,9.728c3.52-8.672,5.504-18.128,5.504-28.064
	c0-4.848-0.496-9.584-1.392-14.176c-5.28-1.952-10.976-3.072-16.96-3.072c-27.088,0-49.056,21.968-49.056,49.056
	c0,10.192,6.928,24.928,15.568,39.344c14.88-4.784,27.664-14.128,36.848-26.368C137.309,206.784,136.189,206.976,135.021,206.976z"
	/>
<g>
	<path style="fill:#E24B4B;" d="M225.229,297.088c-27.088,0-49.056,21.968-49.056,49.056c0,21.536,30.896,63.328,43.648,79.664
		c2.752,3.52,8.048,3.52,10.8,0c12.752-16.32,43.648-58.112,43.648-79.664C274.269,319.056,252.301,297.088,225.229,297.088z
		 M225.229,365.504c-10.688,0-19.376-8.672-19.376-19.328c0-10.688,8.672-19.424,19.376-19.424s19.376,8.736,19.376,19.424
		C244.589,356.832,235.917,365.504,225.229,365.504z"/>
	<path style="fill:#E24B4B;" d="M225.229,297.088c-27.088,0-49.056,21.968-49.056,49.056c0,27.136,49.056,86.432,49.056,86.432
		s49.04-59.28,49.04-86.432C274.269,319.056,252.301,297.088,225.229,297.088z M225.229,365.504
		c-10.688,0-19.376-8.672-19.376-19.328c0-10.688,8.672-19.424,19.376-19.424s19.376,8.736,19.376,19.424
		C244.589,356.832,235.917,365.504,225.229,365.504z"/>
</g>
<path style="fill:#3E4347;" d="M250.365,346.192c0-13.888-11.264-25.152-25.152-25.152s-25.088,11.264-25.088,25.152
	c0,13.824,11.2,25.088,25.088,25.088S250.365,360.016,250.365,346.192z M225.229,359.616c-7.44,0-13.472-6.032-13.472-13.44
	c0-7.44,6.032-13.504,13.472-13.504s13.472,6.064,13.472,13.504C238.701,353.584,232.669,359.616,225.229,359.616z"/>
<path style="fill:#D03F3F;" d="M251.901,305.024c3.328,8.048,5.12,16.672,5.12,25.76c0,32.48-23.168,60.032-55.488,70.032
	c12.016,17.6,23.696,31.744,23.696,31.744s49.04-59.28,49.04-86.432C274.269,328.88,265.357,313.712,251.901,305.024z"/>
<g style="opacity:0.1;">
	<path style="fill:#FFFFFF;" d="M227.949,311.52c-1.12,2.896-10.368,2.496-18.448,7.168c-8.368,4.112-13.216,12.048-16.224,11.376
		c-3.2-0.256-2.224-14.32,10.928-21.392C217.389,301.664,229.533,308.704,227.949,311.52z"/>
</g>
<path style="opacity:0.15;fill:#FFFFFF;enable-background:new    ;" d="M225.229,359.584c-7.424,0-13.456-6.032-13.456-13.392
	c0-7.472,6.032-13.504,13.456-13.504c6.112,0,11.216,4.112,12.848,9.728c3.52-8.672,5.504-18.128,5.504-28.064
	c0-4.848-0.496-9.584-1.376-14.176c-5.296-1.952-10.992-3.072-16.976-3.072c-27.088,0-49.056,21.968-49.056,49.056
	c0,10.192,6.928,24.928,15.568,39.344c14.88-4.784,27.664-14.128,36.848-26.368C227.501,359.392,226.397,359.584,225.229,359.584z"
	/>
<g>
</g>
<g>
</g>
<g>
</g>
<g>
</g>
<g>
</g>
<g>
</g>
<g>
</g>
<g>
</g>
<g>
</g>
<g>
</g>
<g>
</g>
<g>
</g>
<g>
</g>
<g>
</g>
<g>
</g>
</svg>
