<?xml version="1.0" encoding="iso-8859-1"?>
<!-- Generator: Adobe Illustrator 19.0.0, SVG Export Plug-In . SVG Version: 6.00 Build 0)  -->
<svg version="1.1" id="Capa_1" xmlns="http://www.w3.org/2000/svg" xmlns:xlink="http://www.w3.org/1999/xlink" x="0px" y="0px"
	 viewBox="0 0 512.003 512.003" style="enable-background:new 0 0 512.003 512.003;" xml:space="preserve">
<g>
	<g>
		<path d="M445.708,137.883l-45.015-45.014c-3.245-3.245-7.559-5.032-12.147-5.032c-1.474,0-2.914,0.204-4.305,0.562
			c-0.022-0.035-0.039-0.072-0.061-0.107c-6.594-10.317-20.354-13.348-30.671-6.756c-18.217,11.64-41.814,18.882-70.135,21.526
			c-4.124,0.385-7.155,4.04-6.771,8.165c0.385,4.124,4.047,7.156,8.165,6.77c30.722-2.868,56.566-10.882,76.816-23.82
			c3.35-2.14,7.816-1.156,9.956,2.192c1.037,1.623,1.38,3.551,0.965,5.432c-0.414,1.88-1.536,3.487-3.159,4.524
			c-14.848,9.488-32.478,16.621-52.399,21.199c-32.803,7.538-65.755,6.842-88.255,4.798l-11.215-15.806
			c8.171,1.053,19.268,2.144,32.095,2.521c0.075,0.002,0.149,0.003,0.224,0.003c4.04,0,7.374-3.214,7.493-7.28
			c0.122-4.14-3.136-7.595-7.276-7.717c-25.569-0.752-44.023-4.506-44.197-4.542c-0.763-0.16-1.537-0.266-2.31-0.346
			c-5.924-3.722-13.762-3.735-19.784,0.595l-14.147,10.171c-0.041-2.712-0.315-5.41-0.786-8.066c1.362-0.923,2.601-2.045,3.65-3.373
			c3.055-3.87,4.188-8.854,3.108-13.673c-2.539-11.331-7.758-21.16-14.738-28.696c6.185-6.195,9.748-14.706,9.626-23.685
			c-0.247-18.124-15.213-32.687-33.316-32.423c-8.779,0.12-16.987,3.651-23.111,9.943s-9.431,14.593-9.312,23.372
			c0.034,2.543,0.38,5.056,0.988,7.5C84.63,43.967,67.317,61.872,62.528,86.344c-0.949,4.848,0.319,9.799,3.479,13.584
			c1.086,1.3,2.354,2.392,3.742,3.278c-0.402,2.69-0.607,5.417-0.57,8.153c0.374,27.45,22.82,49.523,50.188,49.521
			c0.229,0,0.462-0.001,0.692-0.004c4.099-0.056,8.073-0.615,11.876-1.598c0.334,5.243,1.729,10.377,4.126,15.072
			c-3.288,23.915-5.687,59.784,1.245,96.106c4.155,21.77,11.232,41.264,21.033,57.941c3.005,5.114,7.822,8.752,13.564,10.244
			c1.861,0.483,3.747,0.723,5.621,0.723c3.906,0,7.758-1.04,11.214-3.071c4.706-2.766,8.014-7.011,9.689-11.8v138.18h-5.21
			c-18.755,0-34.014,15.259-34.014,34.014v1.38c0,7.683,6.25,13.934,13.934,13.934H236.8c9.472,0,17.178-7.706,17.178-17.178
			v-18.216c0-4.328-1.984-8.201-5.089-10.758v-52.582c0-4.142-3.358-7.5-7.5-7.5s-7.5,3.358-7.5,7.5v49.407h-20.459V269.777
			c1.795-0.123,3.553-0.525,5.224-1.192l15.723,26.875c-0.315,1.644-0.487,3.382-0.487,5.211v78.417c0,4.142,3.358,7.5,7.5,7.5
			s7.5-3.358,7.5-7.5v-78.417c0-0.767,0.09-4.414,1.768-5.274l79.376-3.64c4.764-0.111,9.524-0.706,14.149-1.769
			c4.424-1.017,8.781-2.479,12.951-4.348c3.78-1.694,5.471-6.132,3.777-9.912c-1.695-3.78-6.131-5.472-9.912-3.777
			c-3.278,1.47-6.702,2.619-10.175,3.417c-3.663,0.842-7.436,1.311-11.212,1.394c-0.06,0.001-0.119,0.003-0.179,0.006l-80.418,3.688
			c-0.45,0.021-0.897,0.082-1.336,0.183c-1.352,0.311-2.612,0.781-3.792,1.369l-12.732-21.764L273,230.158
			c3.393,2.253,5.907,5.545,7.172,9.528c4.336,13.654,17.224,23.041,31.502,23.041c0.237,0,0.476-0.002,0.713-0.008l16.908-0.37
			c21.297-0.458,38.437-16.835,39.869-38.095l5.88-87.277l13.537,13.537l-5.034,74.71c-0.657,9.764-3.911,19.205-9.409,27.3
			c-2.328,3.427-1.437,8.091,1.99,10.418c1.291,0.877,2.756,1.297,4.207,1.297c2.401,0,4.76-1.151,6.211-3.287
			c6.993-10.296,11.131-22.302,11.966-34.72l4.233-62.827c5.472,3.397,11.702,5.105,17.936,5.105c8.71,0,17.42-3.315,24.051-9.946
			l0.977-0.977C451.14,152.155,451.14,143.317,445.708,137.883z M137.323,15.005c0.083-0.001,0.164-0.002,0.246-0.002
			c9.742,0,17.734,7.858,17.867,17.629c0.074,5.422-2.33,10.527-6.41,13.946c-2.53-1.487-5.174-2.736-7.91-3.726l3.219-6.747
			c1.784-3.738,0.199-8.215-3.539-9.999c-3.74-1.783-8.215-0.199-9.999,3.539l-5.007,10.492c-0.016,0-0.031-0.001-0.047-0.001
			c-0.204,0-0.41,0.001-0.615,0.004l-3.87,0.052c-0.993-2.213-1.53-4.621-1.564-7.075C119.562,23.264,127.469,15.138,137.323,15.005
			z M78.474,90.753c-0.396,0.031-0.706-0.142-0.951-0.437c-0.18-0.216-0.374-0.58-0.274-1.091
			c3.862-19.737,18.119-33.679,34.669-33.903l13.414-0.182c0.136-0.002,0.27-0.003,0.406-0.003
			c16.382,0,30.811,13.489,35.171,32.952c0.114,0.508-0.07,0.877-0.244,1.098c-0.238,0.302-0.554,0.458-0.939,0.462l-57.102,0.776
			v-9.502c0-4.142-3.358-7.5-7.5-7.5s-7.5,3.358-7.5,7.5v9.706L78.474,90.753z M119.857,145.878
			c-0.162,0.002-0.323,0.003-0.485,0.003c-19.189,0-34.931-15.478-35.192-34.725c-0.025-1.842,0.108-3.674,0.365-5.484l69.523-0.945
			c0.306,1.802,0.488,3.63,0.512,5.472C154.843,129.609,139.267,145.614,119.857,145.878z M181.139,323.361
			c-1.66,0.975-3.6,1.246-5.463,0.762s-3.427-1.665-4.403-3.326c-8.928-15.192-15.398-33.075-19.23-53.153
			c-5.079-26.609-4.838-53.094-3.014-74.28l13.458,19.015c-0.006,0.095-0.019,0.188-0.022,0.284
			c-1.145,40.977,6.001,74.902,21.237,100.831C185.715,316.921,184.566,321.347,181.139,323.361z M196.635,305.895
			c-11.015-18.745-17.455-43.375-18.946-72.038l20.223,28.571c0.163,0.23,0.345,0.44,0.518,0.66v46.672
			C197.963,308.442,197.37,307.146,196.635,305.895z M238.978,477.673v17.15c0,1.201-0.977,2.178-2.178,2.178h-62.595v-0.314
			c0-10.484,8.53-19.014,19.014-19.014H238.978z M266.029,216.693l-49.218,35.387c-0.005,0.003-0.009,0.007-0.014,0.01l-3.141,2.258
			c-0.734,0.528-1.488,0.5-1.872,0.436c-0.383-0.064-1.104-0.282-1.628-1.021l-36.422-51.46c5.354-2.535,10.232-5.843,14.549-9.894
			c3.021-2.834,3.172-7.581,0.337-10.601c-2.834-3.021-7.581-3.171-10.601-0.337c-3.806,3.571-8.214,6.37-13.127,8.341
			l-13.615-19.235c-3.782-5.26-5.217-11.846-4.003-18.192c7.632-5.122,13.787-12.269,17.68-20.666l27.524-19.789
			c1.217-0.875,2.919-0.596,3.767,0.582l70.572,99.46C267.893,213.489,267.54,215.607,266.029,216.693z M354.196,223.245
			c-0.907,13.454-11.751,23.817-25.228,24.107l-16.911,0.37c-7.946,0.145-15.184-4.997-17.591-12.577
			c-2.205-6.942-6.655-12.924-12.536-17.054c1.146-4.953,0.276-10.351-2.88-14.8l-39.11-55.119
			c5.81,0.317,12.036,0.515,18.594,0.515c18.831,0,40.291-1.607,61.773-6.544c14.57-3.348,28.049-7.991,40.286-13.852
			L354.196,223.245z M434.126,147.958c-7.414,7.413-19.476,7.413-26.89,0l-29.333-29.333c4.733-3.2,8.019-7.997,9.253-13.597
			c0.14-0.634,0.24-1.271,0.324-1.907c0.388-0.22,0.776-0.283,1.067-0.283c0.411,0,1.013,0.111,1.54,0.638l44.261,44.261
			L434.126,147.958z"/>
	</g>
</g>
<g>
	<g>
		<path d="M105.105,107.789h-0.089c-0.014,0-0.028,0-0.042,0c-4.122,0-7.432,3.332-7.454,7.459
			c-0.023,4.142,3.361,7.518,7.503,7.541c0.014,0,0.028,0,0.042,0c4.123,0,7.477-3.331,7.499-7.459
			C112.587,111.188,109.247,107.812,105.105,107.789z"/>
	</g>
</g>
<g>
</g>
<g>
</g>
<g>
</g>
<g>
</g>
<g>
</g>
<g>
</g>
<g>
</g>
<g>
</g>
<g>
</g>
<g>
</g>
<g>
</g>
<g>
</g>
<g>
</g>
<g>
</g>
<g>
</g>
</svg>
