<svg id="Capa_1" enable-background="new 0 0 512 512" height="512" viewBox="0 0 512 512" width="512" xmlns="http://www.w3.org/2000/svg"><g><g><g><path d="m104.628 71.355v359.29h302.744v-359.29" fill="#faf7f5"/><path d="m104.629 71.355v-11.691c0-27.429 22.236-49.664 49.664-49.664h203.414c27.429 0 49.664 22.236 49.664 49.664v11.691" fill="#f1c6dd"/></g><g><path d="m104.629 430.645h302.743v21.691c0 27.429-22.236 49.664-49.664 49.664h-203.415c-27.429 0-49.664-22.236-49.664-49.664z" fill="#eaaacb"/></g><g><path d="m329.917 137.222h-147.834c-15.983 0-28.94 12.957-28.94 28.94v127.54c0 15.983 12.957 28.94 28.94 28.94h59.374l15.087 21.882 15.087-21.882h58.286c15.983 0 28.94-12.957 28.94-28.94v-127.54c0-15.983-12.957-28.94-28.94-28.94z" fill="#ccf5fc"/></g><g><path d="m261.104 175.638 15.712 28.223 31.733 6.202c4.494.878 6.273 6.346 3.154 9.695l-22.022 23.645 3.9 32.056c.552 4.54-4.105 7.919-8.258 5.992l-29.323-13.61-29.323 13.61c-4.153 1.928-8.81-1.452-8.258-5.992l3.9-32.056-22.022-23.645c-3.119-3.349-1.34-8.816 3.154-9.695l31.733-6.202 15.712-28.223c2.226-3.997 7.982-3.997 10.208 0z" fill="#fff7bf"/></g></g><g><path d="m309.976 387.809h-107.952c-5.522 0-10-4.477-10-10s4.478-10 10-10h107.951c5.522 0 10 4.477 10 10s-4.477 10-9.999 10z"/><path d="m224.22 291.993c-3.294 0-6.565-1.025-9.319-3.026-4.646-3.377-7.101-9.015-6.408-14.714l3.339-27.439-18.852-20.24c-3.916-4.204-5.247-10.209-3.473-15.673 1.774-5.467 6.383-9.548 12.026-10.651l27.173-5.311 13.453-24.164c2.794-5.017 8.097-8.133 13.841-8.133s11.047 3.116 13.841 8.133l13.453 24.164 27.173 5.311c5.644 1.103 10.252 5.185 12.026 10.651 1.774 5.464.443 11.47-3.473 15.674l-18.852 20.24 3.339 27.438c.692 5.701-1.763 11.338-6.408 14.715-4.647 3.378-10.774 3.974-15.987 1.555l-25.112-11.657-25.113 11.656c-2.124.986-4.401 1.471-6.667 1.471zm-11.487-73.555 16.903 18.149c2.011 2.159 2.966 5.095 2.609 8.023l-2.996 24.621 22.54-10.461c2.67-1.239 5.75-1.239 8.42 0l22.54 10.461-2.996-24.621c-.356-2.929.599-5.865 2.609-8.023l16.903-18.149-24.368-4.763c-2.892-.565-5.387-2.376-6.819-4.95l-12.078-21.696-12.079 21.696c-1.433 2.574-3.928 4.385-6.819 4.95zm39.633-37.935c.002.004.005.007.007.011z"/><path d="m256.544 354.523c-3.288 0-6.366-1.617-8.232-4.324l-12.106-17.558h-54.122c-21.472 0-38.939-17.468-38.939-38.939v-127.54c0-21.472 17.468-38.94 38.939-38.94h147.834c21.472 0 38.939 17.468 38.939 38.94v127.54c0 21.471-17.468 38.939-38.939 38.939h-53.034l-12.108 17.559c-1.866 2.707-4.944 4.323-8.232 4.323zm-74.461-207.301c-10.443 0-18.939 8.497-18.939 18.94v127.54c0 10.443 8.496 18.939 18.939 18.939h59.374c3.288 0 6.366 1.617 8.232 4.324l6.854 9.941 6.854-9.941c1.866-2.707 4.944-4.324 8.232-4.324h58.286c10.443 0 18.939-8.496 18.939-18.939v-127.54c0-10.443-8.496-18.94-18.939-18.94z"/><g><path d="m270.651 476.322h-29.303c-5.522 0-10-4.477-10-10s4.478-10 10-10h29.303c5.522 0 10 4.477 10 10s-4.477 10-10 10z"/></g><path d="m357.707 0h-203.414c-32.898 0-59.664 26.766-59.664 59.665v392.671c0 32.899 26.766 59.665 59.664 59.665h203.414c32.898 0 59.664-26.766 59.664-59.665v-392.671c0-32.899-26.766-59.665-59.664-59.665zm-203.414 20h203.414c21.871 0 39.664 17.793 39.664 39.665v1.69h-96.165c-5.522 0-10 4.477-10 10s4.478 10 10 10h96.165v339.29h-282.742v-339.29h96.165c5.522 0 10-4.477 10-10s-4.478-10-10-10h-96.165v-1.69c0-21.872 17.793-39.665 39.664-39.665zm243.078 432.335c0 21.871-17.793 39.665-39.664 39.665h-203.414c-21.871 0-39.664-17.793-39.664-39.665v-11.69h282.742z"/><g><path d="m255.819 81.36c-4.118 0-7.906-2.636-9.359-6.482-1.412-3.738-.393-8.094 2.524-10.824 3.093-2.896 7.808-3.504 11.544-1.515 3.729 1.986 5.855 6.272 5.152 10.446-.801 4.757-5.02 8.375-9.861 8.375z"/></g></g></g></svg>