<svg id="Capa_1" enable-background="new 0 0 511.799 511.799" height="512" viewBox="0 0 511.799 511.799" width="512" xmlns="http://www.w3.org/2000/svg"><g><g><path d="m464.085 143.239v303.51c0 31.78-25.76 57.55-57.55 57.55h-301.27c-31.79 0-57.55-25.77-57.55-57.55v-303.51z" fill="#f9f6f9"/><path d="m464.085 143.239v54.59c-3.82 1.14-7.87 1.75-12.06 1.75h-392.25c-4.19 0-8.24-.61-12.06-1.75v-54.59z" fill="#dddaec"/><path d="m131.881 504.296h-26.62c-31.79 0-57.55-25.77-57.55-57.55v-303.51h26.62v303.51c0 31.78 25.77 57.55 57.55 57.55z" fill="#dddaec"/><path d="m452.022 175.785h-392.246c-23.303 0-42.194-18.891-42.194-42.194v-37.884c0-23.303 18.891-42.194 42.194-42.194h392.246c23.303 0 42.194 18.891 42.194 42.194v37.884c.001 23.303-18.891 42.194-42.194 42.194z" fill="#9dc6fb"/><path d="m107.352 175.787h-47.57c-23.31 0-42.2-18.89-42.2-42.2v-37.88c0-23.3 18.89-42.2 42.2-42.2h47.57c-23.3 0-42.19 18.9-42.19 42.2v37.88c0 23.311 18.89 42.2 42.19 42.2z" fill="#80b4fb"/><g><g><path d="m88.328 7.501c-11.863 0-21.479 9.617-21.479 21.479v64.042c0 11.863 9.617 21.479 21.479 21.479 11.863 0 21.479-9.617 21.479-21.479v-64.042c.001-11.862-9.616-21.479-21.479-21.479z" fill="#ffe07d"/><path d="m99.064 111.63c-3.16 1.827-6.826 2.881-10.738 2.881-11.867 0-21.477-9.62-21.477-21.487v-64.044c0-11.856 9.61-21.477 21.477-21.477 3.913 0 7.578 1.053 10.738 2.881-6.417 3.709-10.738 10.653-10.738 18.596v64.043c0 7.955 4.321 14.899 10.738 18.607z" fill="#f1ce64"/></g><g><path d="m172.114 7.501c-11.863 0-21.479 9.617-21.479 21.479v64.042c0 11.863 9.617 21.479 21.479 21.479 11.863 0 21.479-9.617 21.479-21.479v-64.042c0-11.862-9.617-21.479-21.479-21.479z" fill="#ffe07d"/><path d="m182.85 111.63c-3.16 1.827-6.826 2.881-10.738 2.881-11.867 0-21.477-9.62-21.477-21.487v-64.044c0-11.856 9.61-21.477 21.477-21.477 3.913 0 7.578 1.053 10.738 2.881-6.417 3.709-10.738 10.653-10.738 18.596v64.043c-.001 7.955 4.32 14.899 10.738 18.607z" fill="#f1ce64"/></g><g><path d="m255.899 7.501c-11.863 0-21.479 9.617-21.479 21.479v64.042c0 11.863 9.617 21.479 21.479 21.479 11.863 0 21.479-9.617 21.479-21.479v-64.042c0-11.862-9.616-21.479-21.479-21.479z" fill="#ffe07d"/><path d="m266.635 111.63c-3.16 1.827-6.826 2.881-10.738 2.881-11.867 0-21.477-9.62-21.477-21.487v-64.044c0-11.856 9.61-21.477 21.477-21.477 3.913 0 7.578 1.053 10.738 2.881-6.417 3.709-10.738 10.653-10.738 18.596v64.043c0 7.955 4.321 14.899 10.738 18.607z" fill="#f1ce64"/></g><g><path d="m339.685 7.501c-11.863 0-21.479 9.617-21.479 21.479v64.042c0 11.863 9.617 21.479 21.479 21.479 11.863 0 21.479-9.617 21.479-21.479v-64.042c0-11.862-9.617-21.479-21.479-21.479z" fill="#ffe07d"/><path d="m350.42 111.63c-3.16 1.827-6.826 2.881-10.738 2.881-11.867 0-21.477-9.62-21.477-21.487v-64.044c0-11.856 9.61-21.477 21.477-21.477 3.913 0 7.578 1.053 10.738 2.881-6.417 3.709-10.738 10.653-10.738 18.596v64.043c0 7.955 4.321 14.899 10.738 18.607z" fill="#f1ce64"/></g><g><path d="m423.47 7.501c-11.863 0-21.479 9.617-21.479 21.479v64.042c0 11.863 9.617 21.479 21.479 21.479 11.863 0 21.479-9.617 21.479-21.479v-64.042c0-11.862-9.616-21.479-21.479-21.479z" fill="#ffe07d"/><path d="m434.206 111.63c-3.16 1.827-6.826 2.881-10.738 2.881-11.867 0-21.477-9.62-21.477-21.487v-64.044c0-11.856 9.61-21.477 21.477-21.477 3.913 0 7.578 1.053 10.738 2.881-6.417 3.709-10.738 10.653-10.738 18.596v64.043c-.001 7.955 4.321 14.899 10.738 18.607z" fill="#f1ce64"/></g></g><g><path d="m250.273 421.595c-9.677 0-18.869-4.465-24.851-12.18l-52.586-67.831c-10.642-13.727-8.141-33.482 5.586-44.123 13.728-10.642 33.482-8.14 44.124 5.586l23.606 30.45 46.066-81.569c8.542-15.124 27.724-20.46 42.849-11.919 15.124 8.541 20.459 27.725 11.918 42.849l-69.325 122.753c-5.177 9.168-14.599 15.136-25.1 15.901-.763.055-1.527.083-2.287.083z" fill="#a2e19f"/><g fill="#97cf92"><path d="m346.185 250.586c-.44-.294-.902-.566-1.363-.828-15.127-8.544-34.311-3.208-42.855 11.919l-46.062 81.568-9.749-9.749 46.063-81.568c8.544-15.127 27.728-20.463 42.855-11.919 4.696 2.652 8.438 6.321 11.111 10.577z"/><path d="m272.813 412.072c-5.294 5.462-12.475 8.879-20.253 9.445-.765.052-1.53.084-2.285.084-9.686 0-18.869-4.466-24.855-12.181l-52.583-67.836c-10.64-13.722-8.145-33.472 5.588-44.123 4.057-3.155 8.659-5.147 13.387-6.038-10.777 11.049-12.035 28.64-2.306 41.188l52.583 67.836c5.986 7.715 15.179 12.181 24.855 12.181.755 0 1.52-.031 2.285-.084 1.215-.084 2.41-.241 3.584-.472z"/></g></g></g><g><path d="m452.449 46.021v-17.041c0-15.979-13-28.979-28.979-28.979s-28.979 13-28.979 28.979v17.03h-25.832v-17.03c0-15.98-12.996-28.98-28.97-28.98-15.979 0-28.98 13-28.98 28.98v17.03h-25.83v-17.03c0-15.979-13-28.979-28.979-28.979s-28.979 13-28.979 28.979v17.03h-25.827v-17.03c0-15.979-13-28.979-28.979-28.979s-28.979 13-28.979 28.979v17.03h-25.827v-17.03c0-15.979-13-28.979-28.979-28.979s-28.979 13-28.979 28.979v17.04c-27.206.233-49.27 22.428-49.27 49.689v37.88c0 20.461 12.431 38.069 30.136 45.681v267.478c0 35.869 29.181 65.05 65.05 65.05h301.27c35.868 0 65.05-29.182 65.05-65.05v-267.478c17.704-7.612 30.135-25.219 30.135-45.68v-37.88c-.003-27.261-22.066-49.457-49.273-49.689zm-42.958-17.041c0-7.708 6.271-13.979 13.979-13.979s13.979 6.271 13.979 13.979v64.042c0 7.708-6.271 13.979-13.979 13.979s-13.979-6.271-13.979-13.979zm-167.571 0c0-7.708 6.271-13.979 13.979-13.979s13.979 6.271 13.979 13.979v64.042c0 7.708-6.271 13.979-13.979 13.979s-13.979-6.271-13.979-13.979zm-83.785 0c0-7.708 6.271-13.979 13.979-13.979s13.979 6.271 13.979 13.979v64.042c0 7.708-6.271 13.979-13.979 13.979s-13.979-6.271-13.979-13.979zm-83.786 0c0-7.708 6.271-13.979 13.979-13.979s13.979 6.271 13.979 13.979v64.042c0 7.708-6.271 13.979-13.979 13.979s-13.979-6.271-13.979-13.979zm382.236 417.769c0 27.598-22.452 50.05-50.05 50.05h-301.27c-27.598 0-50.05-22.453-50.05-50.05v-263.677c1.504.138 3.025.218 4.564.218h392.24c1.54 0 3.061-.081 4.565-.218v263.677zm30.134-313.159c0 19.134-15.566 34.7-34.7 34.7h-392.24c-19.133 0-34.7-15.566-34.7-34.7v-37.88c0-18.99 15.335-34.457 34.27-34.689v32.002c0 15.979 13 28.979 28.979 28.979s28.979-13 28.979-28.979v-32.013h25.827v32.013c0 15.979 13 28.979 28.979 28.979s28.979-13 28.979-28.979v-32.013h25.827v32.013c0 15.979 13 28.979 28.979 28.979s28.979-13 28.979-28.979v-32.013h25.83v32.01c0 15.979 13.001 28.98 28.98 28.98 7.75 0 15.027-3.017 20.479-8.483.608-.608 1.099-1.143 1.541-1.683 2.626-3.204 2.157-7.929-1.047-10.555-3.203-2.625-7.929-2.158-10.555 1.047-.116.142-.298.336-.55.587-2.628 2.635-6.133 4.086-9.869 4.086-7.709 0-13.98-6.271-13.98-13.98v-64.039c0-7.708 6.271-13.98 13.98-13.98 7.703 0 13.97 6.271 13.97 13.98v49.04c0 4.142 3.357 7.5 7.5 7.5s7.5-3.358 7.5-7.5v-17.01h25.832v32.013c0 15.979 13 28.979 28.979 28.979s28.979-13 28.979-28.979v-32.002c18.936.232 34.271 15.699 34.271 34.689v37.88z"/><path d="m338.756 233.479c-9.061-5.115-19.569-6.397-29.592-3.611-10.023 2.788-18.36 9.313-23.475 18.374l-40.522 71.748-16.689-21.534c-13.155-16.976-37.671-20.082-54.654-6.922-8.219 6.374-13.464 15.568-14.77 25.891s1.485 20.534 7.859 28.752l19.99 25.78c2.538 3.274 7.25 3.87 10.522 1.331 3.273-2.538 3.87-7.25 1.331-10.522l-19.99-25.78c-3.918-5.052-5.634-11.331-4.831-17.678s4.028-12.001 9.079-15.918c10.44-8.092 25.518-6.183 33.607 4.256l23.6 30.45c1.539 1.985 3.97 3.07 6.472 2.886 2.504-.183 4.751-1.606 5.986-3.792l46.071-81.572c3.145-5.571 8.271-9.583 14.432-11.297 6.166-1.714 12.628-.924 18.198 2.221 11.497 6.494 15.568 21.133 9.078 32.631l-69.33 122.75c-3.955 7.002-11.1 11.528-19.16 12.112-.563.044-1.135.067-1.699.067-7.345 0-14.418-3.47-18.922-9.285l-14.57-18.8c-2.537-3.273-7.248-3.871-10.522-1.334-3.274 2.538-3.871 7.249-1.334 10.522l14.569 18.798c7.323 9.454 18.829 15.098 30.779 15.098.957 0 1.926-.038 2.832-.11 13.035-.943 24.656-8.305 31.088-19.692l69.331-122.752c10.556-18.702 3.934-42.508-14.764-53.068z"/></g></g></svg>