<svg id="Capa_1" enable-background="new 0 0 512 512" height="512" viewBox="0 0 512 512" width="512" xmlns="http://www.w3.org/2000/svg"><g><path d="m512 256c0 4.133-.098 8.243-.292 12.328-4.188 88.325-77.809 157.422-166.234 157.422h-281.104c-35.18-39.685-58.221-90.375-63.306-146.253-.705-7.746 3.765-15.567 3.766-23.497 0-3.876-1.39-7.906-1.872-11.745-.042-.335-2.667-.516-2.65-.85 4.633-94.773 61.269-176.307 141.827-216.575h228.083c84.055 41.974 141.782 128.83 141.782 229.17z" fill="#5596fb"/><path d="m178.688 91c0 8.284-6.716 15-15 15h-50.506c-8.284 0-15-6.716-15-15s6.716-15 15-15h50.506c8.284 0 15 6.716 15 15zm-79.944 45h-29.423c-8.284 0-15 6.716-15 15s6.716 15 15 15h29.423c8.284 0 15-6.716 15-15s-6.716-15-15-15zm335.074-3.659c0-8.284-6.716-15-15-15-4.406 0-7.979-3.572-7.979-7.979v-7.021c0-8.284-6.716-15-15-15h-31.766c-8.284 0-15 6.716-15 15v7.021c0 4.406-3.572 7.979-7.979 7.979-8.284 0-15 6.716-15 15s6.716 15 15 15h77.723c8.285 0 15.001-6.716 15.001-15zm49.435 76.521h-50.506c-8.284 0-15 6.716-15 15s6.716 15 15 15h50.506c8.284 0 15-6.716 15-15 0-8.285-6.716-15-15-15z" fill="#2476ed"/><path d="m511.906 263c-1.857 69.174-31.154 131.504-77.402 176.5h-1.844v-149.5h39.571v-7c0-11.046 8.954-20 20-20z" fill="#1ed688"/><path d="m90.001 260c0 5.523-4.477 10-10 10h-60c-5.523 0-10-4.477-10-10s4.477-10 10-10h60c5.523 0 10 4.477 10 10zm-10 40h-60c-5.523 0-10 4.477-10 10s4.477 10 10 10h60c5.523 0 10-4.477 10-10s-4.477-10-10-10zm105.999-240c-5.523 0-10 4.477-10 10v160c0 5.523 4.477 10 10 10s10-4.477 10-10v-160c0-5.523-4.477-10-10-10zm140 0c-5.523 0-10 4.477-10 10v160c0 5.523 4.477 10 10 10s10-4.477 10-10v-160c0-5.523-4.477-10-10-10z" fill="#b4d2d7"/><path d="m40 245v75c0 5.523-4.477 10-10 10h-20c-5.523 0-10-4.477-10-10v-75c0-5.523 4.477-10 10-10h20c5.523 0 10 4.477 10 10z" fill="#b4d2d7"/><path d="m40 245v75c0 5.523-4.477 10-10 10h-7.255c-5.523 0-10-4.477-10-10v-75c0-5.523 4.477-10 10-10h7.255c5.523 0 10 4.477 10 10z" fill="#e1ebf0"/><path d="m177.5 10v120c0 5.523-4.477 10-10 10h-27.5c-5.523 0-10-4.477-10-10v-120c0-5.523 4.477-10 10-10h27.5c5.523 0 10 4.477 10 10z" fill="#b4d2d7"/><path d="m382 10v120c0 5.523-4.477 10-10 10h-207.638c-5.523 0-10-4.477-10-10v-120c0-5.523 4.477-10 10-10h207.638c5.523 0 10 4.477 10 10z" fill="#e1ebf0"/><path d="m362 65c0 5.523-4.477 10-10 10h-192c-5.523 0-10-4.477-10-10s4.477-10 10-10h192c5.523 0 10 4.477 10 10z" fill="#5596fb"/><path d="m179.5 50v30c0 5.523-4.477 10-10 10s-10-4.477-10-10v-30c0-5.523 4.477-10 10-10s10 4.477 10 10zm163-10c-5.523 0-10 4.477-10 10v30c0 5.523 4.477 10 10 10s10-4.477 10-10v-30c0-5.523-4.477-10-10-10z" fill="#2476ed"/><path d="m98.717 458h103.027v48.239c-38.213-8.246-73.253-25.023-103.027-48.239zm211.538 0v48.239c38.214-8.246 73.254-25.023 103.027-48.239z" fill="#1ed688"/><path d="m297.234 458v50.696c-13.423 2.174-27.197 3.304-41.234 3.304s-27.811-1.13-41.234-3.304v-50.696z" fill="#495959"/><path d="m199.83 458h17.34v51.073c-5.847-.89-11.63-1.977-17.34-3.256zm95 0v51.073c5.847-.89 11.63-1.977 17.34-3.256v-47.817z" fill="#607882"/><path d="m217.5 30v70c0 5.523-4.477 10-10 10h-20c-5.523 0-10-4.477-10-10v-70c0-5.523 4.477-10 10-10h20c5.523 0 10 4.477 10 10zm53.5 20h-30c-5.523 0-10 4.477-10 10v10c0 5.523 4.477 10 10 10h30c5.523 0 10-4.477 10-10v-10c0-5.523-4.477-10-10-10zm53.5-30h-20c-5.523 0-10 4.477-10 10v70c0 5.523 4.477 10 10 10h20c5.523 0 10-4.477 10-10v-70c0-5.523-4.477-10-10-10z" fill="#0a4499"/><path d="m217.5 71.745v28.255c0 5.523-4.477 10-10 10h-20c-5.523 0-10-4.477-10-10v-28.255c0 5.523 4.477 10 10 10h20c5.523 0 10-4.477 10-10zm107 10h-20c-5.523 0-10-4.477-10-10v28.255c0 5.523 4.477 10 10 10h20c5.523 0 10-4.477 10-10v-28.255c0 5.523-4.477 10-10 10z" fill="#232e7a"/><path d="m27.5 260.245v44.51c0 4.142-3.358 7.5-7.5 7.5s-7.5-3.358-7.5-7.5v-44.51c0-4.142 3.358-7.5 7.5-7.5s7.5 3.358 7.5 7.5z" fill="#0956c6"/><path d="m63.235 423.085v-233.085c0-5.523 4.477-10 10-10h365.529c5.523 0 10 4.477 10 10v233.085z" fill="#ffc14f"/><path d="m104.83 423.085h-41.595v-233.085c0-5.523 4.477-10 10-10h31.594v243.085z" fill="#ffb52d"/><path d="m386.915 250v170h-261.83v-170z" fill="#72d1fb"/><path d="m180.243 250h48.827v170h-48.827zm102.686 0h48.827v170h-48.827z" fill="#93dcfc"/><path d="m249.5 420h13v-170h-13z" fill="#07a9f0"/><path d="m385.696 427.5h-259.392c-4.142 0-7.5-3.358-7.5-7.5v-170c0-4.142 3.358-7.5 7.5-7.5h259.391c4.142 0 7.5 3.358 7.5 7.5v170c.001 4.142-3.357 7.5-7.499 7.5zm-251.892-15h244.391v-155h-244.391z" fill="#f44545"/><path d="m482 210c0 5.523-4.477 10-10 10h-432c-5.523 0-10-4.477-10-10 0-27.614 22.386-50 50-50h352c27.614 0 50 22.386 50 50z" fill="#f44545"/><path d="m100 220h-60c-5.523 0-10-4.477-10-10 0-27.614 22.386-50 50-50h60c-27.614 0-50 22.386-50 50 0 5.523 4.477 10 10 10z" fill="#d63030"/><path d="m480.338 168.468c0 5.523-4.477 10-10 10h-428.676c-5.523 0-10-4.477-10-10s4.477-10 10-10h428.677c5.522 0 9.999 4.477 9.999 10z" fill="#af2727"/><path d="m411 410v10c0 5.523-4.477 10-10 10h-290c-5.523 0-10-4.477-10-10v-10c0-5.523 4.477-10 10-10h290c5.523 0 10 4.477 10 10z" fill="#232e7a"/><path d="m59.421 420h385.907c2.858 0 4.399 3.38 2.506 5.521-10.846 12.265-22.851 23.481-35.842 33.479h-311.984c-14.916-11.479-28.531-24.565-40.587-39z" fill="#0956c6"/><path d="m298.809 325c0 2.761-2.239 5-5 5h-15.617c-2.761 0-5-2.239-5-5s2.239-5 5-5h15.617c2.761 0 5 2.239 5 5zm-65-5h-15.617c-2.761 0-5 2.239-5 5s2.239 5 5 5h15.617c2.761 0 5-2.239 5-5s-2.239-5-5-5z" fill="#e1ebf0"/><path d="m451.149 461.174c0 4.142-3.358 7.5-7.5 7.5h-80c-4.142 0-7.5-3.358-7.5-7.5s3.358-7.5 7.5-7.5h4.75v-55.5c0-5.523 4.477-10 10-10 5.523 0 10 4.477 10 10v55.5h30v-55.5c0-5.523 4.477-10 10-10 5.523 0 10 4.477 10 10v55.5h5.25c4.142 0 7.5 3.358 7.5 7.5z" fill="#b4d2d7"/><path d="m396.915 328.425v90c0 5.523-4.477 10-10 10h-20.766c-5.523 0-10-4.477-10-10v-90c0-5.523 4.477-10 10-10h20.766c5.523 0 10 4.477 10 10z" fill="#b4d2d7"/><path d="m441.149 428.424h-49.356c-5.523 0-10-4.477-10-10v-90c0-5.523 4.477-10 10-10h49.356c5.523 0 10 4.477 10 10v90c0 5.523-4.477 10-10 10z" fill="#e1ebf0"/><path d="m424.426 346.393c0 4.142-3.358 7.5-7.5 7.5h-26.553c-4.142 0-7.5-3.358-7.5-7.5s3.358-7.5 7.5-7.5h26.553c4.142 0 7.5 3.358 7.5 7.5z" fill="#0956c6"/><path d="m382.31 368.893h42.677c4.142 0 7.5 3.358 7.5 7.5s-3.358 7.5-7.5 7.5h-42.677c-4.142 0-7.5-3.358-7.5-7.5s3.358-7.5 7.5-7.5zm35.705 36.532c0-4.142-3.358-7.5-7.5-7.5h-13.731c-4.142 0-7.5 3.358-7.5 7.5s3.358 7.5 7.5 7.5h13.731c4.142 0 7.5-3.358 7.5-7.5z" fill="#f44545"/><path d="m441.149 305.425h-75c-9.649 0-17.5 7.851-17.5 17.5v101.213c0 9.649 7.851 17.5 17.5 17.5h75c9.649 0 17.5-7.851 17.5-17.5v-101.213c0-9.65-7.851-17.5-17.5-17.5zm2.5 118.713c0 1.378-1.122 2.5-2.5 2.5h-75c-1.378 0-2.5-1.122-2.5-2.5v-101.213c0-1.378 1.122-2.5 2.5-2.5h75c1.378 0 2.5 1.122 2.5 2.5z" fill="#738c96"/></g></svg>