<svg id="Capa_1" enable-background="new 0 0 501 501" height="512" viewBox="0 0 501 501" width="512" xmlns="http://www.w3.org/2000/svg"><g><path d="m41.306 383.592c-22.991-37.614-36.122-81.911-35.8-129.297.931-136.852 112.697-245.738 249.53-243.254 133.217 2.419 240.464 111.165 240.464 244.959 0 43.805-11.496 84.924-31.636 120.507-2.21 3.904-7.27 5.156-10.973 2.623-51.069-34.92-116.526-55.895-187.891-55.895-77.152 0-147.398 24.515-200.026 64.661-7.64 5.828-18.657 3.895-23.668-4.304z" fill="#76b6fa"/><path d="m14.415 190h472.093c5.86 20.998 8.993 43.133 8.993 66 0 43.805-11.496 84.924-31.636 120.507-2.21 3.905-7.27 5.156-10.973 2.623-51.07-34.92-116.527-55.895-187.892-55.895-77.152 0-147.398 24.515-200.026 64.661-7.64 5.828-18.657 3.895-23.669-4.304-22.991-37.614-36.122-81.911-35.8-129.297.152-22.294 3.246-43.846 8.91-64.295z" fill="#55a4f9"/><path d="m104.5 408.631c0 17.938-22.033 26.561-34.19 13.372-11.218-12.171-21.219-25.481-29.81-39.738v-292.265h-3c-4.418 0-8-3.582-8-8v-34c0-4.418 3.582-8 8-8h3v-25c0-8.284 6.716-15 15-15h49z" fill="#453d83"/><path d="m290.5 90v26.5h1c4.418 0 8 3.582 8 8v34c0 4.418-3.582 8-8 8h-1v289.839c0 15.606-6.868 30.576-19.119 40.242-2.99 2.359-5.848 3.976-8.155 4.094-4.215.216-8.458.325-12.726.325-62.082 0-118.77-23.091-161.945-61.152-5.732-5.053-9.055-12.299-9.055-19.941v-404.907c0-8.284 6.716-15 15-15h181c8.284 0 15 6.716 15 15v25h1c4.418 0 8 3.582 8 8v34c0 4.418-3.582 8-8 8z" fill="#51489a"/><path d="m261.5 65v360c0 8.284-6.716 15-15 15h-157.773c-6.749-5.938-13.168-12.242-19.227-18.88v-356.12c0-8.284 6.716-15 15-15h162c8.284 0 15 6.716 15 15z" fill="#ffe7c0"/><path d="m155.5 70h80c2.761 0 5 2.239 5 5v110c0 2.761-2.239 5-5 5h-80c-2.761 0-5-2.239-5-5v-110c0-2.761 2.239-5 5-5z" fill="#82cd64"/><path d="m185 190h-29.5c-2.761 0-5-2.239-5-5v-110c0-2.761 2.239-5 5-5h29.5c-2.761 0-5 2.239-5 5v110c0 2.761 2.239 5 5 5z" fill="#6dc54a"/><path d="m114.5 410c0 5.523-4.477 10-10 10s-10-4.477-10-10 4.477-10 10-10 10 4.477 10 10zm20-10c-5.523 0-10 4.477-10 10s4.477 10 10 10 10-4.477 10-10-4.477-10-10-10z" fill="#ffc14f"/><path d="m90.5 185v-110c0-2.761 2.239-5 5-5h30c2.761 0 5 2.239 5 5v110c0 2.761-2.239 5-5 5h-30c-2.761 0-5-2.239-5-5zm5 85h80c2.761 0 5-2.239 5-5v-50c0-2.761-2.239-5-5-5h-80c-2.761 0-5 2.239-5 5v50c0 2.761 2.239 5 5 5zm110 0h30c2.761 0 5-2.239 5-5v-50c0-2.761-2.239-5-5-5h-30c-2.761 0-5 2.239-5 5v50c0 2.761 2.239 5 5 5zm30 20.001h-80c-2.761 0-5 2.239-5 5v80c0 2.761 2.239 5 5 5h80c2.761 0 5-2.239 5-5v-80c0-2.762-2.238-5-5-5zm-110 0h-30c-2.761 0-5 2.239-5 5v80c0 2.761 2.239 5 5 5h30c2.761 0 5-2.239 5-5v-80c0-2.762-2.238-5-5-5z" fill="#ffd993"/><path d="m151.613 248.129-38.636-58.054c-13.356-20.069-10.701-46.774 6.345-63.821 19.763-19.763 51.804-19.763 71.567 0 17.047 17.047 19.702 43.751 6.345 63.821l-38.634 58.054c-1.661 2.495-5.326 2.495-6.987 0z" fill="#f44545"/><path d="m164.21 239.698-5.611 8.431c-1.66 2.495-5.326 2.495-6.986 0l-38.636-58.054c-13.356-20.069-10.701-46.774 6.345-63.821 12.207-12.207 29.098-16.874 44.887-14.001-9.773 1.778-19.124 6.445-26.68 14.001-17.047 17.047-19.702 43.751-6.345 63.821z" fill="#c50048"/><path d="m180.772 159.686c0 14.175-11.491 25.666-25.666 25.666s-25.666-11.491-25.666-25.666 11.491-25.666 25.666-25.666 25.666 11.491 25.666 25.666z" fill="#fdbcbc"/><path d="m193 32.5h-26c-4.142 0-7.5-3.358-7.5-7.5 0-4.142 3.358-7.5 7.5-7.5h26c4.142 0 7.5 3.358 7.5 7.5 0 4.142-3.358 7.5-7.5 7.5zm-47.5-7.5c0-4.142-3.358-7.5-7.5-7.5-4.142 0-7.5 3.358-7.5 7.5 0 4.142 3.358 7.5 7.5 7.5 4.142 0 7.5-3.358 7.5-7.5zm34 435h-30c-7.261 0-13.317 5.16-14.702 12.012 13.582 7.29 27.931 13.337 42.894 17.988h1.808c8.284 0 15-6.716 15-15 0-8.284-6.716-15-15-15z" fill="#19305c"/><path d="m348.622 224.926c8.232-7.756 13.378-18.751 13.378-30.926 0-23.435-19.065-42.5-42.5-42.5s-42.5 19.065-42.5 42.5c0 12.175 5.146 23.17 13.378 30.926-66.124 13.482-115.878 71.968-115.878 142.074 0 60.125 36.595 111.702 88.726 133.675 37.224-1.905 72.254-12.118 103.272-28.822 6.066-3.267 9.757-6.979 15.502-10.729 3.571-2.331 9.299-4.554 12.738-7.063 28.405-20.722 52.184-47.406 69.496-78.212.176-2.928.266-5.879.266-8.851 0-70.104-49.754-128.59-115.878-142.072zm-29.122-58.426c15.163 0 27.5 12.336 27.5 27.5s-12.337 27.5-27.5 27.5-27.5-12.336-27.5-27.5 12.337-27.5 27.5-27.5z" fill="#ffc14f"/><path d="m434.5 367c0 35.058-15.688 66.452-40.426 87.545-9.21 6.672-18.903 12.718-29.016 18.077-13.97 6.034-29.373 9.378-45.558 9.378-63.513 0-115-51.487-115-115s51.487-115 115-115 115 51.487 115 115z" fill="#ffe7c0"/><path d="m434.5 367c0 35.059-15.688 66.453-40.428 87.546-9.209 6.671-18.901 12.717-29.013 18.076-10.981 4.743-22.847 7.824-35.283 8.925-38.616-20.481-65.276-64.076-65.276-114.547s26.66-94.066 65.276-114.547c58.699 5.198 104.724 54.498 104.724 114.547z" fill="#fff5f5"/><path d="m319.5 230c-5.523 0-10-4.477-10-10v-10c0-5.523 4.477-10 10-10 5.523 0 10 4.477 10 10v10c0 5.523-4.477 10-10 10zm-45.962 182.962c-2.929-2.929-7.678-2.929-10.607 0l-17.678 17.678c-2.929 2.929-2.929 7.678 0 10.607 2.929 2.929 7.678 2.929 10.607 0l17.678-17.678c2.929-2.929 2.929-7.678 0-10.607zm120.208-120.208c-2.929-2.929-7.678-2.929-10.607 0l-17.678 17.678c-2.929 2.929-2.929 7.678 0 10.607 2.929 2.929 7.678 2.929 10.607 0l17.678-17.678c2.929-2.93 2.929-7.678 0-10.607zm-28.284 130.815 17.678 17.678c2.929 2.929 7.678 2.929 10.607 0 2.929-2.929 2.929-7.678 0-10.607l-17.678-17.678c-2.929-2.929-7.678-2.929-10.607 0-2.929 2.929-2.929 7.678 0 10.607zm-120.208-120.209 17.678 17.678c2.929 2.929 7.678 2.929 10.607 0 2.929-2.929 2.929-7.678 0-10.607l-17.678-17.678c-2.929-2.929-7.678-2.929-10.607 0-2.929 2.93-2.929 7.678 0 10.607z" fill="#ffa90b"/><path d="m247 374.5h-25c-4.142 0-7.5-3.358-7.5-7.5 0-4.142 3.358-7.5 7.5-7.5h25c4.142 0 7.5 3.358 7.5 7.5 0 4.142-3.358 7.5-7.5 7.5zm177.5-7.5c0-4.142-3.358-7.5-7.5-7.5h-25c-4.142 0-7.5 3.358-7.5 7.5 0 4.142 3.358 7.5 7.5 7.5h25c4.142 0 7.5-3.358 7.5-7.5zm-112.5 72.5v25c0 4.142 3.358 7.5 7.5 7.5 4.142 0 7.5-3.358 7.5-7.5v-25c0-4.142-3.358-7.5-7.5-7.5-4.142 0-7.5 3.358-7.5 7.5zm0-170v25c0 4.142 3.358 7.5 7.5 7.5 4.142 0 7.5-3.358 7.5-7.5v-25c0-4.142-3.358-7.5-7.5-7.5-4.142 0-7.5 3.358-7.5 7.5z" fill="#ffc14f"/><path d="m351.867 382.673c-7.092 5.744-16.866 6.872-25.08 2.895l-26.372-12.77c-8.214-3.978-13.39-12.344-13.282-21.47l59.118-47.882c2.632-2.132 6.557-.231 6.517 3.156z" fill="#6a61b4"/><path d="m351.867 382.673-59.118 47.882c-2.632 2.132-6.557.231-6.517-3.156l.901-76.071z" fill="#f44545"/></g></svg>