<svg width="42" height="40" viewBox="0 0 42 40" fill="none" xmlns="http://www.w3.org/2000/svg">
<path d="M22.968 35.136C20.664 38.112 16.656 39.6 10.944 39.6C7.968 39.6 5.4 38.712 3.24 36.936C1.08 35.112 0 32.904 0 30.312C0 28.872 0.0719996 27.792 0.216 27.072L5.04 1.44L19.656 0L14.4 27.792C14.208 28.848 14.112 29.688 14.112 30.312C14.112 33.096 14.952 34.488 16.632 34.488C18.504 34.488 20.112 33.216 21.456 30.672C21.888 29.856 22.2 28.92 22.392 27.864L27.504 1.44L41.688 0L36.36 28.08C36.216 28.8 36.144 29.544 36.144 30.312C36.144 31.08 36.36 31.896 36.792 32.76C37.224 33.576 38.136 34.08 39.528 34.272C39.24 35.424 38.592 36.384 37.584 37.152C35.472 38.784 33.264 39.6 30.96 39.6C28.704 39.6 26.904 39.192 25.56 38.376C24.216 37.56 23.352 36.48 22.968 35.136Z" fill="#EE2541"/>
</svg>
