<svg width="1246" height="343" viewBox="0 0 1246 343" fill="none" xmlns="http://www.w3.org/2000/svg">
<path d="M49.5702 0.000233268L1246 0L1211.58 342.813L0 342.817L49.5702 0.000233268Z" fill="#021210"/>
<path d="M159.331 232.29C151.736 241.932 138.524 246.752 119.696 246.752C109.886 246.752 101.421 243.875 94.3011 238.122C87.1811 232.212 83.6211 225.059 83.6211 216.662C83.6211 211.996 83.8584 208.498 84.3331 206.165L100.234 123.124L148.413 118.459L131.088 208.498C130.455 211.919 130.139 214.64 130.139 216.662C130.139 225.681 132.907 230.191 138.445 230.191C144.616 230.191 149.916 226.07 154.347 217.828C155.771 215.184 156.799 212.152 157.432 208.731L174.283 123.124L221.037 118.459L203.475 209.431C203 211.763 202.763 214.174 202.763 216.662C202.763 219.15 203.475 221.793 204.899 224.593C206.323 227.236 209.329 228.869 213.917 229.491C212.968 233.223 210.832 236.333 207.509 238.821C200.548 244.109 193.269 246.752 185.675 246.752C178.238 246.752 172.305 245.43 167.875 242.787C163.444 240.143 160.596 236.644 159.331 232.29ZM308.083 176.541C313.779 166.589 316.627 156.558 316.627 146.45C316.627 139.764 314.175 136.42 309.27 136.42C305.473 136.42 301.596 139.608 297.641 145.984C293.527 152.36 290.837 159.668 289.571 167.91L277.23 242.087L228.102 246.752L252.31 123.124L291.47 118.459L287.198 142.018C294.951 126.312 307.529 118.459 324.934 118.459C334.111 118.459 341.151 120.792 346.056 125.457C351.119 130.122 353.651 137.275 353.651 146.917C353.651 156.403 350.407 164.178 343.92 170.243C337.591 176.308 328.969 179.34 318.051 179.34C313.305 179.34 309.982 178.407 308.083 176.541ZM354.478 230.891L383.908 78.8049L432.087 74.1397L424.729 109.829C422.989 117.137 421.011 123.358 418.796 128.489C422.277 124.135 427.815 121.103 435.409 119.392C437.624 118.77 440.077 118.459 442.767 118.459C457.481 118.459 468.873 122.891 476.943 131.755C485.012 140.463 489.047 153.293 489.047 170.243C489.047 192.325 482.639 210.286 469.823 224.126C456.057 239.21 436.675 246.752 411.676 246.752C394.43 246.752 379.319 243.953 366.345 238.355C361.757 236.333 357.801 233.845 354.478 230.891ZM402.182 228.791C405.505 231.59 409.223 232.99 413.337 232.99C417.451 232.99 420.695 232.212 423.068 230.657C425.441 229.102 427.498 226.77 429.239 223.659C433.985 215.262 438.257 198.234 442.055 172.576C443.162 165.267 443.716 157.958 443.716 150.649C443.716 143.34 442.846 138.52 441.105 136.187C439.523 133.854 437.15 132.688 433.985 132.688C424.334 132.688 417.926 141.941 414.761 160.446L402.182 228.791ZM513.555 235.089C509.916 231.046 507.226 225.837 505.485 219.461C503.903 213.085 503.112 204.688 503.112 194.269C503.112 183.85 504.932 173.897 508.571 164.411C512.21 154.925 517.352 146.761 523.997 139.919C537.605 125.612 555.642 118.459 578.11 118.459C586.179 118.459 593.141 119.781 598.995 122.425L639.579 118.459L622.016 209.431C621.542 211.297 621.304 213.94 621.304 217.361C621.304 220.783 622.333 223.582 624.39 225.759C626.605 227.936 629.295 229.18 632.459 229.491C630.877 234.778 627.159 238.977 621.304 242.087C615.608 245.197 609.517 246.752 603.03 246.752C596.542 246.752 591.084 245.508 586.654 243.02C582.382 240.687 579.613 237.5 578.347 233.456C575.815 237.344 571.86 240.532 566.48 243.02C561.101 245.508 554.772 246.752 547.493 246.752C540.373 246.752 533.886 245.819 528.032 243.953C522.178 242.087 517.352 239.132 513.555 235.089ZM563.632 140.386C561.892 143.185 560.23 146.995 558.648 151.815C557.066 156.481 554.93 165.189 552.24 177.941C549.709 190.537 548.443 201.344 548.443 210.364C548.443 219.383 549.155 225.215 550.579 227.858C552.003 230.502 553.981 231.824 556.512 231.824C561.575 231.824 565.926 229.491 569.566 224.826C573.363 220.005 575.974 213.396 577.398 204.999L589.976 136.653C586.654 133.854 583.014 132.455 579.059 132.455C575.262 132.455 572.176 133.077 569.803 134.321C567.588 135.565 565.531 137.586 563.632 140.386ZM752.771 246.752C733.626 246.752 724.053 239.443 724.053 224.826C724.212 220.783 724.924 215.34 726.189 208.498L730.461 187.038C734.733 166.822 736.869 154.459 736.869 149.949C736.869 140.93 734.18 136.42 728.8 136.42C719.781 136.42 712.899 148.005 708.152 171.176L694.149 242.087L646.442 246.752L671.128 122.891L710.051 118.459L706.253 141.319C713.69 126.079 728.8 118.459 751.584 118.459C762.66 118.459 770.492 120.792 775.08 125.457C779.827 129.967 782.2 137.353 782.2 147.617C782.2 157.258 779.669 173.353 774.606 195.902C772.232 206.009 771.046 213.007 771.046 216.895C771.046 220.627 772.074 223.582 774.131 225.759C776.346 227.936 779.036 229.18 782.2 229.491C780.618 234.778 777.058 238.977 771.52 242.087C766.141 245.197 759.891 246.752 752.771 246.752ZM893.734 106.796C895.949 103.064 897.057 99.1763 897.057 95.1331C897.057 87.9798 894.841 84.4032 890.411 84.4032C883.608 84.4032 878.782 91.2455 875.934 104.93L872.374 123.124H893.971L892.547 133.621H870.238L848.878 242.087L800.936 246.752L823.72 133.621H806.87L809.006 123.124H825.619L830.603 104.697C833.451 93.3448 840.967 85.0252 853.15 79.738C862.01 76.0058 873.877 74.1397 888.75 74.1397C903.623 74.1397 914.382 76.0058 921.027 79.738C927.673 83.4701 930.995 87.8243 930.995 92.8005C930.995 97.7768 929.018 101.82 925.062 104.93C921.106 108.04 916.914 109.595 912.483 109.595C903.781 109.595 897.531 108.662 893.734 106.796ZM969.153 229.258C964.248 240.921 953.964 246.752 938.3 246.752C930.231 246.752 923.664 244.031 918.601 238.588C914.329 233.767 912.193 228.947 912.193 224.126C912.193 211.53 915.12 192.947 920.975 168.377L929.756 123.124L977.935 118.459L963.457 192.169C960.768 203.677 959.423 211.452 959.423 215.495C959.423 224.359 962.666 228.947 969.153 229.258ZM934.028 90.7012C934.028 84.6364 936.56 79.9712 941.623 76.7056C946.844 73.4399 953.173 71.8071 960.609 71.8071C968.046 71.8071 973.979 73.4399 978.409 76.7056C982.998 79.9712 985.292 84.6364 985.292 90.7012C985.292 96.766 982.761 101.353 977.697 104.464C972.792 107.574 966.622 109.129 959.185 109.129C951.749 109.129 945.657 107.574 940.911 104.464C936.322 101.353 934.028 96.766 934.028 90.7012ZM993.17 218.761C993.17 214.562 994.278 207.176 996.493 196.601L1009.07 133.621H995.069L996.018 126.623C1015 121.025 1033.68 111.384 1052.03 97.699H1063.42L1057.72 123.124H1076.24L1074.1 133.621H1055.83L1043.72 196.601C1041.67 206.243 1040.64 212.696 1040.64 215.962C1040.64 223.426 1043.96 227.936 1050.6 229.491C1049.02 234.778 1045.38 238.977 1039.69 242.087C1033.99 245.197 1027.11 246.752 1019.04 246.752C1010.97 246.752 1004.64 244.264 1000.05 239.288C995.464 234.312 993.17 227.469 993.17 218.761Z" fill="#ECFF6B"/>
</svg>
