<svg width="378" height="107" viewBox="0 0 378 107" fill="none" xmlns="http://www.w3.org/2000/svg">
<g clip-path="url(#clip0)">
<path d="M15.0381 0.275493L377.999 0.275421L367.556 106.091L0 106.092L15.0381 0.275493Z" fill="#EE2541"/>
<path d="M48.3362 71.976C46.0322 74.952 42.0242 76.44 36.3122 76.44C33.3362 76.44 30.7682 75.552 28.6082 73.776C26.4482 71.952 25.3682 69.744 25.3682 67.152C25.3682 65.712 25.4402 64.632 25.5842 63.912L30.4082 38.28L45.0242 36.84L39.7682 64.632C39.5762 65.688 39.4802 66.528 39.4802 67.152C39.4802 69.936 40.3202 71.328 42.0002 71.328C43.8722 71.328 45.4802 70.056 46.8242 67.512C47.2562 66.696 47.5682 65.76 47.7602 64.704L52.8722 38.28L67.0562 36.84L61.7282 64.92C61.5842 65.64 61.5122 66.384 61.5122 67.152C61.5122 67.92 61.7282 68.736 62.1602 69.6C62.5922 70.416 63.5042 70.92 64.8962 71.112C64.6082 72.264 63.9602 73.224 62.9522 73.992C60.8402 75.624 58.6322 76.44 56.3282 76.44C54.0722 76.44 52.2722 76.032 50.9282 75.216C49.5842 74.4 48.7202 73.32 48.3362 71.976ZM93.4633 54.768C95.1913 51.696 96.0553 48.6 96.0553 45.48C96.0553 43.416 95.3113 42.384 93.8233 42.384C92.6713 42.384 91.4953 43.368 90.2953 45.336C89.0473 47.304 88.2313 49.56 87.8473 52.104L84.1033 75L69.1993 76.44L76.5433 38.28L88.4233 36.84L87.1273 44.112C89.4793 39.264 93.2953 36.84 98.5753 36.84C101.359 36.84 103.495 37.56 104.983 39C106.519 40.44 107.287 42.648 107.287 45.624C107.287 48.552 106.303 50.952 104.335 52.824C102.415 54.696 99.7993 55.632 96.4873 55.632C95.0473 55.632 94.0393 55.344 93.4633 54.768ZM107.538 71.544L116.466 24.6L131.082 23.16L128.85 34.176C128.322 36.432 127.722 38.352 127.05 39.936C128.106 38.592 129.786 37.656 132.09 37.128C132.762 36.936 133.506 36.84 134.322 36.84C138.786 36.84 142.242 38.208 144.69 40.944C147.138 43.632 148.362 47.592 148.362 52.824C148.362 59.64 146.418 65.184 142.53 69.456C138.354 74.112 132.474 76.44 124.89 76.44C119.658 76.44 115.074 75.576 111.138 73.848C109.746 73.224 108.546 72.456 107.538 71.544ZM122.01 70.896C123.018 71.76 124.146 72.192 125.394 72.192C126.642 72.192 127.626 71.952 128.346 71.472C129.066 70.992 129.69 70.272 130.218 69.312C131.658 66.72 132.954 61.464 134.106 53.544C134.442 51.288 134.61 49.032 134.61 46.776C134.61 44.52 134.346 43.032 133.818 42.312C133.338 41.592 132.618 41.232 131.658 41.232C128.73 41.232 126.786 44.088 125.826 49.8L122.01 70.896ZM155.797 72.84C154.693 71.592 153.877 69.984 153.349 68.016C152.869 66.048 152.629 63.456 152.629 60.24C152.629 57.024 153.181 53.952 154.285 51.024C155.389 48.096 156.949 45.576 158.965 43.464C163.093 39.048 168.565 36.84 175.381 36.84C177.829 36.84 179.941 37.248 181.717 38.064L194.029 36.84L188.701 64.92C188.557 65.496 188.485 66.312 188.485 67.368C188.485 68.424 188.797 69.288 189.421 69.96C190.093 70.632 190.909 71.016 191.869 71.112C191.389 72.744 190.261 74.04 188.485 75C186.757 75.96 184.909 76.44 182.941 76.44C180.973 76.44 179.317 76.056 177.973 75.288C176.677 74.568 175.837 73.584 175.453 72.336C174.685 73.536 173.485 74.52 171.853 75.288C170.221 76.056 168.301 76.44 166.093 76.44C163.933 76.44 161.965 76.152 160.189 75.576C158.413 75 156.949 74.088 155.797 72.84ZM170.989 43.608C170.461 44.472 169.957 45.648 169.477 47.136C168.997 48.576 168.349 51.264 167.533 55.2C166.765 59.088 166.381 62.424 166.381 65.208C166.381 67.992 166.597 69.792 167.029 70.608C167.461 71.424 168.061 71.832 168.829 71.832C170.365 71.832 171.685 71.112 172.789 69.672C173.941 68.184 174.733 66.144 175.165 63.552L178.981 42.456C177.973 41.592 176.869 41.16 175.669 41.16C174.517 41.16 173.581 41.352 172.861 41.736C172.189 42.12 171.565 42.744 170.989 43.608ZM228.368 76.44C222.56 76.44 219.656 74.184 219.656 69.672C219.704 68.424 219.92 66.744 220.304 64.632L221.6 58.008C222.896 51.768 223.544 47.952 223.544 46.56C223.544 43.776 222.728 42.384 221.096 42.384C218.36 42.384 216.272 45.96 214.832 53.112L210.584 75L196.111 76.44L203.6 38.208L215.408 36.84L214.256 43.896C216.512 39.192 221.096 36.84 228.008 36.84C231.368 36.84 233.744 37.56 235.136 39C236.576 40.392 237.296 42.672 237.296 45.84C237.296 48.816 236.528 53.784 234.992 60.744C234.272 63.864 233.912 66.024 233.912 67.224C233.912 68.376 234.224 69.288 234.848 69.96C235.52 70.632 236.336 71.016 237.296 71.112C236.816 72.744 235.736 74.04 234.056 75C232.424 75.96 230.528 76.44 228.368 76.44ZM271.132 33.24C271.804 32.088 272.14 30.888 272.14 29.64C272.14 27.432 271.468 26.328 270.124 26.328C268.06 26.328 266.596 28.44 265.732 32.664L264.652 38.28H271.204L270.772 41.52H264.004L257.524 75L242.98 76.44L249.892 41.52H244.78L245.428 38.28H250.468L251.98 32.592C252.844 29.088 255.124 26.52 258.82 24.888C261.508 23.736 265.108 23.16 269.62 23.16C274.132 23.16 277.396 23.736 279.412 24.888C281.428 26.04 282.436 27.384 282.436 28.92C282.436 30.456 281.836 31.704 280.636 32.664C279.436 33.624 278.164 34.104 276.82 34.104C274.18 34.104 272.284 33.816 271.132 33.24ZM294.012 71.04C292.524 74.64 289.404 76.44 284.652 76.44C282.204 76.44 280.212 75.6 278.676 73.92C277.38 72.432 276.732 70.944 276.732 69.456C276.732 65.568 277.62 59.832 279.396 52.248L282.06 38.28L296.676 36.84L292.284 59.592C291.468 63.144 291.06 65.544 291.06 66.792C291.06 69.528 292.044 70.944 294.012 71.04ZM283.356 28.272C283.356 26.4 284.124 24.96 285.66 23.952C287.244 22.944 289.164 22.44 291.42 22.44C293.676 22.44 295.476 22.944 296.82 23.952C298.212 24.96 298.908 26.4 298.908 28.272C298.908 30.144 298.14 31.56 296.604 32.52C295.116 33.48 293.244 33.96 290.988 33.96C288.732 33.96 286.884 33.48 285.444 32.52C284.052 31.56 283.356 30.144 283.356 28.272ZM301.298 67.8C301.298 66.504 301.634 64.224 302.306 60.96L306.122 41.52H301.874L302.162 39.36C307.922 37.632 313.586 34.656 319.154 30.432H322.61L320.882 38.28H326.498L325.85 41.52H320.306L316.634 60.96C316.01 63.936 315.698 65.928 315.698 66.936C315.698 69.24 316.706 70.632 318.722 71.112C318.242 72.744 317.138 74.04 315.41 75C313.682 75.96 311.594 76.44 309.146 76.44C306.698 76.44 304.778 75.672 303.386 74.136C301.994 72.6 301.298 70.488 301.298 67.8Z" fill="white"/>
</g>
<defs>
<clipPath id="clip0">
<rect width="378" height="107" fill="white"/>
</clipPath>
</defs>
</svg>
