<svg width="378" height="106" viewBox="0 0 378 106" fill="none" xmlns="http://www.w3.org/2000/svg">
<path d="M15.0381 7.20024e-05L377.999 0L367.556 105.816L0 105.817L15.0381 7.20024e-05Z" fill="#ECFF6B"/>
<path d="M48.3362 71.7006C46.0322 74.6766 42.0242 76.1646 36.3122 76.1646C33.3362 76.1646 30.7682 75.2766 28.6082 73.5006C26.4482 71.6766 25.3682 69.4686 25.3682 66.8766C25.3682 65.4366 25.4402 64.3566 25.5842 63.6366L30.4082 38.0046L45.0242 36.5646L39.7682 64.3566C39.5762 65.4126 39.4802 66.2526 39.4802 66.8766C39.4802 69.6606 40.3202 71.0526 42.0002 71.0526C43.8722 71.0526 45.4802 69.7806 46.8242 67.2366C47.2562 66.4206 47.5682 65.4846 47.7602 64.4286L52.8722 38.0046L67.0562 36.5646L61.7282 64.6446C61.5842 65.3646 61.5122 66.1086 61.5122 66.8766C61.5122 67.6446 61.7282 68.4606 62.1602 69.3246C62.5922 70.1406 63.5042 70.6446 64.8962 70.8366C64.6082 71.9886 63.9602 72.9486 62.9522 73.7166C60.8402 75.3486 58.6322 76.1646 56.3282 76.1646C54.0722 76.1646 52.2722 75.7566 50.9282 74.9406C49.5842 74.1246 48.7202 73.0446 48.3362 71.7006ZM93.4633 54.4926C95.1913 51.4206 96.0553 48.3246 96.0553 45.2046C96.0553 43.1406 95.3113 42.1086 93.8233 42.1086C92.6713 42.1086 91.4953 43.0926 90.2953 45.0606C89.0473 47.0286 88.2313 49.2846 87.8473 51.8286L84.1033 74.7246L69.1993 76.1646L76.5433 38.0046L88.4233 36.5646L87.1273 43.8366C89.4793 38.9886 93.2953 36.5646 98.5753 36.5646C101.359 36.5646 103.495 37.2846 104.983 38.7246C106.519 40.1646 107.287 42.3726 107.287 45.3486C107.287 48.2766 106.303 50.6766 104.335 52.5486C102.415 54.4206 99.7993 55.3566 96.4873 55.3566C95.0473 55.3566 94.0393 55.0686 93.4633 54.4926ZM107.538 71.2686L116.466 24.3246L131.082 22.8846L128.85 33.9006C128.322 36.1566 127.722 38.0766 127.05 39.6606C128.106 38.3166 129.786 37.3806 132.09 36.8526C132.762 36.6606 133.506 36.5646 134.322 36.5646C138.786 36.5646 142.242 37.9326 144.69 40.6686C147.138 43.3566 148.362 47.3166 148.362 52.5486C148.362 59.3646 146.418 64.9086 142.53 69.1806C138.354 73.8366 132.474 76.1646 124.89 76.1646C119.658 76.1646 115.074 75.3006 111.138 73.5726C109.746 72.9486 108.546 72.1806 107.538 71.2686ZM122.01 70.6206C123.018 71.4846 124.146 71.9166 125.394 71.9166C126.642 71.9166 127.626 71.6766 128.346 71.1966C129.066 70.7166 129.69 69.9966 130.218 69.0366C131.658 66.4446 132.954 61.1886 134.106 53.2686C134.442 51.0126 134.61 48.7566 134.61 46.5006C134.61 44.2446 134.346 42.7566 133.818 42.0366C133.338 41.3166 132.618 40.9566 131.658 40.9566C128.73 40.9566 126.786 43.8126 125.826 49.5246L122.01 70.6206ZM155.797 72.5646C154.693 71.3166 153.877 69.7086 153.349 67.7406C152.869 65.7726 152.629 63.1806 152.629 59.9646C152.629 56.7486 153.181 53.6766 154.285 50.7486C155.389 47.8206 156.949 45.3006 158.965 43.1886C163.093 38.7726 168.565 36.5646 175.381 36.5646C177.829 36.5646 179.941 36.9726 181.717 37.7886L194.029 36.5646L188.701 64.6446C188.557 65.2206 188.485 66.0366 188.485 67.0926C188.485 68.1486 188.797 69.0126 189.421 69.6846C190.093 70.3566 190.909 70.7406 191.869 70.8366C191.389 72.4686 190.261 73.7646 188.485 74.7246C186.757 75.6846 184.909 76.1646 182.941 76.1646C180.973 76.1646 179.317 75.7806 177.973 75.0126C176.677 74.2926 175.837 73.3086 175.453 72.0606C174.685 73.2606 173.485 74.2446 171.853 75.0126C170.221 75.7806 168.301 76.1646 166.093 76.1646C163.933 76.1646 161.965 75.8766 160.189 75.3006C158.413 74.7246 156.949 73.8126 155.797 72.5646ZM170.989 43.3326C170.461 44.1966 169.957 45.3726 169.477 46.8606C168.997 48.3006 168.349 50.9886 167.533 54.9246C166.765 58.8126 166.381 62.1486 166.381 64.9326C166.381 67.7166 166.597 69.5166 167.029 70.3326C167.461 71.1486 168.061 71.5566 168.829 71.5566C170.365 71.5566 171.685 70.8366 172.789 69.3966C173.941 67.9086 174.733 65.8686 175.165 63.2766L178.981 42.1806C177.973 41.3166 176.869 40.8846 175.669 40.8846C174.517 40.8846 173.581 41.0766 172.861 41.4606C172.189 41.8446 171.565 42.4686 170.989 43.3326ZM228.368 76.1646C222.56 76.1646 219.656 73.9086 219.656 69.3966C219.704 68.1486 219.92 66.4686 220.304 64.3566L221.6 57.7326C222.896 51.4926 223.544 47.6766 223.544 46.2846C223.544 43.5006 222.728 42.1086 221.096 42.1086C218.36 42.1086 216.272 45.6846 214.832 52.8366L210.584 74.7246L196.111 76.1646L203.6 37.9326L215.408 36.5646L214.256 43.6206C216.512 38.9166 221.096 36.5646 228.008 36.5646C231.368 36.5646 233.744 37.2846 235.136 38.7246C236.576 40.1166 237.296 42.3966 237.296 45.5646C237.296 48.5406 236.528 53.5086 234.992 60.4686C234.272 63.5886 233.912 65.7486 233.912 66.9486C233.912 68.1006 234.224 69.0126 234.848 69.6846C235.52 70.3566 236.336 70.7406 237.296 70.8366C236.816 72.4686 235.736 73.7646 234.056 74.7246C232.424 75.6846 230.528 76.1646 228.368 76.1646ZM271.132 32.9646C271.804 31.8126 272.14 30.6126 272.14 29.3646C272.14 27.1566 271.468 26.0526 270.124 26.0526C268.06 26.0526 266.596 28.1646 265.732 32.3886L264.652 38.0046H271.204L270.772 41.2446H264.004L257.524 74.7246L242.98 76.1646L249.892 41.2446H244.78L245.428 38.0046H250.468L251.98 32.3166C252.844 28.8126 255.124 26.2446 258.82 24.6126C261.508 23.4606 265.108 22.8846 269.62 22.8846C274.132 22.8846 277.396 23.4606 279.412 24.6126C281.428 25.7646 282.436 27.1086 282.436 28.6446C282.436 30.1806 281.836 31.4286 280.636 32.3886C279.436 33.3486 278.164 33.8286 276.82 33.8286C274.18 33.8286 272.284 33.5406 271.132 32.9646ZM294.012 70.7646C292.524 74.3646 289.404 76.1646 284.652 76.1646C282.204 76.1646 280.212 75.3246 278.676 73.6446C277.38 72.1566 276.732 70.6686 276.732 69.1806C276.732 65.2926 277.62 59.5566 279.396 51.9726L282.06 38.0046L296.676 36.5646L292.284 59.3166C291.468 62.8686 291.06 65.2686 291.06 66.5166C291.06 69.2526 292.044 70.6686 294.012 70.7646ZM283.356 27.9966C283.356 26.1246 284.124 24.6846 285.66 23.6766C287.244 22.6686 289.164 22.1646 291.42 22.1646C293.676 22.1646 295.476 22.6686 296.82 23.6766C298.212 24.6846 298.908 26.1246 298.908 27.9966C298.908 29.8686 298.14 31.2846 296.604 32.2446C295.116 33.2046 293.244 33.6846 290.988 33.6846C288.732 33.6846 286.884 33.2046 285.444 32.2446C284.052 31.2846 283.356 29.8686 283.356 27.9966ZM301.298 67.5246C301.298 66.2286 301.634 63.9486 302.306 60.6846L306.122 41.2446H301.874L302.162 39.0846C307.922 37.3566 313.586 34.3806 319.154 30.1566H322.61L320.882 38.0046H326.498L325.85 41.2446H320.306L316.634 60.6846C316.01 63.6606 315.698 65.6526 315.698 66.6606C315.698 68.9646 316.706 70.3566 318.722 70.8366C318.242 72.4686 317.138 73.7646 315.41 74.7246C313.682 75.6846 311.594 76.1646 309.146 76.1646C306.698 76.1646 304.778 75.3966 303.386 73.8606C301.994 72.3246 301.298 70.2126 301.298 67.5246Z" fill="#021210"/>
</svg>
