<svg height="496pt" viewBox="-104 0 496 496" width="496pt" xmlns="http://www.w3.org/2000/svg"><path d="m248 0h-208c-22.082031.0273438-39.9726562 17.917969-40 40v416c.0273438 22.082031 17.917969 39.972656 40 40h208c22.082031-.027344 39.972656-17.917969 40-40v-416c-.027344-22.082031-17.917969-39.9726562-40-40zm-50.246094 16-4 16h-99.507812l-4-16zm74.246094 440c0 13.253906-10.746094 24-24 24h-208c-13.253906 0-24-10.746094-24-24v-416c0-13.253906 10.746094-24 24-24h33.753906l6.484375 25.9375c.890625 3.5625 4.089844 6.0625 7.761719 6.0625h112c3.671875 0 6.871094-2.5 7.761719-6.0625l6.484375-25.9375h33.753906c13.253906 0 24 10.746094 24 24zm0 0"/><path d="m80 440h-48c-4.417969 0-8 3.582031-8 8s3.582031 8 8 8h48c4.417969 0 8-3.582031 8-8s-3.582031-8-8-8zm0 0"/><path d="m120 440h-16c-4.417969 0-8 3.582031-8 8s3.582031 8 8 8h16c4.417969 0 8-3.582031 8-8s-3.582031-8-8-8zm0 0"/><path d="m240 166.089844h-67.519531l-20.871094-64.226563c-1.082031-3.28125-4.144531-5.5-7.601563-5.5-3.457031 0-6.519531 2.21875-7.601562 5.5l-20.886719 64.226563h-67.519531c-3.460938.003906-6.527344 2.230468-7.597656 5.523437-1.070313 3.292969.097656 6.898438 2.894531 8.9375l54.632813 39.695313-20.875 64.226562c-1.066407 3.292969.109374 6.902344 2.914062 8.9375s6.597656 2.03125 9.398438-.003906l54.632812-39.679688 54.632812 39.679688c2.800782 2.035156 6.59375 2.039062 9.398438.003906s3.980469-5.644531 2.914062-8.9375l-20.875-64.226562 54.632813-39.695313c2.796875-2.039062 3.964844-5.644531 2.894531-8.9375-1.070312-3.292969-4.136718-5.519531-7.597656-5.523437zm-64 44.636718c-2.800781 2.035157-3.976562 5.640626-2.910156 8.9375l15.054687 46.328126-39.410156-28.625c-2.804687-2.039063-6.601563-2.039063-9.40625 0l-39.40625 28.625 15.054687-46.328126c1.050782-3.308593-.152343-6.917968-2.976562-8.9375l-39.40625-28.636718h48.710938c3.46875-.003906 6.539062-2.238282 7.605468-5.539063l15.089844-46.328125 15.054688 46.328125c1.070312 3.300781 4.140624 5.535157 7.609374 5.539063h48.710938zm0 0"/><path d="m232 320h-16.238281c-4.421875 0-8 3.582031-8 8s3.578125 8 8 8h16.238281c4.417969 0 8-3.582031 8-8s-3.582031-8-8-8zm0 0"/><path d="m56 336h136c4.417969 0 8-3.582031 8-8s-3.582031-8-8-8h-136c-4.417969 0-8 3.582031-8 8s3.582031 8 8 8zm0 0"/><path d="m232 344h-80c-4.417969 0-8 3.582031-8 8s3.582031 8 8 8h80c4.417969 0 8-3.582031 8-8s-3.582031-8-8-8zm0 0"/><path d="m56 360h72.167969c4.417969 0 8-3.582031 8-8s-3.582031-8-8-8h-72.167969c-4.417969 0-8 3.582031-8 8s3.582031 8 8 8zm0 0"/><path d="m200 368h-144c-4.417969 0-8 3.582031-8 8s3.582031 8 8 8h144c4.417969 0 8-3.582031 8-8s-3.582031-8-8-8zm0 0"/></svg>